ISO-10303-21;
HEADER;
FILE_DESCRIPTION(('FreeCAD Model'),'2;1');
FILE_NAME('Open CASCADE Shape Model','2026-07-18T21:45:20',(''),(''),
  'Open CASCADE STEP processor 7.8','FreeCAD','Unknown');
FILE_SCHEMA(('AUTOMOTIVE_DESIGN { 1 0 10303 214 1 1 1 1 }'));
ENDSEC;
DATA;
#1 = APPLICATION_PROTOCOL_DEFINITION('international standard',
  'automotive_design',2000,#2);
#2 = APPLICATION_CONTEXT(
  'core data for automotive mechanical design processes');
#3 = SHAPE_DEFINITION_REPRESENTATION(#4,#10);
#4 = PRODUCT_DEFINITION_SHAPE('','',#5);
#5 = PRODUCT_DEFINITION('design','',#6,#9);
#6 = PRODUCT_DEFINITION_FORMATION('','',#7);
#7 = PRODUCT('TopPinArmPin','TopPinArmPin','',(#8));
#8 = PRODUCT_CONTEXT('',#2,'mechanical');
#9 = PRODUCT_DEFINITION_CONTEXT('part definition',#2,'design');
#10 = ADVANCED_BREP_SHAPE_REPRESENTATION('',(#11,#15),#825);
#11 = AXIS2_PLACEMENT_3D('',#12,#13,#14);
#12 = CARTESIAN_POINT('',(0.,0.,0.));
#13 = DIRECTION('',(0.,0.,1.));
#14 = DIRECTION('',(1.,0.,-0.));
#15 = MANIFOLD_SOLID_BREP('',#16);
#16 = CLOSED_SHELL('',(#17,#137,#218,#299,#404,#453,#507,#556,#661,#688,
    #737,#764,#791,#818));
#17 = ADVANCED_FACE('',(#18),#32,.F.);
#18 = FACE_BOUND('',#19,.F.);
#19 = EDGE_LOOP('',(#20,#55,#83,#111));
#20 = ORIENTED_EDGE('',*,*,#21,.T.);
#21 = EDGE_CURVE('',#22,#24,#26,.T.);
#22 = VERTEX_POINT('',#23);
#23 = CARTESIAN_POINT('',(-8.961006118541E-16,2.987002039514E-16,
    2.690452254422));
#24 = VERTEX_POINT('',#25);
#25 = CARTESIAN_POINT('',(17.,-2.726657538152E-15,2.690452254422));
#26 = SURFACE_CURVE('',#27,(#31,#43),.PCURVE_S1.);
#27 = LINE('',#28,#29);
#28 = CARTESIAN_POINT('',(-8.961006118541E-16,2.987002039514E-16,
    2.690452254422));
#29 = VECTOR('',#30,1.);
#30 = DIRECTION('',(1.,-2.22044604925E-16,1.110223024625E-16));
#31 = PCURVE('',#32,#37);
#32 = PLANE('',#33);
#33 = AXIS2_PLACEMENT_3D('',#34,#35,#36);
#34 = CARTESIAN_POINT('',(-8.961006118541E-16,2.987002039514E-16,
    2.690452254422));
#35 = DIRECTION('',(2.071704367816E-16,0.5,-0.866025403785));
#36 = DIRECTION('',(1.665334536936E-16,-0.866025403785,-0.5));
#37 = DEFINITIONAL_REPRESENTATION('',(#38),#42);
#38 = LINE('',#39,#40);
#39 = CARTESIAN_POINT('',(0.,-0.));
#40 = VECTOR('',#41,1.);
#41 = DIRECTION('',(3.033185711008E-16,-1.));
#42 = ( GEOMETRIC_REPRESENTATION_CONTEXT(2) 
PARAMETRIC_REPRESENTATION_CONTEXT() REPRESENTATION_CONTEXT('2D SPACE',''
  ) );
#43 = PCURVE('',#44,#49);
#44 = PLANE('',#45);
#45 = AXIS2_PLACEMENT_3D('',#46,#47,#48);
#46 = CARTESIAN_POINT('',(-4.480503059272E-16,2.33,1.345226127211));
#47 = DIRECTION('',(-1.487416814323E-17,-0.5,-0.866025403785));
#48 = DIRECTION('',(-1.665334536937E-16,-0.866025403785,0.5));
#49 = DEFINITIONAL_REPRESENTATION('',(#50),#54);
#50 = LINE('',#51,#52);
#51 = CARTESIAN_POINT('',(2.690452254423,4.930380657631E-32));
#52 = VECTOR('',#53,1.);
#53 = DIRECTION('',(8.127396617597E-17,-1.));
#54 = ( GEOMETRIC_REPRESENTATION_CONTEXT(2) 
PARAMETRIC_REPRESENTATION_CONTEXT() REPRESENTATION_CONTEXT('2D SPACE',''
  ) );
#55 = ORIENTED_EDGE('',*,*,#56,.T.);
#56 = EDGE_CURVE('',#24,#57,#59,.T.);
#57 = VERTEX_POINT('',#58);
#58 = CARTESIAN_POINT('',(17.,-2.33,1.345226127212));
#59 = SURFACE_CURVE('',#60,(#64,#71),.PCURVE_S1.);
#60 = LINE('',#61,#62);
#61 = CARTESIAN_POINT('',(17.,-3.738739667787E-15,2.690452254422));
#62 = VECTOR('',#63,1.);
#63 = DIRECTION('',(1.665334536936E-16,-0.866025403785,-0.5));
#64 = PCURVE('',#32,#65);
#65 = DEFINITIONAL_REPRESENTATION('',(#66),#70);
#66 = LINE('',#67,#68);
#67 = CARTESIAN_POINT('',(5.590710373307E-15,-17.));
#68 = VECTOR('',#69,1.);
#69 = DIRECTION('',(1.,-2.465190328816E-32));
#70 = ( GEOMETRIC_REPRESENTATION_CONTEXT(2) 
PARAMETRIC_REPRESENTATION_CONTEXT() REPRESENTATION_CONTEXT('2D SPACE',''
  ) );
#71 = PCURVE('',#72,#77);
#72 = PLANE('',#73);
#73 = AXIS2_PLACEMENT_3D('',#74,#75,#76);
#74 = CARTESIAN_POINT('',(17.5,0.25,2.25743955253));
#75 = DIRECTION('',(-0.707106781187,0.353553390593,-0.612372435696));
#76 = DIRECTION('',(5.363637857921E-29,0.866025403785,0.5));
#77 = DEFINITIONAL_REPRESENTATION('',(#78),#82);
#78 = LINE('',#79,#80);
#79 = CARTESIAN_POINT('',(3.053113317719E-16,-0.707106781187));
#80 = VECTOR('',#81,1.);
#81 = DIRECTION('',(-1.,0.));
#82 = ( GEOMETRIC_REPRESENTATION_CONTEXT(2) 
PARAMETRIC_REPRESENTATION_CONTEXT() REPRESENTATION_CONTEXT('2D SPACE',''
  ) );
#83 = ORIENTED_EDGE('',*,*,#84,.F.);
#84 = EDGE_CURVE('',#85,#57,#87,.T.);
#85 = VERTEX_POINT('',#86);
#86 = CARTESIAN_POINT('',(-4.480503059273E-16,-2.33,1.345226127212));
#87 = SURFACE_CURVE('',#88,(#92,#99),.PCURVE_S1.);
#88 = LINE('',#89,#90);
#89 = CARTESIAN_POINT('',(-4.480503059273E-16,-2.33,1.345226127212));
#90 = VECTOR('',#91,1.);
#91 = DIRECTION('',(1.,-2.22044604925E-16,1.110223024625E-16));
#92 = PCURVE('',#32,#93);
#93 = DEFINITIONAL_REPRESENTATION('',(#94),#98);
#94 = LINE('',#95,#96);
#95 = CARTESIAN_POINT('',(2.690452254423,4.930380657631E-32));
#96 = VECTOR('',#97,1.);
#97 = DIRECTION('',(3.033185711008E-16,-1.));
#98 = ( GEOMETRIC_REPRESENTATION_CONTEXT(2) 
PARAMETRIC_REPRESENTATION_CONTEXT() REPRESENTATION_CONTEXT('2D SPACE',''
  ) );
#99 = PCURVE('',#100,#105);
#100 = PLANE('',#101);
#101 = AXIS2_PLACEMENT_3D('',#102,#103,#104);
#102 = CARTESIAN_POINT('',(-4.480503059273E-16,-2.33,1.345226127212));
#103 = DIRECTION('',(2.220446049252E-16,1.,-1.818589985038E-12));
#104 = DIRECTION('',(3.330669073875E-16,-1.818589985038E-12,-1.));
#105 = DEFINITIONAL_REPRESENTATION('',(#106),#110);
#106 = LINE('',#107,#108);
#107 = CARTESIAN_POINT('',(0.,0.));
#108 = VECTOR('',#109,1.);
#109 = DIRECTION('',(2.220446049254E-16,-1.));
#110 = ( GEOMETRIC_REPRESENTATION_CONTEXT(2) 
PARAMETRIC_REPRESENTATION_CONTEXT() REPRESENTATION_CONTEXT('2D SPACE',''
  ) );
#111 = ORIENTED_EDGE('',*,*,#112,.F.);
#112 = EDGE_CURVE('',#22,#85,#113,.T.);
#113 = SURFACE_CURVE('',#114,(#118,#125),.PCURVE_S1.);
#114 = LINE('',#115,#116);
#115 = CARTESIAN_POINT('',(-1.493501019757E-15,-2.987002039514E-16,
    2.690452254422));
#116 = VECTOR('',#117,1.);
#117 = DIRECTION('',(4.698520247944E-16,-0.866025403785,-0.5));
#118 = PCURVE('',#32,#119);
#119 = DEFINITIONAL_REPRESENTATION('',(#120),#124);
#120 = LINE('',#121,#122);
#121 = CARTESIAN_POINT('',(-1.115774139746E-16,5.974004079028E-16));
#122 = VECTOR('',#123,1.);
#123 = DIRECTION('',(1.,-3.033185711008E-16));
#124 = ( GEOMETRIC_REPRESENTATION_CONTEXT(2) 
PARAMETRIC_REPRESENTATION_CONTEXT() REPRESENTATION_CONTEXT('2D SPACE',''
  ) );
#125 = PCURVE('',#126,#131);
#126 = PLANE('',#127);
#127 = AXIS2_PLACEMENT_3D('',#128,#129,#130);
#128 = CARTESIAN_POINT('',(2.605790444557E-27,-1.49655465149E-12,
    -4.095552889448E-12));
#129 = DIRECTION('',(1.,-4.440892098501E-16,-1.110223024625E-16));
#130 = DIRECTION('',(-5.551115123126E-16,-1.110223024625E-16,1.));
#131 = DEFINITIONAL_REPRESENTATION('',(#132),#136);
#132 = LINE('',#133,#134);
#133 = CARTESIAN_POINT('',(2.690452254426,-1.495359850675E-12));
#134 = VECTOR('',#135,1.);
#135 = DIRECTION('',(-0.5,0.866025403785));
#136 = ( GEOMETRIC_REPRESENTATION_CONTEXT(2) 
PARAMETRIC_REPRESENTATION_CONTEXT() REPRESENTATION_CONTEXT('2D SPACE',''
  ) );
#137 = ADVANCED_FACE('',(#138),#44,.F.);
#138 = FACE_BOUND('',#139,.F.);
#139 = EDGE_LOOP('',(#140,#170,#196,#197));
#140 = ORIENTED_EDGE('',*,*,#141,.T.);
#141 = EDGE_CURVE('',#142,#144,#146,.T.);
#142 = VERTEX_POINT('',#143);
#143 = CARTESIAN_POINT('',(-4.480503059272E-16,2.33,1.345226127211));
#144 = VERTEX_POINT('',#145);
#145 = CARTESIAN_POINT('',(17.,2.33,1.345226127211));
#146 = SURFACE_CURVE('',#147,(#151,#158),.PCURVE_S1.);
#147 = LINE('',#148,#149);
#148 = CARTESIAN_POINT('',(-4.480503059272E-16,2.33,1.345226127211));
#149 = VECTOR('',#150,1.);
#150 = DIRECTION('',(1.,-2.22044604925E-16,1.110223024625E-16));
#151 = PCURVE('',#44,#152);
#152 = DEFINITIONAL_REPRESENTATION('',(#153),#157);
#153 = LINE('',#154,#155);
#154 = CARTESIAN_POINT('',(0.,0.));
#155 = VECTOR('',#156,1.);
#156 = DIRECTION('',(8.127396617597E-17,-1.));
#157 = ( GEOMETRIC_REPRESENTATION_CONTEXT(2) 
PARAMETRIC_REPRESENTATION_CONTEXT() REPRESENTATION_CONTEXT('2D SPACE',''
  ) );
#158 = PCURVE('',#159,#164);
#159 = PLANE('',#160);
#160 = AXIS2_PLACEMENT_3D('',#161,#162,#163);
#161 = CARTESIAN_POINT('',(4.480503059271E-16,2.33,-1.345226127211));
#162 = DIRECTION('',(-2.22044604925E-16,-1.,-1.82446637023E-13));
#163 = DIRECTION('',(-3.330669073875E-16,-1.82446637023E-13,1.));
#164 = DEFINITIONAL_REPRESENTATION('',(#165),#169);
#165 = LINE('',#166,#167);
#166 = CARTESIAN_POINT('',(2.690452254422,-1.972152263053E-31));
#167 = VECTOR('',#168,1.);
#168 = DIRECTION('',(-2.22044604925E-16,-1.));
#169 = ( GEOMETRIC_REPRESENTATION_CONTEXT(2) 
PARAMETRIC_REPRESENTATION_CONTEXT() REPRESENTATION_CONTEXT('2D SPACE',''
  ) );
#170 = ORIENTED_EDGE('',*,*,#171,.T.);
#171 = EDGE_CURVE('',#144,#24,#172,.T.);
#172 = SURFACE_CURVE('',#173,(#177,#184),.PCURVE_S1.);
#173 = LINE('',#174,#175);
#174 = CARTESIAN_POINT('',(17.,2.33,1.345226127211));
#175 = VECTOR('',#176,1.);
#176 = DIRECTION('',(-1.665334536937E-16,-0.866025403785,0.5));
#177 = PCURVE('',#44,#178);
#178 = DEFINITIONAL_REPRESENTATION('',(#179),#183);
#179 = LINE('',#180,#181);
#180 = CARTESIAN_POINT('',(1.133850005122E-15,-17.));
#181 = VECTOR('',#182,1.);
#182 = DIRECTION('',(1.,-3.08148791102E-32));
#183 = ( GEOMETRIC_REPRESENTATION_CONTEXT(2) 
PARAMETRIC_REPRESENTATION_CONTEXT() REPRESENTATION_CONTEXT('2D SPACE',''
  ) );
#184 = PCURVE('',#185,#190);
#185 = PLANE('',#186);
#186 = AXIS2_PLACEMENT_3D('',#187,#188,#189);
#187 = CARTESIAN_POINT('',(17.5,2.08,0.912213425319));
#188 = DIRECTION('',(-0.707106781187,-0.353553390593,-0.612372435696));
#189 = DIRECTION('',(2.775557561562E-16,0.866025403785,-0.5));
#190 = DEFINITIONAL_REPRESENTATION('',(#191),#195);
#191 = LINE('',#192,#193);
#192 = CARTESIAN_POINT('',(-2.22044604925E-16,-0.707106781187));
#193 = VECTOR('',#194,1.);
#194 = DIRECTION('',(-1.,-5.551115123126E-17));
#195 = ( GEOMETRIC_REPRESENTATION_CONTEXT(2) 
PARAMETRIC_REPRESENTATION_CONTEXT() REPRESENTATION_CONTEXT('2D SPACE',''
  ) );
#196 = ORIENTED_EDGE('',*,*,#21,.F.);
#197 = ORIENTED_EDGE('',*,*,#198,.F.);
#198 = EDGE_CURVE('',#142,#22,#199,.T.);
#199 = SURFACE_CURVE('',#200,(#204,#211),.PCURVE_S1.);
#200 = LINE('',#201,#202);
#201 = CARTESIAN_POINT('',(-1.264114439354E-15,2.33,1.345226127211));
#202 = VECTOR('',#203,1.);
#203 = DIRECTION('',(-8.525948751769E-17,-0.866025403785,0.5));
#204 = PCURVE('',#44,#205);
#205 = DEFINITIONAL_REPRESENTATION('',(#206),#210);
#206 = LINE('',#207,#208);
#207 = CARTESIAN_POINT('',(-4.956148397392E-16,8.160641334268E-16));
#208 = VECTOR('',#209,1.);
#209 = DIRECTION('',(1.,-8.127396617597E-17));
#210 = ( GEOMETRIC_REPRESENTATION_CONTEXT(2) 
PARAMETRIC_REPRESENTATION_CONTEXT() REPRESENTATION_CONTEXT('2D SPACE',''
  ) );
#211 = PCURVE('',#126,#212);
#212 = DEFINITIONAL_REPRESENTATION('',(#213),#217);
#213 = LINE('',#214,#215);
#214 = CARTESIAN_POINT('',(1.345226127215,-2.330000000001));
#215 = VECTOR('',#216,1.);
#216 = DIRECTION('',(0.5,0.866025403785));
#217 = ( GEOMETRIC_REPRESENTATION_CONTEXT(2) 
PARAMETRIC_REPRESENTATION_CONTEXT() REPRESENTATION_CONTEXT('2D SPACE',''
  ) );
#218 = ADVANCED_FACE('',(#219),#72,.F.);
#219 = FACE_BOUND('',#220,.T.);
#220 = EDGE_LOOP('',(#221,#244,#245,#273));
#221 = ORIENTED_EDGE('',*,*,#222,.F.);
#222 = EDGE_CURVE('',#24,#223,#225,.T.);
#223 = VERTEX_POINT('',#224);
#224 = CARTESIAN_POINT('',(18.,-8.756487182948E-14,1.535751716043));
#225 = SURFACE_CURVE('',#226,(#230,#237),.PCURVE_S1.);
#226 = LINE('',#227,#228);
#227 = CARTESIAN_POINT('',(17.761428571428,-6.759190648597E-14,
    1.811230273056));
#228 = VECTOR('',#229,1.);
#229 = DIRECTION('',(0.654653670708,-5.438338191114E-14,-0.755928946018)
  );
#230 = PCURVE('',#72,#231);
#231 = DEFINITIONAL_REPRESENTATION('',(#232),#236);
#232 = LINE('',#233,#234);
#233 = CARTESIAN_POINT('',(-0.439610990682,0.369715831306));
#234 = VECTOR('',#235,1.);
#235 = DIRECTION('',(-0.377964473009,0.925820099773));
#236 = ( GEOMETRIC_REPRESENTATION_CONTEXT(2) 
PARAMETRIC_REPRESENTATION_CONTEXT() REPRESENTATION_CONTEXT('2D SPACE',''
  ) );
#237 = PCURVE('',#185,#238);
#238 = DEFINITIONAL_REPRESENTATION('',(#239),#243);
#239 = LINE('',#240,#241);
#240 = CARTESIAN_POINT('',(-2.250841263741,0.369715831306));
#241 = VECTOR('',#242,1.);
#242 = DIRECTION('',(0.377964473009,0.925820099773));
#243 = ( GEOMETRIC_REPRESENTATION_CONTEXT(2) 
PARAMETRIC_REPRESENTATION_CONTEXT() REPRESENTATION_CONTEXT('2D SPACE',''
  ) );
#244 = ORIENTED_EDGE('',*,*,#56,.T.);
#245 = ORIENTED_EDGE('',*,*,#246,.T.);
#246 = EDGE_CURVE('',#57,#247,#249,.T.);
#247 = VERTEX_POINT('',#248);
#248 = CARTESIAN_POINT('',(18.,-1.330000000001,0.767875858021));
#249 = SURFACE_CURVE('',#250,(#254,#261),.PCURVE_S1.);
#250 = LINE('',#251,#252);
#251 = CARTESIAN_POINT('',(17.761428571428,-1.568571428573,
    0.905615136528));
#252 = VECTOR('',#253,1.);
#253 = DIRECTION('',(0.654653670708,0.654653670707,-0.37796447301));
#254 = PCURVE('',#72,#255);
#255 = DEFINITIONAL_REPRESENTATION('',(#256),#260);
#256 = LINE('',#257,#258);
#257 = CARTESIAN_POINT('',(-2.250841263741,0.369715831306));
#258 = VECTOR('',#259,1.);
#259 = DIRECTION('',(0.377964473009,0.925820099773));
#260 = ( GEOMETRIC_REPRESENTATION_CONTEXT(2) 
PARAMETRIC_REPRESENTATION_CONTEXT() REPRESENTATION_CONTEXT('2D SPACE',''
  ) );
#261 = PCURVE('',#262,#267);
#262 = PLANE('',#263);
#263 = AXIS2_PLACEMENT_3D('',#264,#265,#266);
#264 = CARTESIAN_POINT('',(17.5,-1.83,1.345226127211));
#265 = DIRECTION('',(-0.707106781187,0.707106781187,-1.285987732462E-12)
  );
#266 = DIRECTION('',(-2.021870817052E-16,1.818459105212E-12,1.));
#267 = DEFINITIONAL_REPRESENTATION('',(#268),#272);
#268 = LINE('',#269,#270);
#269 = CARTESIAN_POINT('',(-0.439610990682,0.369715831306));
#270 = VECTOR('',#271,1.);
#271 = DIRECTION('',(-0.377964473009,0.925820099773));
#272 = ( GEOMETRIC_REPRESENTATION_CONTEXT(2) 
PARAMETRIC_REPRESENTATION_CONTEXT() REPRESENTATION_CONTEXT('2D SPACE',''
  ) );
#273 = ORIENTED_EDGE('',*,*,#274,.F.);
#274 = EDGE_CURVE('',#223,#247,#275,.T.);
#275 = SURFACE_CURVE('',#276,(#280,#287),.PCURVE_S1.);
#276 = LINE('',#277,#278);
#277 = CARTESIAN_POINT('',(18.,0.5,1.824426850637));
#278 = VECTOR('',#279,1.);
#279 = DIRECTION('',(1.665334536936E-16,-0.866025403785,-0.5));
#280 = PCURVE('',#72,#281);
#281 = DEFINITIONAL_REPRESENTATION('',(#282),#286);
#282 = LINE('',#283,#284);
#283 = CARTESIAN_POINT('',(1.942890293094E-16,0.707106781187));
#284 = VECTOR('',#285,1.);
#285 = DIRECTION('',(-1.,0.));
#286 = ( GEOMETRIC_REPRESENTATION_CONTEXT(2) 
PARAMETRIC_REPRESENTATION_CONTEXT() REPRESENTATION_CONTEXT('2D SPACE',''
  ) );
#287 = PCURVE('',#288,#293);
#288 = PLANE('',#289);
#289 = AXIS2_PLACEMENT_3D('',#290,#291,#292);
#290 = CARTESIAN_POINT('',(18.,-1.500551454379E-12,-4.106937012693E-12)
  );
#291 = DIRECTION('',(1.,-4.440892098501E-16,-1.110223024625E-16));
#292 = DIRECTION('',(-5.551115123126E-16,-1.110223024625E-16,1.));
#293 = DEFINITIONAL_REPRESENTATION('',(#294),#298);
#294 = LINE('',#295,#296);
#295 = CARTESIAN_POINT('',(1.824426850641,-0.500000000001));
#296 = VECTOR('',#297,1.);
#297 = DIRECTION('',(-0.5,0.866025403785));
#298 = ( GEOMETRIC_REPRESENTATION_CONTEXT(2) 
PARAMETRIC_REPRESENTATION_CONTEXT() REPRESENTATION_CONTEXT('2D SPACE',''
  ) );
#299 = ADVANCED_FACE('',(#300),#126,.F.);
#300 = FACE_BOUND('',#301,.F.);
#301 = EDGE_LOOP('',(#302,#303,#326,#354,#382,#403));
#302 = ORIENTED_EDGE('',*,*,#112,.T.);
#303 = ORIENTED_EDGE('',*,*,#304,.T.);
#304 = EDGE_CURVE('',#85,#305,#307,.T.);
#305 = VERTEX_POINT('',#306);
#306 = CARTESIAN_POINT('',(4.480503059284E-16,-2.330000000005,
    -1.345226127215));
#307 = SURFACE_CURVE('',#308,(#312,#319),.PCURVE_S1.);
#308 = LINE('',#309,#310);
#309 = CARTESIAN_POINT('',(-2.293865804035E-16,-2.33,1.345226127212));
#310 = VECTOR('',#311,1.);
#311 = DIRECTION('',(5.55111512313E-16,-1.818367940433E-12,-1.));
#312 = PCURVE('',#126,#313);
#313 = DEFINITIONAL_REPRESENTATION('',(#314),#318);
#314 = LINE('',#315,#316);
#315 = CARTESIAN_POINT('',(1.345226127216,2.329999999999));
#316 = VECTOR('',#317,1.);
#317 = DIRECTION('',(-1.,1.818034873525E-12));
#318 = ( GEOMETRIC_REPRESENTATION_CONTEXT(2) 
PARAMETRIC_REPRESENTATION_CONTEXT() REPRESENTATION_CONTEXT('2D SPACE',''
  ) );
#319 = PCURVE('',#100,#320);
#320 = DEFINITIONAL_REPRESENTATION('',(#321),#325);
#321 = LINE('',#322,#323);
#322 = CARTESIAN_POINT('',(-1.110223024625E-15,-2.186637255238E-16));
#323 = VECTOR('',#324,1.);
#324 = DIRECTION('',(1.,-2.220446049254E-16));
#325 = ( GEOMETRIC_REPRESENTATION_CONTEXT(2) 
PARAMETRIC_REPRESENTATION_CONTEXT() REPRESENTATION_CONTEXT('2D SPACE',''
  ) );
#326 = ORIENTED_EDGE('',*,*,#327,.T.);
#327 = EDGE_CURVE('',#305,#328,#330,.T.);
#328 = VERTEX_POINT('',#329);
#329 = CARTESIAN_POINT('',(8.961006118578E-16,1.372391173623E-12,
    -2.690452254433));
#330 = SURFACE_CURVE('',#331,(#335,#342),.PCURVE_S1.);
#331 = LINE('',#332,#333);
#332 = CARTESIAN_POINT('',(1.264114439357E-15,-2.330000000005,
    -1.345226127215));
#333 = VECTOR('',#334,1.);
#334 = DIRECTION('',(8.525948751842E-17,0.866025403784,-0.500000000001)
  );
#335 = PCURVE('',#126,#336);
#336 = DEFINITIONAL_REPRESENTATION('',(#337),#341);
#337 = LINE('',#338,#339);
#338 = CARTESIAN_POINT('',(-1.345226127211,2.330000000004));
#339 = VECTOR('',#340,1.);
#340 = DIRECTION('',(-0.500000000001,-0.866025403784));
#341 = ( GEOMETRIC_REPRESENTATION_CONTEXT(2) 
PARAMETRIC_REPRESENTATION_CONTEXT() REPRESENTATION_CONTEXT('2D SPACE',''
  ) );
#342 = PCURVE('',#343,#348);
#343 = PLANE('',#344);
#344 = AXIS2_PLACEMENT_3D('',#345,#346,#347);
#345 = CARTESIAN_POINT('',(4.480503059284E-16,-2.330000000005,
    -1.345226127215));
#346 = DIRECTION('',(1.487416814354E-17,0.500000000001,0.866025403784));
#347 = DIRECTION('',(1.66533453694E-16,0.866025403784,-0.500000000001));
#348 = DEFINITIONAL_REPRESENTATION('',(#349),#353);
#349 = LINE('',#350,#351);
#350 = CARTESIAN_POINT('',(-4.956148397392E-16,-8.160641334287E-16));
#351 = VECTOR('',#352,1.);
#352 = DIRECTION('',(1.,8.127396617559E-17));
#353 = ( GEOMETRIC_REPRESENTATION_CONTEXT(2) 
PARAMETRIC_REPRESENTATION_CONTEXT() REPRESENTATION_CONTEXT('2D SPACE',''
  ) );
#354 = ORIENTED_EDGE('',*,*,#355,.T.);
#355 = EDGE_CURVE('',#328,#356,#358,.T.);
#356 = VERTEX_POINT('',#357);
#357 = CARTESIAN_POINT('',(4.480503059271E-16,2.33,-1.345226127211));
#358 = SURFACE_CURVE('',#359,(#363,#370),.PCURVE_S1.);
#359 = LINE('',#360,#361);
#360 = CARTESIAN_POINT('',(1.493501019763E-15,1.372998700204E-12,
    -2.690452254433));
#361 = VECTOR('',#362,1.);
#362 = DIRECTION('',(-4.698520247959E-16,0.866025403783,0.500000000003)
  );
#363 = PCURVE('',#126,#364);
#364 = DEFINITIONAL_REPRESENTATION('',(#365),#369);
#365 = LINE('',#366,#367);
#366 = CARTESIAN_POINT('',(-2.690452254429,-2.870449452306E-12));
#367 = VECTOR('',#368,1.);
#368 = DIRECTION('',(0.500000000003,-0.866025403783));
#369 = ( GEOMETRIC_REPRESENTATION_CONTEXT(2) 
PARAMETRIC_REPRESENTATION_CONTEXT() REPRESENTATION_CONTEXT('2D SPACE',''
  ) );
#370 = PCURVE('',#371,#376);
#371 = PLANE('',#372);
#372 = AXIS2_PLACEMENT_3D('',#373,#374,#375);
#373 = CARTESIAN_POINT('',(8.961006118578E-16,1.372401299796E-12,
    -2.690452254433));
#374 = DIRECTION('',(-2.071704367822E-16,-0.500000000003,0.866025403783)
  );
#375 = DIRECTION('',(-1.665334536948E-16,0.866025403783,0.500000000003)
  );
#376 = DEFINITIONAL_REPRESENTATION('',(#377),#381);
#377 = LINE('',#378,#379);
#378 = CARTESIAN_POINT('',(-1.115774139762E-16,-5.974004079049E-16));
#379 = VECTOR('',#380,1.);
#380 = DIRECTION('',(1.,3.033185711011E-16));
#381 = ( GEOMETRIC_REPRESENTATION_CONTEXT(2) 
PARAMETRIC_REPRESENTATION_CONTEXT() REPRESENTATION_CONTEXT('2D SPACE',''
  ) );
#382 = ORIENTED_EDGE('',*,*,#383,.T.);
#383 = EDGE_CURVE('',#356,#142,#384,.T.);
#384 = SURFACE_CURVE('',#385,(#389,#396),.PCURVE_S1.);
#385 = LINE('',#386,#387);
#386 = CARTESIAN_POINT('',(2.293865804031E-16,2.33,-1.345226127211));
#387 = VECTOR('',#388,1.);
#388 = DIRECTION('',(-5.551115123125E-16,-1.826686816279E-13,1.));
#389 = PCURVE('',#126,#390);
#390 = DEFINITIONAL_REPRESENTATION('',(#391),#395);
#391 = LINE('',#392,#393);
#392 = CARTESIAN_POINT('',(-1.345226127207,-2.330000000002));
#393 = VECTOR('',#394,1.);
#394 = DIRECTION('',(1.,1.830017485353E-13));
#395 = ( GEOMETRIC_REPRESENTATION_CONTEXT(2) 
PARAMETRIC_REPRESENTATION_CONTEXT() REPRESENTATION_CONTEXT('2D SPACE',''
  ) );
#396 = PCURVE('',#159,#397);
#397 = DEFINITIONAL_REPRESENTATION('',(#398),#402);
#398 = LINE('',#399,#400);
#399 = CARTESIAN_POINT('',(-1.110223024625E-15,2.18663725524E-16));
#400 = VECTOR('',#401,1.);
#401 = DIRECTION('',(1.,2.22044604925E-16));
#402 = ( GEOMETRIC_REPRESENTATION_CONTEXT(2) 
PARAMETRIC_REPRESENTATION_CONTEXT() REPRESENTATION_CONTEXT('2D SPACE',''
  ) );
#403 = ORIENTED_EDGE('',*,*,#198,.T.);
#404 = ADVANCED_FACE('',(#405),#100,.F.);
#405 = FACE_BOUND('',#406,.F.);
#406 = EDGE_LOOP('',(#407,#408,#431,#452));
#407 = ORIENTED_EDGE('',*,*,#84,.T.);
#408 = ORIENTED_EDGE('',*,*,#409,.T.);
#409 = EDGE_CURVE('',#57,#410,#412,.T.);
#410 = VERTEX_POINT('',#411);
#411 = CARTESIAN_POINT('',(17.,-2.330000000005,-1.345226127215));
#412 = SURFACE_CURVE('',#413,(#417,#424),.PCURVE_S1.);
#413 = LINE('',#414,#415);
#414 = CARTESIAN_POINT('',(17.,-2.33,1.345226127212));
#415 = VECTOR('',#416,1.);
#416 = DIRECTION('',(3.330669073875E-16,-1.818589985038E-12,-1.));
#417 = PCURVE('',#100,#418);
#418 = DEFINITIONAL_REPRESENTATION('',(#419),#423);
#419 = LINE('',#420,#421);
#420 = CARTESIAN_POINT('',(4.10782519112E-15,-17.));
#421 = VECTOR('',#422,1.);
#422 = DIRECTION('',(1.,0.));
#423 = ( GEOMETRIC_REPRESENTATION_CONTEXT(2) 
PARAMETRIC_REPRESENTATION_CONTEXT() REPRESENTATION_CONTEXT('2D SPACE',''
  ) );
#424 = PCURVE('',#262,#425);
#425 = DEFINITIONAL_REPRESENTATION('',(#426),#430);
#426 = LINE('',#427,#428);
#427 = CARTESIAN_POINT('',(-7.784650204697E-17,-0.707106781187));
#428 = VECTOR('',#429,1.);
#429 = DIRECTION('',(-1.,-2.019483917366E-28));
#430 = ( GEOMETRIC_REPRESENTATION_CONTEXT(2) 
PARAMETRIC_REPRESENTATION_CONTEXT() REPRESENTATION_CONTEXT('2D SPACE',''
  ) );
#431 = ORIENTED_EDGE('',*,*,#432,.F.);
#432 = EDGE_CURVE('',#305,#410,#433,.T.);
#433 = SURFACE_CURVE('',#434,(#438,#445),.PCURVE_S1.);
#434 = LINE('',#435,#436);
#435 = CARTESIAN_POINT('',(4.480503059284E-16,-2.330000000005,
    -1.345226127215));
#436 = VECTOR('',#437,1.);
#437 = DIRECTION('',(1.,-2.22044604925E-16,1.110223024625E-16));
#438 = PCURVE('',#100,#439);
#439 = DEFINITIONAL_REPRESENTATION('',(#440),#444);
#440 = LINE('',#441,#442);
#441 = CARTESIAN_POINT('',(2.690452254427,0.));
#442 = VECTOR('',#443,1.);
#443 = DIRECTION('',(2.220446049254E-16,-1.));
#444 = ( GEOMETRIC_REPRESENTATION_CONTEXT(2) 
PARAMETRIC_REPRESENTATION_CONTEXT() REPRESENTATION_CONTEXT('2D SPACE',''
  ) );
#445 = PCURVE('',#343,#446);
#446 = DEFINITIONAL_REPRESENTATION('',(#447),#451);
#447 = LINE('',#448,#449);
#448 = CARTESIAN_POINT('',(0.,0.));
#449 = VECTOR('',#450,1.);
#450 = DIRECTION('',(-8.127396617559E-17,-1.));
#451 = ( GEOMETRIC_REPRESENTATION_CONTEXT(2) 
PARAMETRIC_REPRESENTATION_CONTEXT() REPRESENTATION_CONTEXT('2D SPACE',''
  ) );
#452 = ORIENTED_EDGE('',*,*,#304,.F.);
#453 = ADVANCED_FACE('',(#454),#159,.F.);
#454 = FACE_BOUND('',#455,.F.);
#455 = EDGE_LOOP('',(#456,#479,#505,#506));
#456 = ORIENTED_EDGE('',*,*,#457,.T.);
#457 = EDGE_CURVE('',#356,#458,#460,.T.);
#458 = VERTEX_POINT('',#459);
#459 = CARTESIAN_POINT('',(17.,2.33,-1.345226127211));
#460 = SURFACE_CURVE('',#461,(#465,#472),.PCURVE_S1.);
#461 = LINE('',#462,#463);
#462 = CARTESIAN_POINT('',(4.480503059271E-16,2.33,-1.345226127211));
#463 = VECTOR('',#464,1.);
#464 = DIRECTION('',(1.,-2.22044604925E-16,1.110223024625E-16));
#465 = PCURVE('',#159,#466);
#466 = DEFINITIONAL_REPRESENTATION('',(#467),#471);
#467 = LINE('',#468,#469);
#468 = CARTESIAN_POINT('',(0.,0.));
#469 = VECTOR('',#470,1.);
#470 = DIRECTION('',(-2.22044604925E-16,-1.));
#471 = ( GEOMETRIC_REPRESENTATION_CONTEXT(2) 
PARAMETRIC_REPRESENTATION_CONTEXT() REPRESENTATION_CONTEXT('2D SPACE',''
  ) );
#472 = PCURVE('',#371,#473);
#473 = DEFINITIONAL_REPRESENTATION('',(#474),#478);
#474 = LINE('',#475,#476);
#475 = CARTESIAN_POINT('',(2.690452254428,0.));
#476 = VECTOR('',#477,1.);
#477 = DIRECTION('',(-3.033185711011E-16,-1.));
#478 = ( GEOMETRIC_REPRESENTATION_CONTEXT(2) 
PARAMETRIC_REPRESENTATION_CONTEXT() REPRESENTATION_CONTEXT('2D SPACE',''
  ) );
#479 = ORIENTED_EDGE('',*,*,#480,.T.);
#480 = EDGE_CURVE('',#458,#144,#481,.T.);
#481 = SURFACE_CURVE('',#482,(#486,#493),.PCURVE_S1.);
#482 = LINE('',#483,#484);
#483 = CARTESIAN_POINT('',(17.,2.33,-1.345226127211));
#484 = VECTOR('',#485,1.);
#485 = DIRECTION('',(-3.330669073875E-16,-1.82446637023E-13,1.));
#486 = PCURVE('',#159,#487);
#487 = DEFINITIONAL_REPRESENTATION('',(#488),#492);
#488 = LINE('',#489,#490);
#489 = CARTESIAN_POINT('',(-3.885780586187E-15,-17.));
#490 = VECTOR('',#491,1.);
#491 = DIRECTION('',(1.,-4.930380657631E-32));
#492 = ( GEOMETRIC_REPRESENTATION_CONTEXT(2) 
PARAMETRIC_REPRESENTATION_CONTEXT() REPRESENTATION_CONTEXT('2D SPACE',''
  ) );
#493 = PCURVE('',#494,#499);
#494 = PLANE('',#495);
#495 = AXIS2_PLACEMENT_3D('',#496,#497,#498);
#496 = CARTESIAN_POINT('',(17.5,1.83,-1.345226127211));
#497 = DIRECTION('',(-0.707106781187,-0.707106781187,-1.290582106079E-13
    ));
#498 = DIRECTION('',(2.011508308443E-16,1.823147209464E-13,-1.));
#499 = DEFINITIONAL_REPRESENTATION('',(#500),#504);
#500 = LINE('',#501,#502);
#501 = CARTESIAN_POINT('',(1.849703852434E-17,-0.707106781187));
#502 = VECTOR('',#503,1.);
#503 = DIRECTION('',(-1.,-2.524354896707E-29));
#504 = ( GEOMETRIC_REPRESENTATION_CONTEXT(2) 
PARAMETRIC_REPRESENTATION_CONTEXT() REPRESENTATION_CONTEXT('2D SPACE',''
  ) );
#505 = ORIENTED_EDGE('',*,*,#141,.F.);
#506 = ORIENTED_EDGE('',*,*,#383,.F.);
#507 = ADVANCED_FACE('',(#508),#185,.F.);
#508 = FACE_BOUND('',#509,.T.);
#509 = EDGE_LOOP('',(#510,#533,#534,#535));
#510 = ORIENTED_EDGE('',*,*,#511,.F.);
#511 = EDGE_CURVE('',#144,#512,#514,.T.);
#512 = VERTEX_POINT('',#513);
#513 = CARTESIAN_POINT('',(18.,1.33,0.767875858021));
#514 = SURFACE_CURVE('',#515,(#519,#526),.PCURVE_S1.);
#515 = LINE('',#516,#517);
#516 = CARTESIAN_POINT('',(17.761428571428,1.568571428572,0.905615136528
    ));
#517 = VECTOR('',#518,1.);
#518 = DIRECTION('',(0.654653670708,-0.654653670708,-0.377964473009));
#519 = PCURVE('',#185,#520);
#520 = DEFINITIONAL_REPRESENTATION('',(#521),#525);
#521 = LINE('',#522,#523);
#522 = CARTESIAN_POINT('',(-0.439610990683,0.369715831306));
#523 = VECTOR('',#524,1.);
#524 = DIRECTION('',(-0.377964473009,0.925820099773));
#525 = ( GEOMETRIC_REPRESENTATION_CONTEXT(2) 
PARAMETRIC_REPRESENTATION_CONTEXT() REPRESENTATION_CONTEXT('2D SPACE',''
  ) );
#526 = PCURVE('',#494,#527);
#527 = DEFINITIONAL_REPRESENTATION('',(#528),#532);
#528 = LINE('',#529,#530);
#529 = CARTESIAN_POINT('',(-2.250841263739,0.369715831306));
#530 = VECTOR('',#531,1.);
#531 = DIRECTION('',(0.377964473009,0.925820099773));
#532 = ( GEOMETRIC_REPRESENTATION_CONTEXT(2) 
PARAMETRIC_REPRESENTATION_CONTEXT() REPRESENTATION_CONTEXT('2D SPACE',''
  ) );
#533 = ORIENTED_EDGE('',*,*,#171,.T.);
#534 = ORIENTED_EDGE('',*,*,#222,.T.);
#535 = ORIENTED_EDGE('',*,*,#536,.F.);
#536 = EDGE_CURVE('',#512,#223,#537,.T.);
#537 = SURFACE_CURVE('',#538,(#542,#549),.PCURVE_S1.);
#538 = LINE('',#539,#540);
#539 = CARTESIAN_POINT('',(18.,1.83,0.479200723427));
#540 = VECTOR('',#541,1.);
#541 = DIRECTION('',(-1.665334536937E-16,-0.866025403785,0.5));
#542 = PCURVE('',#185,#543);
#543 = DEFINITIONAL_REPRESENTATION('',(#544),#548);
#544 = LINE('',#545,#546);
#545 = CARTESIAN_POINT('',(-0.,0.707106781187));
#546 = VECTOR('',#547,1.);
#547 = DIRECTION('',(-1.,-5.551115123126E-17));
#548 = ( GEOMETRIC_REPRESENTATION_CONTEXT(2) 
PARAMETRIC_REPRESENTATION_CONTEXT() REPRESENTATION_CONTEXT('2D SPACE',''
  ) );
#549 = PCURVE('',#288,#550);
#550 = DEFINITIONAL_REPRESENTATION('',(#551),#555);
#551 = LINE('',#552,#553);
#552 = CARTESIAN_POINT('',(0.479200723431,-1.830000000002));
#553 = VECTOR('',#554,1.);
#554 = DIRECTION('',(0.5,0.866025403785));
#555 = ( GEOMETRIC_REPRESENTATION_CONTEXT(2) 
PARAMETRIC_REPRESENTATION_CONTEXT() REPRESENTATION_CONTEXT('2D SPACE',''
  ) );
#556 = ADVANCED_FACE('',(#557),#288,.T.);
#557 = FACE_BOUND('',#558,.T.);
#558 = EDGE_LOOP('',(#559,#560,#583,#611,#639,#660));
#559 = ORIENTED_EDGE('',*,*,#274,.T.);
#560 = ORIENTED_EDGE('',*,*,#561,.T.);
#561 = EDGE_CURVE('',#247,#562,#564,.T.);
#562 = VERTEX_POINT('',#563);
#563 = CARTESIAN_POINT('',(18.,-1.330000000004,-0.767875858026));
#564 = SURFACE_CURVE('',#565,(#569,#576),.PCURVE_S1.);
#565 = LINE('',#566,#567);
#566 = CARTESIAN_POINT('',(18.,-1.33,1.34522612721));
#567 = VECTOR('',#568,1.);
#568 = DIRECTION('',(3.330669073875E-16,-1.818589985038E-12,-1.));
#569 = PCURVE('',#288,#570);
#570 = DEFINITIONAL_REPRESENTATION('',(#571),#575);
#571 = LINE('',#572,#573);
#572 = CARTESIAN_POINT('',(1.345226127214,1.329999999999));
#573 = VECTOR('',#574,1.);
#574 = DIRECTION('',(-1.,1.818034873525E-12));
#575 = ( GEOMETRIC_REPRESENTATION_CONTEXT(2) 
PARAMETRIC_REPRESENTATION_CONTEXT() REPRESENTATION_CONTEXT('2D SPACE',''
  ) );
#576 = PCURVE('',#262,#577);
#577 = DEFINITIONAL_REPRESENTATION('',(#578),#582);
#578 = LINE('',#579,#580);
#579 = CARTESIAN_POINT('',(7.784650204656E-17,0.707106781187));
#580 = VECTOR('',#581,1.);
#581 = DIRECTION('',(-1.,-2.019483917366E-28));
#582 = ( GEOMETRIC_REPRESENTATION_CONTEXT(2) 
PARAMETRIC_REPRESENTATION_CONTEXT() REPRESENTATION_CONTEXT('2D SPACE',''
  ) );
#583 = ORIENTED_EDGE('',*,*,#584,.T.);
#584 = EDGE_CURVE('',#562,#585,#587,.T.);
#585 = VERTEX_POINT('',#586);
#586 = CARTESIAN_POINT('',(18.,-1.32064998017E-13,-1.535751716052));
#587 = SURFACE_CURVE('',#588,(#592,#599),.PCURVE_S1.);
#588 = LINE('',#589,#590);
#589 = CARTESIAN_POINT('',(18.,-1.830000000004,-0.479200723431));
#590 = VECTOR('',#591,1.);
#591 = DIRECTION('',(1.66533453694E-16,0.866025403784,-0.500000000001));
#592 = PCURVE('',#288,#593);
#593 = DEFINITIONAL_REPRESENTATION('',(#594),#598);
#594 = LINE('',#595,#596);
#595 = CARTESIAN_POINT('',(-0.479200723427,1.830000000003));
#596 = VECTOR('',#597,1.);
#597 = DIRECTION('',(-0.500000000001,-0.866025403784));
#598 = ( GEOMETRIC_REPRESENTATION_CONTEXT(2) 
PARAMETRIC_REPRESENTATION_CONTEXT() REPRESENTATION_CONTEXT('2D SPACE',''
  ) );
#599 = PCURVE('',#600,#605);
#600 = PLANE('',#601);
#601 = AXIS2_PLACEMENT_3D('',#602,#603,#604);
#602 = CARTESIAN_POINT('',(17.5,-2.080000000005,-0.912213425323));
#603 = DIRECTION('',(-0.707106781187,0.353553390594,0.612372435696));
#604 = DIRECTION('',(-3.05311331772E-16,-0.866025403784,0.500000000001)
  );
#605 = DEFINITIONAL_REPRESENTATION('',(#606),#610);
#606 = LINE('',#607,#608);
#607 = CARTESIAN_POINT('',(1.387778780781E-16,0.707106781187));
#608 = VECTOR('',#609,1.);
#609 = DIRECTION('',(-1.,-1.665334536938E-16));
#610 = ( GEOMETRIC_REPRESENTATION_CONTEXT(2) 
PARAMETRIC_REPRESENTATION_CONTEXT() REPRESENTATION_CONTEXT('2D SPACE',''
  ) );
#611 = ORIENTED_EDGE('',*,*,#612,.T.);
#612 = EDGE_CURVE('',#585,#613,#615,.T.);
#613 = VERTEX_POINT('',#614);
#614 = CARTESIAN_POINT('',(18.,1.33,-0.767875858024));
#615 = SURFACE_CURVE('',#616,(#620,#627),.PCURVE_S1.);
#616 = LINE('',#617,#618);
#617 = CARTESIAN_POINT('',(18.,-0.500000000002,-1.82442685065));
#618 = VECTOR('',#619,1.);
#619 = DIRECTION('',(-1.665334536948E-16,0.866025403783,0.500000000003)
  );
#620 = PCURVE('',#288,#621);
#621 = DEFINITIONAL_REPRESENTATION('',(#622),#626);
#622 = LINE('',#623,#624);
#623 = CARTESIAN_POINT('',(-1.824426850646,0.5));
#624 = VECTOR('',#625,1.);
#625 = DIRECTION('',(0.500000000003,-0.866025403783));
#626 = ( GEOMETRIC_REPRESENTATION_CONTEXT(2) 
PARAMETRIC_REPRESENTATION_CONTEXT() REPRESENTATION_CONTEXT('2D SPACE',''
  ) );
#627 = PCURVE('',#628,#633);
#628 = PLANE('',#629);
#629 = AXIS2_PLACEMENT_3D('',#630,#631,#632);
#630 = CARTESIAN_POINT('',(17.5,-0.25,-2.257439552542));
#631 = DIRECTION('',(-0.707106781187,-0.353553390595,0.612372435695));
#632 = DIRECTION('',(-1.387778780778E-16,-0.866025403783,-0.500000000003
    ));
#633 = DEFINITIONAL_REPRESENTATION('',(#634),#638);
#634 = LINE('',#635,#636);
#635 = CARTESIAN_POINT('',(-2.775557561563E-17,0.707106781187));
#636 = VECTOR('',#637,1.);
#637 = DIRECTION('',(-1.,-5.551115123126E-17));
#638 = ( GEOMETRIC_REPRESENTATION_CONTEXT(2) 
PARAMETRIC_REPRESENTATION_CONTEXT() REPRESENTATION_CONTEXT('2D SPACE',''
  ) );
#639 = ORIENTED_EDGE('',*,*,#640,.T.);
#640 = EDGE_CURVE('',#613,#512,#641,.T.);
#641 = SURFACE_CURVE('',#642,(#646,#653),.PCURVE_S1.);
#642 = LINE('',#643,#644);
#643 = CARTESIAN_POINT('',(18.,1.33,-1.345226127211));
#644 = VECTOR('',#645,1.);
#645 = DIRECTION('',(-3.330669073875E-16,-1.82446637023E-13,1.));
#646 = PCURVE('',#288,#647);
#647 = DEFINITIONAL_REPRESENTATION('',(#648),#652);
#648 = LINE('',#649,#650);
#649 = CARTESIAN_POINT('',(-1.345226127207,-1.330000000002));
#650 = VECTOR('',#651,1.);
#651 = DIRECTION('',(1.,1.830017485353E-13));
#652 = ( GEOMETRIC_REPRESENTATION_CONTEXT(2) 
PARAMETRIC_REPRESENTATION_CONTEXT() REPRESENTATION_CONTEXT('2D SPACE',''
  ) );
#653 = PCURVE('',#494,#654);
#654 = DEFINITIONAL_REPRESENTATION('',(#655),#659);
#655 = LINE('',#656,#657);
#656 = CARTESIAN_POINT('',(2.035475664007E-16,0.707106781187));
#657 = VECTOR('',#658,1.);
#658 = DIRECTION('',(-1.,-2.524354896707E-29));
#659 = ( GEOMETRIC_REPRESENTATION_CONTEXT(2) 
PARAMETRIC_REPRESENTATION_CONTEXT() REPRESENTATION_CONTEXT('2D SPACE',''
  ) );
#660 = ORIENTED_EDGE('',*,*,#536,.T.);
#661 = ADVANCED_FACE('',(#662),#262,.F.);
#662 = FACE_BOUND('',#663,.T.);
#663 = EDGE_LOOP('',(#664,#665,#666,#687));
#664 = ORIENTED_EDGE('',*,*,#246,.F.);
#665 = ORIENTED_EDGE('',*,*,#409,.T.);
#666 = ORIENTED_EDGE('',*,*,#667,.T.);
#667 = EDGE_CURVE('',#410,#562,#668,.T.);
#668 = SURFACE_CURVE('',#669,(#673,#680),.PCURVE_S1.);
#669 = LINE('',#670,#671);
#670 = CARTESIAN_POINT('',(17.761428571429,-1.568571428575,
    -0.905615136532));
#671 = VECTOR('',#672,1.);
#672 = DIRECTION('',(0.654653670708,0.654653670709,0.377964473008));
#673 = PCURVE('',#262,#674);
#674 = DEFINITIONAL_REPRESENTATION('',(#675),#679);
#675 = LINE('',#676,#677);
#676 = CARTESIAN_POINT('',(-2.250841263743,0.369715831307));
#677 = VECTOR('',#678,1.);
#678 = DIRECTION('',(0.37796447301,0.925820099772));
#679 = ( GEOMETRIC_REPRESENTATION_CONTEXT(2) 
PARAMETRIC_REPRESENTATION_CONTEXT() REPRESENTATION_CONTEXT('2D SPACE',''
  ) );
#680 = PCURVE('',#600,#681);
#681 = DEFINITIONAL_REPRESENTATION('',(#682),#686);
#682 = LINE('',#683,#684);
#683 = CARTESIAN_POINT('',(-0.439610990684,0.369715831307));
#684 = VECTOR('',#685,1.);
#685 = DIRECTION('',(-0.37796447301,0.925820099772));
#686 = ( GEOMETRIC_REPRESENTATION_CONTEXT(2) 
PARAMETRIC_REPRESENTATION_CONTEXT() REPRESENTATION_CONTEXT('2D SPACE',''
  ) );
#687 = ORIENTED_EDGE('',*,*,#561,.F.);
#688 = ADVANCED_FACE('',(#689),#343,.F.);
#689 = FACE_BOUND('',#690,.F.);
#690 = EDGE_LOOP('',(#691,#692,#715,#736));
#691 = ORIENTED_EDGE('',*,*,#432,.T.);
#692 = ORIENTED_EDGE('',*,*,#693,.T.);
#693 = EDGE_CURVE('',#410,#694,#696,.T.);
#694 = VERTEX_POINT('',#695);
#695 = CARTESIAN_POINT('',(17.,1.368384244554E-12,-2.690452254433));
#696 = SURFACE_CURVE('',#697,(#701,#708),.PCURVE_S1.);
#697 = LINE('',#698,#699);
#698 = CARTESIAN_POINT('',(17.,-2.330000000005,-1.345226127215));
#699 = VECTOR('',#700,1.);
#700 = DIRECTION('',(1.66533453694E-16,0.866025403784,-0.500000000001));
#701 = PCURVE('',#343,#702);
#702 = DEFINITIONAL_REPRESENTATION('',(#703),#707);
#703 = LINE('',#704,#705);
#704 = CARTESIAN_POINT('',(-1.629464844855E-15,-17.));
#705 = VECTOR('',#706,1.);
#706 = DIRECTION('',(1.,2.465190328816E-32));
#707 = ( GEOMETRIC_REPRESENTATION_CONTEXT(2) 
PARAMETRIC_REPRESENTATION_CONTEXT() REPRESENTATION_CONTEXT('2D SPACE',''
  ) );
#708 = PCURVE('',#600,#709);
#709 = DEFINITIONAL_REPRESENTATION('',(#710),#714);
#710 = LINE('',#711,#712);
#711 = CARTESIAN_POINT('',(-0.,-0.707106781187));
#712 = VECTOR('',#713,1.);
#713 = DIRECTION('',(-1.,-1.665334536938E-16));
#714 = ( GEOMETRIC_REPRESENTATION_CONTEXT(2) 
PARAMETRIC_REPRESENTATION_CONTEXT() REPRESENTATION_CONTEXT('2D SPACE',''
  ) );
#715 = ORIENTED_EDGE('',*,*,#716,.F.);
#716 = EDGE_CURVE('',#328,#694,#717,.T.);
#717 = SURFACE_CURVE('',#718,(#722,#729),.PCURVE_S1.);
#718 = LINE('',#719,#720);
#719 = CARTESIAN_POINT('',(8.961006118578E-16,1.372391173623E-12,
    -2.690452254433));
#720 = VECTOR('',#721,1.);
#721 = DIRECTION('',(1.,-2.22044604925E-16,1.110223024625E-16));
#722 = PCURVE('',#343,#723);
#723 = DEFINITIONAL_REPRESENTATION('',(#724),#728);
#724 = LINE('',#725,#726);
#725 = CARTESIAN_POINT('',(2.690452254432,-7.395570986447E-32));
#726 = VECTOR('',#727,1.);
#727 = DIRECTION('',(-8.127396617559E-17,-1.));
#728 = ( GEOMETRIC_REPRESENTATION_CONTEXT(2) 
PARAMETRIC_REPRESENTATION_CONTEXT() REPRESENTATION_CONTEXT('2D SPACE',''
  ) );
#729 = PCURVE('',#371,#730);
#730 = DEFINITIONAL_REPRESENTATION('',(#731),#735);
#731 = LINE('',#732,#733);
#732 = CARTESIAN_POINT('',(-6.577142299271E-18,3.086228408694E-34));
#733 = VECTOR('',#734,1.);
#734 = DIRECTION('',(-3.033185711011E-16,-1.));
#735 = ( GEOMETRIC_REPRESENTATION_CONTEXT(2) 
PARAMETRIC_REPRESENTATION_CONTEXT() REPRESENTATION_CONTEXT('2D SPACE',''
  ) );
#736 = ORIENTED_EDGE('',*,*,#327,.F.);
#737 = ADVANCED_FACE('',(#738),#371,.F.);
#738 = FACE_BOUND('',#739,.F.);
#739 = EDGE_LOOP('',(#740,#741,#762,#763));
#740 = ORIENTED_EDGE('',*,*,#716,.T.);
#741 = ORIENTED_EDGE('',*,*,#742,.T.);
#742 = EDGE_CURVE('',#694,#458,#743,.T.);
#743 = SURFACE_CURVE('',#744,(#748,#755),.PCURVE_S1.);
#744 = LINE('',#745,#746);
#745 = CARTESIAN_POINT('',(17.,1.368343607571E-12,-2.690452254433));
#746 = VECTOR('',#747,1.);
#747 = DIRECTION('',(-1.665334536948E-16,0.866025403783,0.500000000003)
  );
#748 = PCURVE('',#371,#749);
#749 = DEFINITIONAL_REPRESENTATION('',(#750),#754);
#750 = LINE('',#751,#752);
#751 = CARTESIAN_POINT('',(-5.437331209053E-15,-17.));
#752 = VECTOR('',#753,1.);
#753 = DIRECTION('',(1.,0.));
#754 = ( GEOMETRIC_REPRESENTATION_CONTEXT(2) 
PARAMETRIC_REPRESENTATION_CONTEXT() REPRESENTATION_CONTEXT('2D SPACE',''
  ) );
#755 = PCURVE('',#628,#756);
#756 = DEFINITIONAL_REPRESENTATION('',(#757),#761);
#757 = LINE('',#758,#759);
#758 = CARTESIAN_POINT('',(-1.387778780781E-16,-0.707106781187));
#759 = VECTOR('',#760,1.);
#760 = DIRECTION('',(-1.,-5.551115123126E-17));
#761 = ( GEOMETRIC_REPRESENTATION_CONTEXT(2) 
PARAMETRIC_REPRESENTATION_CONTEXT() REPRESENTATION_CONTEXT('2D SPACE',''
  ) );
#762 = ORIENTED_EDGE('',*,*,#457,.F.);
#763 = ORIENTED_EDGE('',*,*,#355,.F.);
#764 = ADVANCED_FACE('',(#765),#494,.F.);
#765 = FACE_BOUND('',#766,.T.);
#766 = EDGE_LOOP('',(#767,#788,#789,#790));
#767 = ORIENTED_EDGE('',*,*,#768,.F.);
#768 = EDGE_CURVE('',#458,#613,#769,.T.);
#769 = SURFACE_CURVE('',#770,(#774,#781),.PCURVE_S1.);
#770 = LINE('',#771,#772);
#771 = CARTESIAN_POINT('',(17.761428571429,1.568571428572,-0.90561513653
    ));
#772 = VECTOR('',#773,1.);
#773 = DIRECTION('',(0.654653670708,-0.654653670708,0.377964473008));
#774 = PCURVE('',#494,#775);
#775 = DEFINITIONAL_REPRESENTATION('',(#776),#780);
#776 = LINE('',#777,#778);
#777 = CARTESIAN_POINT('',(-0.439610990681,0.369715831306));
#778 = VECTOR('',#779,1.);
#779 = DIRECTION('',(-0.377964473008,0.925820099773));
#780 = ( GEOMETRIC_REPRESENTATION_CONTEXT(2) 
PARAMETRIC_REPRESENTATION_CONTEXT() REPRESENTATION_CONTEXT('2D SPACE',''
  ) );
#781 = PCURVE('',#628,#782);
#782 = DEFINITIONAL_REPRESENTATION('',(#783),#787);
#783 = LINE('',#784,#785);
#784 = CARTESIAN_POINT('',(-2.250841263746,0.369715831306));
#785 = VECTOR('',#786,1.);
#786 = DIRECTION('',(0.377964473008,0.925820099773));
#787 = ( GEOMETRIC_REPRESENTATION_CONTEXT(2) 
PARAMETRIC_REPRESENTATION_CONTEXT() REPRESENTATION_CONTEXT('2D SPACE',''
  ) );
#788 = ORIENTED_EDGE('',*,*,#480,.T.);
#789 = ORIENTED_EDGE('',*,*,#511,.T.);
#790 = ORIENTED_EDGE('',*,*,#640,.F.);
#791 = ADVANCED_FACE('',(#792),#600,.F.);
#792 = FACE_BOUND('',#793,.T.);
#793 = EDGE_LOOP('',(#794,#795,#796,#817));
#794 = ORIENTED_EDGE('',*,*,#667,.F.);
#795 = ORIENTED_EDGE('',*,*,#693,.T.);
#796 = ORIENTED_EDGE('',*,*,#797,.T.);
#797 = EDGE_CURVE('',#694,#585,#798,.T.);
#798 = SURFACE_CURVE('',#799,(#803,#810),.PCURVE_S1.);
#799 = LINE('',#800,#801);
#800 = CARTESIAN_POINT('',(17.76142857143,2.270338106099E-13,
    -1.811230273064));
#801 = VECTOR('',#802,1.);
#802 = DIRECTION('',(0.654653670708,-9.807472237826E-13,0.755928946019)
  );
#803 = PCURVE('',#600,#804);
#804 = DEFINITIONAL_REPRESENTATION('',(#805),#809);
#805 = LINE('',#806,#807);
#806 = CARTESIAN_POINT('',(-2.250841263746,0.369715831308));
#807 = VECTOR('',#808,1.);
#808 = DIRECTION('',(0.377964473011,0.925820099772));
#809 = ( GEOMETRIC_REPRESENTATION_CONTEXT(2) 
PARAMETRIC_REPRESENTATION_CONTEXT() REPRESENTATION_CONTEXT('2D SPACE',''
  ) );
#810 = PCURVE('',#628,#811);
#811 = DEFINITIONAL_REPRESENTATION('',(#812),#816);
#812 = LINE('',#813,#814);
#813 = CARTESIAN_POINT('',(-0.439610990686,0.369715831308));
#814 = VECTOR('',#815,1.);
#815 = DIRECTION('',(-0.377964473011,0.925820099772));
#816 = ( GEOMETRIC_REPRESENTATION_CONTEXT(2) 
PARAMETRIC_REPRESENTATION_CONTEXT() REPRESENTATION_CONTEXT('2D SPACE',''
  ) );
#817 = ORIENTED_EDGE('',*,*,#584,.F.);
#818 = ADVANCED_FACE('',(#819),#628,.F.);
#819 = FACE_BOUND('',#820,.T.);
#820 = EDGE_LOOP('',(#821,#822,#823,#824));
#821 = ORIENTED_EDGE('',*,*,#797,.F.);
#822 = ORIENTED_EDGE('',*,*,#742,.T.);
#823 = ORIENTED_EDGE('',*,*,#768,.T.);
#824 = ORIENTED_EDGE('',*,*,#612,.F.);
#825 = ( GEOMETRIC_REPRESENTATION_CONTEXT(3) 
GLOBAL_UNCERTAINTY_ASSIGNED_CONTEXT((#829)) GLOBAL_UNIT_ASSIGNED_CONTEXT
((#826,#827,#828)) REPRESENTATION_CONTEXT('Context #1',
  '3D Context with UNIT and UNCERTAINTY') );
#826 = ( LENGTH_UNIT() NAMED_UNIT(*) SI_UNIT(.MILLI.,.METRE.) );
#827 = ( NAMED_UNIT(*) PLANE_ANGLE_UNIT() SI_UNIT($,.RADIAN.) );
#828 = ( NAMED_UNIT(*) SI_UNIT($,.STERADIAN.) SOLID_ANGLE_UNIT() );
#829 = UNCERTAINTY_MEASURE_WITH_UNIT(LENGTH_MEASURE(1.E-07),#826,
  'distance_accuracy_value','confusion accuracy');
#830 = PRODUCT_RELATED_PRODUCT_CATEGORY('part',$,(#7));
#831 = MECHANICAL_DESIGN_GEOMETRIC_PRESENTATION_REPRESENTATION('',(#832)
  ,#825);
#832 = STYLED_ITEM('color',(#833),#15);
#833 = PRESENTATION_STYLE_ASSIGNMENT((#834,#842));
#834 = SURFACE_STYLE_USAGE(.BOTH.,#835);
#835 = SURFACE_SIDE_STYLE('',(#836,#840));
#836 = SURFACE_STYLE_FILL_AREA(#837);
#837 = FILL_AREA_STYLE('',(#838));
#838 = FILL_AREA_STYLE_COLOUR('',#839);
#839 = COLOUR_RGB('',0.800000010877,0.800000010877,0.800000010877);
#840 = SURFACE_STYLE_RENDERING_WITH_PROPERTIES(.NORMAL_SHADING.,#839,(
    #841));
#841 = SURFACE_STYLE_TRANSPARENT(0.5);
#842 = CURVE_STYLE('',#843,POSITIVE_LENGTH_MEASURE(0.1),#844);
#843 = DRAUGHTING_PRE_DEFINED_CURVE_FONT('continuous');
#844 = COLOUR_RGB('',9.803921802644E-02,9.803921802644E-02,
  9.803921802644E-02);
ENDSEC;
END-ISO-10303-21;
