ISO-10303-21;
HEADER;
FILE_DESCRIPTION(('FreeCAD Model'),'2;1');
FILE_NAME('Open CASCADE Shape Model','2026-07-18T21:52:44',(''),(''),
  'Open CASCADE STEP processor 7.8','FreeCAD','Unknown');
FILE_SCHEMA(('AUTOMOTIVE_DESIGN { 1 0 10303 214 1 1 1 1 }'));
ENDSEC;
DATA;
#1 = APPLICATION_PROTOCOL_DEFINITION('international standard',
  'automotive_design',2000,#2);
#2 = APPLICATION_CONTEXT(
  'core data for automotive mechanical design processes');
#3 = SHAPE_DEFINITION_REPRESENTATION(#4,#10);
#4 = PRODUCT_DEFINITION_SHAPE('','',#5);
#5 = PRODUCT_DEFINITION('design','',#6,#9);
#6 = PRODUCT_DEFINITION_FORMATION('','',#7);
#7 = PRODUCT('MetalPinArmMainBody (Mirror #3)',
  'MetalPinArmMainBody (Mirror #3)','',(#8));
#8 = PRODUCT_CONTEXT('',#2,'mechanical');
#9 = PRODUCT_DEFINITION_CONTEXT('part definition',#2,'design');
#10 = ADVANCED_BREP_SHAPE_REPRESENTATION('',(#11,#15),#1235);
#11 = AXIS2_PLACEMENT_3D('',#12,#13,#14);
#12 = CARTESIAN_POINT('',(0.,0.,0.));
#13 = DIRECTION('',(0.,0.,1.));
#14 = DIRECTION('',(1.,0.,-0.));
#15 = MANIFOLD_SOLID_BREP('',#16);
#16 = CLOSED_SHELL('',(#17,#136,#212,#287,#370,#445,#528,#598,#653,#735,
    #845,#921,#997,#1073,#1144,#1191,#1213));
#17 = ADVANCED_FACE('',(#18),#32,.F.);
#18 = FACE_BOUND('',#19,.T.);
#19 = EDGE_LOOP('',(#20,#54,#82,#110));
#20 = ORIENTED_EDGE('',*,*,#21,.T.);
#21 = EDGE_CURVE('',#22,#24,#26,.T.);
#22 = VERTEX_POINT('',#23);
#23 = CARTESIAN_POINT('',(-10.45998048231,-4.787836793696E-14,
    118.30272712236));
#24 = VERTEX_POINT('',#25);
#25 = CARTESIAN_POINT('',(-15.22248048231,-4.524158825348E-14,
    118.30272825783));
#26 = SURFACE_CURVE('',#27,(#31,#43),.PCURVE_S1.);
#27 = LINE('',#28,#29);
#28 = CARTESIAN_POINT('',(-10.45998048231,-4.787269855081E-14,
    118.30272712236));
#29 = VECTOR('',#30,1.);
#30 = DIRECTION('',(-1.,5.551115123126E-16,2.384185931333E-07));
#31 = PCURVE('',#32,#37);
#32 = PLANE('',#33);
#33 = AXIS2_PLACEMENT_3D('',#34,#35,#36);
#34 = CARTESIAN_POINT('',(-10.45998048231,-4.787269855081E-14,
    118.30272712236));
#35 = DIRECTION('',(-2.384185931333E-07,4.440892098501E-16,-1.));
#36 = DIRECTION('',(8.32667374348E-16,1.,4.440890113267E-16));
#37 = DEFINITIONAL_REPRESENTATION('',(#38),#42);
#38 = LINE('',#39,#40);
#39 = CARTESIAN_POINT('',(0.,-0.));
#40 = VECTOR('',#41,1.);
#41 = DIRECTION('',(-2.775557561563E-16,-1.));
#42 = ( GEOMETRIC_REPRESENTATION_CONTEXT(2) 
PARAMETRIC_REPRESENTATION_CONTEXT() REPRESENTATION_CONTEXT('2D SPACE',''
  ) );
#43 = PCURVE('',#44,#49);
#44 = CYLINDRICAL_SURFACE('',#45,2.);
#45 = AXIS2_PLACEMENT_3D('',#46,#47,#48);
#46 = CARTESIAN_POINT('',(-10.45998048231,2.,118.30272712236));
#47 = DIRECTION('',(1.,-8.326672684689E-16,-2.384185929668E-07));
#48 = DIRECTION('',(8.32667374348E-16,1.,4.440890113267E-16));
#49 = DEFINITIONAL_REPRESENTATION('',(#50),#53);
#50 = B_SPLINE_CURVE_WITH_KNOTS('',1,(#51,#52),.UNSPECIFIED.,.F.,.F.,(2,
    2),(0.,4.7625),.PIECEWISE_BEZIER_KNOTS.);
#51 = CARTESIAN_POINT('',(3.14159265359,0.));
#52 = CARTESIAN_POINT('',(3.14159265359,-4.7625));
#53 = ( GEOMETRIC_REPRESENTATION_CONTEXT(2) 
PARAMETRIC_REPRESENTATION_CONTEXT() REPRESENTATION_CONTEXT('2D SPACE',''
  ) );
#54 = ORIENTED_EDGE('',*,*,#55,.T.);
#55 = EDGE_CURVE('',#24,#56,#58,.T.);
#56 = VERTEX_POINT('',#57);
#57 = CARTESIAN_POINT('',(-15.22248048231,-14.6,118.30272825783));
#58 = SURFACE_CURVE('',#59,(#63,#70),.PCURVE_S1.);
#59 = LINE('',#60,#61);
#60 = CARTESIAN_POINT('',(-15.22248048231,-3.982398564843E-14,
    118.30272825783));
#61 = VECTOR('',#62,1.);
#62 = DIRECTION('',(-8.881785255792E-16,-1.,-4.996001625579E-16));
#63 = PCURVE('',#32,#64);
#64 = DEFINITIONAL_REPRESENTATION('',(#65),#69);
#65 = LINE('',#66,#67);
#66 = CARTESIAN_POINT('',(4.083135036295E-15,-4.7625));
#67 = VECTOR('',#68,1.);
#68 = DIRECTION('',(-1.,-5.551113799637E-17));
#69 = ( GEOMETRIC_REPRESENTATION_CONTEXT(2) 
PARAMETRIC_REPRESENTATION_CONTEXT() REPRESENTATION_CONTEXT('2D SPACE',''
  ) );
#70 = PCURVE('',#71,#76);
#71 = PLANE('',#72);
#72 = AXIS2_PLACEMENT_3D('',#73,#74,#75);
#73 = CARTESIAN_POINT('',(-15.22248496786,0.801049348794,99.48897891913)
  );
#74 = DIRECTION('',(-1.,8.334282361586E-16,2.384185931888E-07));
#75 = DIRECTION('',(-8.889394270945E-16,-1.,-2.775555574515E-16));
#76 = DEFINITIONAL_REPRESENTATION('',(#77),#81);
#77 = LINE('',#78,#79);
#78 = CARTESIAN_POINT('',(0.801049348794,18.813749338704));
#79 = VECTOR('',#80,1.);
#80 = DIRECTION('',(1.,-3.330669206224E-16));
#81 = ( GEOMETRIC_REPRESENTATION_CONTEXT(2) 
PARAMETRIC_REPRESENTATION_CONTEXT() REPRESENTATION_CONTEXT('2D SPACE',''
  ) );
#82 = ORIENTED_EDGE('',*,*,#83,.F.);
#83 = EDGE_CURVE('',#84,#56,#86,.T.);
#84 = VERTEX_POINT('',#85);
#85 = CARTESIAN_POINT('',(-10.45998048231,-14.6,118.30272712236));
#86 = SURFACE_CURVE('',#87,(#91,#98),.PCURVE_S1.);
#87 = LINE('',#88,#89);
#88 = CARTESIAN_POINT('',(-10.45998048231,-14.6,118.30272712236));
#89 = VECTOR('',#90,1.);
#90 = DIRECTION('',(-1.,5.551115123126E-16,2.384185931333E-07));
#91 = PCURVE('',#32,#92);
#92 = DEFINITIONAL_REPRESENTATION('',(#93),#97);
#93 = LINE('',#94,#95);
#94 = CARTESIAN_POINT('',(-14.6,-2.775557561559E-16));
#95 = VECTOR('',#96,1.);
#96 = DIRECTION('',(-2.775557561563E-16,-1.));
#97 = ( GEOMETRIC_REPRESENTATION_CONTEXT(2) 
PARAMETRIC_REPRESENTATION_CONTEXT() REPRESENTATION_CONTEXT('2D SPACE',''
  ) );
#98 = PCURVE('',#99,#104);
#99 = PLANE('',#100);
#100 = AXIS2_PLACEMENT_3D('',#101,#102,#103);
#101 = CARTESIAN_POINT('',(-10.45998048231,-14.6,118.30272712236));
#102 = DIRECTION('',(5.551116049568E-16,1.,3.885779262699E-16));
#103 = DIRECTION('',(2.384185929668E-07,-3.885780586188E-16,1.));
#104 = DEFINITIONAL_REPRESENTATION('',(#105),#109);
#105 = LINE('',#106,#107);
#106 = CARTESIAN_POINT('',(-0.,0.));
#107 = VECTOR('',#108,1.);
#108 = DIRECTION('',(1.665334536938E-16,-1.));
#109 = ( GEOMETRIC_REPRESENTATION_CONTEXT(2) 
PARAMETRIC_REPRESENTATION_CONTEXT() REPRESENTATION_CONTEXT('2D SPACE',''
  ) );
#110 = ORIENTED_EDGE('',*,*,#111,.F.);
#111 = EDGE_CURVE('',#22,#84,#112,.T.);
#112 = SURFACE_CURVE('',#113,(#117,#124),.PCURVE_S1.);
#113 = LINE('',#114,#115);
#114 = CARTESIAN_POINT('',(-10.45998048231,-4.194173613093E-14,
    118.30272712236));
#115 = VECTOR('',#116,1.);
#116 = DIRECTION('',(-8.881785255792E-16,-1.,-4.996001625579E-16));
#117 = PCURVE('',#32,#118);
#118 = DEFINITIONAL_REPRESENTATION('',(#119),#123);
#119 = LINE('',#120,#121);
#120 = CARTESIAN_POINT('',(5.930962419874E-15,7.105427357601E-15));
#121 = VECTOR('',#122,1.);
#122 = DIRECTION('',(-1.,-5.551113799637E-17));
#123 = ( GEOMETRIC_REPRESENTATION_CONTEXT(2) 
PARAMETRIC_REPRESENTATION_CONTEXT() REPRESENTATION_CONTEXT('2D SPACE',''
  ) );
#124 = PCURVE('',#125,#130);
#125 = PLANE('',#126);
#126 = AXIS2_PLACEMENT_3D('',#127,#128,#129);
#127 = CARTESIAN_POINT('',(-10.45998496786,0.801049348794,
    99.488977783661));
#128 = DIRECTION('',(-1.,8.334282361586E-16,2.384185931888E-07));
#129 = DIRECTION('',(-8.889394270945E-16,-1.,-2.775555574515E-16));
#130 = DEFINITIONAL_REPRESENTATION('',(#131),#135);
#131 = LINE('',#132,#133);
#132 = CARTESIAN_POINT('',(0.801049348794,18.813749338704));
#133 = VECTOR('',#134,1.);
#134 = DIRECTION('',(1.,-3.330669206224E-16));
#135 = ( GEOMETRIC_REPRESENTATION_CONTEXT(2) 
PARAMETRIC_REPRESENTATION_CONTEXT() REPRESENTATION_CONTEXT('2D SPACE',''
  ) );
#136 = ADVANCED_FACE('',(#137),#99,.F.);
#137 = FACE_BOUND('',#138,.T.);
#138 = EDGE_LOOP('',(#139,#140,#163,#191));
#139 = ORIENTED_EDGE('',*,*,#83,.T.);
#140 = ORIENTED_EDGE('',*,*,#141,.T.);
#141 = EDGE_CURVE('',#56,#142,#144,.T.);
#142 = VERTEX_POINT('',#143);
#143 = CARTESIAN_POINT('',(-15.22248903027,-14.6,82.450003629286));
#144 = SURFACE_CURVE('',#145,(#149,#156),.PCURVE_S1.);
#145 = LINE('',#146,#147);
#146 = CARTESIAN_POINT('',(-15.22248048231,-14.6,118.30272825783));
#147 = VECTOR('',#148,1.);
#148 = DIRECTION('',(-2.384185930223E-07,3.330668941527E-16,-1.));
#149 = PCURVE('',#99,#150);
#150 = DEFINITIONAL_REPRESENTATION('',(#151),#155);
#151 = LINE('',#152,#153);
#152 = CARTESIAN_POINT('',(-1.203176780246E-14,-4.7625));
#153 = VECTOR('',#154,1.);
#154 = DIRECTION('',(-1.,-5.551115123126E-17));
#155 = ( GEOMETRIC_REPRESENTATION_CONTEXT(2) 
PARAMETRIC_REPRESENTATION_CONTEXT() REPRESENTATION_CONTEXT('2D SPACE',''
  ) );
#156 = PCURVE('',#71,#157);
#157 = DEFINITIONAL_REPRESENTATION('',(#158),#162);
#158 = LINE('',#159,#160);
#159 = CARTESIAN_POINT('',(15.401049348794,18.813749338704));
#160 = VECTOR('',#161,1.);
#161 = DIRECTION('',(-1.110222892276E-16,-1.));
#162 = ( GEOMETRIC_REPRESENTATION_CONTEXT(2) 
PARAMETRIC_REPRESENTATION_CONTEXT() REPRESENTATION_CONTEXT('2D SPACE',''
  ) );
#163 = ORIENTED_EDGE('',*,*,#164,.F.);
#164 = EDGE_CURVE('',#165,#142,#167,.T.);
#165 = VERTEX_POINT('',#166);
#166 = CARTESIAN_POINT('',(-10.45998903027,-14.6,82.450002493818));
#167 = SURFACE_CURVE('',#168,(#172,#179),.PCURVE_S1.);
#168 = LINE('',#169,#170);
#169 = CARTESIAN_POINT('',(-10.45998903027,-14.6,82.450002493818));
#170 = VECTOR('',#171,1.);
#171 = DIRECTION('',(-1.,5.551115123126E-16,2.384185931333E-07));
#172 = PCURVE('',#99,#173);
#173 = DEFINITIONAL_REPRESENTATION('',(#174),#178);
#174 = LINE('',#175,#176);
#175 = CARTESIAN_POINT('',(-35.85272462854,1.75345984477E-16));
#176 = VECTOR('',#177,1.);
#177 = DIRECTION('',(1.665334536938E-16,-1.));
#178 = ( GEOMETRIC_REPRESENTATION_CONTEXT(2) 
PARAMETRIC_REPRESENTATION_CONTEXT() REPRESENTATION_CONTEXT('2D SPACE',''
  ) );
#179 = PCURVE('',#180,#185);
#180 = PLANE('',#181);
#181 = AXIS2_PLACEMENT_3D('',#182,#183,#184);
#182 = CARTESIAN_POINT('',(-10.45998903027,-14.6,82.450002493818));
#183 = DIRECTION('',(2.384185931333E-07,-4.440892098501E-16,1.));
#184 = DIRECTION('',(-8.32667374348E-16,-1.,-4.440890113267E-16));
#185 = DEFINITIONAL_REPRESENTATION('',(#186),#190);
#186 = LINE('',#187,#188);
#187 = CARTESIAN_POINT('',(-0.,0.));
#188 = VECTOR('',#189,1.);
#189 = DIRECTION('',(2.775557561563E-16,-1.));
#190 = ( GEOMETRIC_REPRESENTATION_CONTEXT(2) 
PARAMETRIC_REPRESENTATION_CONTEXT() REPRESENTATION_CONTEXT('2D SPACE',''
  ) );
#191 = ORIENTED_EDGE('',*,*,#192,.F.);
#192 = EDGE_CURVE('',#84,#165,#193,.T.);
#193 = SURFACE_CURVE('',#194,(#198,#205),.PCURVE_S1.);
#194 = LINE('',#195,#196);
#195 = CARTESIAN_POINT('',(-10.45998048231,-14.6,118.30272712236));
#196 = VECTOR('',#197,1.);
#197 = DIRECTION('',(-2.384185930223E-07,3.330668941527E-16,-1.));
#198 = PCURVE('',#99,#199);
#199 = DEFINITIONAL_REPRESENTATION('',(#200),#204);
#200 = LINE('',#201,#202);
#201 = CARTESIAN_POINT('',(-1.421085302114E-14,7.105430745733E-15));
#202 = VECTOR('',#203,1.);
#203 = DIRECTION('',(-1.,-5.551115123126E-17));
#204 = ( GEOMETRIC_REPRESENTATION_CONTEXT(2) 
PARAMETRIC_REPRESENTATION_CONTEXT() REPRESENTATION_CONTEXT('2D SPACE',''
  ) );
#205 = PCURVE('',#125,#206);
#206 = DEFINITIONAL_REPRESENTATION('',(#207),#211);
#207 = LINE('',#208,#209);
#208 = CARTESIAN_POINT('',(15.401049348794,18.813749338704));
#209 = VECTOR('',#210,1.);
#210 = DIRECTION('',(-1.110222892276E-16,-1.));
#211 = ( GEOMETRIC_REPRESENTATION_CONTEXT(2) 
PARAMETRIC_REPRESENTATION_CONTEXT() REPRESENTATION_CONTEXT('2D SPACE',''
  ) );
#212 = ADVANCED_FACE('',(#213),#180,.F.);
#213 = FACE_BOUND('',#214,.T.);
#214 = EDGE_LOOP('',(#215,#216,#239,#266));
#215 = ORIENTED_EDGE('',*,*,#164,.T.);
#216 = ORIENTED_EDGE('',*,*,#217,.T.);
#217 = EDGE_CURVE('',#142,#218,#220,.T.);
#218 = VERTEX_POINT('',#219);
#219 = CARTESIAN_POINT('',(-15.22248903027,-3.130828929443E-14,
    82.450003629286));
#220 = SURFACE_CURVE('',#221,(#225,#232),.PCURVE_S1.);
#221 = LINE('',#222,#223);
#222 = CARTESIAN_POINT('',(-15.22248903027,-14.6,82.450003629286));
#223 = VECTOR('',#224,1.);
#224 = DIRECTION('',(8.881785255792E-16,1.,4.996001625579E-16));
#225 = PCURVE('',#180,#226);
#226 = DEFINITIONAL_REPRESENTATION('',(#227),#231);
#227 = LINE('',#228,#229);
#228 = CARTESIAN_POINT('',(-1.363492652118E-15,-4.7625));
#229 = VECTOR('',#230,1.);
#230 = DIRECTION('',(-1.,5.551113799637E-17));
#231 = ( GEOMETRIC_REPRESENTATION_CONTEXT(2) 
PARAMETRIC_REPRESENTATION_CONTEXT() REPRESENTATION_CONTEXT('2D SPACE',''
  ) );
#232 = PCURVE('',#71,#233);
#233 = DEFINITIONAL_REPRESENTATION('',(#234),#238);
#234 = LINE('',#235,#236);
#235 = CARTESIAN_POINT('',(15.401049348794,-17.03897528984));
#236 = VECTOR('',#237,1.);
#237 = DIRECTION('',(-1.,3.330669206224E-16));
#238 = ( GEOMETRIC_REPRESENTATION_CONTEXT(2) 
PARAMETRIC_REPRESENTATION_CONTEXT() REPRESENTATION_CONTEXT('2D SPACE',''
  ) );
#239 = ORIENTED_EDGE('',*,*,#240,.F.);
#240 = EDGE_CURVE('',#241,#218,#243,.T.);
#241 = VERTEX_POINT('',#242);
#242 = CARTESIAN_POINT('',(-10.45998903027,-3.394506897791E-14,
    82.450002493818));
#243 = SURFACE_CURVE('',#244,(#248,#255),.PCURVE_S1.);
#244 = LINE('',#245,#246);
#245 = CARTESIAN_POINT('',(-10.45998903027,-3.394111641845E-14,
    82.450002493818));
#246 = VECTOR('',#247,1.);
#247 = DIRECTION('',(-1.,5.551115123126E-16,2.384185931333E-07));
#248 = PCURVE('',#180,#249);
#249 = DEFINITIONAL_REPRESENTATION('',(#250),#254);
#250 = LINE('',#251,#252);
#251 = CARTESIAN_POINT('',(-14.6,2.775557561559E-16));
#252 = VECTOR('',#253,1.);
#253 = DIRECTION('',(2.775557561563E-16,-1.));
#254 = ( GEOMETRIC_REPRESENTATION_CONTEXT(2) 
PARAMETRIC_REPRESENTATION_CONTEXT() REPRESENTATION_CONTEXT('2D SPACE',''
  ) );
#255 = PCURVE('',#256,#261);
#256 = CYLINDRICAL_SURFACE('',#257,8.);
#257 = AXIS2_PLACEMENT_3D('',#258,#259,#260);
#258 = CARTESIAN_POINT('',(-10.45998903027,8.,82.450002493818));
#259 = DIRECTION('',(1.,-8.326672684689E-16,-2.384185929668E-07));
#260 = DIRECTION('',(8.32667374348E-16,1.,4.440890113267E-16));
#261 = DEFINITIONAL_REPRESENTATION('',(#262),#265);
#262 = B_SPLINE_CURVE_WITH_KNOTS('',1,(#263,#264),.UNSPECIFIED.,.F.,.F.,
  (2,2),(0.,4.7625),.PIECEWISE_BEZIER_KNOTS.);
#263 = CARTESIAN_POINT('',(3.14159265359,0.));
#264 = CARTESIAN_POINT('',(3.14159265359,-4.7625));
#265 = ( GEOMETRIC_REPRESENTATION_CONTEXT(2) 
PARAMETRIC_REPRESENTATION_CONTEXT() REPRESENTATION_CONTEXT('2D SPACE',''
  ) );
#266 = ORIENTED_EDGE('',*,*,#267,.F.);
#267 = EDGE_CURVE('',#165,#241,#268,.T.);
#268 = SURFACE_CURVE('',#269,(#273,#280),.PCURVE_S1.);
#269 = LINE('',#270,#271);
#270 = CARTESIAN_POINT('',(-10.45998903027,-14.6,82.450002493818));
#271 = VECTOR('',#272,1.);
#272 = DIRECTION('',(8.881785255792E-16,1.,4.996001625579E-16));
#273 = PCURVE('',#180,#274);
#274 = DEFINITIONAL_REPRESENTATION('',(#275),#279);
#275 = LINE('',#276,#277);
#276 = CARTESIAN_POINT('',(-3.552713678801E-15,5.329070518201E-15));
#277 = VECTOR('',#278,1.);
#278 = DIRECTION('',(-1.,5.551113799637E-17));
#279 = ( GEOMETRIC_REPRESENTATION_CONTEXT(2) 
PARAMETRIC_REPRESENTATION_CONTEXT() REPRESENTATION_CONTEXT('2D SPACE',''
  ) );
#280 = PCURVE('',#125,#281);
#281 = DEFINITIONAL_REPRESENTATION('',(#282),#286);
#282 = LINE('',#283,#284);
#283 = CARTESIAN_POINT('',(15.401049348794,-17.03897528984));
#284 = VECTOR('',#285,1.);
#285 = DIRECTION('',(-1.,3.330669206224E-16));
#286 = ( GEOMETRIC_REPRESENTATION_CONTEXT(2) 
PARAMETRIC_REPRESENTATION_CONTEXT() REPRESENTATION_CONTEXT('2D SPACE',''
  ) );
#287 = ADVANCED_FACE('',(#288),#256,.F.);
#288 = FACE_BOUND('',#289,.F.);
#289 = EDGE_LOOP('',(#290,#319,#344,#345));
#290 = ORIENTED_EDGE('',*,*,#291,.T.);
#291 = EDGE_CURVE('',#292,#294,#296,.T.);
#292 = VERTEX_POINT('',#293);
#293 = CARTESIAN_POINT('',(-10.45998712292,8.,90.450002493817));
#294 = VERTEX_POINT('',#295);
#295 = CARTESIAN_POINT('',(-15.22248712292,8.,90.450003629286));
#296 = SURFACE_CURVE('',#297,(#301,#307),.PCURVE_S1.);
#297 = LINE('',#298,#299);
#298 = CARTESIAN_POINT('',(-10.45998712292,8.,90.450002493817));
#299 = VECTOR('',#300,1.);
#300 = DIRECTION('',(-1.,5.551115123126E-16,2.384185931333E-07));
#301 = PCURVE('',#256,#302);
#302 = DEFINITIONAL_REPRESENTATION('',(#303),#306);
#303 = B_SPLINE_CURVE_WITH_KNOTS('',1,(#304,#305),.UNSPECIFIED.,.F.,.F.,
  (2,2),(0.,4.7625),.PIECEWISE_BEZIER_KNOTS.);
#304 = CARTESIAN_POINT('',(1.570796326795,0.));
#305 = CARTESIAN_POINT('',(1.570796326795,-4.7625));
#306 = ( GEOMETRIC_REPRESENTATION_CONTEXT(2) 
PARAMETRIC_REPRESENTATION_CONTEXT() REPRESENTATION_CONTEXT('2D SPACE',''
  ) );
#307 = PCURVE('',#308,#313);
#308 = PLANE('',#309);
#309 = AXIS2_PLACEMENT_3D('',#310,#311,#312);
#310 = CARTESIAN_POINT('',(-10.45998712292,8.,90.450002493817));
#311 = DIRECTION('',(2.384185931333E-07,-4.440892098501E-16,1.));
#312 = DIRECTION('',(-8.32667374348E-16,-1.,-4.440890113267E-16));
#313 = DEFINITIONAL_REPRESENTATION('',(#314),#318);
#314 = LINE('',#315,#316);
#315 = CARTESIAN_POINT('',(-0.,0.));
#316 = VECTOR('',#317,1.);
#317 = DIRECTION('',(2.775557561563E-16,-1.));
#318 = ( GEOMETRIC_REPRESENTATION_CONTEXT(2) 
PARAMETRIC_REPRESENTATION_CONTEXT() REPRESENTATION_CONTEXT('2D SPACE',''
  ) );
#319 = ORIENTED_EDGE('',*,*,#320,.T.);
#320 = EDGE_CURVE('',#294,#218,#321,.T.);
#321 = SURFACE_CURVE('',#322,(#327,#333),.PCURVE_S1.);
#322 = CIRCLE('',#323,8.);
#323 = AXIS2_PLACEMENT_3D('',#324,#325,#326);
#324 = CARTESIAN_POINT('',(-15.22248903027,8.,82.450003629286));
#325 = DIRECTION('',(1.,-8.881784064652E-16,-2.384185930223E-07));
#326 = DIRECTION('',(8.881785255792E-16,1.,4.996001625579E-16));
#327 = PCURVE('',#256,#328);
#328 = DEFINITIONAL_REPRESENTATION('',(#329),#332);
#329 = B_SPLINE_CURVE_WITH_KNOTS('',1,(#330,#331),.UNSPECIFIED.,.F.,.F.,
  (2,2),(1.570796326795,3.14159265359),.PIECEWISE_BEZIER_KNOTS.);
#330 = CARTESIAN_POINT('',(1.570796326795,-4.7625));
#331 = CARTESIAN_POINT('',(3.14159265359,-4.7625));
#332 = ( GEOMETRIC_REPRESENTATION_CONTEXT(2) 
PARAMETRIC_REPRESENTATION_CONTEXT() REPRESENTATION_CONTEXT('2D SPACE',''
  ) );
#333 = PCURVE('',#71,#334);
#334 = DEFINITIONAL_REPRESENTATION('',(#335),#343);
#335 = ( BOUNDED_CURVE() B_SPLINE_CURVE(2,(#336,#337,#338,#339,#340,#341
,#342),.UNSPECIFIED.,.T.,.F.) B_SPLINE_CURVE_WITH_KNOTS((1,2,2,2,2,1),(
    -2.094395102393,0.,2.094395102393,4.188790204786,6.28318530718,
8.377580409573),.UNSPECIFIED.) CURVE() GEOMETRIC_REPRESENTATION_ITEM() 
RATIONAL_B_SPLINE_CURVE((1.,0.5,1.,0.5,1.,0.5,1.)) REPRESENTATION_ITEM(
  '') );
#336 = CARTESIAN_POINT('',(-15.1989506512,-17.03897528984));
#337 = CARTESIAN_POINT('',(-15.1989506512,-3.182568829293));
#338 = CARTESIAN_POINT('',(-3.198950651206,-10.11077205956));
#339 = CARTESIAN_POINT('',(8.801049348794,-17.03897528984));
#340 = CARTESIAN_POINT('',(-3.198950651206,-23.96717852011));
#341 = CARTESIAN_POINT('',(-15.1989506512,-30.89538175039));
#342 = CARTESIAN_POINT('',(-15.1989506512,-17.03897528984));
#343 = ( GEOMETRIC_REPRESENTATION_CONTEXT(2) 
PARAMETRIC_REPRESENTATION_CONTEXT() REPRESENTATION_CONTEXT('2D SPACE',''
  ) );
#344 = ORIENTED_EDGE('',*,*,#240,.F.);
#345 = ORIENTED_EDGE('',*,*,#346,.F.);
#346 = EDGE_CURVE('',#292,#241,#347,.T.);
#347 = SURFACE_CURVE('',#348,(#353,#359),.PCURVE_S1.);
#348 = CIRCLE('',#349,8.);
#349 = AXIS2_PLACEMENT_3D('',#350,#351,#352);
#350 = CARTESIAN_POINT('',(-10.45998903027,8.,82.450002493818));
#351 = DIRECTION('',(1.,-8.881784064652E-16,-2.384185930223E-07));
#352 = DIRECTION('',(8.881785255792E-16,1.,4.996001625579E-16));
#353 = PCURVE('',#256,#354);
#354 = DEFINITIONAL_REPRESENTATION('',(#355),#358);
#355 = B_SPLINE_CURVE_WITH_KNOTS('',1,(#356,#357),.UNSPECIFIED.,.F.,.F.,
  (2,2),(1.570796326795,3.14159265359),.PIECEWISE_BEZIER_KNOTS.);
#356 = CARTESIAN_POINT('',(1.570796326795,0.));
#357 = CARTESIAN_POINT('',(3.14159265359,0.));
#358 = ( GEOMETRIC_REPRESENTATION_CONTEXT(2) 
PARAMETRIC_REPRESENTATION_CONTEXT() REPRESENTATION_CONTEXT('2D SPACE',''
  ) );
#359 = PCURVE('',#125,#360);
#360 = DEFINITIONAL_REPRESENTATION('',(#361),#369);
#361 = ( BOUNDED_CURVE() B_SPLINE_CURVE(2,(#362,#363,#364,#365,#366,#367
,#368),.UNSPECIFIED.,.T.,.F.) B_SPLINE_CURVE_WITH_KNOTS((1,2,2,2,2,1),(
    -2.094395102393,0.,2.094395102393,4.188790204786,6.28318530718,
8.377580409573),.UNSPECIFIED.) CURVE() GEOMETRIC_REPRESENTATION_ITEM() 
RATIONAL_B_SPLINE_CURVE((1.,0.5,1.,0.5,1.,0.5,1.)) REPRESENTATION_ITEM(
  '') );
#362 = CARTESIAN_POINT('',(-15.1989506512,-17.03897528984));
#363 = CARTESIAN_POINT('',(-15.1989506512,-3.182568829293));
#364 = CARTESIAN_POINT('',(-3.198950651206,-10.11077205956));
#365 = CARTESIAN_POINT('',(8.801049348794,-17.03897528984));
#366 = CARTESIAN_POINT('',(-3.198950651206,-23.96717852011));
#367 = CARTESIAN_POINT('',(-15.1989506512,-30.89538175039));
#368 = CARTESIAN_POINT('',(-15.1989506512,-17.03897528984));
#369 = ( GEOMETRIC_REPRESENTATION_CONTEXT(2) 
PARAMETRIC_REPRESENTATION_CONTEXT() REPRESENTATION_CONTEXT('2D SPACE',''
  ) );
#370 = ADVANCED_FACE('',(#371),#308,.F.);
#371 = FACE_BOUND('',#372,.T.);
#372 = EDGE_LOOP('',(#373,#374,#397,#424));
#373 = ORIENTED_EDGE('',*,*,#291,.T.);
#374 = ORIENTED_EDGE('',*,*,#375,.T.);
#375 = EDGE_CURVE('',#294,#376,#378,.T.);
#376 = VERTEX_POINT('',#377);
#377 = CARTESIAN_POINT('',(-15.22248712292,15.5,90.450003629286));
#378 = SURFACE_CURVE('',#379,(#383,#390),.PCURVE_S1.);
#379 = LINE('',#380,#381);
#380 = CARTESIAN_POINT('',(-15.22248712292,8.,90.450003629286));
#381 = VECTOR('',#382,1.);
#382 = DIRECTION('',(8.881785255792E-16,1.,4.996001625579E-16));
#383 = PCURVE('',#308,#384);
#384 = DEFINITIONAL_REPRESENTATION('',(#385),#389);
#385 = LINE('',#386,#387);
#386 = CARTESIAN_POINT('',(-3.139849491518E-15,-4.7625));
#387 = VECTOR('',#388,1.);
#388 = DIRECTION('',(-1.,5.551113799637E-17));
#389 = ( GEOMETRIC_REPRESENTATION_CONTEXT(2) 
PARAMETRIC_REPRESENTATION_CONTEXT() REPRESENTATION_CONTEXT('2D SPACE',''
  ) );
#390 = PCURVE('',#71,#391);
#391 = DEFINITIONAL_REPRESENTATION('',(#392),#396);
#392 = LINE('',#393,#394);
#393 = CARTESIAN_POINT('',(-7.198950651206,-9.038975289844));
#394 = VECTOR('',#395,1.);
#395 = DIRECTION('',(-1.,3.330669206224E-16));
#396 = ( GEOMETRIC_REPRESENTATION_CONTEXT(2) 
PARAMETRIC_REPRESENTATION_CONTEXT() REPRESENTATION_CONTEXT('2D SPACE',''
  ) );
#397 = ORIENTED_EDGE('',*,*,#398,.F.);
#398 = EDGE_CURVE('',#399,#376,#401,.T.);
#399 = VERTEX_POINT('',#400);
#400 = CARTESIAN_POINT('',(-10.45998712292,15.5,90.450002493818));
#401 = SURFACE_CURVE('',#402,(#406,#413),.PCURVE_S1.);
#402 = LINE('',#403,#404);
#403 = CARTESIAN_POINT('',(-10.45998712292,15.5,90.450002493818));
#404 = VECTOR('',#405,1.);
#405 = DIRECTION('',(-1.,5.551115123126E-16,2.384185931333E-07));
#406 = PCURVE('',#308,#407);
#407 = DEFINITIONAL_REPRESENTATION('',(#408),#412);
#408 = LINE('',#409,#410);
#409 = CARTESIAN_POINT('',(-7.5,8.604228440843E-16));
#410 = VECTOR('',#411,1.);
#411 = DIRECTION('',(2.775557561563E-16,-1.));
#412 = ( GEOMETRIC_REPRESENTATION_CONTEXT(2) 
PARAMETRIC_REPRESENTATION_CONTEXT() REPRESENTATION_CONTEXT('2D SPACE',''
  ) );
#413 = PCURVE('',#414,#419);
#414 = CYLINDRICAL_SURFACE('',#415,7.300000000039);
#415 = AXIS2_PLACEMENT_3D('',#416,#417,#418);
#416 = CARTESIAN_POINT('',(-10.45998538247,15.5,97.750002493857));
#417 = DIRECTION('',(1.,-8.326672684689E-16,-2.384185929668E-07));
#418 = DIRECTION('',(8.32667374348E-16,1.,4.440890113267E-16));
#419 = DEFINITIONAL_REPRESENTATION('',(#420),#423);
#420 = B_SPLINE_CURVE_WITH_KNOTS('',1,(#421,#422),.UNSPECIFIED.,.F.,.F.,
  (2,2),(0.,4.7625),.PIECEWISE_BEZIER_KNOTS.);
#421 = CARTESIAN_POINT('',(4.712388980385,0.));
#422 = CARTESIAN_POINT('',(4.712388980385,-4.7625));
#423 = ( GEOMETRIC_REPRESENTATION_CONTEXT(2) 
PARAMETRIC_REPRESENTATION_CONTEXT() REPRESENTATION_CONTEXT('2D SPACE',''
  ) );
#424 = ORIENTED_EDGE('',*,*,#425,.F.);
#425 = EDGE_CURVE('',#292,#399,#426,.T.);
#426 = SURFACE_CURVE('',#427,(#431,#438),.PCURVE_S1.);
#427 = LINE('',#428,#429);
#428 = CARTESIAN_POINT('',(-10.45998712292,8.,90.450002493817));
#429 = VECTOR('',#430,1.);
#430 = DIRECTION('',(8.881785255792E-16,1.,4.996001625579E-16));
#431 = PCURVE('',#308,#432);
#432 = DEFINITIONAL_REPRESENTATION('',(#433),#437);
#433 = LINE('',#434,#435);
#434 = CARTESIAN_POINT('',(-4.440892098501E-15,7.105427357601E-15));
#435 = VECTOR('',#436,1.);
#436 = DIRECTION('',(-1.,5.551113799637E-17));
#437 = ( GEOMETRIC_REPRESENTATION_CONTEXT(2) 
PARAMETRIC_REPRESENTATION_CONTEXT() REPRESENTATION_CONTEXT('2D SPACE',''
  ) );
#438 = PCURVE('',#125,#439);
#439 = DEFINITIONAL_REPRESENTATION('',(#440),#444);
#440 = LINE('',#441,#442);
#441 = CARTESIAN_POINT('',(-7.198950651206,-9.038975289844));
#442 = VECTOR('',#443,1.);
#443 = DIRECTION('',(-1.,3.330669206224E-16));
#444 = ( GEOMETRIC_REPRESENTATION_CONTEXT(2) 
PARAMETRIC_REPRESENTATION_CONTEXT() REPRESENTATION_CONTEXT('2D SPACE',''
  ) );
#445 = ADVANCED_FACE('',(#446),#414,.T.);
#446 = FACE_BOUND('',#447,.T.);
#447 = EDGE_LOOP('',(#448,#449,#476,#503));
#448 = ORIENTED_EDGE('',*,*,#398,.T.);
#449 = ORIENTED_EDGE('',*,*,#450,.T.);
#450 = EDGE_CURVE('',#376,#451,#453,.T.);
#451 = VERTEX_POINT('',#452);
#452 = CARTESIAN_POINT('',(-15.22248394774,19.632533341759,
    103.76765833691));
#453 = SURFACE_CURVE('',#454,(#459,#465),.PCURVE_S1.);
#454 = CIRCLE('',#455,7.300000000039);
#455 = AXIS2_PLACEMENT_3D('',#456,#457,#458);
#456 = CARTESIAN_POINT('',(-15.22248538247,15.5,97.750003629325));
#457 = DIRECTION('',(1.,-8.881784064652E-16,-2.384185930223E-07));
#458 = DIRECTION('',(8.881785255792E-16,1.,4.996001625579E-16));
#459 = PCURVE('',#414,#460);
#460 = DEFINITIONAL_REPRESENTATION('',(#461),#464);
#461 = B_SPLINE_CURVE_WITH_KNOTS('',1,(#462,#463),.UNSPECIFIED.,.F.,.F.,
  (2,2),(4.712388980385,7.252214029133),.PIECEWISE_BEZIER_KNOTS.);
#462 = CARTESIAN_POINT('',(4.712388980385,-4.7625));
#463 = CARTESIAN_POINT('',(7.252214029133,-4.7625));
#464 = ( GEOMETRIC_REPRESENTATION_CONTEXT(2) 
PARAMETRIC_REPRESENTATION_CONTEXT() REPRESENTATION_CONTEXT('2D SPACE',''
  ) );
#465 = PCURVE('',#71,#466);
#466 = DEFINITIONAL_REPRESENTATION('',(#467),#475);
#467 = ( BOUNDED_CURVE() B_SPLINE_CURVE(2,(#468,#469,#470,#471,#472,#473
,#474),.UNSPECIFIED.,.T.,.F.) B_SPLINE_CURVE_WITH_KNOTS((1,2,2,2,2,1),(
    -2.094395102393,0.,2.094395102393,4.188790204786,6.28318530718,
8.377580409573),.UNSPECIFIED.) CURVE() GEOMETRIC_REPRESENTATION_ITEM() 
RATIONAL_B_SPLINE_CURVE((1.,0.5,1.,0.5,1.,0.5,1.)) REPRESENTATION_ITEM(
  '') );
#468 = CARTESIAN_POINT('',(-21.99895065124,-1.738975289804));
#469 = CARTESIAN_POINT('',(-21.99895065124,10.904995605515));
#470 = CARTESIAN_POINT('',(-11.04895065118,4.583010157855));
#471 = CARTESIAN_POINT('',(-9.895065112856E-02,-1.738975289804));
#472 = CARTESIAN_POINT('',(-11.04895065118,-8.060960737464));
#473 = CARTESIAN_POINT('',(-21.99895065124,-14.38294618512));
#474 = CARTESIAN_POINT('',(-21.99895065124,-1.738975289804));
#475 = ( GEOMETRIC_REPRESENTATION_CONTEXT(2) 
PARAMETRIC_REPRESENTATION_CONTEXT() REPRESENTATION_CONTEXT('2D SPACE',''
  ) );
#476 = ORIENTED_EDGE('',*,*,#477,.F.);
#477 = EDGE_CURVE('',#478,#451,#480,.T.);
#478 = VERTEX_POINT('',#479);
#479 = CARTESIAN_POINT('',(-10.45998394774,19.632533341759,
    103.76765720145));
#480 = SURFACE_CURVE('',#481,(#485,#491),.PCURVE_S1.);
#481 = LINE('',#482,#483);
#482 = CARTESIAN_POINT('',(-10.45998394774,19.632533341759,
    103.76765720145));
#483 = VECTOR('',#484,1.);
#484 = DIRECTION('',(-1.,5.551115123126E-16,2.384185931333E-07));
#485 = PCURVE('',#414,#486);
#486 = DEFINITIONAL_REPRESENTATION('',(#487),#490);
#487 = B_SPLINE_CURVE_WITH_KNOTS('',1,(#488,#489),.UNSPECIFIED.,.F.,.F.,
  (2,2),(0.,4.7625),.PIECEWISE_BEZIER_KNOTS.);
#488 = CARTESIAN_POINT('',(7.252214029133,0.));
#489 = CARTESIAN_POINT('',(7.252214029133,-4.7625));
#490 = ( GEOMETRIC_REPRESENTATION_CONTEXT(2) 
PARAMETRIC_REPRESENTATION_CONTEXT() REPRESENTATION_CONTEXT('2D SPACE',''
  ) );
#491 = PCURVE('',#492,#497);
#492 = PLANE('',#493);
#493 = AXIS2_PLACEMENT_3D('',#494,#495,#496);
#494 = CARTESIAN_POINT('',(-10.45998087539,0.867799084454,
    116.65405459974));
#495 = DIRECTION('',(1.965370920043E-07,0.566100457773,0.824336261309));
#496 = DIRECTION('',(1.349688739337E-07,-0.824336261309,0.566100457773)
  );
#497 = DEFINITIONAL_REPRESENTATION('',(#498),#502);
#498 = LINE('',#499,#500);
#499 = CARTESIAN_POINT('',(-22.76344634834,-5.466386417412E-16));
#500 = VECTOR('',#501,1.);
#501 = DIRECTION('',(3.23073956783E-16,-1.));
#502 = ( GEOMETRIC_REPRESENTATION_CONTEXT(2) 
PARAMETRIC_REPRESENTATION_CONTEXT() REPRESENTATION_CONTEXT('2D SPACE',''
  ) );
#503 = ORIENTED_EDGE('',*,*,#504,.F.);
#504 = EDGE_CURVE('',#399,#478,#505,.T.);
#505 = SURFACE_CURVE('',#506,(#511,#517),.PCURVE_S1.);
#506 = CIRCLE('',#507,7.300000000039);
#507 = AXIS2_PLACEMENT_3D('',#508,#509,#510);
#508 = CARTESIAN_POINT('',(-10.45998538247,15.5,97.750002493857));
#509 = DIRECTION('',(1.,-8.881784064652E-16,-2.384185930223E-07));
#510 = DIRECTION('',(8.881785255792E-16,1.,4.996001625579E-16));
#511 = PCURVE('',#414,#512);
#512 = DEFINITIONAL_REPRESENTATION('',(#513),#516);
#513 = B_SPLINE_CURVE_WITH_KNOTS('',1,(#514,#515),.UNSPECIFIED.,.F.,.F.,
  (2,2),(4.712388980385,7.252214029133),.PIECEWISE_BEZIER_KNOTS.);
#514 = CARTESIAN_POINT('',(4.712388980385,0.));
#515 = CARTESIAN_POINT('',(7.252214029133,0.));
#516 = ( GEOMETRIC_REPRESENTATION_CONTEXT(2) 
PARAMETRIC_REPRESENTATION_CONTEXT() REPRESENTATION_CONTEXT('2D SPACE',''
  ) );
#517 = PCURVE('',#125,#518);
#518 = DEFINITIONAL_REPRESENTATION('',(#519),#527);
#519 = ( BOUNDED_CURVE() B_SPLINE_CURVE(2,(#520,#521,#522,#523,#524,#525
,#526),.UNSPECIFIED.,.T.,.F.) B_SPLINE_CURVE_WITH_KNOTS((1,2,2,2,2,1),(
    -2.094395102393,0.,2.094395102393,4.188790204786,6.28318530718,
8.377580409573),.UNSPECIFIED.) CURVE() GEOMETRIC_REPRESENTATION_ITEM() 
RATIONAL_B_SPLINE_CURVE((1.,0.5,1.,0.5,1.,0.5,1.)) REPRESENTATION_ITEM(
  '') );
#520 = CARTESIAN_POINT('',(-21.99895065124,-1.738975289804));
#521 = CARTESIAN_POINT('',(-21.99895065124,10.904995605515));
#522 = CARTESIAN_POINT('',(-11.04895065118,4.583010157855));
#523 = CARTESIAN_POINT('',(-9.895065112856E-02,-1.738975289804));
#524 = CARTESIAN_POINT('',(-11.04895065118,-8.060960737464));
#525 = CARTESIAN_POINT('',(-21.99895065124,-14.38294618512));
#526 = CARTESIAN_POINT('',(-21.99895065124,-1.738975289804));
#527 = ( GEOMETRIC_REPRESENTATION_CONTEXT(2) 
PARAMETRIC_REPRESENTATION_CONTEXT() REPRESENTATION_CONTEXT('2D SPACE',''
  ) );
#528 = ADVANCED_FACE('',(#529),#492,.T.);
#529 = FACE_BOUND('',#530,.F.);
#530 = EDGE_LOOP('',(#531,#555,#576,#577));
#531 = ORIENTED_EDGE('',*,*,#532,.T.);
#532 = EDGE_CURVE('',#533,#535,#537,.T.);
#533 = VERTEX_POINT('',#534);
#534 = CARTESIAN_POINT('',(-10.45998087539,0.867799084454,
    116.65405459974));
#535 = VERTEX_POINT('',#536);
#536 = CARTESIAN_POINT('',(-15.22248087539,0.867799084454,
    116.65405573521));
#537 = SURFACE_CURVE('',#538,(#542,#549),.PCURVE_S1.);
#538 = LINE('',#539,#540);
#539 = CARTESIAN_POINT('',(-10.45998087539,0.867799084454,
    116.65405459974));
#540 = VECTOR('',#541,1.);
#541 = DIRECTION('',(-1.,5.551115123126E-16,2.384185931333E-07));
#542 = PCURVE('',#492,#543);
#543 = DEFINITIONAL_REPRESENTATION('',(#544),#548);
#544 = LINE('',#545,#546);
#545 = CARTESIAN_POINT('',(-0.,0.));
#546 = VECTOR('',#547,1.);
#547 = DIRECTION('',(3.23073956783E-16,-1.));
#548 = ( GEOMETRIC_REPRESENTATION_CONTEXT(2) 
PARAMETRIC_REPRESENTATION_CONTEXT() REPRESENTATION_CONTEXT('2D SPACE',''
  ) );
#549 = PCURVE('',#44,#550);
#550 = DEFINITIONAL_REPRESENTATION('',(#551),#554);
#551 = B_SPLINE_CURVE_WITH_KNOTS('',1,(#552,#553),.UNSPECIFIED.,.F.,.F.,
  (2,2),(0.,4.7625),.PIECEWISE_BEZIER_KNOTS.);
#552 = CARTESIAN_POINT('',(4.110621375542,0.));
#553 = CARTESIAN_POINT('',(4.110621375542,-4.7625));
#554 = ( GEOMETRIC_REPRESENTATION_CONTEXT(2) 
PARAMETRIC_REPRESENTATION_CONTEXT() REPRESENTATION_CONTEXT('2D SPACE',''
  ) );
#555 = ORIENTED_EDGE('',*,*,#556,.T.);
#556 = EDGE_CURVE('',#535,#451,#557,.T.);
#557 = SURFACE_CURVE('',#558,(#562,#569),.PCURVE_S1.);
#558 = LINE('',#559,#560);
#559 = CARTESIAN_POINT('',(-15.22248087539,0.867799084454,
    116.65405573521));
#560 = VECTOR('',#561,1.);
#561 = DIRECTION('',(-1.349688739194E-07,0.824336261309,-0.566100457773)
  );
#562 = PCURVE('',#492,#563);
#563 = DEFINITIONAL_REPRESENTATION('',(#564),#568);
#564 = LINE('',#565,#566);
#565 = CARTESIAN_POINT('',(-1.360938784254E-14,-4.7625));
#566 = VECTOR('',#567,1.);
#567 = DIRECTION('',(-1.,1.433494737132E-17));
#568 = ( GEOMETRIC_REPRESENTATION_CONTEXT(2) 
PARAMETRIC_REPRESENTATION_CONTEXT() REPRESENTATION_CONTEXT('2D SPACE',''
  ) );
#569 = PCURVE('',#71,#570);
#570 = DEFINITIONAL_REPRESENTATION('',(#571),#575);
#571 = LINE('',#572,#573);
#572 = CARTESIAN_POINT('',(-6.674973565951E-02,17.165076816086));
#573 = VECTOR('',#574,1.);
#574 = DIRECTION('',(-0.824336261309,-0.566100457773));
#575 = ( GEOMETRIC_REPRESENTATION_CONTEXT(2) 
PARAMETRIC_REPRESENTATION_CONTEXT() REPRESENTATION_CONTEXT('2D SPACE',''
  ) );
#576 = ORIENTED_EDGE('',*,*,#477,.F.);
#577 = ORIENTED_EDGE('',*,*,#578,.F.);
#578 = EDGE_CURVE('',#533,#478,#579,.T.);
#579 = SURFACE_CURVE('',#580,(#584,#591),.PCURVE_S1.);
#580 = LINE('',#581,#582);
#581 = CARTESIAN_POINT('',(-10.45998087539,0.867799084454,
    116.65405459974));
#582 = VECTOR('',#583,1.);
#583 = DIRECTION('',(-1.349688739194E-07,0.824336261309,-0.566100457773)
  );
#584 = PCURVE('',#492,#585);
#585 = DEFINITIONAL_REPRESENTATION('',(#586),#590);
#586 = LINE('',#587,#588);
#587 = CARTESIAN_POINT('',(-1.683066277482E-14,5.329073906333E-15));
#588 = VECTOR('',#589,1.);
#589 = DIRECTION('',(-1.,1.433494737132E-17));
#590 = ( GEOMETRIC_REPRESENTATION_CONTEXT(2) 
PARAMETRIC_REPRESENTATION_CONTEXT() REPRESENTATION_CONTEXT('2D SPACE',''
  ) );
#591 = PCURVE('',#125,#592);
#592 = DEFINITIONAL_REPRESENTATION('',(#593),#597);
#593 = LINE('',#594,#595);
#594 = CARTESIAN_POINT('',(-6.674973565951E-02,17.165076816086));
#595 = VECTOR('',#596,1.);
#596 = DIRECTION('',(-0.824336261309,-0.566100457773));
#597 = ( GEOMETRIC_REPRESENTATION_CONTEXT(2) 
PARAMETRIC_REPRESENTATION_CONTEXT() REPRESENTATION_CONTEXT('2D SPACE',''
  ) );
#598 = ADVANCED_FACE('',(#599),#44,.F.);
#599 = FACE_BOUND('',#600,.F.);
#600 = EDGE_LOOP('',(#601,#602,#627,#628));
#601 = ORIENTED_EDGE('',*,*,#21,.T.);
#602 = ORIENTED_EDGE('',*,*,#603,.T.);
#603 = EDGE_CURVE('',#24,#535,#604,.T.);
#604 = SURFACE_CURVE('',#605,(#610,#616),.PCURVE_S1.);
#605 = CIRCLE('',#606,2.);
#606 = AXIS2_PLACEMENT_3D('',#607,#608,#609);
#607 = CARTESIAN_POINT('',(-15.22248048231,2.,118.30272825783));
#608 = DIRECTION('',(1.,-8.881784064652E-16,-2.384185930223E-07));
#609 = DIRECTION('',(8.881785255792E-16,1.,4.996001625579E-16));
#610 = PCURVE('',#44,#611);
#611 = DEFINITIONAL_REPRESENTATION('',(#612),#615);
#612 = B_SPLINE_CURVE_WITH_KNOTS('',1,(#613,#614),.UNSPECIFIED.,.F.,.F.,
  (2,2),(3.14159265359,4.110621375542),.PIECEWISE_BEZIER_KNOTS.);
#613 = CARTESIAN_POINT('',(3.14159265359,-4.7625));
#614 = CARTESIAN_POINT('',(4.110621375542,-4.7625));
#615 = ( GEOMETRIC_REPRESENTATION_CONTEXT(2) 
PARAMETRIC_REPRESENTATION_CONTEXT() REPRESENTATION_CONTEXT('2D SPACE',''
  ) );
#616 = PCURVE('',#71,#617);
#617 = DEFINITIONAL_REPRESENTATION('',(#618),#626);
#618 = ( BOUNDED_CURVE() B_SPLINE_CURVE(2,(#619,#620,#621,#622,#623,#624
,#625),.UNSPECIFIED.,.T.,.F.) B_SPLINE_CURVE_WITH_KNOTS((1,2,2,2,2,1),(
    -2.094395102393,0.,2.094395102393,4.188790204786,6.28318530718,
8.377580409573),.UNSPECIFIED.) CURVE() GEOMETRIC_REPRESENTATION_ITEM() 
RATIONAL_B_SPLINE_CURVE((1.,0.5,1.,0.5,1.,0.5,1.)) REPRESENTATION_ITEM(
  '') );
#619 = CARTESIAN_POINT('',(-3.198950651206,18.813749338704));
#620 = CARTESIAN_POINT('',(-3.198950651206,22.277850953842));
#621 = CARTESIAN_POINT('',(-0.198950651206,20.545800146273));
#622 = CARTESIAN_POINT('',(2.801049348794,18.813749338704));
#623 = CARTESIAN_POINT('',(-0.198950651206,17.081698531135));
#624 = CARTESIAN_POINT('',(-3.198950651206,15.349647723566));
#625 = CARTESIAN_POINT('',(-3.198950651206,18.813749338704));
#626 = ( GEOMETRIC_REPRESENTATION_CONTEXT(2) 
PARAMETRIC_REPRESENTATION_CONTEXT() REPRESENTATION_CONTEXT('2D SPACE',''
  ) );
#627 = ORIENTED_EDGE('',*,*,#532,.F.);
#628 = ORIENTED_EDGE('',*,*,#629,.F.);
#629 = EDGE_CURVE('',#22,#533,#630,.T.);
#630 = SURFACE_CURVE('',#631,(#636,#642),.PCURVE_S1.);
#631 = CIRCLE('',#632,2.);
#632 = AXIS2_PLACEMENT_3D('',#633,#634,#635);
#633 = CARTESIAN_POINT('',(-10.45998048231,2.,118.30272712236));
#634 = DIRECTION('',(1.,-8.881784064652E-16,-2.384185930223E-07));
#635 = DIRECTION('',(8.881785255792E-16,1.,4.996001625579E-16));
#636 = PCURVE('',#44,#637);
#637 = DEFINITIONAL_REPRESENTATION('',(#638),#641);
#638 = B_SPLINE_CURVE_WITH_KNOTS('',1,(#639,#640),.UNSPECIFIED.,.F.,.F.,
  (2,2),(3.14159265359,4.110621375542),.PIECEWISE_BEZIER_KNOTS.);
#639 = CARTESIAN_POINT('',(3.14159265359,0.));
#640 = CARTESIAN_POINT('',(4.110621375542,0.));
#641 = ( GEOMETRIC_REPRESENTATION_CONTEXT(2) 
PARAMETRIC_REPRESENTATION_CONTEXT() REPRESENTATION_CONTEXT('2D SPACE',''
  ) );
#642 = PCURVE('',#125,#643);
#643 = DEFINITIONAL_REPRESENTATION('',(#644),#652);
#644 = ( BOUNDED_CURVE() B_SPLINE_CURVE(2,(#645,#646,#647,#648,#649,#650
,#651),.UNSPECIFIED.,.T.,.F.) B_SPLINE_CURVE_WITH_KNOTS((1,2,2,2,2,1),(
    -2.094395102393,0.,2.094395102393,4.188790204786,6.28318530718,
8.377580409573),.UNSPECIFIED.) CURVE() GEOMETRIC_REPRESENTATION_ITEM() 
RATIONAL_B_SPLINE_CURVE((1.,0.5,1.,0.5,1.,0.5,1.)) REPRESENTATION_ITEM(
  '') );
#645 = CARTESIAN_POINT('',(-3.198950651206,18.813749338704));
#646 = CARTESIAN_POINT('',(-3.198950651206,22.277850953842));
#647 = CARTESIAN_POINT('',(-0.198950651206,20.545800146273));
#648 = CARTESIAN_POINT('',(2.801049348794,18.813749338704));
#649 = CARTESIAN_POINT('',(-0.198950651206,17.081698531135));
#650 = CARTESIAN_POINT('',(-3.198950651206,15.349647723566));
#651 = CARTESIAN_POINT('',(-3.198950651206,18.813749338704));
#652 = ( GEOMETRIC_REPRESENTATION_CONTEXT(2) 
PARAMETRIC_REPRESENTATION_CONTEXT() REPRESENTATION_CONTEXT('2D SPACE',''
  ) );
#653 = ADVANCED_FACE('',(#654),#668,.F.);
#654 = FACE_BOUND('',#655,.F.);
#655 = EDGE_LOOP('',(#656,#684,#709,#710));
#656 = ORIENTED_EDGE('',*,*,#657,.T.);
#657 = EDGE_CURVE('',#658,#660,#662,.T.);
#658 = VERTEX_POINT('',#659);
#659 = CARTESIAN_POINT('',(-10.45998538247,18.8,97.750002493857));
#660 = VERTEX_POINT('',#661);
#661 = CARTESIAN_POINT('',(-15.22248538247,18.8,97.750003629325));
#662 = SEAM_CURVE('',#663,(#667,#678),.PCURVE_S1.);
#663 = LINE('',#664,#665);
#664 = CARTESIAN_POINT('',(-10.45998538247,18.8,97.750002493857));
#665 = VECTOR('',#666,1.);
#666 = DIRECTION('',(-1.,5.551115123126E-16,2.384185931333E-07));
#667 = PCURVE('',#668,#673);
#668 = CYLINDRICAL_SURFACE('',#669,3.3);
#669 = AXIS2_PLACEMENT_3D('',#670,#671,#672);
#670 = CARTESIAN_POINT('',(-10.45998538247,15.5,97.750002493857));
#671 = DIRECTION('',(1.,-8.326672684689E-16,-2.384185929668E-07));
#672 = DIRECTION('',(8.32667374348E-16,1.,4.440890113267E-16));
#673 = DEFINITIONAL_REPRESENTATION('',(#674),#677);
#674 = B_SPLINE_CURVE_WITH_KNOTS('',1,(#675,#676),.UNSPECIFIED.,.F.,.F.,
  (2,2),(0.,4.7625),.PIECEWISE_BEZIER_KNOTS.);
#675 = CARTESIAN_POINT('',(0.,0.));
#676 = CARTESIAN_POINT('',(0.,-4.7625));
#677 = ( GEOMETRIC_REPRESENTATION_CONTEXT(2) 
PARAMETRIC_REPRESENTATION_CONTEXT() REPRESENTATION_CONTEXT('2D SPACE',''
  ) );
#678 = PCURVE('',#668,#679);
#679 = DEFINITIONAL_REPRESENTATION('',(#680),#683);
#680 = B_SPLINE_CURVE_WITH_KNOTS('',1,(#681,#682),.UNSPECIFIED.,.F.,.F.,
  (2,2),(0.,4.7625),.PIECEWISE_BEZIER_KNOTS.);
#681 = CARTESIAN_POINT('',(6.28318530718,0.));
#682 = CARTESIAN_POINT('',(6.28318530718,-4.7625));
#683 = ( GEOMETRIC_REPRESENTATION_CONTEXT(2) 
PARAMETRIC_REPRESENTATION_CONTEXT() REPRESENTATION_CONTEXT('2D SPACE',''
  ) );
#684 = ORIENTED_EDGE('',*,*,#685,.T.);
#685 = EDGE_CURVE('',#660,#660,#686,.T.);
#686 = SURFACE_CURVE('',#687,(#692,#698),.PCURVE_S1.);
#687 = CIRCLE('',#688,3.3);
#688 = AXIS2_PLACEMENT_3D('',#689,#690,#691);
#689 = CARTESIAN_POINT('',(-15.22248538247,15.5,97.750003629325));
#690 = DIRECTION('',(1.,-8.881784064652E-16,-2.384185930223E-07));
#691 = DIRECTION('',(8.881785255792E-16,1.,4.996001625579E-16));
#692 = PCURVE('',#668,#693);
#693 = DEFINITIONAL_REPRESENTATION('',(#694),#697);
#694 = B_SPLINE_CURVE_WITH_KNOTS('',1,(#695,#696),.UNSPECIFIED.,.F.,.F.,
  (2,2),(0.,6.28318530718),.PIECEWISE_BEZIER_KNOTS.);
#695 = CARTESIAN_POINT('',(0.,-4.7625));
#696 = CARTESIAN_POINT('',(6.28318530718,-4.7625));
#697 = ( GEOMETRIC_REPRESENTATION_CONTEXT(2) 
PARAMETRIC_REPRESENTATION_CONTEXT() REPRESENTATION_CONTEXT('2D SPACE',''
  ) );
#698 = PCURVE('',#71,#699);
#699 = DEFINITIONAL_REPRESENTATION('',(#700),#708);
#700 = ( BOUNDED_CURVE() B_SPLINE_CURVE(2,(#701,#702,#703,#704,#705,#706
,#707),.UNSPECIFIED.,.T.,.F.) B_SPLINE_CURVE_WITH_KNOTS((1,2,2,2,2,1),(
    -2.094395102393,0.,2.094395102393,4.188790204786,6.28318530718,
8.377580409573),.UNSPECIFIED.) CURVE() GEOMETRIC_REPRESENTATION_ITEM() 
RATIONAL_B_SPLINE_CURVE((1.,0.5,1.,0.5,1.,0.5,1.)) REPRESENTATION_ITEM(
  '') );
#701 = CARTESIAN_POINT('',(-17.9989506512,-1.738975289804));
#702 = CARTESIAN_POINT('',(-17.9989506512,3.976792375173));
#703 = CARTESIAN_POINT('',(-13.0489506512,1.118908542684));
#704 = CARTESIAN_POINT('',(-8.098950651206,-1.738975289804));
#705 = CARTESIAN_POINT('',(-13.0489506512,-4.596859122293));
#706 = CARTESIAN_POINT('',(-17.9989506512,-7.454742954782));
#707 = CARTESIAN_POINT('',(-17.9989506512,-1.738975289804));
#708 = ( GEOMETRIC_REPRESENTATION_CONTEXT(2) 
PARAMETRIC_REPRESENTATION_CONTEXT() REPRESENTATION_CONTEXT('2D SPACE',''
  ) );
#709 = ORIENTED_EDGE('',*,*,#657,.F.);
#710 = ORIENTED_EDGE('',*,*,#711,.F.);
#711 = EDGE_CURVE('',#658,#658,#712,.T.);
#712 = SURFACE_CURVE('',#713,(#718,#724),.PCURVE_S1.);
#713 = CIRCLE('',#714,3.3);
#714 = AXIS2_PLACEMENT_3D('',#715,#716,#717);
#715 = CARTESIAN_POINT('',(-10.45998538247,15.5,97.750002493857));
#716 = DIRECTION('',(1.,-8.881784064652E-16,-2.384185930223E-07));
#717 = DIRECTION('',(8.881785255792E-16,1.,4.996001625579E-16));
#718 = PCURVE('',#668,#719);
#719 = DEFINITIONAL_REPRESENTATION('',(#720),#723);
#720 = B_SPLINE_CURVE_WITH_KNOTS('',1,(#721,#722),.UNSPECIFIED.,.F.,.F.,
  (2,2),(0.,6.28318530718),.PIECEWISE_BEZIER_KNOTS.);
#721 = CARTESIAN_POINT('',(0.,0.));
#722 = CARTESIAN_POINT('',(6.28318530718,0.));
#723 = ( GEOMETRIC_REPRESENTATION_CONTEXT(2) 
PARAMETRIC_REPRESENTATION_CONTEXT() REPRESENTATION_CONTEXT('2D SPACE',''
  ) );
#724 = PCURVE('',#125,#725);
#725 = DEFINITIONAL_REPRESENTATION('',(#726),#734);
#726 = ( BOUNDED_CURVE() B_SPLINE_CURVE(2,(#727,#728,#729,#730,#731,#732
,#733),.UNSPECIFIED.,.T.,.F.) B_SPLINE_CURVE_WITH_KNOTS((1,2,2,2,2,1),(
    -2.094395102393,0.,2.094395102393,4.188790204786,6.28318530718,
8.377580409573),.UNSPECIFIED.) CURVE() GEOMETRIC_REPRESENTATION_ITEM() 
RATIONAL_B_SPLINE_CURVE((1.,0.5,1.,0.5,1.,0.5,1.)) REPRESENTATION_ITEM(
  '') );
#727 = CARTESIAN_POINT('',(-17.9989506512,-1.738975289804));
#728 = CARTESIAN_POINT('',(-17.9989506512,3.976792375173));
#729 = CARTESIAN_POINT('',(-13.0489506512,1.118908542684));
#730 = CARTESIAN_POINT('',(-8.098950651206,-1.738975289804));
#731 = CARTESIAN_POINT('',(-13.0489506512,-4.596859122293));
#732 = CARTESIAN_POINT('',(-17.9989506512,-7.454742954782));
#733 = CARTESIAN_POINT('',(-17.9989506512,-1.738975289804));
#734 = ( GEOMETRIC_REPRESENTATION_CONTEXT(2) 
PARAMETRIC_REPRESENTATION_CONTEXT() REPRESENTATION_CONTEXT('2D SPACE',''
  ) );
#735 = ADVANCED_FACE('',(#736),#750,.T.);
#736 = FACE_BOUND('',#737,.F.);
#737 = EDGE_LOOP('',(#738,#773,#796,#824));
#738 = ORIENTED_EDGE('',*,*,#739,.T.);
#739 = EDGE_CURVE('',#740,#742,#744,.T.);
#740 = VERTEX_POINT('',#741);
#741 = CARTESIAN_POINT('',(-10.45998572659,-4.8,96.306626820883));
#742 = VERTEX_POINT('',#743);
#743 = CARTESIAN_POINT('',(-15.22248572659,-4.8,96.306627956351));
#744 = SURFACE_CURVE('',#745,(#749,#761),.PCURVE_S1.);
#745 = LINE('',#746,#747);
#746 = CARTESIAN_POINT('',(-10.45998572659,-4.8,96.306626820883));
#747 = VECTOR('',#748,1.);
#748 = DIRECTION('',(-1.,5.551115123126E-16,2.384185931333E-07));
#749 = PCURVE('',#750,#755);
#750 = PLANE('',#751);
#751 = AXIS2_PLACEMENT_3D('',#752,#753,#754);
#752 = CARTESIAN_POINT('',(-10.45998572659,-4.8,96.306626820883));
#753 = DIRECTION('',(-5.551116049568E-16,-1.,-3.885779262699E-16));
#754 = DIRECTION('',(-2.384185929668E-07,3.885780586188E-16,-1.));
#755 = DEFINITIONAL_REPRESENTATION('',(#756),#760);
#756 = LINE('',#757,#758);
#757 = CARTESIAN_POINT('',(-0.,0.));
#758 = VECTOR('',#759,1.);
#759 = DIRECTION('',(-1.665334536938E-16,-1.));
#760 = ( GEOMETRIC_REPRESENTATION_CONTEXT(2) 
PARAMETRIC_REPRESENTATION_CONTEXT() REPRESENTATION_CONTEXT('2D SPACE',''
  ) );
#761 = PCURVE('',#762,#767);
#762 = PLANE('',#763);
#763 = AXIS2_PLACEMENT_3D('',#764,#765,#766);
#764 = CARTESIAN_POINT('',(-10.45998607072,-7.3,94.863251147909));
#765 = DIRECTION('',(2.064765581104E-07,-0.5,0.866025403784));
#766 = DIRECTION('',(-1.192092972045E-07,-0.866025403784,-0.5));
#767 = DEFINITIONAL_REPRESENTATION('',(#768),#772);
#768 = LINE('',#769,#770);
#769 = CARTESIAN_POINT('',(-2.886751345948,1.508621794993E-16));
#770 = VECTOR('',#771,1.);
#771 = DIRECTION('',(1.571036211804E-16,-1.));
#772 = ( GEOMETRIC_REPRESENTATION_CONTEXT(2) 
PARAMETRIC_REPRESENTATION_CONTEXT() REPRESENTATION_CONTEXT('2D SPACE',''
  ) );
#773 = ORIENTED_EDGE('',*,*,#774,.T.);
#774 = EDGE_CURVE('',#742,#775,#777,.T.);
#775 = VERTEX_POINT('',#776);
#776 = CARTESIAN_POINT('',(-15.22248503834,-4.8,99.193379302299));
#777 = SURFACE_CURVE('',#778,(#782,#789),.PCURVE_S1.);
#778 = LINE('',#779,#780);
#779 = CARTESIAN_POINT('',(-15.22248572659,-4.8,96.306627956351));
#780 = VECTOR('',#781,1.);
#781 = DIRECTION('',(2.384185930223E-07,-3.330668941527E-16,1.));
#782 = PCURVE('',#750,#783);
#783 = DEFINITIONAL_REPRESENTATION('',(#784),#788);
#784 = LINE('',#785,#786);
#785 = CARTESIAN_POINT('',(2.624262294118E-14,-4.7625));
#786 = VECTOR('',#787,1.);
#787 = DIRECTION('',(-1.,5.551115123126E-17));
#788 = ( GEOMETRIC_REPRESENTATION_CONTEXT(2) 
PARAMETRIC_REPRESENTATION_CONTEXT() REPRESENTATION_CONTEXT('2D SPACE',''
  ) );
#789 = PCURVE('',#71,#790);
#790 = DEFINITIONAL_REPRESENTATION('',(#791),#795);
#791 = LINE('',#792,#793);
#792 = CARTESIAN_POINT('',(5.601049348794,-3.182350962778));
#793 = VECTOR('',#794,1.);
#794 = DIRECTION('',(1.110222892276E-16,1.));
#795 = ( GEOMETRIC_REPRESENTATION_CONTEXT(2) 
PARAMETRIC_REPRESENTATION_CONTEXT() REPRESENTATION_CONTEXT('2D SPACE',''
  ) );
#796 = ORIENTED_EDGE('',*,*,#797,.F.);
#797 = EDGE_CURVE('',#798,#775,#800,.T.);
#798 = VERTEX_POINT('',#799);
#799 = CARTESIAN_POINT('',(-10.45998503834,-4.8,99.193378166831));
#800 = SURFACE_CURVE('',#801,(#805,#812),.PCURVE_S1.);
#801 = LINE('',#802,#803);
#802 = CARTESIAN_POINT('',(-10.45998503834,-4.8,99.193378166831));
#803 = VECTOR('',#804,1.);
#804 = DIRECTION('',(-1.,5.551115123126E-16,2.384185931333E-07));
#805 = PCURVE('',#750,#806);
#806 = DEFINITIONAL_REPRESENTATION('',(#807),#811);
#807 = LINE('',#808,#809);
#808 = CARTESIAN_POINT('',(-2.886751345948,9.123606809486E-16));
#809 = VECTOR('',#810,1.);
#810 = DIRECTION('',(-1.665334536938E-16,-1.));
#811 = ( GEOMETRIC_REPRESENTATION_CONTEXT(2) 
PARAMETRIC_REPRESENTATION_CONTEXT() REPRESENTATION_CONTEXT('2D SPACE',''
  ) );
#812 = PCURVE('',#813,#818);
#813 = PLANE('',#814);
#814 = AXIS2_PLACEMENT_3D('',#815,#816,#817);
#815 = CARTESIAN_POINT('',(-10.45998503834,-4.8,99.193378166831));
#816 = DIRECTION('',(-2.064765586655E-07,-0.5,-0.866025403784));
#817 = DIRECTION('',(-1.192092957623E-07,0.866025403784,-0.5));
#818 = DEFINITIONAL_REPRESENTATION('',(#819),#823);
#819 = LINE('',#820,#821);
#820 = CARTESIAN_POINT('',(-0.,0.));
#821 = VECTOR('',#822,1.);
#822 = DIRECTION('',(-3.236370484044E-16,-1.));
#823 = ( GEOMETRIC_REPRESENTATION_CONTEXT(2) 
PARAMETRIC_REPRESENTATION_CONTEXT() REPRESENTATION_CONTEXT('2D SPACE',''
  ) );
#824 = ORIENTED_EDGE('',*,*,#825,.F.);
#825 = EDGE_CURVE('',#740,#798,#826,.T.);
#826 = SURFACE_CURVE('',#827,(#831,#838),.PCURVE_S1.);
#827 = LINE('',#828,#829);
#828 = CARTESIAN_POINT('',(-10.45998572659,-4.8,96.306626820883));
#829 = VECTOR('',#830,1.);
#830 = DIRECTION('',(2.384185930223E-07,-3.330668941527E-16,1.));
#831 = PCURVE('',#750,#832);
#832 = DEFINITIONAL_REPRESENTATION('',(#833),#837);
#833 = LINE('',#834,#835);
#834 = CARTESIAN_POINT('',(1.421085386817E-14,3.552717066932E-15));
#835 = VECTOR('',#836,1.);
#836 = DIRECTION('',(-1.,5.551115123126E-17));
#837 = ( GEOMETRIC_REPRESENTATION_CONTEXT(2) 
PARAMETRIC_REPRESENTATION_CONTEXT() REPRESENTATION_CONTEXT('2D SPACE',''
  ) );
#838 = PCURVE('',#125,#839);
#839 = DEFINITIONAL_REPRESENTATION('',(#840),#844);
#840 = LINE('',#841,#842);
#841 = CARTESIAN_POINT('',(5.601049348794,-3.182350962778));
#842 = VECTOR('',#843,1.);
#843 = DIRECTION('',(1.110222892276E-16,1.));
#844 = ( GEOMETRIC_REPRESENTATION_CONTEXT(2) 
PARAMETRIC_REPRESENTATION_CONTEXT() REPRESENTATION_CONTEXT('2D SPACE',''
  ) );
#845 = ADVANCED_FACE('',(#846),#813,.T.);
#846 = FACE_BOUND('',#847,.F.);
#847 = EDGE_LOOP('',(#848,#849,#872,#900));
#848 = ORIENTED_EDGE('',*,*,#797,.T.);
#849 = ORIENTED_EDGE('',*,*,#850,.T.);
#850 = EDGE_CURVE('',#775,#851,#853,.T.);
#851 = VERTEX_POINT('',#852);
#852 = CARTESIAN_POINT('',(-15.22248469421,-7.3,100.63675497527));
#853 = SURFACE_CURVE('',#854,(#858,#865),.PCURVE_S1.);
#854 = LINE('',#855,#856);
#855 = CARTESIAN_POINT('',(-15.22248503834,-4.8,99.193379302299));
#856 = VECTOR('',#857,1.);
#857 = DIRECTION('',(1.19209295742E-07,-0.866025403784,0.5));
#858 = PCURVE('',#813,#859);
#859 = DEFINITIONAL_REPRESENTATION('',(#860),#864);
#860 = LINE('',#861,#862);
#861 = CARTESIAN_POINT('',(1.796529458435E-14,-4.7625));
#862 = VECTOR('',#863,1.);
#863 = DIRECTION('',(-1.,-2.031846752006E-17));
#864 = ( GEOMETRIC_REPRESENTATION_CONTEXT(2) 
PARAMETRIC_REPRESENTATION_CONTEXT() REPRESENTATION_CONTEXT('2D SPACE',''
  ) );
#865 = PCURVE('',#71,#866);
#866 = DEFINITIONAL_REPRESENTATION('',(#867),#871);
#867 = LINE('',#868,#869);
#868 = CARTESIAN_POINT('',(5.601049348794,-0.29559961683));
#869 = VECTOR('',#870,1.);
#870 = DIRECTION('',(0.866025403784,0.5));
#871 = ( GEOMETRIC_REPRESENTATION_CONTEXT(2) 
PARAMETRIC_REPRESENTATION_CONTEXT() REPRESENTATION_CONTEXT('2D SPACE',''
  ) );
#872 = ORIENTED_EDGE('',*,*,#873,.F.);
#873 = EDGE_CURVE('',#874,#851,#876,.T.);
#874 = VERTEX_POINT('',#875);
#875 = CARTESIAN_POINT('',(-10.45998469421,-7.3,100.6367538398));
#876 = SURFACE_CURVE('',#877,(#881,#888),.PCURVE_S1.);
#877 = LINE('',#878,#879);
#878 = CARTESIAN_POINT('',(-10.45998469421,-7.3,100.6367538398));
#879 = VECTOR('',#880,1.);
#880 = DIRECTION('',(-1.,5.551115123126E-16,2.384185931333E-07));
#881 = PCURVE('',#813,#882);
#882 = DEFINITIONAL_REPRESENTATION('',(#883),#887);
#883 = LINE('',#884,#885);
#884 = CARTESIAN_POINT('',(-2.886751345948,-1.014868555286E-15));
#885 = VECTOR('',#886,1.);
#886 = DIRECTION('',(-3.236370484044E-16,-1.));
#887 = ( GEOMETRIC_REPRESENTATION_CONTEXT(2) 
PARAMETRIC_REPRESENTATION_CONTEXT() REPRESENTATION_CONTEXT('2D SPACE',''
  ) );
#888 = PCURVE('',#889,#894);
#889 = PLANE('',#890);
#890 = AXIS2_PLACEMENT_3D('',#891,#892,#893);
#891 = CARTESIAN_POINT('',(-10.45998469421,-7.3,100.6367538398));
#892 = DIRECTION('',(-2.064765581104E-07,0.5,-0.866025403784));
#893 = DIRECTION('',(1.192092972045E-07,0.866025403784,0.5));
#894 = DEFINITIONAL_REPRESENTATION('',(#895),#899);
#895 = LINE('',#896,#897);
#896 = CARTESIAN_POINT('',(0.,-0.));
#897 = VECTOR('',#898,1.);
#898 = DIRECTION('',(-1.571036211804E-16,-1.));
#899 = ( GEOMETRIC_REPRESENTATION_CONTEXT(2) 
PARAMETRIC_REPRESENTATION_CONTEXT() REPRESENTATION_CONTEXT('2D SPACE',''
  ) );
#900 = ORIENTED_EDGE('',*,*,#901,.F.);
#901 = EDGE_CURVE('',#798,#874,#902,.T.);
#902 = SURFACE_CURVE('',#903,(#907,#914),.PCURVE_S1.);
#903 = LINE('',#904,#905);
#904 = CARTESIAN_POINT('',(-10.45998503834,-4.8,99.193378166831));
#905 = VECTOR('',#906,1.);
#906 = DIRECTION('',(1.19209295742E-07,-0.866025403784,0.5));
#907 = PCURVE('',#813,#908);
#908 = DEFINITIONAL_REPRESENTATION('',(#909),#913);
#909 = LINE('',#910,#911);
#910 = CARTESIAN_POINT('',(8.461035396571E-15,3.5527136788E-15));
#911 = VECTOR('',#912,1.);
#912 = DIRECTION('',(-1.,-2.031846752006E-17));
#913 = ( GEOMETRIC_REPRESENTATION_CONTEXT(2) 
PARAMETRIC_REPRESENTATION_CONTEXT() REPRESENTATION_CONTEXT('2D SPACE',''
  ) );
#914 = PCURVE('',#125,#915);
#915 = DEFINITIONAL_REPRESENTATION('',(#916),#920);
#916 = LINE('',#917,#918);
#917 = CARTESIAN_POINT('',(5.601049348794,-0.29559961683));
#918 = VECTOR('',#919,1.);
#919 = DIRECTION('',(0.866025403784,0.5));
#920 = ( GEOMETRIC_REPRESENTATION_CONTEXT(2) 
PARAMETRIC_REPRESENTATION_CONTEXT() REPRESENTATION_CONTEXT('2D SPACE',''
  ) );
#921 = ADVANCED_FACE('',(#922),#889,.T.);
#922 = FACE_BOUND('',#923,.F.);
#923 = EDGE_LOOP('',(#924,#925,#948,#976));
#924 = ORIENTED_EDGE('',*,*,#873,.T.);
#925 = ORIENTED_EDGE('',*,*,#926,.T.);
#926 = EDGE_CURVE('',#851,#927,#929,.T.);
#927 = VERTEX_POINT('',#928);
#928 = CARTESIAN_POINT('',(-15.22248503834,-9.8,99.193379302299));
#929 = SURFACE_CURVE('',#930,(#934,#941),.PCURVE_S1.);
#930 = LINE('',#931,#932);
#931 = CARTESIAN_POINT('',(-15.22248469421,-7.3,100.63675497527));
#932 = VECTOR('',#933,1.);
#933 = DIRECTION('',(-1.192092972803E-07,-0.866025403784,-0.5));
#934 = PCURVE('',#889,#935);
#935 = DEFINITIONAL_REPRESENTATION('',(#936),#940);
#936 = LINE('',#937,#938);
#937 = CARTESIAN_POINT('',(-6.959858286989E-15,-4.7625));
#938 = VECTOR('',#939,1.);
#939 = DIRECTION('',(-1.,-7.58296452211E-17));
#940 = ( GEOMETRIC_REPRESENTATION_CONTEXT(2) 
PARAMETRIC_REPRESENTATION_CONTEXT() REPRESENTATION_CONTEXT('2D SPACE',''
  ) );
#941 = PCURVE('',#71,#942);
#942 = DEFINITIONAL_REPRESENTATION('',(#943),#947);
#943 = LINE('',#944,#945);
#944 = CARTESIAN_POINT('',(8.101049348794,1.147776056144));
#945 = VECTOR('',#946,1.);
#946 = DIRECTION('',(0.866025403784,-0.5));
#947 = ( GEOMETRIC_REPRESENTATION_CONTEXT(2) 
PARAMETRIC_REPRESENTATION_CONTEXT() REPRESENTATION_CONTEXT('2D SPACE',''
  ) );
#948 = ORIENTED_EDGE('',*,*,#949,.F.);
#949 = EDGE_CURVE('',#950,#927,#952,.T.);
#950 = VERTEX_POINT('',#951);
#951 = CARTESIAN_POINT('',(-10.45998503834,-9.8,99.193378166831));
#952 = SURFACE_CURVE('',#953,(#957,#964),.PCURVE_S1.);
#953 = LINE('',#954,#955);
#954 = CARTESIAN_POINT('',(-10.45998503834,-9.8,99.193378166831));
#955 = VECTOR('',#956,1.);
#956 = DIRECTION('',(-1.,5.551115123126E-16,2.384185931333E-07));
#957 = PCURVE('',#889,#958);
#958 = DEFINITIONAL_REPRESENTATION('',(#959),#963);
#959 = LINE('',#960,#961);
#960 = CARTESIAN_POINT('',(-2.886751345948,-1.508655676311E-16));
#961 = VECTOR('',#962,1.);
#962 = DIRECTION('',(-1.571036211804E-16,-1.));
#963 = ( GEOMETRIC_REPRESENTATION_CONTEXT(2) 
PARAMETRIC_REPRESENTATION_CONTEXT() REPRESENTATION_CONTEXT('2D SPACE',''
  ) );
#964 = PCURVE('',#965,#970);
#965 = PLANE('',#966);
#966 = AXIS2_PLACEMENT_3D('',#967,#968,#969);
#967 = CARTESIAN_POINT('',(-10.45998503834,-9.8,99.193378166831));
#968 = DIRECTION('',(5.551116049568E-16,1.,3.885779262699E-16));
#969 = DIRECTION('',(2.384185929668E-07,-3.885780586188E-16,1.));
#970 = DEFINITIONAL_REPRESENTATION('',(#971),#975);
#971 = LINE('',#972,#973);
#972 = CARTESIAN_POINT('',(-0.,0.));
#973 = VECTOR('',#974,1.);
#974 = DIRECTION('',(1.665334536938E-16,-1.));
#975 = ( GEOMETRIC_REPRESENTATION_CONTEXT(2) 
PARAMETRIC_REPRESENTATION_CONTEXT() REPRESENTATION_CONTEXT('2D SPACE',''
  ) );
#976 = ORIENTED_EDGE('',*,*,#977,.F.);
#977 = EDGE_CURVE('',#874,#950,#978,.T.);
#978 = SURFACE_CURVE('',#979,(#983,#990),.PCURVE_S1.);
#979 = LINE('',#980,#981);
#980 = CARTESIAN_POINT('',(-10.45998469421,-7.3,100.6367538398));
#981 = VECTOR('',#982,1.);
#982 = DIRECTION('',(-1.192092972803E-07,-0.866025403784,-0.5));
#983 = PCURVE('',#889,#984);
#984 = DEFINITIONAL_REPRESENTATION('',(#985),#989);
#985 = LINE('',#986,#987);
#986 = CARTESIAN_POINT('',(-2.307554588386E-15,5.329070518201E-15));
#987 = VECTOR('',#988,1.);
#988 = DIRECTION('',(-1.,-7.58296452211E-17));
#989 = ( GEOMETRIC_REPRESENTATION_CONTEXT(2) 
PARAMETRIC_REPRESENTATION_CONTEXT() REPRESENTATION_CONTEXT('2D SPACE',''
  ) );
#990 = PCURVE('',#125,#991);
#991 = DEFINITIONAL_REPRESENTATION('',(#992),#996);
#992 = LINE('',#993,#994);
#993 = CARTESIAN_POINT('',(8.101049348794,1.147776056144));
#994 = VECTOR('',#995,1.);
#995 = DIRECTION('',(0.866025403784,-0.5));
#996 = ( GEOMETRIC_REPRESENTATION_CONTEXT(2) 
PARAMETRIC_REPRESENTATION_CONTEXT() REPRESENTATION_CONTEXT('2D SPACE',''
  ) );
#997 = ADVANCED_FACE('',(#998),#965,.T.);
#998 = FACE_BOUND('',#999,.F.);
#999 = EDGE_LOOP('',(#1000,#1001,#1024,#1052));
#1000 = ORIENTED_EDGE('',*,*,#949,.T.);
#1001 = ORIENTED_EDGE('',*,*,#1002,.T.);
#1002 = EDGE_CURVE('',#927,#1003,#1005,.T.);
#1003 = VERTEX_POINT('',#1004);
#1004 = CARTESIAN_POINT('',(-15.22248572659,-9.8,96.306627956351));
#1005 = SURFACE_CURVE('',#1006,(#1010,#1017),.PCURVE_S1.);
#1006 = LINE('',#1007,#1008);
#1007 = CARTESIAN_POINT('',(-15.22248503834,-9.8,99.193379302299));
#1008 = VECTOR('',#1009,1.);
#1009 = DIRECTION('',(-2.384185930223E-07,3.330668941527E-16,-1.));
#1010 = PCURVE('',#965,#1011);
#1011 = DEFINITIONAL_REPRESENTATION('',(#1012),#1016);
#1012 = LINE('',#1013,#1014);
#1013 = CARTESIAN_POINT('',(-2.624262251766E-14,-4.7625));
#1014 = VECTOR('',#1015,1.);
#1015 = DIRECTION('',(-1.,-5.551115123126E-17));
#1016 = ( GEOMETRIC_REPRESENTATION_CONTEXT(2) 
PARAMETRIC_REPRESENTATION_CONTEXT() REPRESENTATION_CONTEXT('2D SPACE',''
  ) );
#1017 = PCURVE('',#71,#1018);
#1018 = DEFINITIONAL_REPRESENTATION('',(#1019),#1023);
#1019 = LINE('',#1020,#1021);
#1020 = CARTESIAN_POINT('',(10.601049348794,-0.29559961683));
#1021 = VECTOR('',#1022,1.);
#1022 = DIRECTION('',(-1.110222892276E-16,-1.));
#1023 = ( GEOMETRIC_REPRESENTATION_CONTEXT(2) 
PARAMETRIC_REPRESENTATION_CONTEXT() REPRESENTATION_CONTEXT('2D SPACE',''
  ) );
#1024 = ORIENTED_EDGE('',*,*,#1025,.F.);
#1025 = EDGE_CURVE('',#1026,#1003,#1028,.T.);
#1026 = VERTEX_POINT('',#1027);
#1027 = CARTESIAN_POINT('',(-10.45998572659,-9.8,96.306626820883));
#1028 = SURFACE_CURVE('',#1029,(#1033,#1040),.PCURVE_S1.);
#1029 = LINE('',#1030,#1031);
#1030 = CARTESIAN_POINT('',(-10.45998572659,-9.8,96.306626820883));
#1031 = VECTOR('',#1032,1.);
#1032 = DIRECTION('',(-1.,5.551115123126E-16,2.384185931333E-07));
#1033 = PCURVE('',#965,#1034);
#1034 = DEFINITIONAL_REPRESENTATION('',(#1035),#1039);
#1035 = LINE('',#1036,#1037);
#1036 = CARTESIAN_POINT('',(-2.886751345948,8.639961584516E-16));
#1037 = VECTOR('',#1038,1.);
#1038 = DIRECTION('',(1.665334536938E-16,-1.));
#1039 = ( GEOMETRIC_REPRESENTATION_CONTEXT(2) 
PARAMETRIC_REPRESENTATION_CONTEXT() REPRESENTATION_CONTEXT('2D SPACE',''
  ) );
#1040 = PCURVE('',#1041,#1046);
#1041 = PLANE('',#1042);
#1042 = AXIS2_PLACEMENT_3D('',#1043,#1044,#1045);
#1043 = CARTESIAN_POINT('',(-10.45998572659,-9.8,96.306626820883));
#1044 = DIRECTION('',(2.064765586655E-07,0.5,0.866025403784));
#1045 = DIRECTION('',(1.192092957623E-07,-0.866025403784,0.5));
#1046 = DEFINITIONAL_REPRESENTATION('',(#1047),#1051);
#1047 = LINE('',#1048,#1049);
#1048 = CARTESIAN_POINT('',(-0.,0.));
#1049 = VECTOR('',#1050,1.);
#1050 = DIRECTION('',(3.236370484044E-16,-1.));
#1051 = ( GEOMETRIC_REPRESENTATION_CONTEXT(2) 
PARAMETRIC_REPRESENTATION_CONTEXT() REPRESENTATION_CONTEXT('2D SPACE',''
  ) );
#1052 = ORIENTED_EDGE('',*,*,#1053,.F.);
#1053 = EDGE_CURVE('',#950,#1026,#1054,.T.);
#1054 = SURFACE_CURVE('',#1055,(#1059,#1066),.PCURVE_S1.);
#1055 = LINE('',#1056,#1057);
#1056 = CARTESIAN_POINT('',(-10.45998503834,-9.8,99.193378166831));
#1057 = VECTOR('',#1058,1.);
#1058 = DIRECTION('',(-2.384185930223E-07,3.330668941527E-16,-1.));
#1059 = PCURVE('',#965,#1060);
#1060 = DEFINITIONAL_REPRESENTATION('',(#1061),#1065);
#1061 = LINE('',#1062,#1063);
#1062 = CARTESIAN_POINT('',(-1.421085344465E-14,5.329073906333E-15));
#1063 = VECTOR('',#1064,1.);
#1064 = DIRECTION('',(-1.,-5.551115123126E-17));
#1065 = ( GEOMETRIC_REPRESENTATION_CONTEXT(2) 
PARAMETRIC_REPRESENTATION_CONTEXT() REPRESENTATION_CONTEXT('2D SPACE',''
  ) );
#1066 = PCURVE('',#125,#1067);
#1067 = DEFINITIONAL_REPRESENTATION('',(#1068),#1072);
#1068 = LINE('',#1069,#1070);
#1069 = CARTESIAN_POINT('',(10.601049348794,-0.29559961683));
#1070 = VECTOR('',#1071,1.);
#1071 = DIRECTION('',(-1.110222892276E-16,-1.));
#1072 = ( GEOMETRIC_REPRESENTATION_CONTEXT(2) 
PARAMETRIC_REPRESENTATION_CONTEXT() REPRESENTATION_CONTEXT('2D SPACE',''
  ) );
#1073 = ADVANCED_FACE('',(#1074),#1041,.T.);
#1074 = FACE_BOUND('',#1075,.F.);
#1075 = EDGE_LOOP('',(#1076,#1077,#1100,#1123));
#1076 = ORIENTED_EDGE('',*,*,#1025,.T.);
#1077 = ORIENTED_EDGE('',*,*,#1078,.T.);
#1078 = EDGE_CURVE('',#1003,#1079,#1081,.T.);
#1079 = VERTEX_POINT('',#1080);
#1080 = CARTESIAN_POINT('',(-15.22248607072,-7.3,94.863252283377));
#1081 = SURFACE_CURVE('',#1082,(#1086,#1093),.PCURVE_S1.);
#1082 = LINE('',#1083,#1084);
#1083 = CARTESIAN_POINT('',(-15.22248572659,-9.8,96.306627956351));
#1084 = VECTOR('',#1085,1.);
#1085 = DIRECTION('',(-1.19209295742E-07,0.866025403784,-0.5));
#1086 = PCURVE('',#1041,#1087);
#1087 = DEFINITIONAL_REPRESENTATION('',(#1088),#1092);
#1088 = LINE('',#1089,#1090);
#1089 = CARTESIAN_POINT('',(-1.642692435697E-14,-4.7625));
#1090 = VECTOR('',#1091,1.);
#1091 = DIRECTION('',(-1.,2.031846752006E-17));
#1092 = ( GEOMETRIC_REPRESENTATION_CONTEXT(2) 
PARAMETRIC_REPRESENTATION_CONTEXT() REPRESENTATION_CONTEXT('2D SPACE',''
  ) );
#1093 = PCURVE('',#71,#1094);
#1094 = DEFINITIONAL_REPRESENTATION('',(#1095),#1099);
#1095 = LINE('',#1096,#1097);
#1096 = CARTESIAN_POINT('',(10.601049348794,-3.182350962778));
#1097 = VECTOR('',#1098,1.);
#1098 = DIRECTION('',(-0.866025403784,-0.5));
#1099 = ( GEOMETRIC_REPRESENTATION_CONTEXT(2) 
PARAMETRIC_REPRESENTATION_CONTEXT() REPRESENTATION_CONTEXT('2D SPACE',''
  ) );
#1100 = ORIENTED_EDGE('',*,*,#1101,.F.);
#1101 = EDGE_CURVE('',#1102,#1079,#1104,.T.);
#1102 = VERTEX_POINT('',#1103);
#1103 = CARTESIAN_POINT('',(-10.45998607072,-7.3,94.863251147909));
#1104 = SURFACE_CURVE('',#1105,(#1109,#1116),.PCURVE_S1.);
#1105 = LINE('',#1106,#1107);
#1106 = CARTESIAN_POINT('',(-10.45998607072,-7.3,94.863251147909));
#1107 = VECTOR('',#1108,1.);
#1108 = DIRECTION('',(-1.,5.551115123126E-16,2.384185931333E-07));
#1109 = PCURVE('',#1041,#1110);
#1110 = DEFINITIONAL_REPRESENTATION('',(#1111),#1115);
#1111 = LINE('',#1112,#1113);
#1112 = CARTESIAN_POINT('',(-2.886751345948,-7.614848959827E-16));
#1113 = VECTOR('',#1114,1.);
#1114 = DIRECTION('',(3.236370484044E-16,-1.));
#1115 = ( GEOMETRIC_REPRESENTATION_CONTEXT(2) 
PARAMETRIC_REPRESENTATION_CONTEXT() REPRESENTATION_CONTEXT('2D SPACE',''
  ) );
#1116 = PCURVE('',#762,#1117);
#1117 = DEFINITIONAL_REPRESENTATION('',(#1118),#1122);
#1118 = LINE('',#1119,#1120);
#1119 = CARTESIAN_POINT('',(-0.,0.));
#1120 = VECTOR('',#1121,1.);
#1121 = DIRECTION('',(1.571036211804E-16,-1.));
#1122 = ( GEOMETRIC_REPRESENTATION_CONTEXT(2) 
PARAMETRIC_REPRESENTATION_CONTEXT() REPRESENTATION_CONTEXT('2D SPACE',''
  ) );
#1123 = ORIENTED_EDGE('',*,*,#1124,.F.);
#1124 = EDGE_CURVE('',#1026,#1102,#1125,.T.);
#1125 = SURFACE_CURVE('',#1126,(#1130,#1137),.PCURVE_S1.);
#1126 = LINE('',#1127,#1128);
#1127 = CARTESIAN_POINT('',(-10.45998572659,-9.8,96.306626820883));
#1128 = VECTOR('',#1129,1.);
#1129 = DIRECTION('',(-1.19209295742E-07,0.866025403784,-0.5));
#1130 = PCURVE('',#1041,#1131);
#1131 = DEFINITIONAL_REPRESENTATION('',(#1132),#1136);
#1132 = LINE('',#1133,#1134);
#1133 = CARTESIAN_POINT('',(-9.230220471125E-15,3.5527136788E-15));
#1134 = VECTOR('',#1135,1.);
#1135 = DIRECTION('',(-1.,2.031846752006E-17));
#1136 = ( GEOMETRIC_REPRESENTATION_CONTEXT(2) 
PARAMETRIC_REPRESENTATION_CONTEXT() REPRESENTATION_CONTEXT('2D SPACE',''
  ) );
#1137 = PCURVE('',#125,#1138);
#1138 = DEFINITIONAL_REPRESENTATION('',(#1139),#1143);
#1139 = LINE('',#1140,#1141);
#1140 = CARTESIAN_POINT('',(10.601049348794,-3.182350962778));
#1141 = VECTOR('',#1142,1.);
#1142 = DIRECTION('',(-0.866025403784,-0.5));
#1143 = ( GEOMETRIC_REPRESENTATION_CONTEXT(2) 
PARAMETRIC_REPRESENTATION_CONTEXT() REPRESENTATION_CONTEXT('2D SPACE',''
  ) );
#1144 = ADVANCED_FACE('',(#1145),#762,.T.);
#1145 = FACE_BOUND('',#1146,.F.);
#1146 = EDGE_LOOP('',(#1147,#1148,#1169,#1170));
#1147 = ORIENTED_EDGE('',*,*,#1101,.T.);
#1148 = ORIENTED_EDGE('',*,*,#1149,.T.);
#1149 = EDGE_CURVE('',#1079,#742,#1150,.T.);
#1150 = SURFACE_CURVE('',#1151,(#1155,#1162),.PCURVE_S1.);
#1151 = LINE('',#1152,#1153);
#1152 = CARTESIAN_POINT('',(-15.22248607072,-7.3,94.863252283377));
#1153 = VECTOR('',#1154,1.);
#1154 = DIRECTION('',(1.192092972803E-07,0.866025403784,0.5));
#1155 = PCURVE('',#762,#1156);
#1156 = DEFINITIONAL_REPRESENTATION('',(#1157),#1161);
#1157 = LINE('',#1158,#1159);
#1158 = CARTESIAN_POINT('',(2.344747604864E-15,-4.7625));
#1159 = VECTOR('',#1160,1.);
#1160 = DIRECTION('',(-1.,7.58296452211E-17));
#1161 = ( GEOMETRIC_REPRESENTATION_CONTEXT(2) 
PARAMETRIC_REPRESENTATION_CONTEXT() REPRESENTATION_CONTEXT('2D SPACE',''
  ) );
#1162 = PCURVE('',#71,#1163);
#1163 = DEFINITIONAL_REPRESENTATION('',(#1164),#1168);
#1164 = LINE('',#1165,#1166);
#1165 = CARTESIAN_POINT('',(8.101049348794,-4.625726635753));
#1166 = VECTOR('',#1167,1.);
#1167 = DIRECTION('',(-0.866025403784,0.5));
#1168 = ( GEOMETRIC_REPRESENTATION_CONTEXT(2) 
PARAMETRIC_REPRESENTATION_CONTEXT() REPRESENTATION_CONTEXT('2D SPACE',''
  ) );
#1169 = ORIENTED_EDGE('',*,*,#739,.F.);
#1170 = ORIENTED_EDGE('',*,*,#1171,.F.);
#1171 = EDGE_CURVE('',#1102,#740,#1172,.T.);
#1172 = SURFACE_CURVE('',#1173,(#1177,#1184),.PCURVE_S1.);
#1173 = LINE('',#1174,#1175);
#1174 = CARTESIAN_POINT('',(-10.45998607072,-7.3,94.863251147909));
#1175 = VECTOR('',#1176,1.);
#1176 = DIRECTION('',(1.192092972803E-07,0.866025403784,0.5));
#1177 = PCURVE('',#762,#1178);
#1178 = DEFINITIONAL_REPRESENTATION('',(#1179),#1183);
#1179 = LINE('',#1180,#1181);
#1180 = CARTESIAN_POINT('',(2.307554376627E-15,7.105427357601E-15));
#1181 = VECTOR('',#1182,1.);
#1182 = DIRECTION('',(-1.,7.58296452211E-17));
#1183 = ( GEOMETRIC_REPRESENTATION_CONTEXT(2) 
PARAMETRIC_REPRESENTATION_CONTEXT() REPRESENTATION_CONTEXT('2D SPACE',''
  ) );
#1184 = PCURVE('',#125,#1185);
#1185 = DEFINITIONAL_REPRESENTATION('',(#1186),#1190);
#1186 = LINE('',#1187,#1188);
#1187 = CARTESIAN_POINT('',(8.101049348794,-4.625726635753));
#1188 = VECTOR('',#1189,1.);
#1189 = DIRECTION('',(-0.866025403784,0.5));
#1190 = ( GEOMETRIC_REPRESENTATION_CONTEXT(2) 
PARAMETRIC_REPRESENTATION_CONTEXT() REPRESENTATION_CONTEXT('2D SPACE',''
  ) );
#1191 = ADVANCED_FACE('',(#1192,#1202,#1205),#125,.F.);
#1192 = FACE_BOUND('',#1193,.T.);
#1193 = EDGE_LOOP('',(#1194,#1195,#1196,#1197,#1198,#1199,#1200,#1201));
#1194 = ORIENTED_EDGE('',*,*,#111,.T.);
#1195 = ORIENTED_EDGE('',*,*,#192,.T.);
#1196 = ORIENTED_EDGE('',*,*,#267,.T.);
#1197 = ORIENTED_EDGE('',*,*,#346,.F.);
#1198 = ORIENTED_EDGE('',*,*,#425,.T.);
#1199 = ORIENTED_EDGE('',*,*,#504,.T.);
#1200 = ORIENTED_EDGE('',*,*,#578,.F.);
#1201 = ORIENTED_EDGE('',*,*,#629,.F.);
#1202 = FACE_BOUND('',#1203,.F.);
#1203 = EDGE_LOOP('',(#1204));
#1204 = ORIENTED_EDGE('',*,*,#711,.T.);
#1205 = FACE_BOUND('',#1206,.F.);
#1206 = EDGE_LOOP('',(#1207,#1208,#1209,#1210,#1211,#1212));
#1207 = ORIENTED_EDGE('',*,*,#825,.T.);
#1208 = ORIENTED_EDGE('',*,*,#901,.T.);
#1209 = ORIENTED_EDGE('',*,*,#977,.T.);
#1210 = ORIENTED_EDGE('',*,*,#1053,.T.);
#1211 = ORIENTED_EDGE('',*,*,#1124,.T.);
#1212 = ORIENTED_EDGE('',*,*,#1171,.T.);
#1213 = ADVANCED_FACE('',(#1214,#1224,#1227),#71,.T.);
#1214 = FACE_BOUND('',#1215,.F.);
#1215 = EDGE_LOOP('',(#1216,#1217,#1218,#1219,#1220,#1221,#1222,#1223));
#1216 = ORIENTED_EDGE('',*,*,#55,.T.);
#1217 = ORIENTED_EDGE('',*,*,#141,.T.);
#1218 = ORIENTED_EDGE('',*,*,#217,.T.);
#1219 = ORIENTED_EDGE('',*,*,#320,.F.);
#1220 = ORIENTED_EDGE('',*,*,#375,.T.);
#1221 = ORIENTED_EDGE('',*,*,#450,.T.);
#1222 = ORIENTED_EDGE('',*,*,#556,.F.);
#1223 = ORIENTED_EDGE('',*,*,#603,.F.);
#1224 = FACE_BOUND('',#1225,.T.);
#1225 = EDGE_LOOP('',(#1226));
#1226 = ORIENTED_EDGE('',*,*,#685,.T.);
#1227 = FACE_BOUND('',#1228,.T.);
#1228 = EDGE_LOOP('',(#1229,#1230,#1231,#1232,#1233,#1234));
#1229 = ORIENTED_EDGE('',*,*,#774,.T.);
#1230 = ORIENTED_EDGE('',*,*,#850,.T.);
#1231 = ORIENTED_EDGE('',*,*,#926,.T.);
#1232 = ORIENTED_EDGE('',*,*,#1002,.T.);
#1233 = ORIENTED_EDGE('',*,*,#1078,.T.);
#1234 = ORIENTED_EDGE('',*,*,#1149,.T.);
#1235 = ( GEOMETRIC_REPRESENTATION_CONTEXT(3) 
GLOBAL_UNCERTAINTY_ASSIGNED_CONTEXT((#1239)) 
GLOBAL_UNIT_ASSIGNED_CONTEXT((#1236,#1237,#1238)) REPRESENTATION_CONTEXT
('Context #1','3D Context with UNIT and UNCERTAINTY') );
#1236 = ( LENGTH_UNIT() NAMED_UNIT(*) SI_UNIT(.MILLI.,.METRE.) );
#1237 = ( NAMED_UNIT(*) PLANE_ANGLE_UNIT() SI_UNIT($,.RADIAN.) );
#1238 = ( NAMED_UNIT(*) SI_UNIT($,.STERADIAN.) SOLID_ANGLE_UNIT() );
#1239 = UNCERTAINTY_MEASURE_WITH_UNIT(LENGTH_MEASURE(1.E-07),#1236,
  'distance_accuracy_value','confusion accuracy');
#1240 = PRODUCT_RELATED_PRODUCT_CATEGORY('part',$,(#7));
#1241 = MECHANICAL_DESIGN_GEOMETRIC_PRESENTATION_REPRESENTATION('',(
    #1242),#1235);
#1242 = STYLED_ITEM('color',(#1243),#15);
#1243 = PRESENTATION_STYLE_ASSIGNMENT((#1244,#1252));
#1244 = SURFACE_STYLE_USAGE(.BOTH.,#1245);
#1245 = SURFACE_SIDE_STYLE('',(#1246,#1250));
#1246 = SURFACE_STYLE_FILL_AREA(#1247);
#1247 = FILL_AREA_STYLE('',(#1248));
#1248 = FILL_AREA_STYLE_COLOUR('',#1249);
#1249 = COLOUR_RGB('',0.800000010877,0.800000010877,0.800000010877);
#1250 = SURFACE_STYLE_RENDERING_WITH_PROPERTIES(.NORMAL_SHADING.,#1249,(
    #1251));
#1251 = SURFACE_STYLE_TRANSPARENT(0.5);
#1252 = CURVE_STYLE('',#1253,POSITIVE_LENGTH_MEASURE(0.1),#1254);
#1253 = DRAUGHTING_PRE_DEFINED_CURVE_FONT('continuous');
#1254 = COLOUR_RGB('',9.803921802644E-02,9.803921802644E-02,
  9.803921802644E-02);
ENDSEC;
END-ISO-10303-21;
