999
FreeCAD v0.19 24291 (Git)
  0
SECTION
  2
HEADER
  9
$ACADVER
  1
AC1014
  9
$ACADMAINTVER
 70
     9
  9
$DWGCODEPAGE
  3
ANSI_1252
  9
$TEXTSTYLE
  7
STANDARD
  9
$DIMSTYLE
  2
STANDARD
  9
$DIMTXSTY
  7
STANDARD
  9
$CMLSTYLE
  2
STANDARD
  9
$PEXTMAX
 10
50
 20
50
 30
50
  9
$PEXTMIN
 10
0
 20
0
 30
0
  9
$HANDSEED
  5
FFFF
  0
ENDSEC
  0
SECTION
  2
CLASSES
  0
CLASS
  1
ACDBDICTIONARYWDFLT
  2
AcDbDictionaryWithDefault
  3
ObjectDBX Classes
 90
        0
280
     0
281
     0
  0
CLASS
  1
XRECORD
  2
AcDbXrecord
  3
ObjectDBX Classes
 90
        0
280
     0
281
     0
  0
CLASS
  1
LWPOLYLINE
  2
AcDbPolyline
  3
ObjectDBX Classes
 90
        0
280
     0
281
     1
  0
ENDSEC
  0
SECTION
  2
TABLES
  0
TABLE
  2
VPORT
  5
20
330
0
100
AcDbSymbolTable
 70
     1
  0
VPORT
  5
21
330
20
100
AcDbSymbolTableRecord
100
AcDbViewportTableRecord
  2
*ACTIVE
 70
     0
  0
ENDTAB
  0
TABLE
  2
LTYPE
  5
22
330
0
100
AcDbSymbolTable
 70
     1
  0
LTYPE
  5
23
330
21
100
AcDbSymbolTableRecord
100
AcDbLinetypeTableRecord
  2
BYBLOCK
 70
     0
  3

 72
    65
 73
     0
 40
0.0
  0
LTYPE
  5
24
330
21
100
AcDbSymbolTableRecord
100
AcDbLinetypeTableRecord
  2
BYLAYER
 70
     0
  3

 72
    65
 73
     0
 40
0.0
  0
LTYPE
  5
25
330
21
100
AcDbSymbolTableRecord
100
AcDbLinetypeTableRecord
  2
CONTINUOUS
 70
     0
  3
Solid line
 72
    65
 73
     0
 40
0.0
  0
ENDTAB
  0
TABLE
  2
LAYER
  5
A45
330
0
100
AcDbSymbolTable
 70
8
  0
LAYER
  5
A46
330
A45
100
AcDbSymbolTableRecord
100
AcDbLayerTableRecord
  2
0
 70
   0
 62
   7
  6
CONTINUOUS
  0
LAYER
  5
A47
330
A45
100
AcDbSymbolTableRecord
100
AcDbLayerTableRecord
  2
View002
 70
    0
 62
    7
  6
CONTINUOUS
  0
LAYER
  5
A48
330
A45
100
AcDbSymbolTableRecord
100
AcDbLayerTableRecord
  2
Dimension010
 70
    0
 62
    7
  6
CONTINUOUS
  0
LAYER
  5
A49
330
A45
100
AcDbSymbolTableRecord
100
AcDbLayerTableRecord
  2
Dimension011
 70
    0
 62
    7
  6
CONTINUOUS
  0
LAYER
  5
A4A
330
A45
100
AcDbSymbolTableRecord
100
AcDbLayerTableRecord
  2
Dimension012
 70
    0
 62
    7
  6
CONTINUOUS
  0
LAYER
  5
A4B
330
A45
100
AcDbSymbolTableRecord
100
AcDbLayerTableRecord
  2
Dimension013
 70
    0
 62
    7
  6
CONTINUOUS
  0
LAYER
  5
A4C
330
A45
100
AcDbSymbolTableRecord
100
AcDbLayerTableRecord
  2
Dimension016
 70
    0
 62
    7
  6
CONTINUOUS
  0
LAYER
  5
A4D
330
A45
100
AcDbSymbolTableRecord
100
AcDbLayerTableRecord
  2
Dimension017
 70
    0
 62
    7
  6
CONTINUOUS
  0
ENDTAB
  0
TABLE
  2
STYLE
  5
70
330
0
100
AcDbSymbolTable
 70
     2
  0
STYLE
  5
71
330
70
100
AcDbSymbolTableRecord
100
AcDbTextStyleTableRecord
  2
STANDARD
 70
     0
 40
0.0
 41
1.0
 50
0.0
 71
     0
 42
2.5
  3
arial.ttf
  4

  0
STYLE
  5
72
330
70
100
AcDbSymbolTableRecord
100
AcDbTextStyleTableRecord
  2
ANNOTATIVE
 70
     0
 40
0.0
 41
1.0
 50
0.0
 71
     0
 42
2.5
  3
arial.ttf
  4

  0
ENDTAB
  0
TABLE
  2
VIEW
  5
73
330
0
100
AcDbSymbolTable
 70
     0
  0
ENDTAB
  0
TABLE
  2
UCS
  5
74
330
0
100
AcDbSymbolTable
 70
     0
  0
ENDTAB
  0
TABLE
  2
APPID
  5
75
330
0
100
AcDbSymbolTable
 70
     2
  0
APPID
  5
76
330
75
100
AcDbSymbolTableRecord
100
AcDbRegAppTableRecord
  2
ACAD
 70
     0
  0
APPID
  5
77
330
75
100
AcDbSymbolTableRecord
100
AcDbRegAppTableRecord
  2
ACADANNOTATIVE
 70
     0
  0
ENDTAB
  0
TABLE
  2
DIMSTYLE
  5
78
330
0
100
AcDbSymbolTable
 70
     2
  0
DIMSTYLE
105
79
330
78
100
AcDbSymbolTableRecord
100
AcDbDimStyleTableRecord
  2
STANDARD
 70
     0
  3

  4

  5

  6

  7

 40
0.0
 41
2.5
 42
0.625
 43
3.75
 44
1.25
 45
0.0
 46
0.0
 47
0.0
 48
0.0
140
2.5
141
2.5
142
0.0
143
0.03937007874016
144
1.0
145
0.0
146
1.0
147
0.625
 71
     0
 72
     0
 73
     0
 74
     0
 75
     0
 76
     0
 77
     1
 78
     8
170
     0
171
     3
172
     1
173
     0
174
     0
175
     0
176
     0
177
     0
178
     0
270
     2
271
     2
272
     2
273
     2
274
     3
340
71
275
     0
280
     0
281
     0
282
     0
283
     0
284
     8
285
     0
286
     0
287
     3
288
     0
  0
ENDTAB
  0
TABLE
  2
BLOCK_RECORD
  5
A01
330
0
100
AcDbSymbolTable
  70
5
  0
BLOCK_RECORD
  5
A02
330
A01
100
AcDbSymbolTableRecord
100
AcDbBlockTableRecord
  2
*MODEL_SPACE
  0
BLOCK_RECORD
  5
A03
330
A01
100
AcDbSymbolTableRecord
100
AcDbBlockTableRecord
  2
*PAPER_SPACE
  0
BLOCK_RECORD
  5
A13
330
A01
100
AcDbSymbolTableRecord
100
AcDbBlockTableRecord
  2
*Dimension010
  0
BLOCK_RECORD
  5
A1D
330
A01
100
AcDbSymbolTableRecord
100
AcDbBlockTableRecord
  2
*Dimension011
  0
BLOCK_RECORD
  5
A27
330
A01
100
AcDbSymbolTableRecord
100
AcDbBlockTableRecord
  2
*Dimension012
  0
BLOCK_RECORD
  5
A2F
330
A01
100
AcDbSymbolTableRecord
100
AcDbBlockTableRecord
  2
*Dimension013
  0
BLOCK_RECORD
  5
A37
330
A01
100
AcDbSymbolTableRecord
100
AcDbBlockTableRecord
  2
*Dimension016
  0
BLOCK_RECORD
  5
A3E
330
A01
100
AcDbSymbolTableRecord
100
AcDbBlockTableRecord
  2
*Dimension017
  0
ENDTAB
  0
ENDSEC
  0
SECTION
  2
BLOCKS
  0
BLOCK
  5
A04
330
A02
100
AcDbEntity
  8
0
100
AcDbBlockBegin
  2
*MODEL_SPACE
 70
   0
 10
0
 20
0
 30
0
  3
*MODEL_SPACE
  1
 
  0
ENDBLK
  5
A05
330
A02
100
AcDbEntity
  8
0
100
AcDbBlockEnd
  0
BLOCK
  5
A06
330
A03
100
AcDbEntity
 67
1
  8
0
100
AcDbBlockBegin
  2
*PAPER_SPACE
 70
   0
 10
0
 20
0
 30
0
  3
*PAPER_SPACE
  1
 
  0
ENDBLK
  5
A07
330
A03
100
AcDbEntity
 67
    1
  8
0
100
AcDbBlockEnd
  0
BLOCK
  5
A14
330
A13
100
AcDbEntity
  8
Dimension010
100
AcDbBlockBegin
  2
*Dimension010
 70
   1
 10
0
 20
0
 30
0
  3
*Dimension010
  1
 
  0
LINE
  5
A15
330
A13
100
AcDbEntity
  8
Dimension010
100
AcDbLine
 10
114.485
 20
92.5668
 30
0
 11
95.6814
 21
92.5668
 31
0
  0
LINE
  5
A16
330
A13
100
AcDbEntity
  8
Dimension010
100
AcDbLine
 10
114.485
 20
128.52
 30
0
 11
95.6814
 21
128.52
 31
0
  0
LINE
  5
A17
330
A13
100
AcDbEntity
  8
Dimension010
100
AcDbLine
 10
95.6814
 20
128.52
 30
0
 11
95.6814
 21
92.5668
 31
0
  0
TEXT
  5
A18
330
A13
100
AcDbEntity
  8
Dimension010
100
AcDbText
 10
90.6814
 20
109.662
 30
0
 40
3.5
  1
 mm
  7
STANDARD
 72
1
 11
95.6814
 21
109.662
 31
0
100
AcDbText
  0
SOLID
  5
A19
330
A13
100
AcDbEntity
  8
0
 62
     0
100
AcDbTrace
 10
95.2648
 20
133.52
 30
0
 11
96.0981
 21
133.52
 31
0
 12
95.6814
 22
128.52
 32
0
 13
95.6814
 23
128.52
 33
0
  0
SOLID
  5
A1A
330
A13
100
AcDbEntity
  8
0
 62
     0
100
AcDbTrace
 10
95.2648
 20
87.5668
 30
0
 11
96.0981
 21
87.5668
 31
0
 12
95.6814
 22
92.5668
 32
0
 13
95.6814
 23
92.5668
 33
0
  0
ENDBLK
  5
A1B
330
A13
100
AcDbEntity
  8
Dimension010
100
AcDbBlockEnd
  0
BLOCK
  5
A1E
330
A1D
100
AcDbEntity
  8
Dimension011
100
AcDbBlockBegin
  2
*Dimension011
 70
   1
 10
0
 20
0
 30
0
  3
*Dimension011
  1
 
  0
LINE
  5
A1F
330
A1D
100
AcDbEntity
  8
Dimension011
100
AcDbLine
 10
129.085
 20
92.5668
 30
0
 11
129.085
 21
66.0555
 31
0
  0
LINE
  5
A20
330
A1D
100
AcDbEntity
  8
Dimension011
100
AcDbLine
 10
114.485
 20
92.5668
 30
0
 11
114.485
 21
66.0555
 31
0
  0
LINE
  5
A21
330
A1D
100
AcDbEntity
  8
Dimension011
100
AcDbLine
 10
114.485
 20
66.0555
 30
0
 11
129.085
 21
66.0555
 31
0
  0
TEXT
  5
A22
330
A1D
100
AcDbEntity
  8
Dimension011
100
AcDbText
 10
118.787
 20
71.0555
 30
0
 40
3.5
  1
 mm
  7
STANDARD
 72
1
 11
118.787
 21
66.0555
 31
0
100
AcDbText
  0
SOLID
  5
A23
330
A1D
100
AcDbEntity
  8
0
 62
     0
100
AcDbTrace
 10
109.485
 20
65.6388
 30
0
 11
109.485
 21
66.4722
 31
0
 12
114.485
 22
66.0555
 32
0
 13
114.485
 23
66.0555
 33
0
  0
SOLID
  5
A24
330
A1D
100
AcDbEntity
  8
0
 62
     0
100
AcDbTrace
 10
134.085
 20
65.6388
 30
0
 11
134.085
 21
66.4722
 31
0
 12
129.085
 22
66.0555
 32
0
 13
129.085
 23
66.0555
 33
0
  0
ENDBLK
  5
A25
330
A1D
100
AcDbEntity
  8
Dimension011
100
AcDbBlockEnd
  0
BLOCK
  5
A28
330
A27
100
AcDbEntity
  8
Dimension012
100
AcDbBlockBegin
  2
*Dimension012
 70
   1
 10
0
 20
0
 30
0
  3
*Dimension012
  1
 
  0
LINE
  5
A29
330
A27
100
AcDbEntity
  8
Dimension012
100
AcDbLine
 10
121.785
 20
107.967
 30
0
 11
117.785
 21
107.967
 31
0
  0
TEXT
  5
A2A
330
A27
100
AcDbEntity
  8
Dimension012
100
AcDbText
 10
103.097
 20
113.894
 30
0
 40
3.5
  1
⌀ mm
  7
STANDARD
 72
1
 11
103.097
 21
113.894
 31
0
100
AcDbText
  0
SOLID
  5
A2B
330
A27
100
AcDbEntity
  8
0
 62
     0
100
AcDbTrace
 10
116.785
 20
107.55
 30
0
 11
116.785
 21
108.384
 31
0
 12
121.785
 22
107.967
 32
0
 13
121.785
 23
107.967
 33
0
  0
SOLID
  5
A2C
330
A27
100
AcDbEntity
  8
0
 62
     0
100
AcDbTrace
 10
122.785
 20
107.55
 30
0
 11
122.785
 21
108.384
 31
0
 12
117.785
 22
107.967
 32
0
 13
117.785
 23
107.967
 33
0
  0
ENDBLK
  5
A2D
330
A27
100
AcDbEntity
  8
Dimension012
100
AcDbBlockEnd
  0
BLOCK
  5
A30
330
A2F
100
AcDbEntity
  8
Dimension013
100
AcDbBlockBegin
  2
*Dimension013
 70
   1
 10
0
 20
0
 30
0
  3
*Dimension013
  1
 
  0
LINE
  5
A31
330
A2F
100
AcDbEntity
  8
Dimension013
100
AcDbLine
 10
147.835
 20
107.967
 30
0
 11
141.035
 21
107.967
 31
0
  0
TEXT
  5
A32
330
A2F
100
AcDbEntity
  8
Dimension013
100
AcDbText
 10
157.321
 20
78.0175
 30
0
 40
3.5
  1
⌀ mm
  7
STANDARD
 72
1
 11
157.321
 21
78.0175
 31
0
100
AcDbText
  0
SOLID
  5
A33
330
A2F
100
AcDbEntity
  8
0
 62
     0
100
AcDbTrace
 10
142.835
 20
107.55
 30
0
 11
142.835
 21
108.384
 31
0
 12
147.835
 22
107.967
 32
0
 13
147.835
 23
107.967
 33
0
  0
SOLID
  5
A34
330
A2F
100
AcDbEntity
  8
0
 62
     0
100
AcDbTrace
 10
146.035
 20
107.55
 30
0
 11
146.035
 21
108.384
 31
0
 12
141.035
 22
107.967
 32
0
 13
141.035
 23
107.967
 33
0
  0
ENDBLK
  5
A35
330
A2F
100
AcDbEntity
  8
Dimension013
100
AcDbBlockEnd
  0
BLOCK
  5
A38
330
A37
100
AcDbEntity
  8
Dimension016
100
AcDbBlockBegin
  2
*Dimension016
 70
   1
 10
0
 20
0
 30
0
  3
*Dimension016
  1
 
  0
LINE
  5
A39
330
A37
100
AcDbEntity
  8
Dimension016
100
AcDbLine
 10
137.085
 20
92.5668
 30
0
 11
131.428
 21
98.2237
 31
0
  0
TEXT
  5
A3A
330
A37
100
AcDbEntity
  8
Dimension016
100
AcDbText
 10
91.3494
 20
85.7845
 30
0
 40
3.5
  1
R mm
  7
STANDARD
 72
1
 11
91.3494
 21
85.7845
 31
0
100
AcDbText
  0
SOLID
  5
A3B
330
A37
100
AcDbEntity
  8
0
 62
     0
100
AcDbTrace
 10
134.669
 20
94.3935
 30
0
 11
135.258
 21
94.9828
 31
0
 12
131.428
 22
98.2237
 32
0
 13
131.428
 23
98.2237
 33
0
  0
ENDBLK
  5
A3C
330
A37
100
AcDbEntity
  8
Dimension016
100
AcDbBlockEnd
  0
BLOCK
  5
A3F
330
A3E
100
AcDbEntity
  8
Dimension017
100
AcDbBlockBegin
  2
*Dimension017
 70
   1
 10
0
 20
0
 30
0
  3
*Dimension017
  1
 
  0
LINE
  5
A40
330
A3E
100
AcDbEntity
  8
Dimension017
100
AcDbLine
 10
151.503
 20
105.776
 30
0
 11
133.16
 21
110.544
 31
0
  0
TEXT
  5
A41
330
A3E
100
AcDbEntity
  8
Dimension017
100
AcDbText
 10
182.901
 20
83.9406
 30
0
 40
3.5
  1
⌀ mm
  7
STANDARD
 72
1
 11
182.901
 21
83.9406
 31
0
100
AcDbText
  0
SOLID
  5
A42
330
A3E
100
AcDbEntity
  8
0
 62
     0
100
AcDbTrace
 10
146.559
 20
106.631
 30
0
 11
146.769
 21
107.437
 31
0
 12
151.503
 22
105.776
 32
0
 13
151.503
 23
105.776
 33
0
  0
SOLID
  5
A43
330
A3E
100
AcDbEntity
  8
0
 62
     0
100
AcDbTrace
 10
137.894
 20
108.883
 30
0
 11
138.104
 21
109.689
 31
0
 12
133.16
 22
110.544
 32
0
 13
133.16
 23
110.544
 33
0
  0
ENDBLK
  5
A44
330
A3E
100
AcDbEntity
  8
Dimension017
100
AcDbBlockEnd
  0
ENDSEC
  0
SECTION
  2
ENTITIES
  0
LINE
  5
A08
330
A02
100
AcDbEntity
  8
View002
100
AcDbLine
 10
129.085
 20
128.52
 30
0
 11
114.485
 21
128.52
 31
0
  0
LINE
  5
A09
330
A02
100
AcDbEntity
  8
View002
100
AcDbLine
 10
114.485
 20
128.52
 30
0
 11
114.485
 21
92.5668
 31
0
  0
LINE
  5
A0A
330
A02
100
AcDbEntity
  8
View002
100
AcDbLine
 10
114.485
 20
92.5668
 30
0
 11
129.085
 21
92.5668
 31
0
  0
ARC
  5
A0B
330
A02
100
AcDbEntity
  8
View002
100
AcDbCircle
 10
137.085
 20
92.5668
 30
0
 40
8
100
AcDbArc
 50
90
 51
180
  0
LINE
  5
A0C
330
A02
100
AcDbEntity
  8
View002
100
AcDbLine
 10
137.085
 20
100.567
 30
0
 11
144.435
 21
100.567
 31
0
  0
ARC
  5
A0D
330
A02
100
AcDbEntity
  8
View002
100
AcDbCircle
 10
144.435
 20
107.967
 30
0
 40
7.4
100
AcDbArc
 50
-90
 51
55.5577
  0
LINE
  5
A0E
330
A02
100
AcDbEntity
  8
View002
100
AcDbLine
 10
129.954
 20
126.871
 30
0
 11
148.62
 21
114.07
 31
0
  0
ARC
  5
A0F
330
A02
100
AcDbEntity
  8
View002
100
AcDbCircle
 10
131.085
 20
128.52
 30
0
 40
2
100
AcDbArc
 50
180
 51
-124.442
  0
CIRCLE
  5
A10
330
A02
100
AcDbEntity
  8
View002
100
AcDbCircle
 10
144.435
 20
107.967
 40
3.4
  0
CIRCLE
  5
A11
330
A02
100
AcDbEntity
  8
View002
100
AcDbCircle
 10
119.785
 20
107.967
 40
2
  0
DIMENSION
  5
A12
330
A02
100
AcDbEntity
  8
Dimension010
100
AcDbDimension
  2
*Dimension010
 10
95.6814
 20
109.662
 30
0
 11
90.6814
 21
109.662
 31
0
 70
32
  1
 mm
  3
STANDARD
100
AcDbAlignedDimension
 13
114.485
 23
128.52
 33
0
 14
114.485
 24
92.5668
 34
0
 50
90
100
AcDbRotatedDimension
  0
DIMENSION
  5
A1C
330
A02
100
AcDbEntity
  8
Dimension011
100
AcDbDimension
  2
*Dimension011
 10
118.787
 20
66.0555
 30
0
 11
118.787
 21
71.0555
 31
0
 70
32
  1
 mm
  3
STANDARD
100
AcDbAlignedDimension
 13
114.485
 23
92.5668
 33
0
 14
129.085
 24
92.5668
 34
0
100
AcDbRotatedDimension
  0
DIMENSION
  5
A26
330
A02
100
AcDbEntity
  8
Dimension012
100
AcDbDimension
  2
*Dimension012
 10
121.785
 20
107.967
 30
0
 11
103.097
 21
113.894
 31
0
 70
3
  1
⌀ mm
  3
STANDARD
100
AcDbDiametricDimension
 15
117.785
 25
107.967
 35
0
 40
0
  0
DIMENSION
  5
A2E
330
A02
100
AcDbEntity
  8
Dimension013
100
AcDbDimension
  2
*Dimension013
 10
147.835
 20
107.967
 30
0
 11
157.321
 21
78.0175
 31
0
 70
3
  1
⌀ mm
  3
STANDARD
100
AcDbDiametricDimension
 15
141.035
 25
107.967
 35
0
 40
0
  0
DIMENSION
  5
A36
330
A02
100
AcDbEntity
  8
Dimension016
100
AcDbDimension
  2
*Dimension016
 10
137.085
 20
92.5668
 30
0
 11
91.3494
 21
85.7845
 31
0
 70
4
  1
R mm
  3
STANDARD
100
AcDbRadialDimension
 15
131.428
 25
98.2237
 35
0
 40
0
  0
DIMENSION
  5
A3D
330
A02
100
AcDbEntity
  8
Dimension017
100
AcDbDimension
  2
*Dimension017
 10
151.503
 20
105.776
 30
0
 11
182.901
 21
83.9406
 31
0
 70
3
  1
⌀ mm
  3
STANDARD
100
AcDbDiametricDimension
 15
133.16
 25
110.544
 35
0
 40
0
  0
ENDSEC
  0
SECTION
  2
OBJECTS
  0
DICTIONARY
  5
F000
330
0
100
AcDbDictionary
  3
ACAD_GROUP
350
F001
  0
DICTIONARY
  5
F001
330
F000
100
AcDbDictionary
  0
ENDSEC
  0
EOF