ISO-10303-21;
HEADER;
FILE_DESCRIPTION(('FreeCAD Model'),'2;1');
FILE_NAME('Open CASCADE Shape Model','2026-07-15T21:03:43',(''),(''),
  'Open CASCADE STEP processor 7.8','FreeCAD','Unknown');
FILE_SCHEMA(('AUTOMOTIVE_DESIGN { 1 0 10303 214 1 1 1 1 }'));
ENDSEC;
DATA;
#1 = APPLICATION_PROTOCOL_DEFINITION('international standard',
  'automotive_design',2000,#2);
#2 = APPLICATION_CONTEXT(
  'core data for automotive mechanical design processes');
#3 = SHAPE_DEFINITION_REPRESENTATION(#4,#10);
#4 = PRODUCT_DEFINITION_SHAPE('','',#5);
#5 = PRODUCT_DEFINITION('design','',#6,#9);
#6 = PRODUCT_DEFINITION_FORMATION('','',#7);
#7 = PRODUCT('BarSpacer','BarSpacer','',(#8));
#8 = PRODUCT_CONTEXT('',#2,'mechanical');
#9 = PRODUCT_DEFINITION_CONTEXT('part definition',#2,'design');
#10 = ADVANCED_BREP_SHAPE_REPRESENTATION('',(#11,#15),#1335);
#11 = AXIS2_PLACEMENT_3D('',#12,#13,#14);
#12 = CARTESIAN_POINT('',(0.,0.,0.));
#13 = DIRECTION('',(0.,0.,1.));
#14 = DIRECTION('',(1.,0.,-0.));
#15 = MANIFOLD_SOLID_BREP('',#16);
#16 = CLOSED_SHELL('',(#17,#160,#241,#322,#591,#640,#717,#767,#816,#917,
    #966,#1037,#1159,#1208,#1236,#1285,#1312,#1321,#1328));
#17 = ADVANCED_FACE('',(#18),#32,.F.);
#18 = FACE_BOUND('',#19,.F.);
#19 = EDGE_LOOP('',(#20,#55,#83,#106,#134));
#20 = ORIENTED_EDGE('',*,*,#21,.T.);
#21 = EDGE_CURVE('',#22,#24,#26,.T.);
#22 = VERTEX_POINT('',#23);
#23 = CARTESIAN_POINT('',(-6.376010830422E-15,-27.5,9.43));
#24 = VERTEX_POINT('',#25);
#25 = CARTESIAN_POINT('',(-2.,-25.5,11.43));
#26 = SURFACE_CURVE('',#27,(#31,#43),.PCURVE_S1.);
#27 = LINE('',#28,#29);
#28 = CARTESIAN_POINT('',(3.083333333333,-30.58333333333,6.346666666667)
  );
#29 = VECTOR('',#30,1.);
#30 = DIRECTION('',(-0.57735026919,0.57735026919,0.57735026919));
#31 = PCURVE('',#32,#37);
#32 = PLANE('',#33);
#33 = AXIS2_PLACEMENT_3D('',#34,#35,#36);
#34 = CARTESIAN_POINT('',(-3.285149929866E-15,-26.5,10.43));
#35 = DIRECTION('',(8.091323232011E-16,0.707106781187,-0.707106781187));
#36 = DIRECTION('',(1.,-1.182765616157E-15,-3.847971093111E-17));
#37 = DEFINITIONAL_REPRESENTATION('',(#38),#42);
#38 = LINE('',#39,#40);
#39 = CARTESIAN_POINT('',(3.083333333333,5.77470537969));
#40 = VECTOR('',#41,1.);
#41 = DIRECTION('',(-0.57735026919,-0.816496580928));
#42 = ( GEOMETRIC_REPRESENTATION_CONTEXT(2) 
PARAMETRIC_REPRESENTATION_CONTEXT() REPRESENTATION_CONTEXT('2D SPACE',''
  ) );
#43 = PCURVE('',#44,#49);
#44 = PLANE('',#45);
#45 = AXIS2_PLACEMENT_3D('',#46,#47,#48);
#46 = CARTESIAN_POINT('',(-1.,-50.,10.43));
#47 = DIRECTION('',(0.707106781187,1.938823841172E-16,0.707106781187));
#48 = DIRECTION('',(2.943790513188E-17,1.,-3.036290022557E-16));
#49 = DEFINITIONAL_REPRESENTATION('',(#50),#54);
#50 = LINE('',#51,#52);
#51 = CARTESIAN_POINT('',(19.416666666667,-5.77470537969));
#52 = VECTOR('',#53,1.);
#53 = DIRECTION('',(0.57735026919,0.816496580928));
#54 = ( GEOMETRIC_REPRESENTATION_CONTEXT(2) 
PARAMETRIC_REPRESENTATION_CONTEXT() REPRESENTATION_CONTEXT('2D SPACE',''
  ) );
#55 = ORIENTED_EDGE('',*,*,#56,.F.);
#56 = EDGE_CURVE('',#57,#24,#59,.T.);
#57 = VERTEX_POINT('',#58);
#58 = CARTESIAN_POINT('',(-1.142086425432E-14,-25.5,11.43));
#59 = SURFACE_CURVE('',#60,(#64,#71),.PCURVE_S1.);
#60 = LINE('',#61,#62);
#61 = CARTESIAN_POINT('',(4.887071029529,-25.5,11.43));
#62 = VECTOR('',#63,1.);
#63 = DIRECTION('',(-1.,5.741085716339E-16,-5.701773335916E-16));
#64 = PCURVE('',#32,#65);
#65 = DEFINITIONAL_REPRESENTATION('',(#66),#70);
#66 = LINE('',#67,#68);
#67 = CARTESIAN_POINT('',(4.887071029529,-1.414213562373));
#68 = VECTOR('',#69,1.);
#69 = DIRECTION('',(-1.,-1.023339903223E-15));
#70 = ( GEOMETRIC_REPRESENTATION_CONTEXT(2) 
PARAMETRIC_REPRESENTATION_CONTEXT() REPRESENTATION_CONTEXT('2D SPACE',''
  ) );
#71 = PCURVE('',#72,#77);
#72 = PLANE('',#73);
#73 = AXIS2_PLACEMENT_3D('',#74,#75,#76);
#74 = CARTESIAN_POINT('',(9.774142059058,-21.9739425379,11.43));
#75 = DIRECTION('',(-5.701773335916E-16,4.088630396648E-16,1.));
#76 = DIRECTION('',(1.,6.330240038727E-32,5.701773335916E-16));
#77 = DEFINITIONAL_REPRESENTATION('',(#78),#82);
#78 = LINE('',#79,#80);
#79 = CARTESIAN_POINT('',(-4.887071029529,-3.526057462091));
#80 = VECTOR('',#81,1.);
#81 = DIRECTION('',(-1.,5.741085716339E-16));
#82 = ( GEOMETRIC_REPRESENTATION_CONTEXT(2) 
PARAMETRIC_REPRESENTATION_CONTEXT() REPRESENTATION_CONTEXT('2D SPACE',''
  ) );
#83 = ORIENTED_EDGE('',*,*,#84,.T.);
#84 = EDGE_CURVE('',#57,#85,#87,.T.);
#85 = VERTEX_POINT('',#86);
#86 = CARTESIAN_POINT('',(21.4,-25.5,11.43));
#87 = SURFACE_CURVE('',#88,(#92,#99),.PCURVE_S1.);
#88 = LINE('',#89,#90);
#89 = CARTESIAN_POINT('',(9.7,-25.5,11.43));
#90 = VECTOR('',#91,1.);
#91 = DIRECTION('',(1.,-9.222413003004E-16,2.22044604925E-16));
#92 = PCURVE('',#32,#93);
#93 = DEFINITIONAL_REPRESENTATION('',(#94),#98);
#94 = LINE('',#95,#96);
#95 = CARTESIAN_POINT('',(9.7,-1.414213562373));
#96 = VECTOR('',#97,1.);
#97 = DIRECTION('',(1.,1.515673929609E-15));
#98 = ( GEOMETRIC_REPRESENTATION_CONTEXT(2) 
PARAMETRIC_REPRESENTATION_CONTEXT() REPRESENTATION_CONTEXT('2D SPACE',''
  ) );
#99 = PCURVE('',#72,#100);
#100 = DEFINITIONAL_REPRESENTATION('',(#101),#105);
#101 = LINE('',#102,#103);
#102 = CARTESIAN_POINT('',(-7.414205905826E-02,-3.526057462091));
#103 = VECTOR('',#104,1.);
#104 = DIRECTION('',(1.,-9.222413003004E-16));
#105 = ( GEOMETRIC_REPRESENTATION_CONTEXT(2) 
PARAMETRIC_REPRESENTATION_CONTEXT() REPRESENTATION_CONTEXT('2D SPACE',''
  ) );
#106 = ORIENTED_EDGE('',*,*,#107,.T.);
#107 = EDGE_CURVE('',#85,#108,#110,.T.);
#108 = VERTEX_POINT('',#109);
#109 = CARTESIAN_POINT('',(19.4,-27.5,9.43));
#110 = SURFACE_CURVE('',#111,(#115,#122),.PCURVE_S1.);
#111 = LINE('',#112,#113);
#112 = CARTESIAN_POINT('',(13.75,-33.15,3.78));
#113 = VECTOR('',#114,1.);
#114 = DIRECTION('',(-0.57735026919,-0.57735026919,-0.57735026919));
#115 = PCURVE('',#32,#116);
#116 = DEFINITIONAL_REPRESENTATION('',(#117),#121);
#117 = LINE('',#118,#119);
#118 = CARTESIAN_POINT('',(13.75,9.404520189781));
#119 = VECTOR('',#120,1.);
#120 = DIRECTION('',(-0.57735026919,0.816496580928));
#121 = ( GEOMETRIC_REPRESENTATION_CONTEXT(2) 
PARAMETRIC_REPRESENTATION_CONTEXT() REPRESENTATION_CONTEXT('2D SPACE',''
  ) );
#122 = PCURVE('',#123,#128);
#123 = PLANE('',#124);
#124 = AXIS2_PLACEMENT_3D('',#125,#126,#127);
#125 = CARTESIAN_POINT('',(20.437528712697,-38.0910813774,
    10.467528712697));
#126 = DIRECTION('',(-0.707106781187,5.832132918169E-16,0.707106781187)
  );
#127 = DIRECTION('',(-0.707106781187,-7.850462293419E-17,-0.707106781187
    ));
#128 = DEFINITIONAL_REPRESENTATION('',(#129),#133);
#129 = LINE('',#130,#131);
#130 = CARTESIAN_POINT('',(9.457593804256,-4.941081377402));
#131 = VECTOR('',#132,1.);
#132 = DIRECTION('',(0.816496580928,0.57735026919));
#133 = ( GEOMETRIC_REPRESENTATION_CONTEXT(2) 
PARAMETRIC_REPRESENTATION_CONTEXT() REPRESENTATION_CONTEXT('2D SPACE',''
  ) );
#134 = ORIENTED_EDGE('',*,*,#135,.F.);
#135 = EDGE_CURVE('',#22,#108,#136,.T.);
#136 = SURFACE_CURVE('',#137,(#141,#148),.PCURVE_S1.);
#137 = LINE('',#138,#139);
#138 = CARTESIAN_POINT('',(-1.841859997853E-15,-27.5,9.43));
#139 = VECTOR('',#140,1.);
#140 = DIRECTION('',(1.,-1.110223024625E-15,-1.110223024625E-16));
#141 = PCURVE('',#32,#142);
#142 = DEFINITIONAL_REPRESENTATION('',(#143),#147);
#143 = LINE('',#144,#145);
#144 = CARTESIAN_POINT('',(1.7763568394E-15,1.414213562373));
#145 = VECTOR('',#146,1.);
#146 = DIRECTION('',(1.,1.256073966947E-15));
#147 = ( GEOMETRIC_REPRESENTATION_CONTEXT(2) 
PARAMETRIC_REPRESENTATION_CONTEXT() REPRESENTATION_CONTEXT('2D SPACE',''
  ) );
#148 = PCURVE('',#149,#154);
#149 = PLANE('',#150);
#150 = AXIS2_PLACEMENT_3D('',#151,#152,#153);
#151 = CARTESIAN_POINT('',(-4.284350652029E-15,-27.5,11.43));
#152 = DIRECTION('',(-2.22044604925E-16,1.,-1.221245327088E-15));
#153 = DIRECTION('',(1.443289932013E-15,1.110223024625E-16,-1.));
#154 = DEFINITIONAL_REPRESENTATION('',(#155),#159);
#155 = LINE('',#156,#157);
#156 = CARTESIAN_POINT('',(2.,-1.33226762955E-15));
#157 = VECTOR('',#158,1.);
#158 = DIRECTION('',(1.110223024625E-15,-1.));
#159 = ( GEOMETRIC_REPRESENTATION_CONTEXT(2) 
PARAMETRIC_REPRESENTATION_CONTEXT() REPRESENTATION_CONTEXT('2D SPACE',''
  ) );
#160 = ADVANCED_FACE('',(#161),#44,.T.);
#161 = FACE_BOUND('',#162,.T.);
#162 = EDGE_LOOP('',(#163,#193,#219,#220));
#163 = ORIENTED_EDGE('',*,*,#164,.F.);
#164 = EDGE_CURVE('',#165,#167,#169,.T.);
#165 = VERTEX_POINT('',#166);
#166 = CARTESIAN_POINT('',(-7.042144645197E-15,-50.,9.43));
#167 = VERTEX_POINT('',#168);
#168 = CARTESIAN_POINT('',(-2.,-50.,11.43));
#169 = SURFACE_CURVE('',#170,(#174,#181),.PCURVE_S1.);
#170 = LINE('',#171,#172);
#171 = CARTESIAN_POINT('',(-1.,-50.,10.43));
#172 = VECTOR('',#173,1.);
#173 = DIRECTION('',(-0.707106781187,2.355138688026E-16,0.707106781187)
  );
#174 = PCURVE('',#44,#175);
#175 = DEFINITIONAL_REPRESENTATION('',(#176),#180);
#176 = LINE('',#177,#178);
#177 = CARTESIAN_POINT('',(1.189827885846E-30,-5.181305113656E-15));
#178 = VECTOR('',#179,1.);
#179 = DIRECTION('',(1.972152263053E-31,1.));
#180 = ( GEOMETRIC_REPRESENTATION_CONTEXT(2) 
PARAMETRIC_REPRESENTATION_CONTEXT() REPRESENTATION_CONTEXT('2D SPACE',''
  ) );
#181 = PCURVE('',#182,#187);
#182 = PLANE('',#183);
#183 = AXIS2_PLACEMENT_3D('',#184,#185,#186);
#184 = CARTESIAN_POINT('',(-3.80695475144E-15,-50.,11.43));
#185 = DIRECTION('',(-2.22044604925E-16,-1.,1.110223024625E-16));
#186 = DIRECTION('',(3.330669073875E-16,-1.110223024625E-16,-1.));
#187 = DEFINITIONAL_REPRESENTATION('',(#188),#192);
#188 = LINE('',#189,#190);
#189 = CARTESIAN_POINT('',(1.,-1.));
#190 = VECTOR('',#191,1.);
#191 = DIRECTION('',(-0.707106781187,-0.707106781187));
#192 = ( GEOMETRIC_REPRESENTATION_CONTEXT(2) 
PARAMETRIC_REPRESENTATION_CONTEXT() REPRESENTATION_CONTEXT('2D SPACE',''
  ) );
#193 = ORIENTED_EDGE('',*,*,#194,.T.);
#194 = EDGE_CURVE('',#165,#22,#195,.T.);
#195 = SURFACE_CURVE('',#196,(#200,#207),.PCURVE_S1.);
#196 = LINE('',#197,#198);
#197 = CARTESIAN_POINT('',(-8.012596970596E-15,-50.,9.43));
#198 = VECTOR('',#199,1.);
#199 = DIRECTION('',(2.465190328816E-32,1.,-3.330669073875E-16));
#200 = PCURVE('',#44,#201);
#201 = DEFINITIONAL_REPRESENTATION('',(#202),#206);
#202 = LINE('',#203,#204);
#203 = CARTESIAN_POINT('',(3.330669073875E-16,-1.414213562373));
#204 = VECTOR('',#205,1.);
#205 = DIRECTION('',(1.,7.395570986447E-32));
#206 = ( GEOMETRIC_REPRESENTATION_CONTEXT(2) 
PARAMETRIC_REPRESENTATION_CONTEXT() REPRESENTATION_CONTEXT('2D SPACE',''
  ) );
#207 = PCURVE('',#208,#213);
#208 = PLANE('',#209);
#209 = AXIS2_PLACEMENT_3D('',#210,#211,#212);
#210 = CARTESIAN_POINT('',(2.378652830259E-15,-25.,5.715));
#211 = DIRECTION('',(1.,-4.440892098501E-16,-1.110223024625E-16));
#212 = DIRECTION('',(-5.551115123126E-16,-1.110223024625E-16,1.));
#213 = DEFINITIONAL_REPRESENTATION('',(#214),#218);
#214 = LINE('',#215,#216);
#215 = CARTESIAN_POINT('',(3.715,25.));
#216 = VECTOR('',#217,1.);
#217 = DIRECTION('',(-4.440892098501E-16,-1.));
#218 = ( GEOMETRIC_REPRESENTATION_CONTEXT(2) 
PARAMETRIC_REPRESENTATION_CONTEXT() REPRESENTATION_CONTEXT('2D SPACE',''
  ) );
#219 = ORIENTED_EDGE('',*,*,#21,.T.);
#220 = ORIENTED_EDGE('',*,*,#221,.F.);
#221 = EDGE_CURVE('',#167,#24,#222,.T.);
#222 = SURFACE_CURVE('',#223,(#227,#234),.PCURVE_S1.);
#223 = LINE('',#224,#225);
#224 = CARTESIAN_POINT('',(-2.,-50.,11.43));
#225 = VECTOR('',#226,1.);
#226 = DIRECTION('',(2.465190328816E-32,1.,-3.330669073875E-16));
#227 = PCURVE('',#44,#228);
#228 = DEFINITIONAL_REPRESENTATION('',(#229),#233);
#229 = LINE('',#230,#231);
#230 = CARTESIAN_POINT('',(-3.330669073875E-16,1.414213562373));
#231 = VECTOR('',#232,1.);
#232 = DIRECTION('',(1.,7.395570986447E-32));
#233 = ( GEOMETRIC_REPRESENTATION_CONTEXT(2) 
PARAMETRIC_REPRESENTATION_CONTEXT() REPRESENTATION_CONTEXT('2D SPACE',''
  ) );
#234 = PCURVE('',#72,#235);
#235 = DEFINITIONAL_REPRESENTATION('',(#236),#240);
#236 = LINE('',#237,#238);
#237 = CARTESIAN_POINT('',(-11.77414205905,-28.02605746209));
#238 = VECTOR('',#239,1.);
#239 = DIRECTION('',(-1.019528974864E-31,1.));
#240 = ( GEOMETRIC_REPRESENTATION_CONTEXT(2) 
PARAMETRIC_REPRESENTATION_CONTEXT() REPRESENTATION_CONTEXT('2D SPACE',''
  ) );
#241 = ADVANCED_FACE('',(#242),#149,.F.);
#242 = FACE_BOUND('',#243,.F.);
#243 = EDGE_LOOP('',(#244,#267,#268,#296));
#244 = ORIENTED_EDGE('',*,*,#245,.F.);
#245 = EDGE_CURVE('',#22,#246,#248,.T.);
#246 = VERTEX_POINT('',#247);
#247 = CARTESIAN_POINT('',(-1.998401444325E-15,-27.5,2.));
#248 = SURFACE_CURVE('',#249,(#253,#260),.PCURVE_S1.);
#249 = LINE('',#250,#251);
#250 = CARTESIAN_POINT('',(-7.160938508833E-16,-27.5,11.43));
#251 = VECTOR('',#252,1.);
#252 = DIRECTION('',(1.665334536938E-15,3.330669073875E-16,-1.));
#253 = PCURVE('',#149,#254);
#254 = DEFINITIONAL_REPRESENTATION('',(#255),#259);
#255 = LINE('',#256,#257);
#256 = CARTESIAN_POINT('',(-1.06581410364E-14,-3.568256801145E-15));
#257 = VECTOR('',#258,1.);
#258 = DIRECTION('',(1.,-1.110223024625E-15));
#259 = ( GEOMETRIC_REPRESENTATION_CONTEXT(2) 
PARAMETRIC_REPRESENTATION_CONTEXT() REPRESENTATION_CONTEXT('2D SPACE',''
  ) );
#260 = PCURVE('',#208,#261);
#261 = DEFINITIONAL_REPRESENTATION('',(#262),#266);
#262 = LINE('',#263,#264);
#263 = CARTESIAN_POINT('',(5.715,2.5));
#264 = VECTOR('',#265,1.);
#265 = DIRECTION('',(-1.,-6.661338147751E-16));
#266 = ( GEOMETRIC_REPRESENTATION_CONTEXT(2) 
PARAMETRIC_REPRESENTATION_CONTEXT() REPRESENTATION_CONTEXT('2D SPACE',''
  ) );
#267 = ORIENTED_EDGE('',*,*,#135,.T.);
#268 = ORIENTED_EDGE('',*,*,#269,.T.);
#269 = EDGE_CURVE('',#108,#270,#272,.T.);
#270 = VERTEX_POINT('',#271);
#271 = CARTESIAN_POINT('',(19.4,-27.5,2.));
#272 = SURFACE_CURVE('',#273,(#277,#284),.PCURVE_S1.);
#273 = LINE('',#274,#275);
#274 = CARTESIAN_POINT('',(19.4,-27.5,11.43));
#275 = VECTOR('',#276,1.);
#276 = DIRECTION('',(1.665334536938E-15,3.330669073875E-16,-1.));
#277 = PCURVE('',#149,#278);
#278 = DEFINITIONAL_REPRESENTATION('',(#279),#283);
#279 = LINE('',#280,#281);
#280 = CARTESIAN_POINT('',(3.892441924336E-14,-19.4));
#281 = VECTOR('',#282,1.);
#282 = DIRECTION('',(1.,-1.110223024625E-15));
#283 = ( GEOMETRIC_REPRESENTATION_CONTEXT(2) 
PARAMETRIC_REPRESENTATION_CONTEXT() REPRESENTATION_CONTEXT('2D SPACE',''
  ) );
#284 = PCURVE('',#285,#290);
#285 = PLANE('',#286);
#286 = AXIS2_PLACEMENT_3D('',#287,#288,#289);
#287 = CARTESIAN_POINT('',(19.4,-25.85557431165,2.522153574912));
#288 = DIRECTION('',(1.,-8.881784197001E-16,-2.22044604925E-16));
#289 = DIRECTION('',(-1.110223024625E-15,-2.22044604925E-16,1.));
#290 = DEFINITIONAL_REPRESENTATION('',(#291),#295);
#291 = LINE('',#292,#293);
#292 = CARTESIAN_POINT('',(8.907846425088,1.644425688349));
#293 = VECTOR('',#294,1.);
#294 = DIRECTION('',(-1.,-9.992007221626E-16));
#295 = ( GEOMETRIC_REPRESENTATION_CONTEXT(2) 
PARAMETRIC_REPRESENTATION_CONTEXT() REPRESENTATION_CONTEXT('2D SPACE',''
  ) );
#296 = ORIENTED_EDGE('',*,*,#297,.F.);
#297 = EDGE_CURVE('',#246,#270,#298,.T.);
#298 = SURFACE_CURVE('',#299,(#303,#310),.PCURVE_S1.);
#299 = LINE('',#300,#301);
#300 = CARTESIAN_POINT('',(9.769962616701E-15,-27.5,2.));
#301 = VECTOR('',#302,1.);
#302 = DIRECTION('',(1.,-1.110223024625E-15,-1.110223024625E-16));
#303 = PCURVE('',#149,#304);
#304 = DEFINITIONAL_REPRESENTATION('',(#305),#309);
#305 = LINE('',#306,#307);
#306 = CARTESIAN_POINT('',(9.43,-8.819611707622E-15));
#307 = VECTOR('',#308,1.);
#308 = DIRECTION('',(1.110223024625E-15,-1.));
#309 = ( GEOMETRIC_REPRESENTATION_CONTEXT(2) 
PARAMETRIC_REPRESENTATION_CONTEXT() REPRESENTATION_CONTEXT('2D SPACE',''
  ) );
#310 = PCURVE('',#311,#316);
#311 = PLANE('',#312);
#312 = AXIS2_PLACEMENT_3D('',#313,#314,#315);
#313 = CARTESIAN_POINT('',(1.076916333886E-14,-26.5,1.));
#314 = DIRECTION('',(9.468138216468E-16,-0.707106781187,-0.707106781187)
  );
#315 = DIRECTION('',(-1.,1.162369516824E-15,1.631687946613E-16));
#316 = DEFINITIONAL_REPRESENTATION('',(#317),#321);
#317 = LINE('',#318,#319);
#318 = CARTESIAN_POINT('',(-7.395570986447E-32,-1.414213562373));
#319 = VECTOR('',#320,1.);
#320 = DIRECTION('',(-1.,1.972152263053E-31));
#321 = ( GEOMETRIC_REPRESENTATION_CONTEXT(2) 
PARAMETRIC_REPRESENTATION_CONTEXT() REPRESENTATION_CONTEXT('2D SPACE',''
  ) );
#322 = ADVANCED_FACE('',(#323),#72,.T.);
#323 = FACE_BOUND('',#324,.T.);
#324 = EDGE_LOOP('',(#325,#348,#349,#350,#351,#374,#402,#430,#458,#486,
    #514,#537,#565));
#325 = ORIENTED_EDGE('',*,*,#326,.F.);
#326 = EDGE_CURVE('',#167,#327,#329,.T.);
#327 = VERTEX_POINT('',#328);
#328 = CARTESIAN_POINT('',(-4.,-50.,11.43));
#329 = SURFACE_CURVE('',#330,(#334,#341),.PCURVE_S1.);
#330 = LINE('',#331,#332);
#331 = CARTESIAN_POINT('',(-3.80695475144E-15,-50.,11.43));
#332 = VECTOR('',#333,1.);
#333 = DIRECTION('',(-1.,2.22044604925E-16,-1.110223024625E-16));
#334 = PCURVE('',#72,#335);
#335 = DEFINITIONAL_REPRESENTATION('',(#336),#340);
#336 = LINE('',#337,#338);
#337 = CARTESIAN_POINT('',(-9.774142059058,-28.02605746209));
#338 = VECTOR('',#339,1.);
#339 = DIRECTION('',(-1.,2.22044604925E-16));
#340 = ( GEOMETRIC_REPRESENTATION_CONTEXT(2) 
PARAMETRIC_REPRESENTATION_CONTEXT() REPRESENTATION_CONTEXT('2D SPACE',''
  ) );
#341 = PCURVE('',#182,#342);
#342 = DEFINITIONAL_REPRESENTATION('',(#343),#347);
#343 = LINE('',#344,#345);
#344 = CARTESIAN_POINT('',(0.,0.));
#345 = VECTOR('',#346,1.);
#346 = DIRECTION('',(-2.22044604925E-16,-1.));
#347 = ( GEOMETRIC_REPRESENTATION_CONTEXT(2) 
PARAMETRIC_REPRESENTATION_CONTEXT() REPRESENTATION_CONTEXT('2D SPACE',''
  ) );
#348 = ORIENTED_EDGE('',*,*,#221,.T.);
#349 = ORIENTED_EDGE('',*,*,#56,.F.);
#350 = ORIENTED_EDGE('',*,*,#84,.T.);
#351 = ORIENTED_EDGE('',*,*,#352,.F.);
#352 = EDGE_CURVE('',#353,#85,#355,.T.);
#353 = VERTEX_POINT('',#354);
#354 = CARTESIAN_POINT('',(21.4,-50.,11.43));
#355 = SURFACE_CURVE('',#356,(#360,#367),.PCURVE_S1.);
#356 = LINE('',#357,#358);
#357 = CARTESIAN_POINT('',(21.4,-50.,11.43));
#358 = VECTOR('',#359,1.);
#359 = DIRECTION('',(1.60237371373E-31,1.,-6.661338147751E-16));
#360 = PCURVE('',#72,#361);
#361 = DEFINITIONAL_REPRESENTATION('',(#362),#366);
#362 = LINE('',#363,#364);
#363 = CARTESIAN_POINT('',(11.625857940942,-28.02605746209));
#364 = VECTOR('',#365,1.);
#365 = DIRECTION('',(-1.562746305634E-31,1.));
#366 = ( GEOMETRIC_REPRESENTATION_CONTEXT(2) 
PARAMETRIC_REPRESENTATION_CONTEXT() REPRESENTATION_CONTEXT('2D SPACE',''
  ) );
#367 = PCURVE('',#123,#368);
#368 = DEFINITIONAL_REPRESENTATION('',(#369),#373);
#369 = LINE('',#370,#371);
#370 = CARTESIAN_POINT('',(-1.361139947898,11.908918622598));
#371 = VECTOR('',#372,1.);
#372 = DIRECTION('',(3.925231146709E-16,-1.));
#373 = ( GEOMETRIC_REPRESENTATION_CONTEXT(2) 
PARAMETRIC_REPRESENTATION_CONTEXT() REPRESENTATION_CONTEXT('2D SPACE',''
  ) );
#374 = ORIENTED_EDGE('',*,*,#375,.T.);
#375 = EDGE_CURVE('',#353,#376,#378,.T.);
#376 = VERTEX_POINT('',#377);
#377 = CARTESIAN_POINT('',(23.4,-50.,11.43));
#378 = SURFACE_CURVE('',#379,(#383,#390),.PCURVE_S1.);
#379 = LINE('',#380,#381);
#380 = CARTESIAN_POINT('',(19.4,-50.,11.43));
#381 = VECTOR('',#382,1.);
#382 = DIRECTION('',(1.,-6.661338147751E-16,3.574525976783E-31));
#383 = PCURVE('',#72,#384);
#384 = DEFINITIONAL_REPRESENTATION('',(#385),#389);
#385 = LINE('',#386,#387);
#386 = CARTESIAN_POINT('',(9.625857940942,-28.02605746209));
#387 = VECTOR('',#388,1.);
#388 = DIRECTION('',(1.,-6.661338147751E-16));
#389 = ( GEOMETRIC_REPRESENTATION_CONTEXT(2) 
PARAMETRIC_REPRESENTATION_CONTEXT() REPRESENTATION_CONTEXT('2D SPACE',''
  ) );
#390 = PCURVE('',#391,#396);
#391 = PLANE('',#392);
#392 = AXIS2_PLACEMENT_3D('',#393,#394,#395);
#393 = CARTESIAN_POINT('',(19.4,-50.,11.43));
#394 = DIRECTION('',(1.479114197289E-31,1.,-6.661338147751E-16));
#395 = DIRECTION('',(8.881784197001E-16,-2.958228394579E-31,-1.));
#396 = DEFINITIONAL_REPRESENTATION('',(#397),#401);
#397 = LINE('',#398,#399);
#398 = CARTESIAN_POINT('',(0.,0.));
#399 = VECTOR('',#400,1.);
#400 = DIRECTION('',(6.661338147751E-16,-1.));
#401 = ( GEOMETRIC_REPRESENTATION_CONTEXT(2) 
PARAMETRIC_REPRESENTATION_CONTEXT() REPRESENTATION_CONTEXT('2D SPACE',''
  ) );
#402 = ORIENTED_EDGE('',*,*,#403,.T.);
#403 = EDGE_CURVE('',#376,#404,#406,.T.);
#404 = VERTEX_POINT('',#405);
#405 = CARTESIAN_POINT('',(23.4,-9.3,11.43));
#406 = SURFACE_CURVE('',#407,(#411,#418),.PCURVE_S1.);
#407 = LINE('',#408,#409);
#408 = CARTESIAN_POINT('',(23.4,-46.,11.43));
#409 = VECTOR('',#410,1.);
#410 = DIRECTION('',(1.60237371373E-31,1.,-6.661338147751E-16));
#411 = PCURVE('',#72,#412);
#412 = DEFINITIONAL_REPRESENTATION('',(#413),#417);
#413 = LINE('',#414,#415);
#414 = CARTESIAN_POINT('',(13.625857940942,-24.02605746209));
#415 = VECTOR('',#416,1.);
#416 = DIRECTION('',(-1.562746305634E-31,1.));
#417 = ( GEOMETRIC_REPRESENTATION_CONTEXT(2) 
PARAMETRIC_REPRESENTATION_CONTEXT() REPRESENTATION_CONTEXT('2D SPACE',''
  ) );
#418 = PCURVE('',#419,#424);
#419 = PLANE('',#420);
#420 = AXIS2_PLACEMENT_3D('',#421,#422,#423);
#421 = CARTESIAN_POINT('',(23.4,-25.85557431165,2.522153574912));
#422 = DIRECTION('',(1.,-8.881784197001E-16,-2.22044604925E-16));
#423 = DIRECTION('',(-1.110223024625E-15,-2.22044604925E-16,1.));
#424 = DEFINITIONAL_REPRESENTATION('',(#425),#429);
#425 = LINE('',#426,#427);
#426 = CARTESIAN_POINT('',(8.907846425088,20.144425688349));
#427 = VECTOR('',#428,1.);
#428 = DIRECTION('',(-8.881784197001E-16,-1.));
#429 = ( GEOMETRIC_REPRESENTATION_CONTEXT(2) 
PARAMETRIC_REPRESENTATION_CONTEXT() REPRESENTATION_CONTEXT('2D SPACE',''
  ) );
#430 = ORIENTED_EDGE('',*,*,#431,.F.);
#431 = EDGE_CURVE('',#432,#404,#434,.T.);
#432 = VERTEX_POINT('',#433);
#433 = CARTESIAN_POINT('',(-1.142086425432E-14,-9.3,11.43));
#434 = SURFACE_CURVE('',#435,(#439,#446),.PCURVE_S1.);
#435 = LINE('',#436,#437);
#436 = CARTESIAN_POINT('',(19.4,-9.3,11.43));
#437 = VECTOR('',#438,1.);
#438 = DIRECTION('',(1.,-4.440892098501E-16,2.22044604925E-16));
#439 = PCURVE('',#72,#440);
#440 = DEFINITIONAL_REPRESENTATION('',(#441),#445);
#441 = LINE('',#442,#443);
#442 = CARTESIAN_POINT('',(9.625857940942,12.673942537909));
#443 = VECTOR('',#444,1.);
#444 = DIRECTION('',(1.,-4.440892098501E-16));
#445 = ( GEOMETRIC_REPRESENTATION_CONTEXT(2) 
PARAMETRIC_REPRESENTATION_CONTEXT() REPRESENTATION_CONTEXT('2D SPACE',''
  ) );
#446 = PCURVE('',#447,#452);
#447 = PLANE('',#448);
#448 = AXIS2_PLACEMENT_3D('',#449,#450,#451);
#449 = CARTESIAN_POINT('',(11.7,-9.3,8.215));
#450 = DIRECTION('',(4.864006076571E-16,1.,-1.110223024625E-16));
#451 = DIRECTION('',(1.,-4.864006076571E-16,1.110223024625E-16));
#452 = DEFINITIONAL_REPRESENTATION('',(#453),#457);
#453 = LINE('',#454,#455);
#454 = CARTESIAN_POINT('',(7.7,-3.215));
#455 = VECTOR('',#456,1.);
#456 = DIRECTION('',(1.,-1.110223024625E-16));
#457 = ( GEOMETRIC_REPRESENTATION_CONTEXT(2) 
PARAMETRIC_REPRESENTATION_CONTEXT() REPRESENTATION_CONTEXT('2D SPACE',''
  ) );
#458 = ORIENTED_EDGE('',*,*,#459,.T.);
#459 = EDGE_CURVE('',#432,#460,#462,.T.);
#460 = VERTEX_POINT('',#461);
#461 = CARTESIAN_POINT('',(-1.142086425432E-14,-4.,11.43));
#462 = SURFACE_CURVE('',#463,(#467,#474),.PCURVE_S1.);
#463 = LINE('',#464,#465);
#464 = CARTESIAN_POINT('',(-3.80695475144E-15,-4.,11.43));
#465 = VECTOR('',#466,1.);
#466 = DIRECTION('',(2.465190328816E-32,1.,-3.330669073875E-16));
#467 = PCURVE('',#72,#468);
#468 = DEFINITIONAL_REPRESENTATION('',(#469),#473);
#469 = LINE('',#470,#471);
#470 = CARTESIAN_POINT('',(-9.774142059058,17.973942537909));
#471 = VECTOR('',#472,1.);
#472 = DIRECTION('',(-1.019528974864E-31,1.));
#473 = ( GEOMETRIC_REPRESENTATION_CONTEXT(2) 
PARAMETRIC_REPRESENTATION_CONTEXT() REPRESENTATION_CONTEXT('2D SPACE',''
  ) );
#474 = PCURVE('',#475,#480);
#475 = PLANE('',#476);
#476 = AXIS2_PLACEMENT_3D('',#477,#478,#479);
#477 = CARTESIAN_POINT('',(2.378652830259E-15,-25.,5.715));
#478 = DIRECTION('',(1.,-4.440892098501E-16,-1.110223024625E-16));
#479 = DIRECTION('',(-5.551115123126E-16,-1.110223024625E-16,1.));
#480 = DEFINITIONAL_REPRESENTATION('',(#481),#485);
#481 = LINE('',#482,#483);
#482 = CARTESIAN_POINT('',(5.715,-21.));
#483 = VECTOR('',#484,1.);
#484 = DIRECTION('',(-4.440892098501E-16,-1.));
#485 = ( GEOMETRIC_REPRESENTATION_CONTEXT(2) 
PARAMETRIC_REPRESENTATION_CONTEXT() REPRESENTATION_CONTEXT('2D SPACE',''
  ) );
#486 = ORIENTED_EDGE('',*,*,#487,.T.);
#487 = EDGE_CURVE('',#460,#488,#490,.T.);
#488 = VERTEX_POINT('',#489);
#489 = CARTESIAN_POINT('',(23.4,-4.,11.43));
#490 = SURFACE_CURVE('',#491,(#495,#502),.PCURVE_S1.);
#491 = LINE('',#492,#493);
#492 = CARTESIAN_POINT('',(-1.142086425432E-14,-4.,11.43));
#493 = VECTOR('',#494,1.);
#494 = DIRECTION('',(1.,-6.661338147751E-16,3.330669073875E-16));
#495 = PCURVE('',#72,#496);
#496 = DEFINITIONAL_REPRESENTATION('',(#497),#501);
#497 = LINE('',#498,#499);
#498 = CARTESIAN_POINT('',(-9.774142059058,17.973942537909));
#499 = VECTOR('',#500,1.);
#500 = DIRECTION('',(1.,-6.661338147751E-16));
#501 = ( GEOMETRIC_REPRESENTATION_CONTEXT(2) 
PARAMETRIC_REPRESENTATION_CONTEXT() REPRESENTATION_CONTEXT('2D SPACE',''
  ) );
#502 = PCURVE('',#503,#508);
#503 = PLANE('',#504);
#504 = AXIS2_PLACEMENT_3D('',#505,#506,#507);
#505 = CARTESIAN_POINT('',(11.7,-4.,8.215));
#506 = DIRECTION('',(-5.612209387275E-16,-1.,1.110223024625E-16));
#507 = DIRECTION('',(-1.,5.612209387275E-16,-1.110223024625E-16));
#508 = DEFINITIONAL_REPRESENTATION('',(#509),#513);
#509 = LINE('',#510,#511);
#510 = CARTESIAN_POINT('',(11.7,-3.215));
#511 = VECTOR('',#512,1.);
#512 = DIRECTION('',(-1.,-2.22044604925E-16));
#513 = ( GEOMETRIC_REPRESENTATION_CONTEXT(2) 
PARAMETRIC_REPRESENTATION_CONTEXT() REPRESENTATION_CONTEXT('2D SPACE',''
  ) );
#514 = ORIENTED_EDGE('',*,*,#515,.T.);
#515 = EDGE_CURVE('',#488,#516,#518,.T.);
#516 = VERTEX_POINT('',#517);
#517 = CARTESIAN_POINT('',(23.4,-7.853717676198E-15,11.43));
#518 = SURFACE_CURVE('',#519,(#523,#530),.PCURVE_S1.);
#519 = LINE('',#520,#521);
#520 = CARTESIAN_POINT('',(23.4,-4.,11.43));
#521 = VECTOR('',#522,1.);
#522 = DIRECTION('',(-4.440892098501E-16,1.,-1.110223024625E-15));
#523 = PCURVE('',#72,#524);
#524 = DEFINITIONAL_REPRESENTATION('',(#525),#529);
#525 = LINE('',#526,#527);
#526 = CARTESIAN_POINT('',(13.625857940942,17.973942537909));
#527 = VECTOR('',#528,1.);
#528 = DIRECTION('',(-4.440892098501E-16,1.));
#529 = ( GEOMETRIC_REPRESENTATION_CONTEXT(2) 
PARAMETRIC_REPRESENTATION_CONTEXT() REPRESENTATION_CONTEXT('2D SPACE',''
  ) );
#530 = PCURVE('',#419,#531);
#531 = DEFINITIONAL_REPRESENTATION('',(#532),#536);
#532 = LINE('',#533,#534);
#533 = CARTESIAN_POINT('',(8.907846425088,-21.85557431165));
#534 = VECTOR('',#535,1.);
#535 = DIRECTION('',(-8.881784197001E-16,-1.));
#536 = ( GEOMETRIC_REPRESENTATION_CONTEXT(2) 
PARAMETRIC_REPRESENTATION_CONTEXT() REPRESENTATION_CONTEXT('2D SPACE',''
  ) );
#537 = ORIENTED_EDGE('',*,*,#538,.F.);
#538 = EDGE_CURVE('',#539,#516,#541,.T.);
#539 = VERTEX_POINT('',#540);
#540 = CARTESIAN_POINT('',(-4.,2.157163336847E-15,11.43));
#541 = SURFACE_CURVE('',#542,(#546,#553),.PCURVE_S1.);
#542 = LINE('',#543,#544);
#543 = CARTESIAN_POINT('',(19.4,-6.077360836798E-15,11.43));
#544 = VECTOR('',#545,1.);
#545 = DIRECTION('',(1.,-4.440892098501E-16,2.22044604925E-16));
#546 = PCURVE('',#72,#547);
#547 = DEFINITIONAL_REPRESENTATION('',(#548),#552);
#548 = LINE('',#549,#550);
#549 = CARTESIAN_POINT('',(9.625857940942,21.973942537909));
#550 = VECTOR('',#551,1.);
#551 = DIRECTION('',(1.,-4.440892098501E-16));
#552 = ( GEOMETRIC_REPRESENTATION_CONTEXT(2) 
PARAMETRIC_REPRESENTATION_CONTEXT() REPRESENTATION_CONTEXT('2D SPACE',''
  ) );
#553 = PCURVE('',#554,#559);
#554 = PLANE('',#555);
#555 = AXIS2_PLACEMENT_3D('',#556,#557,#558);
#556 = CARTESIAN_POINT('',(10.792692038291,-4.704922795306E-15,
    4.807692038291));
#557 = DIRECTION('',(4.780551226708E-16,1.,-1.110223024625E-16));
#558 = DIRECTION('',(1.,-4.780551226708E-16,1.110223024625E-16));
#559 = DEFINITIONAL_REPRESENTATION('',(#560),#564);
#560 = LINE('',#561,#562);
#561 = CARTESIAN_POINT('',(8.607307961709,-6.622307961709));
#562 = VECTOR('',#563,1.);
#563 = DIRECTION('',(1.,-1.110223024625E-16));
#564 = ( GEOMETRIC_REPRESENTATION_CONTEXT(2) 
PARAMETRIC_REPRESENTATION_CONTEXT() REPRESENTATION_CONTEXT('2D SPACE',''
  ) );
#565 = ORIENTED_EDGE('',*,*,#566,.F.);
#566 = EDGE_CURVE('',#327,#539,#567,.T.);
#567 = SURFACE_CURVE('',#568,(#572,#579),.PCURVE_S1.);
#568 = LINE('',#569,#570);
#569 = CARTESIAN_POINT('',(-4.,-50.,11.43));
#570 = VECTOR('',#571,1.);
#571 = DIRECTION('',(2.465190328816E-32,1.,-3.330669073875E-16));
#572 = PCURVE('',#72,#573);
#573 = DEFINITIONAL_REPRESENTATION('',(#574),#578);
#574 = LINE('',#575,#576);
#575 = CARTESIAN_POINT('',(-13.77414205905,-28.02605746209));
#576 = VECTOR('',#577,1.);
#577 = DIRECTION('',(-1.019528974864E-31,1.));
#578 = ( GEOMETRIC_REPRESENTATION_CONTEXT(2) 
PARAMETRIC_REPRESENTATION_CONTEXT() REPRESENTATION_CONTEXT('2D SPACE',''
  ) );
#579 = PCURVE('',#580,#585);
#580 = PLANE('',#581);
#581 = AXIS2_PLACEMENT_3D('',#582,#583,#584);
#582 = CARTESIAN_POINT('',(-4.,-25.,5.715));
#583 = DIRECTION('',(1.,-4.440892098501E-16,-1.110223024625E-16));
#584 = DIRECTION('',(-5.551115123126E-16,-1.110223024625E-16,1.));
#585 = DEFINITIONAL_REPRESENTATION('',(#586),#590);
#586 = LINE('',#587,#588);
#587 = CARTESIAN_POINT('',(5.715,25.));
#588 = VECTOR('',#589,1.);
#589 = DIRECTION('',(-4.440892098501E-16,-1.));
#590 = ( GEOMETRIC_REPRESENTATION_CONTEXT(2) 
PARAMETRIC_REPRESENTATION_CONTEXT() REPRESENTATION_CONTEXT('2D SPACE',''
  ) );
#591 = ADVANCED_FACE('',(#592),#123,.T.);
#592 = FACE_BOUND('',#593,.T.);
#593 = EDGE_LOOP('',(#594,#595,#618,#639));
#594 = ORIENTED_EDGE('',*,*,#107,.T.);
#595 = ORIENTED_EDGE('',*,*,#596,.F.);
#596 = EDGE_CURVE('',#597,#108,#599,.T.);
#597 = VERTEX_POINT('',#598);
#598 = CARTESIAN_POINT('',(19.4,-50.,9.43));
#599 = SURFACE_CURVE('',#600,(#604,#611),.PCURVE_S1.);
#600 = LINE('',#601,#602);
#601 = CARTESIAN_POINT('',(19.4,-50.,9.43));
#602 = VECTOR('',#603,1.);
#603 = DIRECTION('',(1.60237371373E-31,1.,-6.661338147751E-16));
#604 = PCURVE('',#123,#605);
#605 = DEFINITIONAL_REPRESENTATION('',(#606),#610);
#606 = LINE('',#607,#608);
#607 = CARTESIAN_POINT('',(1.467287176848,11.908918622598));
#608 = VECTOR('',#609,1.);
#609 = DIRECTION('',(3.925231146709E-16,-1.));
#610 = ( GEOMETRIC_REPRESENTATION_CONTEXT(2) 
PARAMETRIC_REPRESENTATION_CONTEXT() REPRESENTATION_CONTEXT('2D SPACE',''
  ) );
#611 = PCURVE('',#285,#612);
#612 = DEFINITIONAL_REPRESENTATION('',(#613),#617);
#613 = LINE('',#614,#615);
#614 = CARTESIAN_POINT('',(6.907846425088,24.144425688349));
#615 = VECTOR('',#616,1.);
#616 = DIRECTION('',(-8.881784197001E-16,-1.));
#617 = ( GEOMETRIC_REPRESENTATION_CONTEXT(2) 
PARAMETRIC_REPRESENTATION_CONTEXT() REPRESENTATION_CONTEXT('2D SPACE',''
  ) );
#618 = ORIENTED_EDGE('',*,*,#619,.F.);
#619 = EDGE_CURVE('',#353,#597,#620,.T.);
#620 = SURFACE_CURVE('',#621,(#625,#632),.PCURVE_S1.);
#621 = LINE('',#622,#623);
#622 = CARTESIAN_POINT('',(20.4,-50.,10.43));
#623 = VECTOR('',#624,1.);
#624 = DIRECTION('',(-0.707106781187,4.710277376051E-16,-0.707106781187)
  );
#625 = PCURVE('',#123,#626);
#626 = DEFINITIONAL_REPRESENTATION('',(#627),#631);
#627 = LINE('',#628,#629);
#628 = CARTESIAN_POINT('',(5.307361447512E-02,11.908918622598));
#629 = VECTOR('',#630,1.);
#630 = DIRECTION('',(1.,-5.495323605393E-16));
#631 = ( GEOMETRIC_REPRESENTATION_CONTEXT(2) 
PARAMETRIC_REPRESENTATION_CONTEXT() REPRESENTATION_CONTEXT('2D SPACE',''
  ) );
#632 = PCURVE('',#391,#633);
#633 = DEFINITIONAL_REPRESENTATION('',(#634),#638);
#634 = LINE('',#635,#636);
#635 = CARTESIAN_POINT('',(1.,-1.));
#636 = VECTOR('',#637,1.);
#637 = DIRECTION('',(0.707106781187,0.707106781187));
#638 = ( GEOMETRIC_REPRESENTATION_CONTEXT(2) 
PARAMETRIC_REPRESENTATION_CONTEXT() REPRESENTATION_CONTEXT('2D SPACE',''
  ) );
#639 = ORIENTED_EDGE('',*,*,#352,.T.);
#640 = ADVANCED_FACE('',(#641),#182,.T.);
#641 = FACE_BOUND('',#642,.T.);
#642 = EDGE_LOOP('',(#643,#644,#667,#695,#716));
#643 = ORIENTED_EDGE('',*,*,#326,.T.);
#644 = ORIENTED_EDGE('',*,*,#645,.T.);
#645 = EDGE_CURVE('',#327,#646,#648,.T.);
#646 = VERTEX_POINT('',#647);
#647 = CARTESIAN_POINT('',(-4.,-50.,1.620925615953E-14));
#648 = SURFACE_CURVE('',#649,(#653,#660),.PCURVE_S1.);
#649 = LINE('',#650,#651);
#650 = CARTESIAN_POINT('',(-4.,-50.,11.43));
#651 = VECTOR('',#652,1.);
#652 = DIRECTION('',(5.551115123126E-16,1.110223024625E-16,-1.));
#653 = PCURVE('',#182,#654);
#654 = DEFINITIONAL_REPRESENTATION('',(#655),#659);
#655 = LINE('',#656,#657);
#656 = CARTESIAN_POINT('',(-1.909583602355E-14,-4.));
#657 = VECTOR('',#658,1.);
#658 = DIRECTION('',(1.,2.22044604925E-16));
#659 = ( GEOMETRIC_REPRESENTATION_CONTEXT(2) 
PARAMETRIC_REPRESENTATION_CONTEXT() REPRESENTATION_CONTEXT('2D SPACE',''
  ) );
#660 = PCURVE('',#580,#661);
#661 = DEFINITIONAL_REPRESENTATION('',(#662),#666);
#662 = LINE('',#663,#664);
#663 = CARTESIAN_POINT('',(5.715,25.));
#664 = VECTOR('',#665,1.);
#665 = DIRECTION('',(-1.,-4.440892098501E-16));
#666 = ( GEOMETRIC_REPRESENTATION_CONTEXT(2) 
PARAMETRIC_REPRESENTATION_CONTEXT() REPRESENTATION_CONTEXT('2D SPACE',''
  ) );
#667 = ORIENTED_EDGE('',*,*,#668,.F.);
#668 = EDGE_CURVE('',#669,#646,#671,.T.);
#669 = VERTEX_POINT('',#670);
#670 = CARTESIAN_POINT('',(-1.577721810442E-30,-50.,1.665334536938E-14)
  );
#671 = SURFACE_CURVE('',#672,(#676,#683),.PCURVE_S1.);
#672 = LINE('',#673,#674);
#673 = CARTESIAN_POINT('',(-1.232595164408E-30,-50.,1.665334536938E-14)
  );
#674 = VECTOR('',#675,1.);
#675 = DIRECTION('',(-1.,2.22044604925E-16,-1.110223024625E-16));
#676 = PCURVE('',#182,#677);
#677 = DEFINITIONAL_REPRESENTATION('',(#678),#682);
#678 = LINE('',#679,#680);
#679 = CARTESIAN_POINT('',(11.43,-7.88860905221E-31));
#680 = VECTOR('',#681,1.);
#681 = DIRECTION('',(-2.22044604925E-16,-1.));
#682 = ( GEOMETRIC_REPRESENTATION_CONTEXT(2) 
PARAMETRIC_REPRESENTATION_CONTEXT() REPRESENTATION_CONTEXT('2D SPACE',''
  ) );
#683 = PCURVE('',#684,#689);
#684 = PLANE('',#685);
#685 = AXIS2_PLACEMENT_3D('',#686,#687,#688);
#686 = CARTESIAN_POINT('',(4.462261580381,-21.76226158038,
    1.273000022077E-14));
#687 = DIRECTION('',(6.851353889434E-16,-4.159577506784E-16,-1.));
#688 = DIRECTION('',(-1.,-7.606530837905E-32,-6.851353889434E-16));
#689 = DEFINITIONAL_REPRESENTATION('',(#690),#694);
#690 = LINE('',#691,#692);
#691 = CARTESIAN_POINT('',(4.462261580381,-28.23773841961));
#692 = VECTOR('',#693,1.);
#693 = DIRECTION('',(1.,2.22044604925E-16));
#694 = ( GEOMETRIC_REPRESENTATION_CONTEXT(2) 
PARAMETRIC_REPRESENTATION_CONTEXT() REPRESENTATION_CONTEXT('2D SPACE',''
  ) );
#695 = ORIENTED_EDGE('',*,*,#696,.F.);
#696 = EDGE_CURVE('',#165,#669,#697,.T.);
#697 = SURFACE_CURVE('',#698,(#702,#709),.PCURVE_S1.);
#698 = LINE('',#699,#700);
#699 = CARTESIAN_POINT('',(4.757305660519E-15,-50.,11.43));
#700 = VECTOR('',#701,1.);
#701 = DIRECTION('',(5.551115123126E-16,1.110223024625E-16,-1.));
#702 = PCURVE('',#182,#703);
#703 = DEFINITIONAL_REPRESENTATION('',(#704),#708);
#704 = LINE('',#705,#706);
#705 = CARTESIAN_POINT('',(-1.59872115546E-14,8.564260411958E-15));
#706 = VECTOR('',#707,1.);
#707 = DIRECTION('',(1.,2.22044604925E-16));
#708 = ( GEOMETRIC_REPRESENTATION_CONTEXT(2) 
PARAMETRIC_REPRESENTATION_CONTEXT() REPRESENTATION_CONTEXT('2D SPACE',''
  ) );
#709 = PCURVE('',#208,#710);
#710 = DEFINITIONAL_REPRESENTATION('',(#711),#715);
#711 = LINE('',#712,#713);
#712 = CARTESIAN_POINT('',(5.715,25.));
#713 = VECTOR('',#714,1.);
#714 = DIRECTION('',(-1.,-4.440892098501E-16));
#715 = ( GEOMETRIC_REPRESENTATION_CONTEXT(2) 
PARAMETRIC_REPRESENTATION_CONTEXT() REPRESENTATION_CONTEXT('2D SPACE',''
  ) );
#716 = ORIENTED_EDGE('',*,*,#164,.T.);
#717 = ADVANCED_FACE('',(#718),#208,.T.);
#718 = FACE_BOUND('',#719,.T.);
#719 = EDGE_LOOP('',(#720,#721,#744,#765,#766));
#720 = ORIENTED_EDGE('',*,*,#696,.T.);
#721 = ORIENTED_EDGE('',*,*,#722,.T.);
#722 = EDGE_CURVE('',#669,#723,#725,.T.);
#723 = VERTEX_POINT('',#724);
#724 = CARTESIAN_POINT('',(-9.466330862652E-30,-25.5,2.470246229791E-14)
  );
#725 = SURFACE_CURVE('',#726,(#730,#737),.PCURVE_S1.);
#726 = LINE('',#727,#728);
#727 = CARTESIAN_POINT('',(1.110223024625E-14,-50.,2.775557561563E-14));
#728 = VECTOR('',#729,1.);
#729 = DIRECTION('',(-2.22044604925E-16,1.,-5.551115123126E-16));
#730 = PCURVE('',#208,#731);
#731 = DEFINITIONAL_REPRESENTATION('',(#732),#736);
#732 = LINE('',#733,#734);
#733 = CARTESIAN_POINT('',(-5.715,25.));
#734 = VECTOR('',#735,1.);
#735 = DIRECTION('',(-4.440892098501E-16,-1.));
#736 = ( GEOMETRIC_REPRESENTATION_CONTEXT(2) 
PARAMETRIC_REPRESENTATION_CONTEXT() REPRESENTATION_CONTEXT('2D SPACE',''
  ) );
#737 = PCURVE('',#684,#738);
#738 = DEFINITIONAL_REPRESENTATION('',(#739),#743);
#739 = LINE('',#740,#741);
#740 = CARTESIAN_POINT('',(4.462261580381,-28.23773841961));
#741 = VECTOR('',#742,1.);
#742 = DIRECTION('',(2.22044604925E-16,1.));
#743 = ( GEOMETRIC_REPRESENTATION_CONTEXT(2) 
PARAMETRIC_REPRESENTATION_CONTEXT() REPRESENTATION_CONTEXT('2D SPACE',''
  ) );
#744 = ORIENTED_EDGE('',*,*,#745,.F.);
#745 = EDGE_CURVE('',#246,#723,#746,.T.);
#746 = SURFACE_CURVE('',#747,(#751,#758),.PCURVE_S1.);
#747 = LINE('',#748,#749);
#748 = CARTESIAN_POINT('',(8.492177358636E-15,-24.23431933421,
    -1.265680665785));
#749 = VECTOR('',#750,1.);
#750 = DIRECTION('',(7.065416064077E-16,0.707106781187,-0.707106781187)
  );
#751 = PCURVE('',#208,#752);
#752 = DEFINITIONAL_REPRESENTATION('',(#753),#757);
#753 = LINE('',#754,#755);
#754 = CARTESIAN_POINT('',(-6.980680665785,-0.765680665785));
#755 = VECTOR('',#756,1.);
#756 = DIRECTION('',(-0.707106781187,-0.707106781187));
#757 = ( GEOMETRIC_REPRESENTATION_CONTEXT(2) 
PARAMETRIC_REPRESENTATION_CONTEXT() REPRESENTATION_CONTEXT('2D SPACE',''
  ) );
#758 = PCURVE('',#311,#759);
#759 = DEFINITIONAL_REPRESENTATION('',(#760),#764);
#760 = LINE('',#761,#762);
#761 = CARTESIAN_POINT('',(4.54085573767E-15,3.204156325559));
#762 = VECTOR('',#763,1.);
#763 = DIRECTION('',(-7.395570986447E-32,1.));
#764 = ( GEOMETRIC_REPRESENTATION_CONTEXT(2) 
PARAMETRIC_REPRESENTATION_CONTEXT() REPRESENTATION_CONTEXT('2D SPACE',''
  ) );
#765 = ORIENTED_EDGE('',*,*,#245,.F.);
#766 = ORIENTED_EDGE('',*,*,#194,.F.);
#767 = ADVANCED_FACE('',(#768),#311,.T.);
#768 = FACE_BOUND('',#769,.F.);
#769 = EDGE_LOOP('',(#770,#771,#772,#795));
#770 = ORIENTED_EDGE('',*,*,#745,.F.);
#771 = ORIENTED_EDGE('',*,*,#297,.T.);
#772 = ORIENTED_EDGE('',*,*,#773,.T.);
#773 = EDGE_CURVE('',#270,#774,#776,.T.);
#774 = VERTEX_POINT('',#775);
#775 = CARTESIAN_POINT('',(19.4,-25.5,3.00537372766E-14));
#776 = SURFACE_CURVE('',#777,(#781,#788),.PCURVE_S1.);
#777 = LINE('',#778,#779);
#778 = CARTESIAN_POINT('',(19.4,-24.23431933421,-1.265680665785));
#779 = VECTOR('',#780,1.);
#780 = DIRECTION('',(7.065416064077E-16,0.707106781187,-0.707106781187)
  );
#781 = PCURVE('',#311,#782);
#782 = DEFINITIONAL_REPRESENTATION('',(#783),#787);
#783 = LINE('',#784,#785);
#784 = CARTESIAN_POINT('',(-19.4,3.204156325559));
#785 = VECTOR('',#786,1.);
#786 = DIRECTION('',(-7.395570986447E-32,1.));
#787 = ( GEOMETRIC_REPRESENTATION_CONTEXT(2) 
PARAMETRIC_REPRESENTATION_CONTEXT() REPRESENTATION_CONTEXT('2D SPACE',''
  ) );
#788 = PCURVE('',#285,#789);
#789 = DEFINITIONAL_REPRESENTATION('',(#790),#794);
#790 = LINE('',#791,#792);
#791 = CARTESIAN_POINT('',(-3.787834240697,-1.621254977436));
#792 = VECTOR('',#793,1.);
#793 = DIRECTION('',(-0.707106781187,-0.707106781187));
#794 = ( GEOMETRIC_REPRESENTATION_CONTEXT(2) 
PARAMETRIC_REPRESENTATION_CONTEXT() REPRESENTATION_CONTEXT('2D SPACE',''
  ) );
#795 = ORIENTED_EDGE('',*,*,#796,.F.);
#796 = EDGE_CURVE('',#723,#774,#797,.T.);
#797 = SURFACE_CURVE('',#798,(#802,#809),.PCURVE_S1.);
#798 = LINE('',#799,#800);
#799 = CARTESIAN_POINT('',(1.176836406103E-14,-25.5,3.641531520771E-14)
  );
#800 = VECTOR('',#801,1.);
#801 = DIRECTION('',(1.,-1.110223024625E-15,-1.110223024625E-16));
#802 = PCURVE('',#311,#803);
#803 = DEFINITIONAL_REPRESENTATION('',(#804),#808);
#804 = LINE('',#805,#806);
#805 = CARTESIAN_POINT('',(-1.651677520306E-30,1.414213562373));
#806 = VECTOR('',#807,1.);
#807 = DIRECTION('',(-1.,1.972152263053E-31));
#808 = ( GEOMETRIC_REPRESENTATION_CONTEXT(2) 
PARAMETRIC_REPRESENTATION_CONTEXT() REPRESENTATION_CONTEXT('2D SPACE',''
  ) );
#809 = PCURVE('',#684,#810);
#810 = DEFINITIONAL_REPRESENTATION('',(#811),#815);
#811 = LINE('',#812,#813);
#812 = CARTESIAN_POINT('',(4.462261580381,-3.737738419619));
#813 = VECTOR('',#814,1.);
#814 = DIRECTION('',(-1.,-1.110223024625E-15));
#815 = ( GEOMETRIC_REPRESENTATION_CONTEXT(2) 
PARAMETRIC_REPRESENTATION_CONTEXT() REPRESENTATION_CONTEXT('2D SPACE',''
  ) );
#816 = ADVANCED_FACE('',(#817),#285,.F.);
#817 = FACE_BOUND('',#818,.F.);
#818 = EDGE_LOOP('',(#819,#842,#870,#893,#914,#915,#916));
#819 = ORIENTED_EDGE('',*,*,#820,.T.);
#820 = EDGE_CURVE('',#597,#821,#823,.T.);
#821 = VERTEX_POINT('',#822);
#822 = CARTESIAN_POINT('',(19.4,-50.,-4.));
#823 = SURFACE_CURVE('',#824,(#828,#835),.PCURVE_S1.);
#824 = LINE('',#825,#826);
#825 = CARTESIAN_POINT('',(19.4,-50.,11.43));
#826 = VECTOR('',#827,1.);
#827 = DIRECTION('',(1.110223024625E-15,2.22044604925E-16,-1.));
#828 = PCURVE('',#285,#829);
#829 = DEFINITIONAL_REPRESENTATION('',(#830),#834);
#830 = LINE('',#831,#832);
#831 = CARTESIAN_POINT('',(8.907846425088,24.144425688349));
#832 = VECTOR('',#833,1.);
#833 = DIRECTION('',(-1.,-8.881784197001E-16));
#834 = ( GEOMETRIC_REPRESENTATION_CONTEXT(2) 
PARAMETRIC_REPRESENTATION_CONTEXT() REPRESENTATION_CONTEXT('2D SPACE',''
  ) );
#835 = PCURVE('',#391,#836);
#836 = DEFINITIONAL_REPRESENTATION('',(#837),#841);
#837 = LINE('',#838,#839);
#838 = CARTESIAN_POINT('',(-1.7763568394E-15,-2.48689957516E-14));
#839 = VECTOR('',#840,1.);
#840 = DIRECTION('',(1.,-6.661338147751E-16));
#841 = ( GEOMETRIC_REPRESENTATION_CONTEXT(2) 
PARAMETRIC_REPRESENTATION_CONTEXT() REPRESENTATION_CONTEXT('2D SPACE',''
  ) );
#842 = ORIENTED_EDGE('',*,*,#843,.T.);
#843 = EDGE_CURVE('',#821,#844,#846,.T.);
#844 = VERTEX_POINT('',#845);
#845 = CARTESIAN_POINT('',(19.4,-9.503509090791E-15,-4.));
#846 = SURFACE_CURVE('',#847,(#851,#858),.PCURVE_S1.);
#847 = LINE('',#848,#849);
#848 = CARTESIAN_POINT('',(19.4,-46.,-4.));
#849 = VECTOR('',#850,1.);
#850 = DIRECTION('',(1.60237371373E-31,1.,-6.661338147751E-16));
#851 = PCURVE('',#285,#852);
#852 = DEFINITIONAL_REPRESENTATION('',(#853),#857);
#853 = LINE('',#854,#855);
#854 = CARTESIAN_POINT('',(-6.522153574912,20.144425688349));
#855 = VECTOR('',#856,1.);
#856 = DIRECTION('',(-8.881784197001E-16,-1.));
#857 = ( GEOMETRIC_REPRESENTATION_CONTEXT(2) 
PARAMETRIC_REPRESENTATION_CONTEXT() REPRESENTATION_CONTEXT('2D SPACE',''
  ) );
#858 = PCURVE('',#859,#864);
#859 = PLANE('',#860);
#860 = AXIS2_PLACEMENT_3D('',#861,#862,#863);
#861 = CARTESIAN_POINT('',(21.4,-25.,-4.));
#862 = DIRECTION('',(1.110223024625E-16,-6.708946339201E-16,-1.));
#863 = DIRECTION('',(-6.215831532348E-32,-1.,6.708946339201E-16));
#864 = DEFINITIONAL_REPRESENTATION('',(#865),#869);
#865 = LINE('',#866,#867);
#866 = CARTESIAN_POINT('',(21.,2.));
#867 = VECTOR('',#868,1.);
#868 = DIRECTION('',(-1.,-9.860761315263E-32));
#869 = ( GEOMETRIC_REPRESENTATION_CONTEXT(2) 
PARAMETRIC_REPRESENTATION_CONTEXT() REPRESENTATION_CONTEXT('2D SPACE',''
  ) );
#870 = ORIENTED_EDGE('',*,*,#871,.T.);
#871 = EDGE_CURVE('',#844,#872,#874,.T.);
#872 = VERTEX_POINT('',#873);
#873 = CARTESIAN_POINT('',(19.4,-1.075941773458E-14,5.386661159974E-15)
  );
#874 = SURFACE_CURVE('',#875,(#879,#886),.PCURVE_S1.);
#875 = LINE('',#876,#877);
#876 = CARTESIAN_POINT('',(19.4,-7.727152251391E-15,-4.));
#877 = VECTOR('',#878,1.);
#878 = DIRECTION('',(-1.110223024625E-15,-2.22044604925E-16,1.));
#879 = PCURVE('',#285,#880);
#880 = DEFINITIONAL_REPRESENTATION('',(#881),#885);
#881 = LINE('',#882,#883);
#882 = CARTESIAN_POINT('',(-6.522153574912,-25.85557431165));
#883 = VECTOR('',#884,1.);
#884 = DIRECTION('',(1.,8.881784197001E-16));
#885 = ( GEOMETRIC_REPRESENTATION_CONTEXT(2) 
PARAMETRIC_REPRESENTATION_CONTEXT() REPRESENTATION_CONTEXT('2D SPACE',''
  ) );
#886 = PCURVE('',#554,#887);
#887 = DEFINITIONAL_REPRESENTATION('',(#888),#892);
#888 = LINE('',#889,#890);
#889 = CARTESIAN_POINT('',(8.607307961709,8.807692038291));
#890 = VECTOR('',#891,1.);
#891 = DIRECTION('',(-9.992007221626E-16,-1.));
#892 = ( GEOMETRIC_REPRESENTATION_CONTEXT(2) 
PARAMETRIC_REPRESENTATION_CONTEXT() REPRESENTATION_CONTEXT('2D SPACE',''
  ) );
#893 = ORIENTED_EDGE('',*,*,#894,.F.);
#894 = EDGE_CURVE('',#774,#872,#895,.T.);
#895 = SURFACE_CURVE('',#896,(#900,#907),.PCURVE_S1.);
#896 = LINE('',#897,#898);
#897 = CARTESIAN_POINT('',(19.4,-27.5,1.06581410364E-14));
#898 = VECTOR('',#899,1.);
#899 = DIRECTION('',(-6.661338147751E-16,1.,-1.665334536938E-15));
#900 = PCURVE('',#285,#901);
#901 = DEFINITIONAL_REPRESENTATION('',(#902),#906);
#902 = LINE('',#903,#904);
#903 = CARTESIAN_POINT('',(-2.522153574912,1.644425688349));
#904 = VECTOR('',#905,1.);
#905 = DIRECTION('',(-1.443289932013E-15,-1.));
#906 = ( GEOMETRIC_REPRESENTATION_CONTEXT(2) 
PARAMETRIC_REPRESENTATION_CONTEXT() REPRESENTATION_CONTEXT('2D SPACE',''
  ) );
#907 = PCURVE('',#684,#908);
#908 = DEFINITIONAL_REPRESENTATION('',(#909),#913);
#909 = LINE('',#910,#911);
#910 = CARTESIAN_POINT('',(-14.93773841961,-5.737738419619));
#911 = VECTOR('',#912,1.);
#912 = DIRECTION('',(6.661338147751E-16,1.));
#913 = ( GEOMETRIC_REPRESENTATION_CONTEXT(2) 
PARAMETRIC_REPRESENTATION_CONTEXT() REPRESENTATION_CONTEXT('2D SPACE',''
  ) );
#914 = ORIENTED_EDGE('',*,*,#773,.F.);
#915 = ORIENTED_EDGE('',*,*,#269,.F.);
#916 = ORIENTED_EDGE('',*,*,#596,.F.);
#917 = ADVANCED_FACE('',(#918),#580,.F.);
#918 = FACE_BOUND('',#919,.F.);
#919 = EDGE_LOOP('',(#920,#921,#944,#965));
#920 = ORIENTED_EDGE('',*,*,#645,.T.);
#921 = ORIENTED_EDGE('',*,*,#922,.T.);
#922 = EDGE_CURVE('',#646,#923,#925,.T.);
#923 = VERTEX_POINT('',#924);
#924 = CARTESIAN_POINT('',(-4.,8.881784197001E-16,-4.440892098501E-16));
#925 = SURFACE_CURVE('',#926,(#930,#937),.PCURVE_S1.);
#926 = LINE('',#927,#928);
#927 = CARTESIAN_POINT('',(-4.,-50.,3.01980662698E-14));
#928 = VECTOR('',#929,1.);
#929 = DIRECTION('',(-2.22044604925E-16,1.,-5.551115123126E-16));
#930 = PCURVE('',#580,#931);
#931 = DEFINITIONAL_REPRESENTATION('',(#932),#936);
#932 = LINE('',#933,#934);
#933 = CARTESIAN_POINT('',(-5.715,25.));
#934 = VECTOR('',#935,1.);
#935 = DIRECTION('',(-4.440892098501E-16,-1.));
#936 = ( GEOMETRIC_REPRESENTATION_CONTEXT(2) 
PARAMETRIC_REPRESENTATION_CONTEXT() REPRESENTATION_CONTEXT('2D SPACE',''
  ) );
#937 = PCURVE('',#684,#938);
#938 = DEFINITIONAL_REPRESENTATION('',(#939),#943);
#939 = LINE('',#940,#941);
#940 = CARTESIAN_POINT('',(8.462261580381,-28.23773841961));
#941 = VECTOR('',#942,1.);
#942 = DIRECTION('',(2.22044604925E-16,1.));
#943 = ( GEOMETRIC_REPRESENTATION_CONTEXT(2) 
PARAMETRIC_REPRESENTATION_CONTEXT() REPRESENTATION_CONTEXT('2D SPACE',''
  ) );
#944 = ORIENTED_EDGE('',*,*,#945,.T.);
#945 = EDGE_CURVE('',#923,#539,#946,.T.);
#946 = SURFACE_CURVE('',#947,(#951,#958),.PCURVE_S1.);
#947 = LINE('',#948,#949);
#948 = CARTESIAN_POINT('',(-4.,8.881784197001E-16,1.7763568394E-15));
#949 = VECTOR('',#950,1.);
#950 = DIRECTION('',(-5.551115123126E-16,-1.110223024625E-16,1.));
#951 = PCURVE('',#580,#952);
#952 = DEFINITIONAL_REPRESENTATION('',(#953),#957);
#953 = LINE('',#954,#955);
#954 = CARTESIAN_POINT('',(-5.715,-25.));
#955 = VECTOR('',#956,1.);
#956 = DIRECTION('',(1.,4.440892098501E-16));
#957 = ( GEOMETRIC_REPRESENTATION_CONTEXT(2) 
PARAMETRIC_REPRESENTATION_CONTEXT() REPRESENTATION_CONTEXT('2D SPACE',''
  ) );
#958 = PCURVE('',#554,#959);
#959 = DEFINITIONAL_REPRESENTATION('',(#960),#964);
#960 = LINE('',#961,#962);
#961 = CARTESIAN_POINT('',(-14.79269203829,4.807692038291));
#962 = VECTOR('',#963,1.);
#963 = DIRECTION('',(-4.440892098501E-16,-1.));
#964 = ( GEOMETRIC_REPRESENTATION_CONTEXT(2) 
PARAMETRIC_REPRESENTATION_CONTEXT() REPRESENTATION_CONTEXT('2D SPACE',''
  ) );
#965 = ORIENTED_EDGE('',*,*,#566,.F.);
#966 = ADVANCED_FACE('',(#967),#554,.T.);
#967 = FACE_BOUND('',#968,.T.);
#968 = EDGE_LOOP('',(#969,#992,#993,#1014,#1015,#1016));
#969 = ORIENTED_EDGE('',*,*,#970,.F.);
#970 = EDGE_CURVE('',#844,#971,#973,.T.);
#971 = VERTEX_POINT('',#972);
#972 = CARTESIAN_POINT('',(23.4,-1.127986593019E-14,-4.));
#973 = SURFACE_CURVE('',#974,(#978,#985),.PCURVE_S1.);
#974 = LINE('',#975,#976);
#975 = CARTESIAN_POINT('',(19.4,-1.292299600664E-14,-4.));
#976 = VECTOR('',#977,1.);
#977 = DIRECTION('',(1.,-6.661338147751E-16,3.574525976783E-31));
#978 = PCURVE('',#554,#979);
#979 = DEFINITIONAL_REPRESENTATION('',(#980),#984);
#980 = LINE('',#981,#982);
#981 = CARTESIAN_POINT('',(8.607307961709,8.807692038291));
#982 = VECTOR('',#983,1.);
#983 = DIRECTION('',(1.,1.110223024625E-16));
#984 = ( GEOMETRIC_REPRESENTATION_CONTEXT(2) 
PARAMETRIC_REPRESENTATION_CONTEXT() REPRESENTATION_CONTEXT('2D SPACE',''
  ) );
#985 = PCURVE('',#859,#986);
#986 = DEFINITIONAL_REPRESENTATION('',(#987),#991);
#987 = LINE('',#988,#989);
#988 = CARTESIAN_POINT('',(-25.,2.));
#989 = VECTOR('',#990,1.);
#990 = DIRECTION('',(6.661338147751E-16,-1.));
#991 = ( GEOMETRIC_REPRESENTATION_CONTEXT(2) 
PARAMETRIC_REPRESENTATION_CONTEXT() REPRESENTATION_CONTEXT('2D SPACE',''
  ) );
#992 = ORIENTED_EDGE('',*,*,#871,.T.);
#993 = ORIENTED_EDGE('',*,*,#994,.T.);
#994 = EDGE_CURVE('',#872,#923,#995,.T.);
#995 = SURFACE_CURVE('',#996,(#1000,#1007),.PCURVE_S1.);
#996 = LINE('',#997,#998);
#997 = CARTESIAN_POINT('',(0.,0.,0.));
#998 = VECTOR('',#999,1.);
#999 = DIRECTION('',(-1.,2.22044604925E-16,-1.110223024625E-16));
#1000 = PCURVE('',#554,#1001);
#1001 = DEFINITIONAL_REPRESENTATION('',(#1002),#1006);
#1002 = LINE('',#1003,#1004);
#1003 = CARTESIAN_POINT('',(-10.79269203829,4.807692038291));
#1004 = VECTOR('',#1005,1.);
#1005 = DIRECTION('',(-1.,0.));
#1006 = ( GEOMETRIC_REPRESENTATION_CONTEXT(2) 
PARAMETRIC_REPRESENTATION_CONTEXT() REPRESENTATION_CONTEXT('2D SPACE',''
  ) );
#1007 = PCURVE('',#684,#1008);
#1008 = DEFINITIONAL_REPRESENTATION('',(#1009),#1013);
#1009 = LINE('',#1010,#1011);
#1010 = CARTESIAN_POINT('',(4.462261580381,21.762261580381));
#1011 = VECTOR('',#1012,1.);
#1012 = DIRECTION('',(1.,2.22044604925E-16));
#1013 = ( GEOMETRIC_REPRESENTATION_CONTEXT(2) 
PARAMETRIC_REPRESENTATION_CONTEXT() REPRESENTATION_CONTEXT('2D SPACE',''
  ) );
#1014 = ORIENTED_EDGE('',*,*,#945,.T.);
#1015 = ORIENTED_EDGE('',*,*,#538,.T.);
#1016 = ORIENTED_EDGE('',*,*,#1017,.F.);
#1017 = EDGE_CURVE('',#971,#516,#1018,.T.);
#1018 = SURFACE_CURVE('',#1019,(#1023,#1030),.PCURVE_S1.);
#1019 = LINE('',#1020,#1021);
#1020 = CARTESIAN_POINT('',(23.4,-1.127986593019E-14,-4.));
#1021 = VECTOR('',#1022,1.);
#1022 = DIRECTION('',(-6.661338147751E-16,2.22044604925E-16,1.));
#1023 = PCURVE('',#554,#1024);
#1024 = DEFINITIONAL_REPRESENTATION('',(#1025),#1029);
#1025 = LINE('',#1026,#1027);
#1026 = CARTESIAN_POINT('',(12.607307961709,8.807692038291));
#1027 = VECTOR('',#1028,1.);
#1028 = DIRECTION('',(-5.551115123126E-16,-1.));
#1029 = ( GEOMETRIC_REPRESENTATION_CONTEXT(2) 
PARAMETRIC_REPRESENTATION_CONTEXT() REPRESENTATION_CONTEXT('2D SPACE',''
  ) );
#1030 = PCURVE('',#419,#1031);
#1031 = DEFINITIONAL_REPRESENTATION('',(#1032),#1036);
#1032 = LINE('',#1033,#1034);
#1033 = CARTESIAN_POINT('',(-6.522153574912,-25.85557431165));
#1034 = VECTOR('',#1035,1.);
#1035 = DIRECTION('',(1.,8.881784197001E-16));
#1036 = ( GEOMETRIC_REPRESENTATION_CONTEXT(2) 
PARAMETRIC_REPRESENTATION_CONTEXT() REPRESENTATION_CONTEXT('2D SPACE',''
  ) );
#1037 = ADVANCED_FACE('',(#1038),#419,.T.);
#1038 = FACE_BOUND('',#1039,.T.);
#1039 = EDGE_LOOP('',(#1040,#1041,#1064,#1085,#1086,#1087,#1110,#1138));
#1040 = ORIENTED_EDGE('',*,*,#403,.F.);
#1041 = ORIENTED_EDGE('',*,*,#1042,.T.);
#1042 = EDGE_CURVE('',#376,#1043,#1045,.T.);
#1043 = VERTEX_POINT('',#1044);
#1044 = CARTESIAN_POINT('',(23.4,-50.,-4.));
#1045 = SURFACE_CURVE('',#1046,(#1050,#1057),.PCURVE_S1.);
#1046 = LINE('',#1047,#1048);
#1047 = CARTESIAN_POINT('',(23.4,-50.,11.43));
#1048 = VECTOR('',#1049,1.);
#1049 = DIRECTION('',(1.110223024625E-15,2.22044604925E-16,-1.));
#1050 = PCURVE('',#419,#1051);
#1051 = DEFINITIONAL_REPRESENTATION('',(#1052),#1056);
#1052 = LINE('',#1053,#1054);
#1053 = CARTESIAN_POINT('',(8.907846425088,24.144425688349));
#1054 = VECTOR('',#1055,1.);
#1055 = DIRECTION('',(-1.,-8.881784197001E-16));
#1056 = ( GEOMETRIC_REPRESENTATION_CONTEXT(2) 
PARAMETRIC_REPRESENTATION_CONTEXT() REPRESENTATION_CONTEXT('2D SPACE',''
  ) );
#1057 = PCURVE('',#391,#1058);
#1058 = DEFINITIONAL_REPRESENTATION('',(#1059),#1063);
#1059 = LINE('',#1060,#1061);
#1060 = CARTESIAN_POINT('',(6.217248937901E-15,-4.));
#1061 = VECTOR('',#1062,1.);
#1062 = DIRECTION('',(1.,-6.661338147751E-16));
#1063 = ( GEOMETRIC_REPRESENTATION_CONTEXT(2) 
PARAMETRIC_REPRESENTATION_CONTEXT() REPRESENTATION_CONTEXT('2D SPACE',''
  ) );
#1064 = ORIENTED_EDGE('',*,*,#1065,.T.);
#1065 = EDGE_CURVE('',#1043,#971,#1066,.T.);
#1066 = SURFACE_CURVE('',#1067,(#1071,#1078),.PCURVE_S1.);
#1067 = LINE('',#1068,#1069);
#1068 = CARTESIAN_POINT('',(23.4,-50.,-4.));
#1069 = VECTOR('',#1070,1.);
#1070 = DIRECTION('',(1.60237371373E-31,1.,-6.661338147751E-16));
#1071 = PCURVE('',#419,#1072);
#1072 = DEFINITIONAL_REPRESENTATION('',(#1073),#1077);
#1073 = LINE('',#1074,#1075);
#1074 = CARTESIAN_POINT('',(-6.522153574912,24.144425688349));
#1075 = VECTOR('',#1076,1.);
#1076 = DIRECTION('',(-8.881784197001E-16,-1.));
#1077 = ( GEOMETRIC_REPRESENTATION_CONTEXT(2) 
PARAMETRIC_REPRESENTATION_CONTEXT() REPRESENTATION_CONTEXT('2D SPACE',''
  ) );
#1078 = PCURVE('',#859,#1079);
#1079 = DEFINITIONAL_REPRESENTATION('',(#1080),#1084);
#1080 = LINE('',#1081,#1082);
#1081 = CARTESIAN_POINT('',(25.,-2.));
#1082 = VECTOR('',#1083,1.);
#1083 = DIRECTION('',(-1.,-9.860761315263E-32));
#1084 = ( GEOMETRIC_REPRESENTATION_CONTEXT(2) 
PARAMETRIC_REPRESENTATION_CONTEXT() REPRESENTATION_CONTEXT('2D SPACE',''
  ) );
#1085 = ORIENTED_EDGE('',*,*,#1017,.T.);
#1086 = ORIENTED_EDGE('',*,*,#515,.F.);
#1087 = ORIENTED_EDGE('',*,*,#1088,.F.);
#1088 = EDGE_CURVE('',#1089,#488,#1091,.T.);
#1089 = VERTEX_POINT('',#1090);
#1090 = CARTESIAN_POINT('',(23.4,-4.,5.));
#1091 = SURFACE_CURVE('',#1092,(#1096,#1103),.PCURVE_S1.);
#1092 = LINE('',#1093,#1094);
#1093 = CARTESIAN_POINT('',(23.4,-4.,5.));
#1094 = VECTOR('',#1095,1.);
#1095 = DIRECTION('',(-1.110223024625E-15,-2.22044604925E-16,1.));
#1096 = PCURVE('',#419,#1097);
#1097 = DEFINITIONAL_REPRESENTATION('',(#1098),#1102);
#1098 = LINE('',#1099,#1100);
#1099 = CARTESIAN_POINT('',(2.477846425088,-21.85557431165));
#1100 = VECTOR('',#1101,1.);
#1101 = DIRECTION('',(1.,8.881784197001E-16));
#1102 = ( GEOMETRIC_REPRESENTATION_CONTEXT(2) 
PARAMETRIC_REPRESENTATION_CONTEXT() REPRESENTATION_CONTEXT('2D SPACE',''
  ) );
#1103 = PCURVE('',#503,#1104);
#1104 = DEFINITIONAL_REPRESENTATION('',(#1105),#1109);
#1105 = LINE('',#1106,#1107);
#1106 = CARTESIAN_POINT('',(-11.7,3.215));
#1107 = VECTOR('',#1108,1.);
#1108 = DIRECTION('',(9.992007221626E-16,-1.));
#1109 = ( GEOMETRIC_REPRESENTATION_CONTEXT(2) 
PARAMETRIC_REPRESENTATION_CONTEXT() REPRESENTATION_CONTEXT('2D SPACE',''
  ) );
#1110 = ORIENTED_EDGE('',*,*,#1111,.F.);
#1111 = EDGE_CURVE('',#1112,#1089,#1114,.T.);
#1112 = VERTEX_POINT('',#1113);
#1113 = CARTESIAN_POINT('',(23.4,-9.3,5.));
#1114 = SURFACE_CURVE('',#1115,(#1119,#1126),.PCURVE_S1.);
#1115 = LINE('',#1116,#1117);
#1116 = CARTESIAN_POINT('',(23.4,-9.3,5.));
#1117 = VECTOR('',#1118,1.);
#1118 = DIRECTION('',(-4.440892098501E-16,1.,-1.110223024625E-15));
#1119 = PCURVE('',#419,#1120);
#1120 = DEFINITIONAL_REPRESENTATION('',(#1121),#1125);
#1121 = LINE('',#1122,#1123);
#1122 = CARTESIAN_POINT('',(2.477846425088,-16.55557431165));
#1123 = VECTOR('',#1124,1.);
#1124 = DIRECTION('',(-8.881784197001E-16,-1.));
#1125 = ( GEOMETRIC_REPRESENTATION_CONTEXT(2) 
PARAMETRIC_REPRESENTATION_CONTEXT() REPRESENTATION_CONTEXT('2D SPACE',''
  ) );
#1126 = PCURVE('',#1127,#1132);
#1127 = PLANE('',#1128);
#1128 = AXIS2_PLACEMENT_3D('',#1129,#1130,#1131);
#1129 = CARTESIAN_POINT('',(11.7,-6.65,5.));
#1130 = DIRECTION('',(-1.110223024625E-16,8.479108473718E-16,1.));
#1131 = DIRECTION('',(8.181106291408E-32,1.,-8.479108473718E-16));
#1132 = DEFINITIONAL_REPRESENTATION('',(#1133),#1137);
#1133 = LINE('',#1134,#1135);
#1134 = CARTESIAN_POINT('',(-2.65,-11.7));
#1135 = VECTOR('',#1136,1.);
#1136 = DIRECTION('',(1.,4.440892098501E-16));
#1137 = ( GEOMETRIC_REPRESENTATION_CONTEXT(2) 
PARAMETRIC_REPRESENTATION_CONTEXT() REPRESENTATION_CONTEXT('2D SPACE',''
  ) );
#1138 = ORIENTED_EDGE('',*,*,#1139,.F.);
#1139 = EDGE_CURVE('',#404,#1112,#1140,.T.);
#1140 = SURFACE_CURVE('',#1141,(#1145,#1152),.PCURVE_S1.);
#1141 = LINE('',#1142,#1143);
#1142 = CARTESIAN_POINT('',(23.4,-9.3,11.43));
#1143 = VECTOR('',#1144,1.);
#1144 = DIRECTION('',(1.110223024625E-15,2.22044604925E-16,-1.));
#1145 = PCURVE('',#419,#1146);
#1146 = DEFINITIONAL_REPRESENTATION('',(#1147),#1151);
#1147 = LINE('',#1148,#1149);
#1148 = CARTESIAN_POINT('',(8.907846425088,-16.55557431165));
#1149 = VECTOR('',#1150,1.);
#1150 = DIRECTION('',(-1.,-8.881784197001E-16));
#1151 = ( GEOMETRIC_REPRESENTATION_CONTEXT(2) 
PARAMETRIC_REPRESENTATION_CONTEXT() REPRESENTATION_CONTEXT('2D SPACE',''
  ) );
#1152 = PCURVE('',#447,#1153);
#1153 = DEFINITIONAL_REPRESENTATION('',(#1154),#1158);
#1154 = LINE('',#1155,#1156);
#1155 = CARTESIAN_POINT('',(11.7,-3.215));
#1156 = VECTOR('',#1157,1.);
#1157 = DIRECTION('',(9.992007221626E-16,1.));
#1158 = ( GEOMETRIC_REPRESENTATION_CONTEXT(2) 
PARAMETRIC_REPRESENTATION_CONTEXT() REPRESENTATION_CONTEXT('2D SPACE',''
  ) );
#1159 = ADVANCED_FACE('',(#1160),#503,.T.);
#1160 = FACE_BOUND('',#1161,.T.);
#1161 = EDGE_LOOP('',(#1162,#1163,#1164,#1187));
#1162 = ORIENTED_EDGE('',*,*,#1088,.T.);
#1163 = ORIENTED_EDGE('',*,*,#487,.F.);
#1164 = ORIENTED_EDGE('',*,*,#1165,.F.);
#1165 = EDGE_CURVE('',#1166,#460,#1168,.T.);
#1166 = VERTEX_POINT('',#1167);
#1167 = CARTESIAN_POINT('',(-4.996003610813E-15,-4.,5.));
#1168 = SURFACE_CURVE('',#1169,(#1173,#1180),.PCURVE_S1.);
#1169 = LINE('',#1170,#1171);
#1170 = CARTESIAN_POINT('',(-5.662137425588E-15,-4.,5.));
#1171 = VECTOR('',#1172,1.);
#1172 = DIRECTION('',(-1.665334536938E-15,-3.330669073875E-16,1.));
#1173 = PCURVE('',#503,#1174);
#1174 = DEFINITIONAL_REPRESENTATION('',(#1175),#1179);
#1175 = LINE('',#1176,#1177);
#1176 = CARTESIAN_POINT('',(11.7,3.215));
#1177 = VECTOR('',#1178,1.);
#1178 = DIRECTION('',(1.554312234475E-15,-1.));
#1179 = ( GEOMETRIC_REPRESENTATION_CONTEXT(2) 
PARAMETRIC_REPRESENTATION_CONTEXT() REPRESENTATION_CONTEXT('2D SPACE',''
  ) );
#1180 = PCURVE('',#475,#1181);
#1181 = DEFINITIONAL_REPRESENTATION('',(#1182),#1186);
#1182 = LINE('',#1183,#1184);
#1183 = CARTESIAN_POINT('',(-0.715,-21.));
#1184 = VECTOR('',#1185,1.);
#1185 = DIRECTION('',(1.,6.661338147751E-16));
#1186 = ( GEOMETRIC_REPRESENTATION_CONTEXT(2) 
PARAMETRIC_REPRESENTATION_CONTEXT() REPRESENTATION_CONTEXT('2D SPACE',''
  ) );
#1187 = ORIENTED_EDGE('',*,*,#1188,.T.);
#1188 = EDGE_CURVE('',#1166,#1089,#1189,.T.);
#1189 = SURFACE_CURVE('',#1190,(#1194,#1201),.PCURVE_S1.);
#1190 = LINE('',#1191,#1192);
#1191 = CARTESIAN_POINT('',(-4.996003610813E-15,-4.,5.));
#1192 = VECTOR('',#1193,1.);
#1193 = DIRECTION('',(1.,-6.661338147751E-16,3.330669073875E-16));
#1194 = PCURVE('',#503,#1195);
#1195 = DEFINITIONAL_REPRESENTATION('',(#1196),#1200);
#1196 = LINE('',#1197,#1198);
#1197 = CARTESIAN_POINT('',(11.7,3.215));
#1198 = VECTOR('',#1199,1.);
#1199 = DIRECTION('',(-1.,-2.22044604925E-16));
#1200 = ( GEOMETRIC_REPRESENTATION_CONTEXT(2) 
PARAMETRIC_REPRESENTATION_CONTEXT() REPRESENTATION_CONTEXT('2D SPACE',''
  ) );
#1201 = PCURVE('',#1127,#1202);
#1202 = DEFINITIONAL_REPRESENTATION('',(#1203),#1207);
#1203 = LINE('',#1204,#1205);
#1204 = CARTESIAN_POINT('',(2.65,11.7));
#1205 = VECTOR('',#1206,1.);
#1206 = DIRECTION('',(-6.661338147751E-16,-1.));
#1207 = ( GEOMETRIC_REPRESENTATION_CONTEXT(2) 
PARAMETRIC_REPRESENTATION_CONTEXT() REPRESENTATION_CONTEXT('2D SPACE',''
  ) );
#1208 = ADVANCED_FACE('',(#1209),#391,.F.);
#1209 = FACE_BOUND('',#1210,.F.);
#1210 = EDGE_LOOP('',(#1211,#1212,#1213,#1234,#1235));
#1211 = ORIENTED_EDGE('',*,*,#375,.T.);
#1212 = ORIENTED_EDGE('',*,*,#1042,.T.);
#1213 = ORIENTED_EDGE('',*,*,#1214,.F.);
#1214 = EDGE_CURVE('',#821,#1043,#1215,.T.);
#1215 = SURFACE_CURVE('',#1216,(#1220,#1227),.PCURVE_S1.);
#1216 = LINE('',#1217,#1218);
#1217 = CARTESIAN_POINT('',(19.4,-50.,-4.));
#1218 = VECTOR('',#1219,1.);
#1219 = DIRECTION('',(1.,-6.661338147751E-16,3.574525976783E-31));
#1220 = PCURVE('',#391,#1221);
#1221 = DEFINITIONAL_REPRESENTATION('',(#1222),#1226);
#1222 = LINE('',#1223,#1224);
#1223 = CARTESIAN_POINT('',(15.43,-7.231992782408E-15));
#1224 = VECTOR('',#1225,1.);
#1225 = DIRECTION('',(6.661338147751E-16,-1.));
#1226 = ( GEOMETRIC_REPRESENTATION_CONTEXT(2) 
PARAMETRIC_REPRESENTATION_CONTEXT() REPRESENTATION_CONTEXT('2D SPACE',''
  ) );
#1227 = PCURVE('',#859,#1228);
#1228 = DEFINITIONAL_REPRESENTATION('',(#1229),#1233);
#1229 = LINE('',#1230,#1231);
#1230 = CARTESIAN_POINT('',(25.,2.));
#1231 = VECTOR('',#1232,1.);
#1232 = DIRECTION('',(6.661338147751E-16,-1.));
#1233 = ( GEOMETRIC_REPRESENTATION_CONTEXT(2) 
PARAMETRIC_REPRESENTATION_CONTEXT() REPRESENTATION_CONTEXT('2D SPACE',''
  ) );
#1234 = ORIENTED_EDGE('',*,*,#820,.F.);
#1235 = ORIENTED_EDGE('',*,*,#619,.F.);
#1236 = ADVANCED_FACE('',(#1237),#475,.T.);
#1237 = FACE_BOUND('',#1238,.T.);
#1238 = EDGE_LOOP('',(#1239,#1240,#1263,#1284));
#1239 = ORIENTED_EDGE('',*,*,#459,.F.);
#1240 = ORIENTED_EDGE('',*,*,#1241,.T.);
#1241 = EDGE_CURVE('',#432,#1242,#1244,.T.);
#1242 = VERTEX_POINT('',#1243);
#1243 = CARTESIAN_POINT('',(-4.996003610813E-15,-9.3,5.));
#1244 = SURFACE_CURVE('',#1245,(#1249,#1256),.PCURVE_S1.);
#1245 = LINE('',#1246,#1247);
#1246 = CARTESIAN_POINT('',(-1.283972927979E-14,-9.3,11.43));
#1247 = VECTOR('',#1248,1.);
#1248 = DIRECTION('',(1.665334536938E-15,3.330669073875E-16,-1.));
#1249 = PCURVE('',#475,#1250);
#1250 = DEFINITIONAL_REPRESENTATION('',(#1251),#1255);
#1251 = LINE('',#1252,#1253);
#1252 = CARTESIAN_POINT('',(5.715,-15.7));
#1253 = VECTOR('',#1254,1.);
#1254 = DIRECTION('',(-1.,-6.661338147751E-16));
#1255 = ( GEOMETRIC_REPRESENTATION_CONTEXT(2) 
PARAMETRIC_REPRESENTATION_CONTEXT() REPRESENTATION_CONTEXT('2D SPACE',''
  ) );
#1256 = PCURVE('',#447,#1257);
#1257 = DEFINITIONAL_REPRESENTATION('',(#1258),#1262);
#1258 = LINE('',#1259,#1260);
#1259 = CARTESIAN_POINT('',(-11.7,-3.215));
#1260 = VECTOR('',#1261,1.);
#1261 = DIRECTION('',(1.554312234475E-15,1.));
#1262 = ( GEOMETRIC_REPRESENTATION_CONTEXT(2) 
PARAMETRIC_REPRESENTATION_CONTEXT() REPRESENTATION_CONTEXT('2D SPACE',''
  ) );
#1263 = ORIENTED_EDGE('',*,*,#1264,.T.);
#1264 = EDGE_CURVE('',#1242,#1166,#1265,.T.);
#1265 = SURFACE_CURVE('',#1266,(#1270,#1277),.PCURVE_S1.);
#1266 = LINE('',#1267,#1268);
#1267 = CARTESIAN_POINT('',(-2.13162820728E-15,-9.3,5.));
#1268 = VECTOR('',#1269,1.);
#1269 = DIRECTION('',(-6.661338147751E-16,1.,-1.665334536938E-15));
#1270 = PCURVE('',#475,#1271);
#1271 = DEFINITIONAL_REPRESENTATION('',(#1272),#1276);
#1272 = LINE('',#1273,#1274);
#1273 = CARTESIAN_POINT('',(-0.715,-15.7));
#1274 = VECTOR('',#1275,1.);
#1275 = DIRECTION('',(-1.554312234475E-15,-1.));
#1276 = ( GEOMETRIC_REPRESENTATION_CONTEXT(2) 
PARAMETRIC_REPRESENTATION_CONTEXT() REPRESENTATION_CONTEXT('2D SPACE',''
  ) );
#1277 = PCURVE('',#1127,#1278);
#1278 = DEFINITIONAL_REPRESENTATION('',(#1279),#1283);
#1279 = LINE('',#1280,#1281);
#1280 = CARTESIAN_POINT('',(-2.65,11.7));
#1281 = VECTOR('',#1282,1.);
#1282 = DIRECTION('',(1.,6.661338147751E-16));
#1283 = ( GEOMETRIC_REPRESENTATION_CONTEXT(2) 
PARAMETRIC_REPRESENTATION_CONTEXT() REPRESENTATION_CONTEXT('2D SPACE',''
  ) );
#1284 = ORIENTED_EDGE('',*,*,#1165,.T.);
#1285 = ADVANCED_FACE('',(#1286),#447,.T.);
#1286 = FACE_BOUND('',#1287,.T.);
#1287 = EDGE_LOOP('',(#1288,#1289,#1290,#1311));
#1288 = ORIENTED_EDGE('',*,*,#431,.T.);
#1289 = ORIENTED_EDGE('',*,*,#1139,.T.);
#1290 = ORIENTED_EDGE('',*,*,#1291,.F.);
#1291 = EDGE_CURVE('',#1242,#1112,#1292,.T.);
#1292 = SURFACE_CURVE('',#1293,(#1297,#1304),.PCURVE_S1.);
#1293 = LINE('',#1294,#1295);
#1294 = CARTESIAN_POINT('',(19.4,-9.3,5.));
#1295 = VECTOR('',#1296,1.);
#1296 = DIRECTION('',(1.,-4.440892098501E-16,2.22044604925E-16));
#1297 = PCURVE('',#447,#1298);
#1298 = DEFINITIONAL_REPRESENTATION('',(#1299),#1303);
#1299 = LINE('',#1300,#1301);
#1300 = CARTESIAN_POINT('',(7.7,3.215));
#1301 = VECTOR('',#1302,1.);
#1302 = DIRECTION('',(1.,-1.110223024625E-16));
#1303 = ( GEOMETRIC_REPRESENTATION_CONTEXT(2) 
PARAMETRIC_REPRESENTATION_CONTEXT() REPRESENTATION_CONTEXT('2D SPACE',''
  ) );
#1304 = PCURVE('',#1127,#1305);
#1305 = DEFINITIONAL_REPRESENTATION('',(#1306),#1310);
#1306 = LINE('',#1307,#1308);
#1307 = CARTESIAN_POINT('',(-2.65,-7.7));
#1308 = VECTOR('',#1309,1.);
#1309 = DIRECTION('',(-4.440892098501E-16,-1.));
#1310 = ( GEOMETRIC_REPRESENTATION_CONTEXT(2) 
PARAMETRIC_REPRESENTATION_CONTEXT() REPRESENTATION_CONTEXT('2D SPACE',''
  ) );
#1311 = ORIENTED_EDGE('',*,*,#1241,.F.);
#1312 = ADVANCED_FACE('',(#1313),#684,.T.);
#1313 = FACE_BOUND('',#1314,.T.);
#1314 = EDGE_LOOP('',(#1315,#1316,#1317,#1318,#1319,#1320));
#1315 = ORIENTED_EDGE('',*,*,#668,.T.);
#1316 = ORIENTED_EDGE('',*,*,#922,.T.);
#1317 = ORIENTED_EDGE('',*,*,#994,.F.);
#1318 = ORIENTED_EDGE('',*,*,#894,.F.);
#1319 = ORIENTED_EDGE('',*,*,#796,.F.);
#1320 = ORIENTED_EDGE('',*,*,#722,.F.);
#1321 = ADVANCED_FACE('',(#1322),#859,.T.);
#1322 = FACE_BOUND('',#1323,.T.);
#1323 = EDGE_LOOP('',(#1324,#1325,#1326,#1327));
#1324 = ORIENTED_EDGE('',*,*,#1214,.F.);
#1325 = ORIENTED_EDGE('',*,*,#843,.T.);
#1326 = ORIENTED_EDGE('',*,*,#970,.T.);
#1327 = ORIENTED_EDGE('',*,*,#1065,.F.);
#1328 = ADVANCED_FACE('',(#1329),#1127,.T.);
#1329 = FACE_BOUND('',#1330,.T.);
#1330 = EDGE_LOOP('',(#1331,#1332,#1333,#1334));
#1331 = ORIENTED_EDGE('',*,*,#1291,.T.);
#1332 = ORIENTED_EDGE('',*,*,#1111,.T.);
#1333 = ORIENTED_EDGE('',*,*,#1188,.F.);
#1334 = ORIENTED_EDGE('',*,*,#1264,.F.);
#1335 = ( GEOMETRIC_REPRESENTATION_CONTEXT(3) 
GLOBAL_UNCERTAINTY_ASSIGNED_CONTEXT((#1339)) 
GLOBAL_UNIT_ASSIGNED_CONTEXT((#1336,#1337,#1338)) REPRESENTATION_CONTEXT
('Context #1','3D Context with UNIT and UNCERTAINTY') );
#1336 = ( LENGTH_UNIT() NAMED_UNIT(*) SI_UNIT(.MILLI.,.METRE.) );
#1337 = ( NAMED_UNIT(*) PLANE_ANGLE_UNIT() SI_UNIT($,.RADIAN.) );
#1338 = ( NAMED_UNIT(*) SI_UNIT($,.STERADIAN.) SOLID_ANGLE_UNIT() );
#1339 = UNCERTAINTY_MEASURE_WITH_UNIT(LENGTH_MEASURE(1.E-07),#1336,
  'distance_accuracy_value','confusion accuracy');
#1340 = PRODUCT_RELATED_PRODUCT_CATEGORY('part',$,(#7));
#1341 = MECHANICAL_DESIGN_GEOMETRIC_PRESENTATION_REPRESENTATION('',(
    #1342),#1335);
#1342 = STYLED_ITEM('color',(#1343),#15);
#1343 = PRESENTATION_STYLE_ASSIGNMENT((#1344,#1352));
#1344 = SURFACE_STYLE_USAGE(.BOTH.,#1345);
#1345 = SURFACE_SIDE_STYLE('',(#1346,#1350));
#1346 = SURFACE_STYLE_FILL_AREA(#1347);
#1347 = FILL_AREA_STYLE('',(#1348));
#1348 = FILL_AREA_STYLE_COLOUR('',#1349);
#1349 = COLOUR_RGB('',0.447058818107,0.474509808674,0.501960817233);
#1350 = SURFACE_STYLE_RENDERING_WITH_PROPERTIES(.NORMAL_SHADING.,#1349,(
    #1351));
#1351 = SURFACE_STYLE_TRANSPARENT(0.699999988079);
#1352 = CURVE_STYLE('',#1353,POSITIVE_LENGTH_MEASURE(0.1),#1354);
#1353 = DRAUGHTING_PRE_DEFINED_CURVE_FONT('continuous');
#1354 = COLOUR_RGB('',9.803921802644E-02,9.803921802644E-02,
  9.803921802644E-02);
ENDSEC;
END-ISO-10303-21;
