ISO-10303-21;
HEADER;
FILE_DESCRIPTION(('FreeCAD Model'),'2;1');
FILE_NAME('Open CASCADE Shape Model','2026-07-07T08:20:54',(''),(''),
  'Open CASCADE STEP processor 7.8','FreeCAD','Unknown');
FILE_SCHEMA(('AUTOMOTIVE_DESIGN { 1 0 10303 214 1 1 1 1 }'));
ENDSEC;
DATA;
#1 = APPLICATION_PROTOCOL_DEFINITION('international standard',
  'automotive_design',2000,#2);
#2 = APPLICATION_CONTEXT(
  'core data for automotive mechanical design processes');
#3 = SHAPE_DEFINITION_REPRESENTATION(#4,#10);
#4 = PRODUCT_DEFINITION_SHAPE('','',#5);
#5 = PRODUCT_DEFINITION('design','',#6,#9);
#6 = PRODUCT_DEFINITION_FORMATION('','',#7);
#7 = PRODUCT('BarSpacer','BarSpacer','',(#8));
#8 = PRODUCT_CONTEXT('',#2,'mechanical');
#9 = PRODUCT_DEFINITION_CONTEXT('part definition',#2,'design');
#10 = ADVANCED_BREP_SHAPE_REPRESENTATION('',(#11,#15),#1923);
#11 = AXIS2_PLACEMENT_3D('',#12,#13,#14);
#12 = CARTESIAN_POINT('',(0.,0.,0.));
#13 = DIRECTION('',(0.,0.,1.));
#14 = DIRECTION('',(1.,0.,-0.));
#15 = MANIFOLD_SOLID_BREP('',#16);
#16 = CLOSED_SHELL('',(#17,#188,#269,#350,#568,#644,#732,#809,#859,#908,
    #1070,#1119,#1171,#1247,#1323,#1394,#1421,#1470,#1519,#1710,#1737,
    #1746,#1774,#1801,#1828,#1855,#1862,#1889,#1916));
#17 = ADVANCED_FACE('',(#18),#32,.F.);
#18 = FACE_BOUND('',#19,.F.);
#19 = EDGE_LOOP('',(#20,#55,#83,#106,#134,#162));
#20 = ORIENTED_EDGE('',*,*,#21,.T.);
#21 = EDGE_CURVE('',#22,#24,#26,.T.);
#22 = VERTEX_POINT('',#23);
#23 = CARTESIAN_POINT('',(-2.807754029277E-15,-27.5,9.43));
#24 = VERTEX_POINT('',#25);
#25 = CARTESIAN_POINT('',(-2.,-25.5,11.43));
#26 = SURFACE_CURVE('',#27,(#31,#43),.PCURVE_S1.);
#27 = LINE('',#28,#29);
#28 = CARTESIAN_POINT('',(3.083333333333,-30.58333333333,6.346666666667)
  );
#29 = VECTOR('',#30,1.);
#30 = DIRECTION('',(-0.57735026919,0.57735026919,0.57735026919));
#31 = PCURVE('',#32,#37);
#32 = PLANE('',#33);
#33 = AXIS2_PLACEMENT_3D('',#34,#35,#36);
#34 = CARTESIAN_POINT('',(-3.285149929866E-15,-26.5,10.43));
#35 = DIRECTION('',(8.091323232011E-16,0.707106781187,-0.707106781187));
#36 = DIRECTION('',(1.,-1.182765616157E-15,-3.847971093111E-17));
#37 = DEFINITIONAL_REPRESENTATION('',(#38),#42);
#38 = LINE('',#39,#40);
#39 = CARTESIAN_POINT('',(3.083333333333,5.77470537969));
#40 = VECTOR('',#41,1.);
#41 = DIRECTION('',(-0.57735026919,-0.816496580928));
#42 = ( GEOMETRIC_REPRESENTATION_CONTEXT(2) 
PARAMETRIC_REPRESENTATION_CONTEXT() REPRESENTATION_CONTEXT('2D SPACE',''
  ) );
#43 = PCURVE('',#44,#49);
#44 = PLANE('',#45);
#45 = AXIS2_PLACEMENT_3D('',#46,#47,#48);
#46 = CARTESIAN_POINT('',(-1.,-50.,10.43));
#47 = DIRECTION('',(0.707106781187,2.081574234268E-17,0.707106781187));
#48 = DIRECTION('',(3.183479548216E-16,1.,-3.477858599535E-16));
#49 = DEFINITIONAL_REPRESENTATION('',(#50),#54);
#50 = LINE('',#51,#52);
#51 = CARTESIAN_POINT('',(19.416666666667,-5.77470537969));
#52 = VECTOR('',#53,1.);
#53 = DIRECTION('',(0.57735026919,0.816496580928));
#54 = ( GEOMETRIC_REPRESENTATION_CONTEXT(2) 
PARAMETRIC_REPRESENTATION_CONTEXT() REPRESENTATION_CONTEXT('2D SPACE',''
  ) );
#55 = ORIENTED_EDGE('',*,*,#56,.F.);
#56 = EDGE_CURVE('',#57,#24,#59,.T.);
#57 = VERTEX_POINT('',#58);
#58 = CARTESIAN_POINT('',(-1.142086425432E-14,-25.5,11.43));
#59 = SURFACE_CURVE('',#60,(#64,#71),.PCURVE_S1.);
#60 = LINE('',#61,#62);
#61 = CARTESIAN_POINT('',(2.596996228448,-25.5,11.43));
#62 = VECTOR('',#63,1.);
#63 = DIRECTION('',(-1.,3.849318985418E-16,-7.593540066836E-16));
#64 = PCURVE('',#32,#65);
#65 = DEFINITIONAL_REPRESENTATION('',(#66),#70);
#66 = LINE('',#67,#68);
#67 = CARTESIAN_POINT('',(2.596996228448,-1.414213562373));
#68 = VECTOR('',#69,1.);
#69 = DIRECTION('',(-1.,-7.558036864512E-16));
#70 = ( GEOMETRIC_REPRESENTATION_CONTEXT(2) 
PARAMETRIC_REPRESENTATION_CONTEXT() REPRESENTATION_CONTEXT('2D SPACE',''
  ) );
#71 = PCURVE('',#72,#77);
#72 = PLANE('',#73);
#73 = AXIS2_PLACEMENT_3D('',#74,#75,#76);
#74 = CARTESIAN_POINT('',(5.193992456897,-18.4122575431,11.43));
#75 = DIRECTION('',(-9.813986116086E-16,2.421297574257E-16,1.));
#76 = DIRECTION('',(1.,-4.440892098501E-16,3.152647968335E-16));
#77 = DEFINITIONAL_REPRESENTATION('',(#78),#82);
#78 = LINE('',#79,#80);
#79 = CARTESIAN_POINT('',(-2.596996228448,-7.087742456897));
#80 = VECTOR('',#81,1.);
#81 = DIRECTION('',(-1.,6.069765034669E-16));
#82 = ( GEOMETRIC_REPRESENTATION_CONTEXT(2) 
PARAMETRIC_REPRESENTATION_CONTEXT() REPRESENTATION_CONTEXT('2D SPACE',''
  ) );
#83 = ORIENTED_EDGE('',*,*,#84,.T.);
#84 = EDGE_CURVE('',#57,#85,#87,.T.);
#85 = VERTEX_POINT('',#86);
#86 = CARTESIAN_POINT('',(19.4,-25.5,11.43));
#87 = SURFACE_CURVE('',#88,(#92,#99),.PCURVE_S1.);
#88 = LINE('',#89,#90);
#89 = CARTESIAN_POINT('',(-4.728439861879E-15,-25.5,11.43));
#90 = VECTOR('',#91,1.);
#91 = DIRECTION('',(1.,-1.110223024625E-15,-1.110223024625E-16));
#92 = PCURVE('',#32,#93);
#93 = DEFINITIONAL_REPRESENTATION('',(#94),#98);
#94 = LINE('',#95,#96);
#95 = CARTESIAN_POINT('',(-1.7763568394E-15,-1.414213562373));
#96 = VECTOR('',#97,1.);
#97 = DIRECTION('',(1.,1.256073966947E-15));
#98 = ( GEOMETRIC_REPRESENTATION_CONTEXT(2) 
PARAMETRIC_REPRESENTATION_CONTEXT() REPRESENTATION_CONTEXT('2D SPACE',''
  ) );
#99 = PCURVE('',#72,#100);
#100 = DEFINITIONAL_REPRESENTATION('',(#101),#105);
#101 = LINE('',#102,#103);
#102 = CARTESIAN_POINT('',(-5.193992456897,-7.087742456897));
#103 = VECTOR('',#104,1.);
#104 = DIRECTION('',(1.,-1.110223024625E-15));
#105 = ( GEOMETRIC_REPRESENTATION_CONTEXT(2) 
PARAMETRIC_REPRESENTATION_CONTEXT() REPRESENTATION_CONTEXT('2D SPACE',''
  ) );
#106 = ORIENTED_EDGE('',*,*,#107,.T.);
#107 = EDGE_CURVE('',#85,#108,#110,.T.);
#108 = VERTEX_POINT('',#109);
#109 = CARTESIAN_POINT('',(21.4,-25.5,11.43));
#110 = SURFACE_CURVE('',#111,(#115,#122),.PCURVE_S1.);
#111 = LINE('',#112,#113);
#112 = CARTESIAN_POINT('',(9.7,-25.5,11.43));
#113 = VECTOR('',#114,1.);
#114 = DIRECTION('',(1.,-1.033263602763E-15,1.110223024625E-16));
#115 = PCURVE('',#32,#116);
#116 = DEFINITIONAL_REPRESENTATION('',(#117),#121);
#117 = LINE('',#118,#119);
#118 = CARTESIAN_POINT('',(9.7,-1.414213562373));
#119 = VECTOR('',#120,1.);
#120 = DIRECTION('',(1.,1.672683175477E-15));
#121 = ( GEOMETRIC_REPRESENTATION_CONTEXT(2) 
PARAMETRIC_REPRESENTATION_CONTEXT() REPRESENTATION_CONTEXT('2D SPACE',''
  ) );
#122 = PCURVE('',#123,#128);
#123 = PLANE('',#124);
#124 = AXIS2_PLACEMENT_3D('',#125,#126,#127);
#125 = CARTESIAN_POINT('',(19.4,-46.,11.43));
#126 = DIRECTION('',(-1.110223024625E-16,3.330669073875E-16,1.));
#127 = DIRECTION('',(2.465190328816E-32,1.,-3.330669073875E-16));
#128 = DEFINITIONAL_REPRESENTATION('',(#129),#133);
#129 = LINE('',#130,#131);
#130 = CARTESIAN_POINT('',(20.5,9.7));
#131 = VECTOR('',#132,1.);
#132 = DIRECTION('',(-1.033263602763E-15,-1.));
#133 = ( GEOMETRIC_REPRESENTATION_CONTEXT(2) 
PARAMETRIC_REPRESENTATION_CONTEXT() REPRESENTATION_CONTEXT('2D SPACE',''
  ) );
#134 = ORIENTED_EDGE('',*,*,#135,.F.);
#135 = EDGE_CURVE('',#136,#108,#138,.T.);
#136 = VERTEX_POINT('',#137);
#137 = CARTESIAN_POINT('',(19.4,-27.5,9.43));
#138 = SURFACE_CURVE('',#139,(#143,#150),.PCURVE_S1.);
#139 = LINE('',#140,#141);
#140 = CARTESIAN_POINT('',(13.75,-33.15,3.78));
#141 = VECTOR('',#142,1.);
#142 = DIRECTION('',(0.57735026919,0.57735026919,0.57735026919));
#143 = PCURVE('',#32,#144);
#144 = DEFINITIONAL_REPRESENTATION('',(#145),#149);
#145 = LINE('',#146,#147);
#146 = CARTESIAN_POINT('',(13.75,9.404520189781));
#147 = VECTOR('',#148,1.);
#148 = DIRECTION('',(0.57735026919,-0.816496580928));
#149 = ( GEOMETRIC_REPRESENTATION_CONTEXT(2) 
PARAMETRIC_REPRESENTATION_CONTEXT() REPRESENTATION_CONTEXT('2D SPACE',''
  ) );
#150 = PCURVE('',#151,#156);
#151 = PLANE('',#152);
#152 = AXIS2_PLACEMENT_3D('',#153,#154,#155);
#153 = CARTESIAN_POINT('',(20.4,-46.,10.43));
#154 = DIRECTION('',(0.707106781187,-3.092601453002E-16,-0.707106781187)
  );
#155 = DIRECTION('',(5.214649219875E-17,1.,-3.852133995863E-16));
#156 = DEFINITIONAL_REPRESENTATION('',(#157),#161);
#157 = LINE('',#158,#159);
#158 = CARTESIAN_POINT('',(12.85,-9.404520189781));
#159 = VECTOR('',#160,1.);
#160 = DIRECTION('',(0.57735026919,0.816496580928));
#161 = ( GEOMETRIC_REPRESENTATION_CONTEXT(2) 
PARAMETRIC_REPRESENTATION_CONTEXT() REPRESENTATION_CONTEXT('2D SPACE',''
  ) );
#162 = ORIENTED_EDGE('',*,*,#163,.F.);
#163 = EDGE_CURVE('',#22,#136,#164,.T.);
#164 = SURFACE_CURVE('',#165,(#169,#176),.PCURVE_S1.);
#165 = LINE('',#166,#167);
#166 = CARTESIAN_POINT('',(-1.841859997853E-15,-27.5,9.43));
#167 = VECTOR('',#168,1.);
#168 = DIRECTION('',(1.,-1.110223024625E-15,-1.110223024625E-16));
#169 = PCURVE('',#32,#170);
#170 = DEFINITIONAL_REPRESENTATION('',(#171),#175);
#171 = LINE('',#172,#173);
#172 = CARTESIAN_POINT('',(1.7763568394E-15,1.414213562373));
#173 = VECTOR('',#174,1.);
#174 = DIRECTION('',(1.,1.256073966947E-15));
#175 = ( GEOMETRIC_REPRESENTATION_CONTEXT(2) 
PARAMETRIC_REPRESENTATION_CONTEXT() REPRESENTATION_CONTEXT('2D SPACE',''
  ) );
#176 = PCURVE('',#177,#182);
#177 = PLANE('',#178);
#178 = AXIS2_PLACEMENT_3D('',#179,#180,#181);
#179 = CARTESIAN_POINT('',(-4.284350652029E-15,-27.5,11.43));
#180 = DIRECTION('',(-2.22044604925E-16,1.,-1.221245327088E-15));
#181 = DIRECTION('',(1.443289932013E-15,1.110223024625E-16,-1.));
#182 = DEFINITIONAL_REPRESENTATION('',(#183),#187);
#183 = LINE('',#184,#185);
#184 = CARTESIAN_POINT('',(2.,-1.33226762955E-15));
#185 = VECTOR('',#186,1.);
#186 = DIRECTION('',(1.110223024625E-15,-1.));
#187 = ( GEOMETRIC_REPRESENTATION_CONTEXT(2) 
PARAMETRIC_REPRESENTATION_CONTEXT() REPRESENTATION_CONTEXT('2D SPACE',''
  ) );
#188 = ADVANCED_FACE('',(#189),#44,.T.);
#189 = FACE_BOUND('',#190,.T.);
#190 = EDGE_LOOP('',(#191,#221,#247,#248));
#191 = ORIENTED_EDGE('',*,*,#192,.F.);
#192 = EDGE_CURVE('',#193,#195,#197,.T.);
#193 = VERTEX_POINT('',#194);
#194 = CARTESIAN_POINT('',(-1.392552739787E-14,-50.,9.43));
#195 = VERTEX_POINT('',#196);
#196 = CARTESIAN_POINT('',(-2.,-50.,11.43));
#197 = SURFACE_CURVE('',#198,(#202,#209),.PCURVE_S1.);
#198 = LINE('',#199,#200);
#199 = CARTESIAN_POINT('',(-1.,-50.,10.43));
#200 = VECTOR('',#201,1.);
#201 = DIRECTION('',(-0.707106781187,4.710277376051E-16,0.707106781187)
  );
#202 = PCURVE('',#44,#203);
#203 = DEFINITIONAL_REPRESENTATION('',(#204),#208);
#204 = LINE('',#205,#206);
#205 = CARTESIAN_POINT('',(7.068744585705E-32,-1.570092458684E-16));
#206 = VECTOR('',#207,1.);
#207 = DIRECTION('',(0.,1.));
#208 = ( GEOMETRIC_REPRESENTATION_CONTEXT(2) 
PARAMETRIC_REPRESENTATION_CONTEXT() REPRESENTATION_CONTEXT('2D SPACE',''
  ) );
#209 = PCURVE('',#210,#215);
#210 = PLANE('',#211);
#211 = AXIS2_PLACEMENT_3D('',#212,#213,#214);
#212 = CARTESIAN_POINT('',(9.503509090791E-16,-50.,11.43));
#213 = DIRECTION('',(-1.479114197289E-31,-1.,6.661338147751E-16));
#214 = DIRECTION('',(8.881784197001E-16,-2.958228394579E-31,-1.));
#215 = DEFINITIONAL_REPRESENTATION('',(#216),#220);
#216 = LINE('',#217,#218);
#217 = CARTESIAN_POINT('',(1.,-1.));
#218 = VECTOR('',#219,1.);
#219 = DIRECTION('',(-0.707106781187,-0.707106781187));
#220 = ( GEOMETRIC_REPRESENTATION_CONTEXT(2) 
PARAMETRIC_REPRESENTATION_CONTEXT() REPRESENTATION_CONTEXT('2D SPACE',''
  ) );
#221 = ORIENTED_EDGE('',*,*,#222,.T.);
#222 = EDGE_CURVE('',#193,#22,#223,.T.);
#223 = SURFACE_CURVE('',#224,(#228,#235),.PCURVE_S1.);
#224 = LINE('',#225,#226);
#225 = CARTESIAN_POINT('',(-1.484928679061E-14,-50.,9.43));
#226 = VECTOR('',#227,1.);
#227 = DIRECTION('',(1.60237371373E-31,1.,-6.661338147751E-16));
#228 = PCURVE('',#44,#229);
#229 = DEFINITIONAL_REPRESENTATION('',(#230),#234);
#230 = LINE('',#231,#232);
#231 = CARTESIAN_POINT('',(6.661338147751E-16,-1.414213562373));
#232 = VECTOR('',#233,1.);
#233 = DIRECTION('',(1.,0.));
#234 = ( GEOMETRIC_REPRESENTATION_CONTEXT(2) 
PARAMETRIC_REPRESENTATION_CONTEXT() REPRESENTATION_CONTEXT('2D SPACE',''
  ) );
#235 = PCURVE('',#236,#241);
#236 = PLANE('',#237);
#237 = AXIS2_PLACEMENT_3D('',#238,#239,#240);
#238 = CARTESIAN_POINT('',(4.757305660519E-15,-25.,5.715));
#239 = DIRECTION('',(1.,-8.881784197001E-16,-2.22044604925E-16));
#240 = DIRECTION('',(-1.110223024625E-15,-2.22044604925E-16,1.));
#241 = DEFINITIONAL_REPRESENTATION('',(#242),#246);
#242 = LINE('',#243,#244);
#243 = CARTESIAN_POINT('',(3.715,25.));
#244 = VECTOR('',#245,1.);
#245 = DIRECTION('',(-8.881784197001E-16,-1.));
#246 = ( GEOMETRIC_REPRESENTATION_CONTEXT(2) 
PARAMETRIC_REPRESENTATION_CONTEXT() REPRESENTATION_CONTEXT('2D SPACE',''
  ) );
#247 = ORIENTED_EDGE('',*,*,#21,.T.);
#248 = ORIENTED_EDGE('',*,*,#249,.F.);
#249 = EDGE_CURVE('',#195,#24,#250,.T.);
#250 = SURFACE_CURVE('',#251,(#255,#262),.PCURVE_S1.);
#251 = LINE('',#252,#253);
#252 = CARTESIAN_POINT('',(-2.,-50.,11.43));
#253 = VECTOR('',#254,1.);
#254 = DIRECTION('',(1.60237371373E-31,1.,-6.661338147751E-16));
#255 = PCURVE('',#44,#256);
#256 = DEFINITIONAL_REPRESENTATION('',(#257),#261);
#257 = LINE('',#258,#259);
#258 = CARTESIAN_POINT('',(-6.661338147751E-16,1.414213562373));
#259 = VECTOR('',#260,1.);
#260 = DIRECTION('',(1.,0.));
#261 = ( GEOMETRIC_REPRESENTATION_CONTEXT(2) 
PARAMETRIC_REPRESENTATION_CONTEXT() REPRESENTATION_CONTEXT('2D SPACE',''
  ) );
#262 = PCURVE('',#72,#263);
#263 = DEFINITIONAL_REPRESENTATION('',(#264),#268);
#264 = LINE('',#265,#266);
#265 = CARTESIAN_POINT('',(-7.193992456897,-31.58774245689));
#266 = VECTOR('',#267,1.);
#267 = DIRECTION('',(-4.440892098501E-16,1.));
#268 = ( GEOMETRIC_REPRESENTATION_CONTEXT(2) 
PARAMETRIC_REPRESENTATION_CONTEXT() REPRESENTATION_CONTEXT('2D SPACE',''
  ) );
#269 = ADVANCED_FACE('',(#270),#177,.F.);
#270 = FACE_BOUND('',#271,.F.);
#271 = EDGE_LOOP('',(#272,#295,#296,#324));
#272 = ORIENTED_EDGE('',*,*,#273,.F.);
#273 = EDGE_CURVE('',#22,#274,#276,.T.);
#274 = VERTEX_POINT('',#275);
#275 = CARTESIAN_POINT('',(-1.998401444325E-15,-27.5,2.));
#276 = SURFACE_CURVE('',#277,(#281,#288),.PCURVE_S1.);
#277 = LINE('',#278,#279);
#278 = CARTESIAN_POINT('',(-7.160938508833E-16,-27.5,11.43));
#279 = VECTOR('',#280,1.);
#280 = DIRECTION('',(1.665334536938E-15,3.330669073875E-16,-1.));
#281 = PCURVE('',#177,#282);
#282 = DEFINITIONAL_REPRESENTATION('',(#283),#287);
#283 = LINE('',#284,#285);
#284 = CARTESIAN_POINT('',(-1.06581410364E-14,-3.568256801145E-15));
#285 = VECTOR('',#286,1.);
#286 = DIRECTION('',(1.,-1.110223024625E-15));
#287 = ( GEOMETRIC_REPRESENTATION_CONTEXT(2) 
PARAMETRIC_REPRESENTATION_CONTEXT() REPRESENTATION_CONTEXT('2D SPACE',''
  ) );
#288 = PCURVE('',#236,#289);
#289 = DEFINITIONAL_REPRESENTATION('',(#290),#294);
#290 = LINE('',#291,#292);
#291 = CARTESIAN_POINT('',(5.715,2.5));
#292 = VECTOR('',#293,1.);
#293 = DIRECTION('',(-1.,-9.992007221626E-16));
#294 = ( GEOMETRIC_REPRESENTATION_CONTEXT(2) 
PARAMETRIC_REPRESENTATION_CONTEXT() REPRESENTATION_CONTEXT('2D SPACE',''
  ) );
#295 = ORIENTED_EDGE('',*,*,#163,.T.);
#296 = ORIENTED_EDGE('',*,*,#297,.T.);
#297 = EDGE_CURVE('',#136,#298,#300,.T.);
#298 = VERTEX_POINT('',#299);
#299 = CARTESIAN_POINT('',(19.4,-27.5,2.));
#300 = SURFACE_CURVE('',#301,(#305,#312),.PCURVE_S1.);
#301 = LINE('',#302,#303);
#302 = CARTESIAN_POINT('',(19.4,-27.5,11.43));
#303 = VECTOR('',#304,1.);
#304 = DIRECTION('',(1.665334536938E-15,3.330669073875E-16,-1.));
#305 = PCURVE('',#177,#306);
#306 = DEFINITIONAL_REPRESENTATION('',(#307),#311);
#307 = LINE('',#308,#309);
#308 = CARTESIAN_POINT('',(3.892441924336E-14,-19.4));
#309 = VECTOR('',#310,1.);
#310 = DIRECTION('',(1.,-1.110223024625E-15));
#311 = ( GEOMETRIC_REPRESENTATION_CONTEXT(2) 
PARAMETRIC_REPRESENTATION_CONTEXT() REPRESENTATION_CONTEXT('2D SPACE',''
  ) );
#312 = PCURVE('',#313,#318);
#313 = PLANE('',#314);
#314 = AXIS2_PLACEMENT_3D('',#315,#316,#317);
#315 = CARTESIAN_POINT('',(19.4,-25.81155469277,2.566173193788));
#316 = DIRECTION('',(1.,-4.440892098501E-16,-1.110223024625E-16));
#317 = DIRECTION('',(-5.551115123126E-16,-1.110223024625E-16,1.));
#318 = DEFINITIONAL_REPRESENTATION('',(#319),#323);
#319 = LINE('',#320,#321);
#320 = CARTESIAN_POINT('',(8.863826806212,1.688445307225));
#321 = VECTOR('',#322,1.);
#322 = DIRECTION('',(-1.,-6.661338147751E-16));
#323 = ( GEOMETRIC_REPRESENTATION_CONTEXT(2) 
PARAMETRIC_REPRESENTATION_CONTEXT() REPRESENTATION_CONTEXT('2D SPACE',''
  ) );
#324 = ORIENTED_EDGE('',*,*,#325,.F.);
#325 = EDGE_CURVE('',#274,#298,#326,.T.);
#326 = SURFACE_CURVE('',#327,(#331,#338),.PCURVE_S1.);
#327 = LINE('',#328,#329);
#328 = CARTESIAN_POINT('',(9.769962616701E-15,-27.5,2.));
#329 = VECTOR('',#330,1.);
#330 = DIRECTION('',(1.,-1.110223024625E-15,-1.110223024625E-16));
#331 = PCURVE('',#177,#332);
#332 = DEFINITIONAL_REPRESENTATION('',(#333),#337);
#333 = LINE('',#334,#335);
#334 = CARTESIAN_POINT('',(9.43,-8.819611707622E-15));
#335 = VECTOR('',#336,1.);
#336 = DIRECTION('',(1.110223024625E-15,-1.));
#337 = ( GEOMETRIC_REPRESENTATION_CONTEXT(2) 
PARAMETRIC_REPRESENTATION_CONTEXT() REPRESENTATION_CONTEXT('2D SPACE',''
  ) );
#338 = PCURVE('',#339,#344);
#339 = PLANE('',#340);
#340 = AXIS2_PLACEMENT_3D('',#341,#342,#343);
#341 = CARTESIAN_POINT('',(1.076916333886E-14,-26.5,1.));
#342 = DIRECTION('',(9.468138216468E-16,-0.707106781187,-0.707106781187)
  );
#343 = DIRECTION('',(-1.,1.162369516824E-15,1.631687946613E-16));
#344 = DEFINITIONAL_REPRESENTATION('',(#345),#349);
#345 = LINE('',#346,#347);
#346 = CARTESIAN_POINT('',(-7.395570986447E-32,-1.414213562373));
#347 = VECTOR('',#348,1.);
#348 = DIRECTION('',(-1.,1.972152263053E-31));
#349 = ( GEOMETRIC_REPRESENTATION_CONTEXT(2) 
PARAMETRIC_REPRESENTATION_CONTEXT() REPRESENTATION_CONTEXT('2D SPACE',''
  ) );
#350 = ADVANCED_FACE('',(#351),#72,.T.);
#351 = FACE_BOUND('',#352,.T.);
#352 = EDGE_LOOP('',(#353,#376,#377,#378,#379,#402,#430,#458,#486,#514,
    #542));
#353 = ORIENTED_EDGE('',*,*,#354,.F.);
#354 = EDGE_CURVE('',#195,#355,#357,.T.);
#355 = VERTEX_POINT('',#356);
#356 = CARTESIAN_POINT('',(-4.,-50.,11.43));
#357 = SURFACE_CURVE('',#358,(#362,#369),.PCURVE_S1.);
#358 = LINE('',#359,#360);
#359 = CARTESIAN_POINT('',(9.503509090791E-16,-50.,11.43));
#360 = VECTOR('',#361,1.);
#361 = DIRECTION('',(-1.,6.661338147751E-16,-3.574525976783E-31));
#362 = PCURVE('',#72,#363);
#363 = DEFINITIONAL_REPRESENTATION('',(#364),#368);
#364 = LINE('',#365,#366);
#365 = CARTESIAN_POINT('',(-5.193992456897,-31.58774245689));
#366 = VECTOR('',#367,1.);
#367 = DIRECTION('',(-1.,6.661338147751E-16));
#368 = ( GEOMETRIC_REPRESENTATION_CONTEXT(2) 
PARAMETRIC_REPRESENTATION_CONTEXT() REPRESENTATION_CONTEXT('2D SPACE',''
  ) );
#369 = PCURVE('',#210,#370);
#370 = DEFINITIONAL_REPRESENTATION('',(#371),#375);
#371 = LINE('',#372,#373);
#372 = CARTESIAN_POINT('',(0.,0.));
#373 = VECTOR('',#374,1.);
#374 = DIRECTION('',(-6.661338147751E-16,-1.));
#375 = ( GEOMETRIC_REPRESENTATION_CONTEXT(2) 
PARAMETRIC_REPRESENTATION_CONTEXT() REPRESENTATION_CONTEXT('2D SPACE',''
  ) );
#376 = ORIENTED_EDGE('',*,*,#249,.T.);
#377 = ORIENTED_EDGE('',*,*,#56,.F.);
#378 = ORIENTED_EDGE('',*,*,#84,.T.);
#379 = ORIENTED_EDGE('',*,*,#380,.T.);
#380 = EDGE_CURVE('',#85,#381,#383,.T.);
#381 = VERTEX_POINT('',#382);
#382 = CARTESIAN_POINT('',(19.4,-7.475,11.43));
#383 = SURFACE_CURVE('',#384,(#388,#395),.PCURVE_S1.);
#384 = LINE('',#385,#386);
#385 = CARTESIAN_POINT('',(19.4,-27.5,11.43));
#386 = VECTOR('',#387,1.);
#387 = DIRECTION('',(-6.661338147751E-16,1.,-1.665334536938E-15));
#388 = PCURVE('',#72,#389);
#389 = DEFINITIONAL_REPRESENTATION('',(#390),#394);
#390 = LINE('',#391,#392);
#391 = CARTESIAN_POINT('',(14.206007543103,-9.087742456897));
#392 = VECTOR('',#393,1.);
#393 = DIRECTION('',(-8.881784197001E-16,1.));
#394 = ( GEOMETRIC_REPRESENTATION_CONTEXT(2) 
PARAMETRIC_REPRESENTATION_CONTEXT() REPRESENTATION_CONTEXT('2D SPACE',''
  ) );
#395 = PCURVE('',#123,#396);
#396 = DEFINITIONAL_REPRESENTATION('',(#397),#401);
#397 = LINE('',#398,#399);
#398 = CARTESIAN_POINT('',(18.5,-4.618527782441E-14));
#399 = VECTOR('',#400,1.);
#400 = DIRECTION('',(1.,6.661338147751E-16));
#401 = ( GEOMETRIC_REPRESENTATION_CONTEXT(2) 
PARAMETRIC_REPRESENTATION_CONTEXT() REPRESENTATION_CONTEXT('2D SPACE',''
  ) );
#402 = ORIENTED_EDGE('',*,*,#403,.F.);
#403 = EDGE_CURVE('',#404,#381,#406,.T.);
#404 = VERTEX_POINT('',#405);
#405 = CARTESIAN_POINT('',(-1.142086425432E-14,-7.475,11.43));
#406 = SURFACE_CURVE('',#407,(#411,#418),.PCURVE_S1.);
#407 = LINE('',#408,#409);
#408 = CARTESIAN_POINT('',(-1.317723707928E-14,-7.475,11.43));
#409 = VECTOR('',#410,1.);
#410 = DIRECTION('',(1.,-1.110223024625E-15,-1.110223024625E-16));
#411 = PCURVE('',#72,#412);
#412 = DEFINITIONAL_REPRESENTATION('',(#413),#417);
#413 = LINE('',#414,#415);
#414 = CARTESIAN_POINT('',(-5.193992456897,10.937257543103));
#415 = VECTOR('',#416,1.);
#416 = DIRECTION('',(1.,-1.110223024625E-15));
#417 = ( GEOMETRIC_REPRESENTATION_CONTEXT(2) 
PARAMETRIC_REPRESENTATION_CONTEXT() REPRESENTATION_CONTEXT('2D SPACE',''
  ) );
#418 = PCURVE('',#419,#424);
#419 = PLANE('',#420);
#420 = AXIS2_PLACEMENT_3D('',#421,#422,#423);
#421 = CARTESIAN_POINT('',(-1.317723707928E-14,-7.475,11.43));
#422 = DIRECTION('',(-2.22044604925E-16,1.,-1.221245327088E-15));
#423 = DIRECTION('',(1.443289932013E-15,1.110223024625E-16,-1.));
#424 = DEFINITIONAL_REPRESENTATION('',(#425),#429);
#425 = LINE('',#426,#427);
#426 = CARTESIAN_POINT('',(7.882303861827E-46,-7.88860905221E-31));
#427 = VECTOR('',#428,1.);
#428 = DIRECTION('',(1.110223024625E-15,-1.));
#429 = ( GEOMETRIC_REPRESENTATION_CONTEXT(2) 
PARAMETRIC_REPRESENTATION_CONTEXT() REPRESENTATION_CONTEXT('2D SPACE',''
  ) );
#430 = ORIENTED_EDGE('',*,*,#431,.T.);
#431 = EDGE_CURVE('',#404,#432,#434,.T.);
#432 = VERTEX_POINT('',#433);
#433 = CARTESIAN_POINT('',(-1.142086425432E-14,-4.,11.43));
#434 = SURFACE_CURVE('',#435,(#439,#446),.PCURVE_S1.);
#435 = LINE('',#436,#437);
#436 = CARTESIAN_POINT('',(-9.263700917472E-15,-4.,11.43));
#437 = VECTOR('',#438,1.);
#438 = DIRECTION('',(-2.22044604925E-16,1.,-8.881784197001E-16));
#439 = PCURVE('',#72,#440);
#440 = DEFINITIONAL_REPRESENTATION('',(#441),#445);
#441 = LINE('',#442,#443);
#442 = CARTESIAN_POINT('',(-5.193992456897,14.412257543103));
#443 = VECTOR('',#444,1.);
#444 = DIRECTION('',(-4.440892098501E-16,1.));
#445 = ( GEOMETRIC_REPRESENTATION_CONTEXT(2) 
PARAMETRIC_REPRESENTATION_CONTEXT() REPRESENTATION_CONTEXT('2D SPACE',''
  ) );
#446 = PCURVE('',#447,#452);
#447 = PLANE('',#448);
#448 = AXIS2_PLACEMENT_3D('',#449,#450,#451);
#449 = CARTESIAN_POINT('',(4.757305660519E-15,-25.,5.715));
#450 = DIRECTION('',(1.,-8.881784197001E-16,-2.22044604925E-16));
#451 = DIRECTION('',(-1.110223024625E-15,-2.22044604925E-16,1.));
#452 = DEFINITIONAL_REPRESENTATION('',(#453),#457);
#453 = LINE('',#454,#455);
#454 = CARTESIAN_POINT('',(5.715,-21.));
#455 = VECTOR('',#456,1.);
#456 = DIRECTION('',(-8.881784197001E-16,-1.));
#457 = ( GEOMETRIC_REPRESENTATION_CONTEXT(2) 
PARAMETRIC_REPRESENTATION_CONTEXT() REPRESENTATION_CONTEXT('2D SPACE',''
  ) );
#458 = ORIENTED_EDGE('',*,*,#459,.T.);
#459 = EDGE_CURVE('',#432,#460,#462,.T.);
#460 = VERTEX_POINT('',#461);
#461 = CARTESIAN_POINT('',(19.4,-4.,11.43));
#462 = SURFACE_CURVE('',#463,(#467,#474),.PCURVE_S1.);
#463 = LINE('',#464,#465);
#464 = CARTESIAN_POINT('',(-1.47204470835E-14,-4.,11.43));
#465 = VECTOR('',#466,1.);
#466 = DIRECTION('',(1.,-1.110223024625E-15,-1.110223024625E-16));
#467 = PCURVE('',#72,#468);
#468 = DEFINITIONAL_REPRESENTATION('',(#469),#473);
#469 = LINE('',#470,#471);
#470 = CARTESIAN_POINT('',(-5.193992456897,14.412257543103));
#471 = VECTOR('',#472,1.);
#472 = DIRECTION('',(1.,-1.110223024625E-15));
#473 = ( GEOMETRIC_REPRESENTATION_CONTEXT(2) 
PARAMETRIC_REPRESENTATION_CONTEXT() REPRESENTATION_CONTEXT('2D SPACE',''
  ) );
#474 = PCURVE('',#475,#480);
#475 = PLANE('',#476);
#476 = AXIS2_PLACEMENT_3D('',#477,#478,#479);
#477 = CARTESIAN_POINT('',(-5.440092820663E-15,-4.,5.));
#478 = DIRECTION('',(2.22044604925E-16,-1.,1.221245327088E-15));
#479 = DIRECTION('',(-1.443289932013E-15,-1.110223024625E-16,1.));
#480 = DEFINITIONAL_REPRESENTATION('',(#481),#485);
#481 = LINE('',#482,#483);
#482 = CARTESIAN_POINT('',(6.43,5.710987238672E-15));
#483 = VECTOR('',#484,1.);
#484 = DIRECTION('',(-1.110223024625E-15,-1.));
#485 = ( GEOMETRIC_REPRESENTATION_CONTEXT(2) 
PARAMETRIC_REPRESENTATION_CONTEXT() REPRESENTATION_CONTEXT('2D SPACE',''
  ) );
#486 = ORIENTED_EDGE('',*,*,#487,.T.);
#487 = EDGE_CURVE('',#460,#488,#490,.T.);
#488 = VERTEX_POINT('',#489);
#489 = CARTESIAN_POINT('',(19.4,-6.166734587978E-15,11.43));
#490 = SURFACE_CURVE('',#491,(#495,#502),.PCURVE_S1.);
#491 = LINE('',#492,#493);
#492 = CARTESIAN_POINT('',(19.4,-4.,11.43));
#493 = VECTOR('',#494,1.);
#494 = DIRECTION('',(-6.661338147751E-16,1.,-1.665334536938E-15));
#495 = PCURVE('',#72,#496);
#496 = DEFINITIONAL_REPRESENTATION('',(#497),#501);
#497 = LINE('',#498,#499);
#498 = CARTESIAN_POINT('',(14.206007543103,14.412257543103));
#499 = VECTOR('',#500,1.);
#500 = DIRECTION('',(-8.881784197001E-16,1.));
#501 = ( GEOMETRIC_REPRESENTATION_CONTEXT(2) 
PARAMETRIC_REPRESENTATION_CONTEXT() REPRESENTATION_CONTEXT('2D SPACE',''
  ) );
#502 = PCURVE('',#503,#508);
#503 = PLANE('',#504);
#504 = AXIS2_PLACEMENT_3D('',#505,#506,#507);
#505 = CARTESIAN_POINT('',(19.4,-4.,11.43));
#506 = DIRECTION('',(-1.110223024625E-16,3.330669073875E-16,1.));
#507 = DIRECTION('',(2.465190328816E-32,1.,-3.330669073875E-16));
#508 = DEFINITIONAL_REPRESENTATION('',(#509),#513);
#509 = LINE('',#510,#511);
#510 = CARTESIAN_POINT('',(-1.95399252334E-14,-3.19744231092E-14));
#511 = VECTOR('',#512,1.);
#512 = DIRECTION('',(1.,6.661338147751E-16));
#513 = ( GEOMETRIC_REPRESENTATION_CONTEXT(2) 
PARAMETRIC_REPRESENTATION_CONTEXT() REPRESENTATION_CONTEXT('2D SPACE',''
  ) );
#514 = ORIENTED_EDGE('',*,*,#515,.F.);
#515 = EDGE_CURVE('',#516,#488,#518,.T.);
#516 = VERTEX_POINT('',#517);
#517 = CARTESIAN_POINT('',(-4.,4.314326673693E-15,11.43));
#518 = SURFACE_CURVE('',#519,(#523,#530),.PCURVE_S1.);
#519 = LINE('',#520,#521);
#520 = CARTESIAN_POINT('',(-1.395883408861E-14,1.268984917147E-15,11.43)
  );
#521 = VECTOR('',#522,1.);
#522 = DIRECTION('',(1.,-8.881784197001E-16,1.110223024625E-16));
#523 = PCURVE('',#72,#524);
#524 = DEFINITIONAL_REPRESENTATION('',(#525),#529);
#525 = LINE('',#526,#527);
#526 = CARTESIAN_POINT('',(-5.193992456897,18.412257543103));
#527 = VECTOR('',#528,1.);
#528 = DIRECTION('',(1.,-8.881784197001E-16));
#529 = ( GEOMETRIC_REPRESENTATION_CONTEXT(2) 
PARAMETRIC_REPRESENTATION_CONTEXT() REPRESENTATION_CONTEXT('2D SPACE',''
  ) );
#530 = PCURVE('',#531,#536);
#531 = PLANE('',#532);
#532 = AXIS2_PLACEMENT_3D('',#533,#534,#535);
#533 = CARTESIAN_POINT('',(7.7,-6.57819342431E-15,5.715));
#534 = DIRECTION('',(1.839053802683E-16,1.,-6.661338147751E-16));
#535 = DIRECTION('',(1.,-8.500391950434E-16,4.799581901941E-31));
#536 = DEFINITIONAL_REPRESENTATION('',(#537),#541);
#537 = LINE('',#538,#539);
#538 = CARTESIAN_POINT('',(-7.7,-5.715));
#539 = VECTOR('',#540,1.);
#540 = DIRECTION('',(1.,3.330669073875E-16));
#541 = ( GEOMETRIC_REPRESENTATION_CONTEXT(2) 
PARAMETRIC_REPRESENTATION_CONTEXT() REPRESENTATION_CONTEXT('2D SPACE',''
  ) );
#542 = ORIENTED_EDGE('',*,*,#543,.F.);
#543 = EDGE_CURVE('',#355,#516,#544,.T.);
#544 = SURFACE_CURVE('',#545,(#549,#556),.PCURVE_S1.);
#545 = LINE('',#546,#547);
#546 = CARTESIAN_POINT('',(-4.,-50.,11.43));
#547 = VECTOR('',#548,1.);
#548 = DIRECTION('',(-2.22044604925E-16,1.,-8.881784197001E-16));
#549 = PCURVE('',#72,#550);
#550 = DEFINITIONAL_REPRESENTATION('',(#551),#555);
#551 = LINE('',#552,#553);
#552 = CARTESIAN_POINT('',(-9.193992456897,-31.58774245689));
#553 = VECTOR('',#554,1.);
#554 = DIRECTION('',(-4.440892098501E-16,1.));
#555 = ( GEOMETRIC_REPRESENTATION_CONTEXT(2) 
PARAMETRIC_REPRESENTATION_CONTEXT() REPRESENTATION_CONTEXT('2D SPACE',''
  ) );
#556 = PCURVE('',#557,#562);
#557 = PLANE('',#558);
#558 = AXIS2_PLACEMENT_3D('',#559,#560,#561);
#559 = CARTESIAN_POINT('',(-4.,-25.,5.715));
#560 = DIRECTION('',(1.,-8.881784197001E-16,-2.22044604925E-16));
#561 = DIRECTION('',(-1.110223024625E-15,-2.22044604925E-16,1.));
#562 = DEFINITIONAL_REPRESENTATION('',(#563),#567);
#563 = LINE('',#564,#565);
#564 = CARTESIAN_POINT('',(5.715,25.));
#565 = VECTOR('',#566,1.);
#566 = DIRECTION('',(-8.881784197001E-16,-1.));
#567 = ( GEOMETRIC_REPRESENTATION_CONTEXT(2) 
PARAMETRIC_REPRESENTATION_CONTEXT() REPRESENTATION_CONTEXT('2D SPACE',''
  ) );
#568 = ADVANCED_FACE('',(#569),#151,.F.);
#569 = FACE_BOUND('',#570,.F.);
#570 = EDGE_LOOP('',(#571,#601,#622,#623));
#571 = ORIENTED_EDGE('',*,*,#572,.F.);
#572 = EDGE_CURVE('',#573,#575,#577,.T.);
#573 = VERTEX_POINT('',#574);
#574 = CARTESIAN_POINT('',(19.4,-46.,9.43));
#575 = VERTEX_POINT('',#576);
#576 = CARTESIAN_POINT('',(21.4,-46.,11.43));
#577 = SURFACE_CURVE('',#578,(#582,#589),.PCURVE_S1.);
#578 = LINE('',#579,#580);
#579 = CARTESIAN_POINT('',(20.4,-46.,10.43));
#580 = VECTOR('',#581,1.);
#581 = DIRECTION('',(0.707106781187,2.355138688026E-16,0.707106781187));
#582 = PCURVE('',#151,#583);
#583 = DEFINITIONAL_REPRESENTATION('',(#584),#588);
#584 = LINE('',#585,#586);
#585 = CARTESIAN_POINT('',(7.105427357601E-15,1.673426686484E-30));
#586 = VECTOR('',#587,1.);
#587 = DIRECTION('',(4.930380657631E-32,1.));
#588 = ( GEOMETRIC_REPRESENTATION_CONTEXT(2) 
PARAMETRIC_REPRESENTATION_CONTEXT() REPRESENTATION_CONTEXT('2D SPACE',''
  ) );
#589 = PCURVE('',#590,#595);
#590 = PLANE('',#591);
#591 = AXIS2_PLACEMENT_3D('',#592,#593,#594);
#592 = CARTESIAN_POINT('',(20.4,-50.,10.43));
#593 = DIRECTION('',(-0.707106781187,4.53482346779E-16,0.707106781187));
#594 = DIRECTION('',(-1.54126988862E-16,-1.,4.871938962496E-16));
#595 = DEFINITIONAL_REPRESENTATION('',(#596),#600);
#596 = LINE('',#597,#598);
#597 = CARTESIAN_POINT('',(-4.,-3.140184917368E-16));
#598 = VECTOR('',#599,1.);
#599 = DIRECTION('',(-0.,1.));
#600 = ( GEOMETRIC_REPRESENTATION_CONTEXT(2) 
PARAMETRIC_REPRESENTATION_CONTEXT() REPRESENTATION_CONTEXT('2D SPACE',''
  ) );
#601 = ORIENTED_EDGE('',*,*,#602,.T.);
#602 = EDGE_CURVE('',#573,#136,#603,.T.);
#603 = SURFACE_CURVE('',#604,(#608,#615),.PCURVE_S1.);
#604 = LINE('',#605,#606);
#605 = CARTESIAN_POINT('',(19.4,-46.,9.43));
#606 = VECTOR('',#607,1.);
#607 = DIRECTION('',(2.465190328816E-32,1.,-3.330669073875E-16));
#608 = PCURVE('',#151,#609);
#609 = DEFINITIONAL_REPRESENTATION('',(#610),#614);
#610 = LINE('',#611,#612);
#611 = CARTESIAN_POINT('',(3.330669073875E-16,-1.414213562373));
#612 = VECTOR('',#613,1.);
#613 = DIRECTION('',(1.,-4.930380657631E-32));
#614 = ( GEOMETRIC_REPRESENTATION_CONTEXT(2) 
PARAMETRIC_REPRESENTATION_CONTEXT() REPRESENTATION_CONTEXT('2D SPACE',''
  ) );
#615 = PCURVE('',#313,#616);
#616 = DEFINITIONAL_REPRESENTATION('',(#617),#621);
#617 = LINE('',#618,#619);
#618 = CARTESIAN_POINT('',(6.863826806212,20.188445307225));
#619 = VECTOR('',#620,1.);
#620 = DIRECTION('',(-4.440892098501E-16,-1.));
#621 = ( GEOMETRIC_REPRESENTATION_CONTEXT(2) 
PARAMETRIC_REPRESENTATION_CONTEXT() REPRESENTATION_CONTEXT('2D SPACE',''
  ) );
#622 = ORIENTED_EDGE('',*,*,#135,.T.);
#623 = ORIENTED_EDGE('',*,*,#624,.F.);
#624 = EDGE_CURVE('',#575,#108,#625,.T.);
#625 = SURFACE_CURVE('',#626,(#630,#637),.PCURVE_S1.);
#626 = LINE('',#627,#628);
#627 = CARTESIAN_POINT('',(21.4,-46.,11.43));
#628 = VECTOR('',#629,1.);
#629 = DIRECTION('',(2.465190328816E-32,1.,-3.330669073875E-16));
#630 = PCURVE('',#151,#631);
#631 = DEFINITIONAL_REPRESENTATION('',(#632),#636);
#632 = LINE('',#633,#634);
#633 = CARTESIAN_POINT('',(-3.330669073875E-16,1.414213562373));
#634 = VECTOR('',#635,1.);
#635 = DIRECTION('',(1.,-4.930380657631E-32));
#636 = ( GEOMETRIC_REPRESENTATION_CONTEXT(2) 
PARAMETRIC_REPRESENTATION_CONTEXT() REPRESENTATION_CONTEXT('2D SPACE',''
  ) );
#637 = PCURVE('',#123,#638);
#638 = DEFINITIONAL_REPRESENTATION('',(#639),#643);
#639 = LINE('',#640,#641);
#640 = CARTESIAN_POINT('',(4.930380657631E-32,-2.));
#641 = VECTOR('',#642,1.);
#642 = DIRECTION('',(1.,0.));
#643 = ( GEOMETRIC_REPRESENTATION_CONTEXT(2) 
PARAMETRIC_REPRESENTATION_CONTEXT() REPRESENTATION_CONTEXT('2D SPACE',''
  ) );
#644 = ADVANCED_FACE('',(#645),#123,.T.);
#645 = FACE_BOUND('',#646,.T.);
#646 = EDGE_LOOP('',(#647,#675,#703,#729,#730,#731));
#647 = ORIENTED_EDGE('',*,*,#648,.T.);
#648 = EDGE_CURVE('',#575,#649,#651,.T.);
#649 = VERTEX_POINT('',#650);
#650 = CARTESIAN_POINT('',(23.4,-46.,11.43));
#651 = SURFACE_CURVE('',#652,(#656,#663),.PCURVE_S1.);
#652 = LINE('',#653,#654);
#653 = CARTESIAN_POINT('',(19.4,-46.,11.43));
#654 = VECTOR('',#655,1.);
#655 = DIRECTION('',(1.,-2.22044604925E-16,1.110223024625E-16));
#656 = PCURVE('',#123,#657);
#657 = DEFINITIONAL_REPRESENTATION('',(#658),#662);
#658 = LINE('',#659,#660);
#659 = CARTESIAN_POINT('',(0.,-0.));
#660 = VECTOR('',#661,1.);
#661 = DIRECTION('',(-2.22044604925E-16,-1.));
#662 = ( GEOMETRIC_REPRESENTATION_CONTEXT(2) 
PARAMETRIC_REPRESENTATION_CONTEXT() REPRESENTATION_CONTEXT('2D SPACE',''
  ) );
#663 = PCURVE('',#664,#669);
#664 = PLANE('',#665);
#665 = AXIS2_PLACEMENT_3D('',#666,#667,#668);
#666 = CARTESIAN_POINT('',(19.4,-46.,11.43));
#667 = DIRECTION('',(1.110223024625E-16,-3.330669073875E-16,-1.));
#668 = DIRECTION('',(-2.465190328816E-32,-1.,3.330669073875E-16));
#669 = DEFINITIONAL_REPRESENTATION('',(#670),#674);
#670 = LINE('',#671,#672);
#671 = CARTESIAN_POINT('',(0.,-0.));
#672 = VECTOR('',#673,1.);
#673 = DIRECTION('',(2.22044604925E-16,-1.));
#674 = ( GEOMETRIC_REPRESENTATION_CONTEXT(2) 
PARAMETRIC_REPRESENTATION_CONTEXT() REPRESENTATION_CONTEXT('2D SPACE',''
  ) );
#675 = ORIENTED_EDGE('',*,*,#676,.T.);
#676 = EDGE_CURVE('',#649,#677,#679,.T.);
#677 = VERTEX_POINT('',#678);
#678 = CARTESIAN_POINT('',(23.4,-7.475,11.43));
#679 = SURFACE_CURVE('',#680,(#684,#691),.PCURVE_S1.);
#680 = LINE('',#681,#682);
#681 = CARTESIAN_POINT('',(23.4,-46.,11.43));
#682 = VECTOR('',#683,1.);
#683 = DIRECTION('',(-2.22044604925E-16,1.,-5.551115123126E-16));
#684 = PCURVE('',#123,#685);
#685 = DEFINITIONAL_REPRESENTATION('',(#686),#690);
#686 = LINE('',#687,#688);
#687 = CARTESIAN_POINT('',(-2.13162820728E-14,-4.));
#688 = VECTOR('',#689,1.);
#689 = DIRECTION('',(1.,2.22044604925E-16));
#690 = ( GEOMETRIC_REPRESENTATION_CONTEXT(2) 
PARAMETRIC_REPRESENTATION_CONTEXT() REPRESENTATION_CONTEXT('2D SPACE',''
  ) );
#691 = PCURVE('',#692,#697);
#692 = PLANE('',#693);
#693 = AXIS2_PLACEMENT_3D('',#694,#695,#696);
#694 = CARTESIAN_POINT('',(23.4,-25.81155469277,2.566173193788));
#695 = DIRECTION('',(1.,-4.440892098501E-16,-1.110223024625E-16));
#696 = DIRECTION('',(-5.551115123126E-16,-1.110223024625E-16,1.));
#697 = DEFINITIONAL_REPRESENTATION('',(#698),#702);
#698 = LINE('',#699,#700);
#699 = CARTESIAN_POINT('',(8.863826806212,20.188445307225));
#700 = VECTOR('',#701,1.);
#701 = DIRECTION('',(-4.440892098501E-16,-1.));
#702 = ( GEOMETRIC_REPRESENTATION_CONTEXT(2) 
PARAMETRIC_REPRESENTATION_CONTEXT() REPRESENTATION_CONTEXT('2D SPACE',''
  ) );
#703 = ORIENTED_EDGE('',*,*,#704,.F.);
#704 = EDGE_CURVE('',#381,#677,#705,.T.);
#705 = SURFACE_CURVE('',#706,(#710,#717),.PCURVE_S1.);
#706 = LINE('',#707,#708);
#707 = CARTESIAN_POINT('',(19.4,-7.475,11.43));
#708 = VECTOR('',#709,1.);
#709 = DIRECTION('',(1.,-2.22044604925E-16,1.110223024625E-16));
#710 = PCURVE('',#123,#711);
#711 = DEFINITIONAL_REPRESENTATION('',(#712),#716);
#712 = LINE('',#713,#714);
#713 = CARTESIAN_POINT('',(38.525,9.056492970487E-31));
#714 = VECTOR('',#715,1.);
#715 = DIRECTION('',(-2.22044604925E-16,-1.));
#716 = ( GEOMETRIC_REPRESENTATION_CONTEXT(2) 
PARAMETRIC_REPRESENTATION_CONTEXT() REPRESENTATION_CONTEXT('2D SPACE',''
  ) );
#717 = PCURVE('',#718,#723);
#718 = PLANE('',#719);
#719 = AXIS2_PLACEMENT_3D('',#720,#721,#722);
#720 = CARTESIAN_POINT('',(19.4,-7.475,11.43));
#721 = DIRECTION('',(2.22044604925E-16,1.,-1.110223024625E-16));
#722 = DIRECTION('',(3.330669073875E-16,-1.110223024625E-16,-1.));
#723 = DEFINITIONAL_REPRESENTATION('',(#724),#728);
#724 = LINE('',#725,#726);
#725 = CARTESIAN_POINT('',(0.,0.));
#726 = VECTOR('',#727,1.);
#727 = DIRECTION('',(2.22044604925E-16,-1.));
#728 = ( GEOMETRIC_REPRESENTATION_CONTEXT(2) 
PARAMETRIC_REPRESENTATION_CONTEXT() REPRESENTATION_CONTEXT('2D SPACE',''
  ) );
#729 = ORIENTED_EDGE('',*,*,#380,.F.);
#730 = ORIENTED_EDGE('',*,*,#107,.T.);
#731 = ORIENTED_EDGE('',*,*,#624,.F.);
#732 = ADVANCED_FACE('',(#733),#210,.T.);
#733 = FACE_BOUND('',#734,.T.);
#734 = EDGE_LOOP('',(#735,#736,#759,#787,#808));
#735 = ORIENTED_EDGE('',*,*,#354,.T.);
#736 = ORIENTED_EDGE('',*,*,#737,.T.);
#737 = EDGE_CURVE('',#355,#738,#740,.T.);
#738 = VERTEX_POINT('',#739);
#739 = CARTESIAN_POINT('',(-4.,-50.,3.241851231905E-14));
#740 = SURFACE_CURVE('',#741,(#745,#752),.PCURVE_S1.);
#741 = LINE('',#742,#743);
#742 = CARTESIAN_POINT('',(-4.,-50.,11.43));
#743 = VECTOR('',#744,1.);
#744 = DIRECTION('',(1.110223024625E-15,2.22044604925E-16,-1.));
#745 = PCURVE('',#210,#746);
#746 = DEFINITIONAL_REPRESENTATION('',(#747),#751);
#747 = LINE('',#748,#749);
#748 = CARTESIAN_POINT('',(-2.57571741713E-14,-4.));
#749 = VECTOR('',#750,1.);
#750 = DIRECTION('',(1.,6.661338147751E-16));
#751 = ( GEOMETRIC_REPRESENTATION_CONTEXT(2) 
PARAMETRIC_REPRESENTATION_CONTEXT() REPRESENTATION_CONTEXT('2D SPACE',''
  ) );
#752 = PCURVE('',#557,#753);
#753 = DEFINITIONAL_REPRESENTATION('',(#754),#758);
#754 = LINE('',#755,#756);
#755 = CARTESIAN_POINT('',(5.715,25.));
#756 = VECTOR('',#757,1.);
#757 = DIRECTION('',(-1.,-8.881784197001E-16));
#758 = ( GEOMETRIC_REPRESENTATION_CONTEXT(2) 
PARAMETRIC_REPRESENTATION_CONTEXT() REPRESENTATION_CONTEXT('2D SPACE',''
  ) );
#759 = ORIENTED_EDGE('',*,*,#760,.F.);
#760 = EDGE_CURVE('',#761,#738,#763,.T.);
#761 = VERTEX_POINT('',#762);
#762 = CARTESIAN_POINT('',(-7.88860905221E-30,-50.,3.330669073875E-14));
#763 = SURFACE_CURVE('',#764,(#768,#775),.PCURVE_S1.);
#764 = LINE('',#765,#766);
#765 = CARTESIAN_POINT('',(1.110223024625E-14,-50.,4.440892098501E-14));
#766 = VECTOR('',#767,1.);
#767 = DIRECTION('',(-1.,6.661338147751E-16,-3.574525976783E-31));
#768 = PCURVE('',#210,#769);
#769 = DEFINITIONAL_REPRESENTATION('',(#770),#774);
#770 = LINE('',#771,#772);
#771 = CARTESIAN_POINT('',(11.43,5.075939668586E-15));
#772 = VECTOR('',#773,1.);
#773 = DIRECTION('',(-6.661338147751E-16,-1.));
#774 = ( GEOMETRIC_REPRESENTATION_CONTEXT(2) 
PARAMETRIC_REPRESENTATION_CONTEXT() REPRESENTATION_CONTEXT('2D SPACE',''
  ) );
#775 = PCURVE('',#776,#781);
#776 = PLANE('',#777);
#777 = AXIS2_PLACEMENT_3D('',#778,#779,#780);
#778 = CARTESIAN_POINT('',(4.462261580381,-21.76226158038,
    2.179624555321E-14));
#779 = DIRECTION('',(9.516050616924E-16,-2.630475591319E-16,-1.));
#780 = DIRECTION('',(-1.,4.440892098501E-16,-2.854712469173E-16));
#781 = DEFINITIONAL_REPRESENTATION('',(#782),#786);
#782 = LINE('',#783,#784);
#783 = CARTESIAN_POINT('',(4.462261580381,-28.23773841961));
#784 = VECTOR('',#785,1.);
#785 = DIRECTION('',(1.,6.661338147751E-16));
#786 = ( GEOMETRIC_REPRESENTATION_CONTEXT(2) 
PARAMETRIC_REPRESENTATION_CONTEXT() REPRESENTATION_CONTEXT('2D SPACE',''
  ) );
#787 = ORIENTED_EDGE('',*,*,#788,.F.);
#788 = EDGE_CURVE('',#193,#761,#789,.T.);
#789 = SURFACE_CURVE('',#790,(#794,#801),.PCURVE_S1.);
#790 = LINE('',#791,#792);
#791 = CARTESIAN_POINT('',(9.514611321038E-15,-50.,11.43));
#792 = VECTOR('',#793,1.);
#793 = DIRECTION('',(1.110223024625E-15,2.22044604925E-16,-1.));
#794 = PCURVE('',#210,#795);
#795 = DEFINITIONAL_REPRESENTATION('',(#796),#800);
#796 = LINE('',#797,#798);
#797 = CARTESIAN_POINT('',(-1.7763568394E-14,8.564260411958E-15));
#798 = VECTOR('',#799,1.);
#799 = DIRECTION('',(1.,6.661338147751E-16));
#800 = ( GEOMETRIC_REPRESENTATION_CONTEXT(2) 
PARAMETRIC_REPRESENTATION_CONTEXT() REPRESENTATION_CONTEXT('2D SPACE',''
  ) );
#801 = PCURVE('',#236,#802);
#802 = DEFINITIONAL_REPRESENTATION('',(#803),#807);
#803 = LINE('',#804,#805);
#804 = CARTESIAN_POINT('',(5.715,25.));
#805 = VECTOR('',#806,1.);
#806 = DIRECTION('',(-1.,-8.881784197001E-16));
#807 = ( GEOMETRIC_REPRESENTATION_CONTEXT(2) 
PARAMETRIC_REPRESENTATION_CONTEXT() REPRESENTATION_CONTEXT('2D SPACE',''
  ) );
#808 = ORIENTED_EDGE('',*,*,#192,.T.);
#809 = ADVANCED_FACE('',(#810),#236,.T.);
#810 = FACE_BOUND('',#811,.T.);
#811 = EDGE_LOOP('',(#812,#813,#836,#857,#858));
#812 = ORIENTED_EDGE('',*,*,#788,.T.);
#813 = ORIENTED_EDGE('',*,*,#814,.T.);
#814 = EDGE_CURVE('',#761,#815,#817,.T.);
#815 = VERTEX_POINT('',#816);
#816 = CARTESIAN_POINT('',(-9.466330862652E-30,-25.5,2.470246229791E-14)
  );
#817 = SURFACE_CURVE('',#818,(#822,#829),.PCURVE_S1.);
#818 = LINE('',#819,#820);
#819 = CARTESIAN_POINT('',(2.22044604925E-14,-50.,5.551115123126E-14));
#820 = VECTOR('',#821,1.);
#821 = DIRECTION('',(-4.440892098501E-16,1.,-1.110223024625E-15));
#822 = PCURVE('',#236,#823);
#823 = DEFINITIONAL_REPRESENTATION('',(#824),#828);
#824 = LINE('',#825,#826);
#825 = CARTESIAN_POINT('',(-5.715,25.));
#826 = VECTOR('',#827,1.);
#827 = DIRECTION('',(-8.881784197001E-16,-1.));
#828 = ( GEOMETRIC_REPRESENTATION_CONTEXT(2) 
PARAMETRIC_REPRESENTATION_CONTEXT() REPRESENTATION_CONTEXT('2D SPACE',''
  ) );
#829 = PCURVE('',#776,#830);
#830 = DEFINITIONAL_REPRESENTATION('',(#831),#835);
#831 = LINE('',#832,#833);
#832 = CARTESIAN_POINT('',(4.462261580381,-28.23773841961));
#833 = VECTOR('',#834,1.);
#834 = DIRECTION('',(6.661338147751E-16,1.));
#835 = ( GEOMETRIC_REPRESENTATION_CONTEXT(2) 
PARAMETRIC_REPRESENTATION_CONTEXT() REPRESENTATION_CONTEXT('2D SPACE',''
  ) );
#836 = ORIENTED_EDGE('',*,*,#837,.F.);
#837 = EDGE_CURVE('',#274,#815,#838,.T.);
#838 = SURFACE_CURVE('',#839,(#843,#850),.PCURVE_S1.);
#839 = LINE('',#840,#841);
#840 = CARTESIAN_POINT('',(8.434733841713E-15,-24.23431933421,
    -1.265680665785));
#841 = VECTOR('',#842,1.);
#842 = DIRECTION('',(7.065416064077E-16,0.707106781187,-0.707106781187)
  );
#843 = PCURVE('',#236,#844);
#844 = DEFINITIONAL_REPRESENTATION('',(#845),#849);
#845 = LINE('',#846,#847);
#846 = CARTESIAN_POINT('',(-6.980680665785,-0.765680665785));
#847 = VECTOR('',#848,1.);
#848 = DIRECTION('',(-0.707106781187,-0.707106781187));
#849 = ( GEOMETRIC_REPRESENTATION_CONTEXT(2) 
PARAMETRIC_REPRESENTATION_CONTEXT() REPRESENTATION_CONTEXT('2D SPACE',''
  ) );
#850 = PCURVE('',#339,#851);
#851 = DEFINITIONAL_REPRESENTATION('',(#852),#856);
#852 = LINE('',#853,#854);
#853 = CARTESIAN_POINT('',(4.598299254593E-15,3.204156325559));
#854 = VECTOR('',#855,1.);
#855 = DIRECTION('',(-7.395570986447E-32,1.));
#856 = ( GEOMETRIC_REPRESENTATION_CONTEXT(2) 
PARAMETRIC_REPRESENTATION_CONTEXT() REPRESENTATION_CONTEXT('2D SPACE',''
  ) );
#857 = ORIENTED_EDGE('',*,*,#273,.F.);
#858 = ORIENTED_EDGE('',*,*,#222,.F.);
#859 = ADVANCED_FACE('',(#860),#339,.T.);
#860 = FACE_BOUND('',#861,.F.);
#861 = EDGE_LOOP('',(#862,#863,#864,#887));
#862 = ORIENTED_EDGE('',*,*,#837,.F.);
#863 = ORIENTED_EDGE('',*,*,#325,.T.);
#864 = ORIENTED_EDGE('',*,*,#865,.T.);
#865 = EDGE_CURVE('',#298,#866,#868,.T.);
#866 = VERTEX_POINT('',#867);
#867 = CARTESIAN_POINT('',(19.4,-25.5,3.00537372766E-14));
#868 = SURFACE_CURVE('',#869,(#873,#880),.PCURVE_S1.);
#869 = LINE('',#870,#871);
#870 = CARTESIAN_POINT('',(19.4,-24.23431933421,-1.265680665785));
#871 = VECTOR('',#872,1.);
#872 = DIRECTION('',(7.065416064077E-16,0.707106781187,-0.707106781187)
  );
#873 = PCURVE('',#339,#874);
#874 = DEFINITIONAL_REPRESENTATION('',(#875),#879);
#875 = LINE('',#876,#877);
#876 = CARTESIAN_POINT('',(-19.4,3.204156325559));
#877 = VECTOR('',#878,1.);
#878 = DIRECTION('',(-7.395570986447E-32,1.));
#879 = ( GEOMETRIC_REPRESENTATION_CONTEXT(2) 
PARAMETRIC_REPRESENTATION_CONTEXT() REPRESENTATION_CONTEXT('2D SPACE',''
  ) );
#880 = PCURVE('',#313,#881);
#881 = DEFINITIONAL_REPRESENTATION('',(#882),#886);
#882 = LINE('',#883,#884);
#883 = CARTESIAN_POINT('',(-3.831853859573,-1.57723535856));
#884 = VECTOR('',#885,1.);
#885 = DIRECTION('',(-0.707106781187,-0.707106781187));
#886 = ( GEOMETRIC_REPRESENTATION_CONTEXT(2) 
PARAMETRIC_REPRESENTATION_CONTEXT() REPRESENTATION_CONTEXT('2D SPACE',''
  ) );
#887 = ORIENTED_EDGE('',*,*,#888,.F.);
#888 = EDGE_CURVE('',#815,#866,#889,.T.);
#889 = SURFACE_CURVE('',#890,(#894,#901),.PCURVE_S1.);
#890 = LINE('',#891,#892);
#891 = CARTESIAN_POINT('',(1.176836406103E-14,-25.5,3.641531520771E-14)
  );
#892 = VECTOR('',#893,1.);
#893 = DIRECTION('',(1.,-1.110223024625E-15,-1.110223024625E-16));
#894 = PCURVE('',#339,#895);
#895 = DEFINITIONAL_REPRESENTATION('',(#896),#900);
#896 = LINE('',#897,#898);
#897 = CARTESIAN_POINT('',(-1.651677520306E-30,1.414213562373));
#898 = VECTOR('',#899,1.);
#899 = DIRECTION('',(-1.,1.972152263053E-31));
#900 = ( GEOMETRIC_REPRESENTATION_CONTEXT(2) 
PARAMETRIC_REPRESENTATION_CONTEXT() REPRESENTATION_CONTEXT('2D SPACE',''
  ) );
#901 = PCURVE('',#776,#902);
#902 = DEFINITIONAL_REPRESENTATION('',(#903),#907);
#903 = LINE('',#904,#905);
#904 = CARTESIAN_POINT('',(4.462261580381,-3.737738419619));
#905 = VECTOR('',#906,1.);
#906 = DIRECTION('',(-1.,-1.110223024625E-15));
#907 = ( GEOMETRIC_REPRESENTATION_CONTEXT(2) 
PARAMETRIC_REPRESENTATION_CONTEXT() REPRESENTATION_CONTEXT('2D SPACE',''
  ) );
#908 = ADVANCED_FACE('',(#909),#313,.F.);
#909 = FACE_BOUND('',#910,.F.);
#910 = EDGE_LOOP('',(#911,#941,#969,#997,#1025,#1046,#1047,#1048,#1049)
  );
#911 = ORIENTED_EDGE('',*,*,#912,.T.);
#912 = EDGE_CURVE('',#913,#915,#917,.T.);
#913 = VERTEX_POINT('',#914);
#914 = CARTESIAN_POINT('',(19.4,-50.,9.43));
#915 = VERTEX_POINT('',#916);
#916 = CARTESIAN_POINT('',(19.4,-50.,-4.));
#917 = SURFACE_CURVE('',#918,(#922,#929),.PCURVE_S1.);
#918 = LINE('',#919,#920);
#919 = CARTESIAN_POINT('',(19.4,-50.,11.43));
#920 = VECTOR('',#921,1.);
#921 = DIRECTION('',(5.551115123126E-16,1.110223024625E-16,-1.));
#922 = PCURVE('',#313,#923);
#923 = DEFINITIONAL_REPRESENTATION('',(#924),#928);
#924 = LINE('',#925,#926);
#925 = CARTESIAN_POINT('',(8.863826806212,24.188445307225));
#926 = VECTOR('',#927,1.);
#927 = DIRECTION('',(-1.,-4.440892098501E-16));
#928 = ( GEOMETRIC_REPRESENTATION_CONTEXT(2) 
PARAMETRIC_REPRESENTATION_CONTEXT() REPRESENTATION_CONTEXT('2D SPACE',''
  ) );
#929 = PCURVE('',#930,#935);
#930 = PLANE('',#931);
#931 = AXIS2_PLACEMENT_3D('',#932,#933,#934);
#932 = CARTESIAN_POINT('',(19.4,-50.,11.43));
#933 = DIRECTION('',(2.22044604925E-16,1.,-1.110223024625E-16));
#934 = DIRECTION('',(3.330669073875E-16,-1.110223024625E-16,-1.));
#935 = DEFINITIONAL_REPRESENTATION('',(#936),#940);
#936 = LINE('',#937,#938);
#937 = CARTESIAN_POINT('',(-5.329070518201E-15,-1.7763568394E-14));
#938 = VECTOR('',#939,1.);
#939 = DIRECTION('',(1.,-2.22044604925E-16));
#940 = ( GEOMETRIC_REPRESENTATION_CONTEXT(2) 
PARAMETRIC_REPRESENTATION_CONTEXT() REPRESENTATION_CONTEXT('2D SPACE',''
  ) );
#941 = ORIENTED_EDGE('',*,*,#942,.T.);
#942 = EDGE_CURVE('',#915,#943,#945,.T.);
#943 = VERTEX_POINT('',#944);
#944 = CARTESIAN_POINT('',(19.4,-46.,-4.));
#945 = SURFACE_CURVE('',#946,(#950,#957),.PCURVE_S1.);
#946 = LINE('',#947,#948);
#947 = CARTESIAN_POINT('',(19.4,-50.,-4.));
#948 = VECTOR('',#949,1.);
#949 = DIRECTION('',(-2.22044604925E-16,1.,-5.551115123126E-16));
#950 = PCURVE('',#313,#951);
#951 = DEFINITIONAL_REPRESENTATION('',(#952),#956);
#952 = LINE('',#953,#954);
#953 = CARTESIAN_POINT('',(-6.566173193788,24.188445307225));
#954 = VECTOR('',#955,1.);
#955 = DIRECTION('',(-4.440892098501E-16,-1.));
#956 = ( GEOMETRIC_REPRESENTATION_CONTEXT(2) 
PARAMETRIC_REPRESENTATION_CONTEXT() REPRESENTATION_CONTEXT('2D SPACE',''
  ) );
#957 = PCURVE('',#958,#963);
#958 = PLANE('',#959);
#959 = AXIS2_PLACEMENT_3D('',#960,#961,#962);
#960 = CARTESIAN_POINT('',(19.4,-50.,-4.));
#961 = DIRECTION('',(-1.110223024625E-16,3.330669073875E-16,1.));
#962 = DIRECTION('',(2.465190328816E-32,1.,-3.330669073875E-16));
#963 = DEFINITIONAL_REPRESENTATION('',(#964),#968);
#964 = LINE('',#965,#966);
#965 = CARTESIAN_POINT('',(-2.13162820728E-14,-2.13162820728E-14));
#966 = VECTOR('',#967,1.);
#967 = DIRECTION('',(1.,2.22044604925E-16));
#968 = ( GEOMETRIC_REPRESENTATION_CONTEXT(2) 
PARAMETRIC_REPRESENTATION_CONTEXT() REPRESENTATION_CONTEXT('2D SPACE',''
  ) );
#969 = ORIENTED_EDGE('',*,*,#970,.T.);
#970 = EDGE_CURVE('',#943,#971,#973,.T.);
#971 = VERTEX_POINT('',#972);
#972 = CARTESIAN_POINT('',(19.4,-4.751754545396E-15,-4.));
#973 = SURFACE_CURVE('',#974,(#978,#985),.PCURVE_S1.);
#974 = LINE('',#975,#976);
#975 = CARTESIAN_POINT('',(19.4,-46.,-4.));
#976 = VECTOR('',#977,1.);
#977 = DIRECTION('',(-2.22044604925E-16,1.,-5.551115123126E-16));
#978 = PCURVE('',#313,#979);
#979 = DEFINITIONAL_REPRESENTATION('',(#980),#984);
#980 = LINE('',#981,#982);
#981 = CARTESIAN_POINT('',(-6.566173193788,20.188445307225));
#982 = VECTOR('',#983,1.);
#983 = DIRECTION('',(-4.440892098501E-16,-1.));
#984 = ( GEOMETRIC_REPRESENTATION_CONTEXT(2) 
PARAMETRIC_REPRESENTATION_CONTEXT() REPRESENTATION_CONTEXT('2D SPACE',''
  ) );
#985 = PCURVE('',#986,#991);
#986 = PLANE('',#987);
#987 = AXIS2_PLACEMENT_3D('',#988,#989,#990);
#988 = CARTESIAN_POINT('',(19.4,-46.,-4.));
#989 = DIRECTION('',(-1.110223024625E-16,3.330669073875E-16,1.));
#990 = DIRECTION('',(2.465190328816E-32,1.,-3.330669073875E-16));
#991 = DEFINITIONAL_REPRESENTATION('',(#992),#996);
#992 = LINE('',#993,#994);
#993 = CARTESIAN_POINT('',(-2.13162820728E-14,-2.13162820728E-14));
#994 = VECTOR('',#995,1.);
#995 = DIRECTION('',(1.,2.22044604925E-16));
#996 = ( GEOMETRIC_REPRESENTATION_CONTEXT(2) 
PARAMETRIC_REPRESENTATION_CONTEXT() REPRESENTATION_CONTEXT('2D SPACE',''
  ) );
#997 = ORIENTED_EDGE('',*,*,#998,.T.);
#998 = EDGE_CURVE('',#971,#999,#1001,.T.);
#999 = VERTEX_POINT('',#1000);
#1000 = CARTESIAN_POINT('',(19.4,-8.755191786157E-15,4.377595893078E-15)
  );
#1001 = SURFACE_CURVE('',#1002,(#1006,#1013),.PCURVE_S1.);
#1002 = LINE('',#1003,#1004);
#1003 = CARTESIAN_POINT('',(19.4,-3.863576125696E-15,-4.));
#1004 = VECTOR('',#1005,1.);
#1005 = DIRECTION('',(-5.551115123126E-16,-1.110223024625E-16,1.));
#1006 = PCURVE('',#313,#1007);
#1007 = DEFINITIONAL_REPRESENTATION('',(#1008),#1012);
#1008 = LINE('',#1009,#1010);
#1009 = CARTESIAN_POINT('',(-6.566173193788,-25.81155469277));
#1010 = VECTOR('',#1011,1.);
#1011 = DIRECTION('',(1.,4.440892098501E-16));
#1012 = ( GEOMETRIC_REPRESENTATION_CONTEXT(2) 
PARAMETRIC_REPRESENTATION_CONTEXT() REPRESENTATION_CONTEXT('2D SPACE',''
  ) );
#1013 = PCURVE('',#1014,#1019);
#1014 = PLANE('',#1015);
#1015 = AXIS2_PLACEMENT_3D('',#1016,#1017,#1018);
#1016 = CARTESIAN_POINT('',(19.4,-4.751754545396E-15,-4.));
#1017 = DIRECTION('',(-2.22044604925E-16,-1.,1.110223024625E-16));
#1018 = DIRECTION('',(-3.330669073875E-16,1.110223024625E-16,1.));
#1019 = DEFINITIONAL_REPRESENTATION('',(#1020),#1024);
#1020 = LINE('',#1021,#1022);
#1021 = CARTESIAN_POINT('',(-1.554312234475E-14,-1.06581410364E-14));
#1022 = VECTOR('',#1023,1.);
#1023 = DIRECTION('',(1.,2.22044604925E-16));
#1024 = ( GEOMETRIC_REPRESENTATION_CONTEXT(2) 
PARAMETRIC_REPRESENTATION_CONTEXT() REPRESENTATION_CONTEXT('2D SPACE',''
  ) );
#1025 = ORIENTED_EDGE('',*,*,#1026,.F.);
#1026 = EDGE_CURVE('',#866,#999,#1027,.T.);
#1027 = SURFACE_CURVE('',#1028,(#1032,#1039),.PCURVE_S1.);
#1028 = LINE('',#1029,#1030);
#1029 = CARTESIAN_POINT('',(19.4,-27.5,1.06581410364E-14));
#1030 = VECTOR('',#1031,1.);
#1031 = DIRECTION('',(-6.661338147751E-16,1.,-1.665334536938E-15));
#1032 = PCURVE('',#313,#1033);
#1033 = DEFINITIONAL_REPRESENTATION('',(#1034),#1038);
#1034 = LINE('',#1035,#1036);
#1035 = CARTESIAN_POINT('',(-2.566173193788,1.688445307225));
#1036 = VECTOR('',#1037,1.);
#1037 = DIRECTION('',(-1.554312234475E-15,-1.));
#1038 = ( GEOMETRIC_REPRESENTATION_CONTEXT(2) 
PARAMETRIC_REPRESENTATION_CONTEXT() REPRESENTATION_CONTEXT('2D SPACE',''
  ) );
#1039 = PCURVE('',#776,#1040);
#1040 = DEFINITIONAL_REPRESENTATION('',(#1041),#1045);
#1041 = LINE('',#1042,#1043);
#1042 = CARTESIAN_POINT('',(-14.93773841961,-5.737738419619));
#1043 = VECTOR('',#1044,1.);
#1044 = DIRECTION('',(8.881784197001E-16,1.));
#1045 = ( GEOMETRIC_REPRESENTATION_CONTEXT(2) 
PARAMETRIC_REPRESENTATION_CONTEXT() REPRESENTATION_CONTEXT('2D SPACE',''
  ) );
#1046 = ORIENTED_EDGE('',*,*,#865,.F.);
#1047 = ORIENTED_EDGE('',*,*,#297,.F.);
#1048 = ORIENTED_EDGE('',*,*,#602,.F.);
#1049 = ORIENTED_EDGE('',*,*,#1050,.F.);
#1050 = EDGE_CURVE('',#913,#573,#1051,.T.);
#1051 = SURFACE_CURVE('',#1052,(#1056,#1063),.PCURVE_S1.);
#1052 = LINE('',#1053,#1054);
#1053 = CARTESIAN_POINT('',(19.4,-50.,9.43));
#1054 = VECTOR('',#1055,1.);
#1055 = DIRECTION('',(2.465190328816E-32,1.,-3.330669073875E-16));
#1056 = PCURVE('',#313,#1057);
#1057 = DEFINITIONAL_REPRESENTATION('',(#1058),#1062);
#1058 = LINE('',#1059,#1060);
#1059 = CARTESIAN_POINT('',(6.863826806212,24.188445307225));
#1060 = VECTOR('',#1061,1.);
#1061 = DIRECTION('',(-4.440892098501E-16,-1.));
#1062 = ( GEOMETRIC_REPRESENTATION_CONTEXT(2) 
PARAMETRIC_REPRESENTATION_CONTEXT() REPRESENTATION_CONTEXT('2D SPACE',''
  ) );
#1063 = PCURVE('',#590,#1064);
#1064 = DEFINITIONAL_REPRESENTATION('',(#1065),#1069);
#1065 = LINE('',#1066,#1067);
#1066 = CARTESIAN_POINT('',(-3.330669073875E-16,-1.414213562373));
#1067 = VECTOR('',#1068,1.);
#1068 = DIRECTION('',(-1.,4.930380657631E-32));
#1069 = ( GEOMETRIC_REPRESENTATION_CONTEXT(2) 
PARAMETRIC_REPRESENTATION_CONTEXT() REPRESENTATION_CONTEXT('2D SPACE',''
  ) );
#1070 = ADVANCED_FACE('',(#1071),#557,.F.);
#1071 = FACE_BOUND('',#1072,.F.);
#1072 = EDGE_LOOP('',(#1073,#1074,#1097,#1118));
#1073 = ORIENTED_EDGE('',*,*,#737,.T.);
#1074 = ORIENTED_EDGE('',*,*,#1075,.T.);
#1075 = EDGE_CURVE('',#738,#1076,#1078,.T.);
#1076 = VERTEX_POINT('',#1077);
#1077 = CARTESIAN_POINT('',(-4.,1.7763568394E-15,-8.881784197001E-16));
#1078 = SURFACE_CURVE('',#1079,(#1083,#1090),.PCURVE_S1.);
#1079 = LINE('',#1080,#1081);
#1080 = CARTESIAN_POINT('',(-4.,-50.,5.950795411991E-14));
#1081 = VECTOR('',#1082,1.);
#1082 = DIRECTION('',(-4.440892098501E-16,1.,-1.110223024625E-15));
#1083 = PCURVE('',#557,#1084);
#1084 = DEFINITIONAL_REPRESENTATION('',(#1085),#1089);
#1085 = LINE('',#1086,#1087);
#1086 = CARTESIAN_POINT('',(-5.715,25.));
#1087 = VECTOR('',#1088,1.);
#1088 = DIRECTION('',(-8.881784197001E-16,-1.));
#1089 = ( GEOMETRIC_REPRESENTATION_CONTEXT(2) 
PARAMETRIC_REPRESENTATION_CONTEXT() REPRESENTATION_CONTEXT('2D SPACE',''
  ) );
#1090 = PCURVE('',#776,#1091);
#1091 = DEFINITIONAL_REPRESENTATION('',(#1092),#1096);
#1092 = LINE('',#1093,#1094);
#1093 = CARTESIAN_POINT('',(8.462261580381,-28.23773841961));
#1094 = VECTOR('',#1095,1.);
#1095 = DIRECTION('',(6.661338147751E-16,1.));
#1096 = ( GEOMETRIC_REPRESENTATION_CONTEXT(2) 
PARAMETRIC_REPRESENTATION_CONTEXT() REPRESENTATION_CONTEXT('2D SPACE',''
  ) );
#1097 = ORIENTED_EDGE('',*,*,#1098,.T.);
#1098 = EDGE_CURVE('',#1076,#516,#1099,.T.);
#1099 = SURFACE_CURVE('',#1100,(#1104,#1111),.PCURVE_S1.);
#1100 = LINE('',#1101,#1102);
#1101 = CARTESIAN_POINT('',(-4.,1.7763568394E-15,4.440892098501E-15));
#1102 = VECTOR('',#1103,1.);
#1103 = DIRECTION('',(-1.110223024625E-15,-2.22044604925E-16,1.));
#1104 = PCURVE('',#557,#1105);
#1105 = DEFINITIONAL_REPRESENTATION('',(#1106),#1110);
#1106 = LINE('',#1107,#1108);
#1107 = CARTESIAN_POINT('',(-5.715,-25.));
#1108 = VECTOR('',#1109,1.);
#1109 = DIRECTION('',(1.,8.881784197001E-16));
#1110 = ( GEOMETRIC_REPRESENTATION_CONTEXT(2) 
PARAMETRIC_REPRESENTATION_CONTEXT() REPRESENTATION_CONTEXT('2D SPACE',''
  ) );
#1111 = PCURVE('',#531,#1112);
#1112 = DEFINITIONAL_REPRESENTATION('',(#1113),#1117);
#1113 = LINE('',#1114,#1115);
#1114 = CARTESIAN_POINT('',(-11.7,5.715));
#1115 = VECTOR('',#1116,1.);
#1116 = DIRECTION('',(-8.881784197001E-16,-1.));
#1117 = ( GEOMETRIC_REPRESENTATION_CONTEXT(2) 
PARAMETRIC_REPRESENTATION_CONTEXT() REPRESENTATION_CONTEXT('2D SPACE',''
  ) );
#1118 = ORIENTED_EDGE('',*,*,#543,.F.);
#1119 = ADVANCED_FACE('',(#1120),#531,.T.);
#1120 = FACE_BOUND('',#1121,.T.);
#1121 = EDGE_LOOP('',(#1122,#1123,#1124,#1150));
#1122 = ORIENTED_EDGE('',*,*,#1098,.T.);
#1123 = ORIENTED_EDGE('',*,*,#515,.T.);
#1124 = ORIENTED_EDGE('',*,*,#1125,.F.);
#1125 = EDGE_CURVE('',#999,#488,#1126,.T.);
#1126 = SURFACE_CURVE('',#1127,(#1131,#1138),.PCURVE_S1.);
#1127 = LINE('',#1128,#1129);
#1128 = CARTESIAN_POINT('',(19.4,-1.292299600664E-14,-3.552713678801E-14
    ));
#1129 = VECTOR('',#1130,1.);
#1130 = DIRECTION('',(-1.665334536938E-15,-3.330669073875E-16,1.));
#1131 = PCURVE('',#531,#1132);
#1132 = DEFINITIONAL_REPRESENTATION('',(#1133),#1137);
#1133 = LINE('',#1134,#1135);
#1134 = CARTESIAN_POINT('',(11.7,5.715));
#1135 = VECTOR('',#1136,1.);
#1136 = DIRECTION('',(-1.443289932013E-15,-1.));
#1137 = ( GEOMETRIC_REPRESENTATION_CONTEXT(2) 
PARAMETRIC_REPRESENTATION_CONTEXT() REPRESENTATION_CONTEXT('2D SPACE',''
  ) );
#1138 = PCURVE('',#1139,#1144);
#1139 = PLANE('',#1140);
#1140 = AXIS2_PLACEMENT_3D('',#1141,#1142,#1143);
#1141 = CARTESIAN_POINT('',(19.4,-4.307665335546E-15,2.153832667773E-15)
  );
#1142 = DIRECTION('',(-2.22044604925E-16,-1.,1.110223024625E-16));
#1143 = DIRECTION('',(-3.330669073875E-16,1.110223024625E-16,1.));
#1144 = DEFINITIONAL_REPRESENTATION('',(#1145),#1149);
#1145 = LINE('',#1146,#1147);
#1146 = CARTESIAN_POINT('',(-3.768096945578E-14,-4.618527782441E-14));
#1147 = VECTOR('',#1148,1.);
#1148 = DIRECTION('',(1.,1.33226762955E-15));
#1149 = ( GEOMETRIC_REPRESENTATION_CONTEXT(2) 
PARAMETRIC_REPRESENTATION_CONTEXT() REPRESENTATION_CONTEXT('2D SPACE',''
  ) );
#1150 = ORIENTED_EDGE('',*,*,#1151,.F.);
#1151 = EDGE_CURVE('',#1076,#999,#1152,.T.);
#1152 = SURFACE_CURVE('',#1153,(#1157,#1164),.PCURVE_S1.);
#1153 = LINE('',#1154,#1155);
#1154 = CARTESIAN_POINT('',(0.,0.,0.));
#1155 = VECTOR('',#1156,1.);
#1156 = DIRECTION('',(1.,-8.881784197001E-16,1.110223024625E-16));
#1157 = PCURVE('',#531,#1158);
#1158 = DEFINITIONAL_REPRESENTATION('',(#1159),#1163);
#1159 = LINE('',#1160,#1161);
#1160 = CARTESIAN_POINT('',(-7.7,5.715));
#1161 = VECTOR('',#1162,1.);
#1162 = DIRECTION('',(1.,3.330669073875E-16));
#1163 = ( GEOMETRIC_REPRESENTATION_CONTEXT(2) 
PARAMETRIC_REPRESENTATION_CONTEXT() REPRESENTATION_CONTEXT('2D SPACE',''
  ) );
#1164 = PCURVE('',#776,#1165);
#1165 = DEFINITIONAL_REPRESENTATION('',(#1166),#1170);
#1166 = LINE('',#1167,#1168);
#1167 = CARTESIAN_POINT('',(4.462261580381,21.762261580381));
#1168 = VECTOR('',#1169,1.);
#1169 = DIRECTION('',(-1.,-8.881784197001E-16));
#1170 = ( GEOMETRIC_REPRESENTATION_CONTEXT(2) 
PARAMETRIC_REPRESENTATION_CONTEXT() REPRESENTATION_CONTEXT('2D SPACE',''
  ) );
#1171 = ADVANCED_FACE('',(#1172),#503,.T.);
#1172 = FACE_BOUND('',#1173,.T.);
#1173 = EDGE_LOOP('',(#1174,#1202,#1225,#1246));
#1174 = ORIENTED_EDGE('',*,*,#1175,.T.);
#1175 = EDGE_CURVE('',#460,#1176,#1178,.T.);
#1176 = VERTEX_POINT('',#1177);
#1177 = CARTESIAN_POINT('',(23.4,-4.,11.43));
#1178 = SURFACE_CURVE('',#1179,(#1183,#1190),.PCURVE_S1.);
#1179 = LINE('',#1180,#1181);
#1180 = CARTESIAN_POINT('',(19.4,-4.,11.43));
#1181 = VECTOR('',#1182,1.);
#1182 = DIRECTION('',(1.,-2.22044604925E-16,1.110223024625E-16));
#1183 = PCURVE('',#503,#1184);
#1184 = DEFINITIONAL_REPRESENTATION('',(#1185),#1189);
#1185 = LINE('',#1186,#1187);
#1186 = CARTESIAN_POINT('',(0.,-0.));
#1187 = VECTOR('',#1188,1.);
#1188 = DIRECTION('',(-2.22044604925E-16,-1.));
#1189 = ( GEOMETRIC_REPRESENTATION_CONTEXT(2) 
PARAMETRIC_REPRESENTATION_CONTEXT() REPRESENTATION_CONTEXT('2D SPACE',''
  ) );
#1190 = PCURVE('',#1191,#1196);
#1191 = PLANE('',#1192);
#1192 = AXIS2_PLACEMENT_3D('',#1193,#1194,#1195);
#1193 = CARTESIAN_POINT('',(19.4,-4.,5.));
#1194 = DIRECTION('',(-2.22044604925E-16,-1.,1.110223024625E-16));
#1195 = DIRECTION('',(-3.330669073875E-16,1.110223024625E-16,1.));
#1196 = DEFINITIONAL_REPRESENTATION('',(#1197),#1201);
#1197 = LINE('',#1198,#1199);
#1198 = CARTESIAN_POINT('',(6.43,1.411093464299E-15));
#1199 = VECTOR('',#1200,1.);
#1200 = DIRECTION('',(-2.22044604925E-16,-1.));
#1201 = ( GEOMETRIC_REPRESENTATION_CONTEXT(2) 
PARAMETRIC_REPRESENTATION_CONTEXT() REPRESENTATION_CONTEXT('2D SPACE',''
  ) );
#1202 = ORIENTED_EDGE('',*,*,#1203,.T.);
#1203 = EDGE_CURVE('',#1176,#1204,#1206,.T.);
#1204 = VERTEX_POINT('',#1205);
#1205 = CARTESIAN_POINT('',(23.4,-3.926858838099E-15,11.43));
#1206 = SURFACE_CURVE('',#1207,(#1211,#1218),.PCURVE_S1.);
#1207 = LINE('',#1208,#1209);
#1208 = CARTESIAN_POINT('',(23.4,-4.,11.43));
#1209 = VECTOR('',#1210,1.);
#1210 = DIRECTION('',(-2.22044604925E-16,1.,-5.551115123126E-16));
#1211 = PCURVE('',#503,#1212);
#1212 = DEFINITIONAL_REPRESENTATION('',(#1213),#1217);
#1213 = LINE('',#1214,#1215);
#1214 = CARTESIAN_POINT('',(-4.440892098501E-15,-4.));
#1215 = VECTOR('',#1216,1.);
#1216 = DIRECTION('',(1.,2.22044604925E-16));
#1217 = ( GEOMETRIC_REPRESENTATION_CONTEXT(2) 
PARAMETRIC_REPRESENTATION_CONTEXT() REPRESENTATION_CONTEXT('2D SPACE',''
  ) );
#1218 = PCURVE('',#692,#1219);
#1219 = DEFINITIONAL_REPRESENTATION('',(#1220),#1224);
#1220 = LINE('',#1221,#1222);
#1221 = CARTESIAN_POINT('',(8.863826806212,-21.81155469277));
#1222 = VECTOR('',#1223,1.);
#1223 = DIRECTION('',(-4.440892098501E-16,-1.));
#1224 = ( GEOMETRIC_REPRESENTATION_CONTEXT(2) 
PARAMETRIC_REPRESENTATION_CONTEXT() REPRESENTATION_CONTEXT('2D SPACE',''
  ) );
#1225 = ORIENTED_EDGE('',*,*,#1226,.F.);
#1226 = EDGE_CURVE('',#488,#1204,#1227,.T.);
#1227 = SURFACE_CURVE('',#1228,(#1232,#1239),.PCURVE_S1.);
#1228 = LINE('',#1229,#1230);
#1229 = CARTESIAN_POINT('',(19.4,-3.038680418399E-15,11.43));
#1230 = VECTOR('',#1231,1.);
#1231 = DIRECTION('',(1.,-2.22044604925E-16,1.110223024625E-16));
#1232 = PCURVE('',#503,#1233);
#1233 = DEFINITIONAL_REPRESENTATION('',(#1234),#1238);
#1234 = LINE('',#1235,#1236);
#1235 = CARTESIAN_POINT('',(4.,1.479114197289E-31));
#1236 = VECTOR('',#1237,1.);
#1237 = DIRECTION('',(-2.22044604925E-16,-1.));
#1238 = ( GEOMETRIC_REPRESENTATION_CONTEXT(2) 
PARAMETRIC_REPRESENTATION_CONTEXT() REPRESENTATION_CONTEXT('2D SPACE',''
  ) );
#1239 = PCURVE('',#1139,#1240);
#1240 = DEFINITIONAL_REPRESENTATION('',(#1241),#1245);
#1241 = LINE('',#1242,#1243);
#1242 = CARTESIAN_POINT('',(11.43,-2.542410726392E-16));
#1243 = VECTOR('',#1244,1.);
#1244 = DIRECTION('',(-2.22044604925E-16,-1.));
#1245 = ( GEOMETRIC_REPRESENTATION_CONTEXT(2) 
PARAMETRIC_REPRESENTATION_CONTEXT() REPRESENTATION_CONTEXT('2D SPACE',''
  ) );
#1246 = ORIENTED_EDGE('',*,*,#487,.F.);
#1247 = ADVANCED_FACE('',(#1248),#475,.T.);
#1248 = FACE_BOUND('',#1249,.T.);
#1249 = EDGE_LOOP('',(#1250,#1280,#1301,#1302));
#1250 = ORIENTED_EDGE('',*,*,#1251,.T.);
#1251 = EDGE_CURVE('',#1252,#1254,#1256,.T.);
#1252 = VERTEX_POINT('',#1253);
#1253 = CARTESIAN_POINT('',(-4.996003610813E-15,-4.,5.));
#1254 = VERTEX_POINT('',#1255);
#1255 = CARTESIAN_POINT('',(19.4,-4.,5.));
#1256 = SURFACE_CURVE('',#1257,(#1261,#1268),.PCURVE_S1.);
#1257 = LINE('',#1258,#1259);
#1258 = CARTESIAN_POINT('',(-5.440092820663E-15,-4.,5.));
#1259 = VECTOR('',#1260,1.);
#1260 = DIRECTION('',(1.,-1.110223024625E-15,-1.110223024625E-16));
#1261 = PCURVE('',#475,#1262);
#1262 = DEFINITIONAL_REPRESENTATION('',(#1263),#1267);
#1263 = LINE('',#1264,#1265);
#1264 = CARTESIAN_POINT('',(0.,0.));
#1265 = VECTOR('',#1266,1.);
#1266 = DIRECTION('',(-1.110223024625E-15,-1.));
#1267 = ( GEOMETRIC_REPRESENTATION_CONTEXT(2) 
PARAMETRIC_REPRESENTATION_CONTEXT() REPRESENTATION_CONTEXT('2D SPACE',''
  ) );
#1268 = PCURVE('',#1269,#1274);
#1269 = PLANE('',#1270);
#1270 = AXIS2_PLACEMENT_3D('',#1271,#1272,#1273);
#1271 = CARTESIAN_POINT('',(-3.896882816434E-15,-7.475,5.));
#1272 = DIRECTION('',(-1.221245327088E-15,1.110223024625E-16,1.));
#1273 = DIRECTION('',(-4.440892098501E-16,1.,-1.443289932013E-15));
#1274 = DEFINITIONAL_REPRESENTATION('',(#1275),#1279);
#1275 = LINE('',#1276,#1277);
#1276 = CARTESIAN_POINT('',(3.475,3.086420008458E-15));
#1277 = VECTOR('',#1278,1.);
#1278 = DIRECTION('',(-1.110223024625E-15,-1.));
#1279 = ( GEOMETRIC_REPRESENTATION_CONTEXT(2) 
PARAMETRIC_REPRESENTATION_CONTEXT() REPRESENTATION_CONTEXT('2D SPACE',''
  ) );
#1280 = ORIENTED_EDGE('',*,*,#1281,.T.);
#1281 = EDGE_CURVE('',#1254,#460,#1282,.T.);
#1282 = SURFACE_CURVE('',#1283,(#1287,#1294),.PCURVE_S1.);
#1283 = LINE('',#1284,#1285);
#1284 = CARTESIAN_POINT('',(19.4,-4.,5.));
#1285 = VECTOR('',#1286,1.);
#1286 = DIRECTION('',(-1.665334536938E-15,-3.330669073875E-16,1.));
#1287 = PCURVE('',#475,#1288);
#1288 = DEFINITIONAL_REPRESENTATION('',(#1289),#1293);
#1289 = LINE('',#1290,#1291);
#1290 = CARTESIAN_POINT('',(-4.780620344036E-14,-19.4));
#1291 = VECTOR('',#1292,1.);
#1292 = DIRECTION('',(1.,1.110223024625E-15));
#1293 = ( GEOMETRIC_REPRESENTATION_CONTEXT(2) 
PARAMETRIC_REPRESENTATION_CONTEXT() REPRESENTATION_CONTEXT('2D SPACE',''
  ) );
#1294 = PCURVE('',#1191,#1295);
#1295 = DEFINITIONAL_REPRESENTATION('',(#1296),#1300);
#1296 = LINE('',#1297,#1298);
#1297 = CARTESIAN_POINT('',(-2.04281036531E-14,-4.263256414561E-14));
#1298 = VECTOR('',#1299,1.);
#1299 = DIRECTION('',(1.,1.33226762955E-15));
#1300 = ( GEOMETRIC_REPRESENTATION_CONTEXT(2) 
PARAMETRIC_REPRESENTATION_CONTEXT() REPRESENTATION_CONTEXT('2D SPACE',''
  ) );
#1301 = ORIENTED_EDGE('',*,*,#459,.F.);
#1302 = ORIENTED_EDGE('',*,*,#1303,.F.);
#1303 = EDGE_CURVE('',#1252,#432,#1304,.T.);
#1304 = SURFACE_CURVE('',#1305,(#1309,#1316),.PCURVE_S1.);
#1305 = LINE('',#1306,#1307);
#1306 = CARTESIAN_POINT('',(-5.662137425588E-15,-4.,5.));
#1307 = VECTOR('',#1308,1.);
#1308 = DIRECTION('',(-1.665334536938E-15,-3.330669073875E-16,1.));
#1309 = PCURVE('',#475,#1310);
#1310 = DEFINITIONAL_REPRESENTATION('',(#1311),#1315);
#1311 = LINE('',#1312,#1313);
#1312 = CARTESIAN_POINT('',(3.552713678801E-15,2.22044604925E-16));
#1313 = VECTOR('',#1314,1.);
#1314 = DIRECTION('',(1.,1.110223024625E-15));
#1315 = ( GEOMETRIC_REPRESENTATION_CONTEXT(2) 
PARAMETRIC_REPRESENTATION_CONTEXT() REPRESENTATION_CONTEXT('2D SPACE',''
  ) );
#1316 = PCURVE('',#447,#1317);
#1317 = DEFINITIONAL_REPRESENTATION('',(#1318),#1322);
#1318 = LINE('',#1319,#1320);
#1319 = CARTESIAN_POINT('',(-0.715,-21.));
#1320 = VECTOR('',#1321,1.);
#1321 = DIRECTION('',(1.,9.992007221626E-16));
#1322 = ( GEOMETRIC_REPRESENTATION_CONTEXT(2) 
PARAMETRIC_REPRESENTATION_CONTEXT() REPRESENTATION_CONTEXT('2D SPACE',''
  ) );
#1323 = ADVANCED_FACE('',(#1324),#419,.T.);
#1324 = FACE_BOUND('',#1325,.T.);
#1325 = EDGE_LOOP('',(#1326,#1327,#1350,#1373));
#1326 = ORIENTED_EDGE('',*,*,#403,.T.);
#1327 = ORIENTED_EDGE('',*,*,#1328,.T.);
#1328 = EDGE_CURVE('',#381,#1329,#1331,.T.);
#1329 = VERTEX_POINT('',#1330);
#1330 = CARTESIAN_POINT('',(19.4,-7.475,5.));
#1331 = SURFACE_CURVE('',#1332,(#1336,#1343),.PCURVE_S1.);
#1332 = LINE('',#1333,#1334);
#1333 = CARTESIAN_POINT('',(19.4,-7.475,11.43));
#1334 = VECTOR('',#1335,1.);
#1335 = DIRECTION('',(1.665334536938E-15,3.330669073875E-16,-1.));
#1336 = PCURVE('',#419,#1337);
#1337 = DEFINITIONAL_REPRESENTATION('',(#1338),#1342);
#1338 = LINE('',#1339,#1340);
#1339 = CARTESIAN_POINT('',(4.425348976156E-14,-19.4));
#1340 = VECTOR('',#1341,1.);
#1341 = DIRECTION('',(1.,-1.110223024625E-15));
#1342 = ( GEOMETRIC_REPRESENTATION_CONTEXT(2) 
PARAMETRIC_REPRESENTATION_CONTEXT() REPRESENTATION_CONTEXT('2D SPACE',''
  ) );
#1343 = PCURVE('',#718,#1344);
#1344 = DEFINITIONAL_REPRESENTATION('',(#1345),#1349);
#1345 = LINE('',#1346,#1347);
#1346 = CARTESIAN_POINT('',(5.329070518201E-15,-3.552713678801E-14));
#1347 = VECTOR('',#1348,1.);
#1348 = DIRECTION('',(1.,-1.33226762955E-15));
#1349 = ( GEOMETRIC_REPRESENTATION_CONTEXT(2) 
PARAMETRIC_REPRESENTATION_CONTEXT() REPRESENTATION_CONTEXT('2D SPACE',''
  ) );
#1350 = ORIENTED_EDGE('',*,*,#1351,.F.);
#1351 = EDGE_CURVE('',#1352,#1329,#1354,.T.);
#1352 = VERTEX_POINT('',#1353);
#1353 = CARTESIAN_POINT('',(-4.996003610813E-15,-7.475,5.));
#1354 = SURFACE_CURVE('',#1355,(#1359,#1366),.PCURVE_S1.);
#1355 = LINE('',#1356,#1357);
#1356 = CARTESIAN_POINT('',(-3.896882816434E-15,-7.475,5.));
#1357 = VECTOR('',#1358,1.);
#1358 = DIRECTION('',(1.,-1.110223024625E-15,-1.110223024625E-16));
#1359 = PCURVE('',#419,#1360);
#1360 = DEFINITIONAL_REPRESENTATION('',(#1361),#1365);
#1361 = LINE('',#1362,#1363);
#1362 = CARTESIAN_POINT('',(6.43,-5.710987238672E-15));
#1363 = VECTOR('',#1364,1.);
#1364 = DIRECTION('',(1.110223024625E-15,-1.));
#1365 = ( GEOMETRIC_REPRESENTATION_CONTEXT(2) 
PARAMETRIC_REPRESENTATION_CONTEXT() REPRESENTATION_CONTEXT('2D SPACE',''
  ) );
#1366 = PCURVE('',#1269,#1367);
#1367 = DEFINITIONAL_REPRESENTATION('',(#1368),#1372);
#1368 = LINE('',#1369,#1370);
#1369 = CARTESIAN_POINT('',(0.,0.));
#1370 = VECTOR('',#1371,1.);
#1371 = DIRECTION('',(-1.110223024625E-15,-1.));
#1372 = ( GEOMETRIC_REPRESENTATION_CONTEXT(2) 
PARAMETRIC_REPRESENTATION_CONTEXT() REPRESENTATION_CONTEXT('2D SPACE',''
  ) );
#1373 = ORIENTED_EDGE('',*,*,#1374,.F.);
#1374 = EDGE_CURVE('',#404,#1352,#1375,.T.);
#1375 = SURFACE_CURVE('',#1376,(#1380,#1387),.PCURVE_S1.);
#1376 = LINE('',#1377,#1378);
#1377 = CARTESIAN_POINT('',(-1.405542349175E-14,-7.475,11.43));
#1378 = VECTOR('',#1379,1.);
#1379 = DIRECTION('',(1.665334536938E-15,3.330669073875E-16,-1.));
#1380 = PCURVE('',#419,#1381);
#1381 = DEFINITIONAL_REPRESENTATION('',(#1382),#1386);
#1382 = LINE('',#1383,#1384);
#1383 = CARTESIAN_POINT('',(-7.105427357601E-15,8.781864124785E-16));
#1384 = VECTOR('',#1385,1.);
#1385 = DIRECTION('',(1.,-1.110223024625E-15));
#1386 = ( GEOMETRIC_REPRESENTATION_CONTEXT(2) 
PARAMETRIC_REPRESENTATION_CONTEXT() REPRESENTATION_CONTEXT('2D SPACE',''
  ) );
#1387 = PCURVE('',#447,#1388);
#1388 = DEFINITIONAL_REPRESENTATION('',(#1389),#1393);
#1389 = LINE('',#1390,#1391);
#1390 = CARTESIAN_POINT('',(5.715,-17.525));
#1391 = VECTOR('',#1392,1.);
#1392 = DIRECTION('',(-1.,-9.992007221626E-16));
#1393 = ( GEOMETRIC_REPRESENTATION_CONTEXT(2) 
PARAMETRIC_REPRESENTATION_CONTEXT() REPRESENTATION_CONTEXT('2D SPACE',''
  ) );
#1394 = ADVANCED_FACE('',(#1395),#447,.T.);
#1395 = FACE_BOUND('',#1396,.T.);
#1396 = EDGE_LOOP('',(#1397,#1398,#1399,#1420));
#1397 = ORIENTED_EDGE('',*,*,#431,.F.);
#1398 = ORIENTED_EDGE('',*,*,#1374,.T.);
#1399 = ORIENTED_EDGE('',*,*,#1400,.T.);
#1400 = EDGE_CURVE('',#1352,#1252,#1401,.T.);
#1401 = SURFACE_CURVE('',#1402,(#1406,#1413),.PCURVE_S1.);
#1402 = LINE('',#1403,#1404);
#1403 = CARTESIAN_POINT('',(-3.347322419245E-15,-7.475,5.));
#1404 = VECTOR('',#1405,1.);
#1405 = DIRECTION('',(-6.661338147751E-16,1.,-1.665334536938E-15));
#1406 = PCURVE('',#447,#1407);
#1407 = DEFINITIONAL_REPRESENTATION('',(#1408),#1412);
#1408 = LINE('',#1409,#1410);
#1409 = CARTESIAN_POINT('',(-0.715,-17.525));
#1410 = VECTOR('',#1411,1.);
#1411 = DIRECTION('',(-1.443289932013E-15,-1.));
#1412 = ( GEOMETRIC_REPRESENTATION_CONTEXT(2) 
PARAMETRIC_REPRESENTATION_CONTEXT() REPRESENTATION_CONTEXT('2D SPACE',''
  ) );
#1413 = PCURVE('',#1269,#1414);
#1414 = DEFINITIONAL_REPRESENTATION('',(#1415),#1419);
#1415 = LINE('',#1416,#1417);
#1416 = CARTESIAN_POINT('',(-4.440892098501E-15,-5.495603971895E-16));
#1417 = VECTOR('',#1418,1.);
#1418 = DIRECTION('',(1.,1.110223024625E-15));
#1419 = ( GEOMETRIC_REPRESENTATION_CONTEXT(2) 
PARAMETRIC_REPRESENTATION_CONTEXT() REPRESENTATION_CONTEXT('2D SPACE',''
  ) );
#1420 = ORIENTED_EDGE('',*,*,#1303,.T.);
#1421 = ADVANCED_FACE('',(#1422),#590,.T.);
#1422 = FACE_BOUND('',#1423,.F.);
#1423 = EDGE_LOOP('',(#1424,#1447,#1448,#1449));
#1424 = ORIENTED_EDGE('',*,*,#1425,.F.);
#1425 = EDGE_CURVE('',#913,#1426,#1428,.T.);
#1426 = VERTEX_POINT('',#1427);
#1427 = CARTESIAN_POINT('',(21.4,-50.,11.43));
#1428 = SURFACE_CURVE('',#1429,(#1433,#1440),.PCURVE_S1.);
#1429 = LINE('',#1430,#1431);
#1430 = CARTESIAN_POINT('',(20.4,-50.,10.43));
#1431 = VECTOR('',#1432,1.);
#1432 = DIRECTION('',(0.707106781187,-7.850462293419E-17,0.707106781187)
  );
#1433 = PCURVE('',#590,#1434);
#1434 = DEFINITIONAL_REPRESENTATION('',(#1435),#1439);
#1435 = LINE('',#1436,#1437);
#1436 = CARTESIAN_POINT('',(-1.183291357832E-30,-5.024295867788E-15));
#1437 = VECTOR('',#1438,1.);
#1438 = DIRECTION('',(3.140184917368E-16,1.));
#1439 = ( GEOMETRIC_REPRESENTATION_CONTEXT(2) 
PARAMETRIC_REPRESENTATION_CONTEXT() REPRESENTATION_CONTEXT('2D SPACE',''
  ) );
#1440 = PCURVE('',#930,#1441);
#1441 = DEFINITIONAL_REPRESENTATION('',(#1442),#1446);
#1442 = LINE('',#1443,#1444);
#1443 = CARTESIAN_POINT('',(1.,-1.));
#1444 = VECTOR('',#1445,1.);
#1445 = DIRECTION('',(-0.707106781187,-0.707106781187));
#1446 = ( GEOMETRIC_REPRESENTATION_CONTEXT(2) 
PARAMETRIC_REPRESENTATION_CONTEXT() REPRESENTATION_CONTEXT('2D SPACE',''
  ) );
#1447 = ORIENTED_EDGE('',*,*,#1050,.T.);
#1448 = ORIENTED_EDGE('',*,*,#572,.T.);
#1449 = ORIENTED_EDGE('',*,*,#1450,.F.);
#1450 = EDGE_CURVE('',#1426,#575,#1451,.T.);
#1451 = SURFACE_CURVE('',#1452,(#1456,#1463),.PCURVE_S1.);
#1452 = LINE('',#1453,#1454);
#1453 = CARTESIAN_POINT('',(21.4,-50.,11.43));
#1454 = VECTOR('',#1455,1.);
#1455 = DIRECTION('',(2.465190328816E-32,1.,-3.330669073875E-16));
#1456 = PCURVE('',#590,#1457);
#1457 = DEFINITIONAL_REPRESENTATION('',(#1458),#1462);
#1458 = LINE('',#1459,#1460);
#1459 = CARTESIAN_POINT('',(3.330669073875E-16,1.414213562373));
#1460 = VECTOR('',#1461,1.);
#1461 = DIRECTION('',(-1.,4.930380657631E-32));
#1462 = ( GEOMETRIC_REPRESENTATION_CONTEXT(2) 
PARAMETRIC_REPRESENTATION_CONTEXT() REPRESENTATION_CONTEXT('2D SPACE',''
  ) );
#1463 = PCURVE('',#664,#1464);
#1464 = DEFINITIONAL_REPRESENTATION('',(#1465),#1469);
#1465 = LINE('',#1466,#1467);
#1466 = CARTESIAN_POINT('',(4.,-2.));
#1467 = VECTOR('',#1468,1.);
#1468 = DIRECTION('',(-1.,0.));
#1469 = ( GEOMETRIC_REPRESENTATION_CONTEXT(2) 
PARAMETRIC_REPRESENTATION_CONTEXT() REPRESENTATION_CONTEXT('2D SPACE',''
  ) );
#1470 = ADVANCED_FACE('',(#1471),#664,.F.);
#1471 = FACE_BOUND('',#1472,.F.);
#1472 = EDGE_LOOP('',(#1473,#1474,#1497,#1518));
#1473 = ORIENTED_EDGE('',*,*,#648,.T.);
#1474 = ORIENTED_EDGE('',*,*,#1475,.T.);
#1475 = EDGE_CURVE('',#649,#1476,#1478,.T.);
#1476 = VERTEX_POINT('',#1477);
#1477 = CARTESIAN_POINT('',(23.4,-50.,11.43));
#1478 = SURFACE_CURVE('',#1479,(#1483,#1490),.PCURVE_S1.);
#1479 = LINE('',#1480,#1481);
#1480 = CARTESIAN_POINT('',(23.4,-46.,11.43));
#1481 = VECTOR('',#1482,1.);
#1482 = DIRECTION('',(2.22044604925E-16,-1.,5.551115123126E-16));
#1483 = PCURVE('',#664,#1484);
#1484 = DEFINITIONAL_REPRESENTATION('',(#1485),#1489);
#1485 = LINE('',#1486,#1487);
#1486 = CARTESIAN_POINT('',(2.13162820728E-14,-4.));
#1487 = VECTOR('',#1488,1.);
#1488 = DIRECTION('',(1.,-2.22044604925E-16));
#1489 = ( GEOMETRIC_REPRESENTATION_CONTEXT(2) 
PARAMETRIC_REPRESENTATION_CONTEXT() REPRESENTATION_CONTEXT('2D SPACE',''
  ) );
#1490 = PCURVE('',#692,#1491);
#1491 = DEFINITIONAL_REPRESENTATION('',(#1492),#1496);
#1492 = LINE('',#1493,#1494);
#1493 = CARTESIAN_POINT('',(8.863826806212,20.188445307225));
#1494 = VECTOR('',#1495,1.);
#1495 = DIRECTION('',(4.440892098501E-16,1.));
#1496 = ( GEOMETRIC_REPRESENTATION_CONTEXT(2) 
PARAMETRIC_REPRESENTATION_CONTEXT() REPRESENTATION_CONTEXT('2D SPACE',''
  ) );
#1497 = ORIENTED_EDGE('',*,*,#1498,.F.);
#1498 = EDGE_CURVE('',#1426,#1476,#1499,.T.);
#1499 = SURFACE_CURVE('',#1500,(#1504,#1511),.PCURVE_S1.);
#1500 = LINE('',#1501,#1502);
#1501 = CARTESIAN_POINT('',(19.4,-50.,11.43));
#1502 = VECTOR('',#1503,1.);
#1503 = DIRECTION('',(1.,-2.22044604925E-16,1.110223024625E-16));
#1504 = PCURVE('',#664,#1505);
#1505 = DEFINITIONAL_REPRESENTATION('',(#1506),#1510);
#1506 = LINE('',#1507,#1508);
#1507 = CARTESIAN_POINT('',(4.,-1.479114197289E-31));
#1508 = VECTOR('',#1509,1.);
#1509 = DIRECTION('',(2.22044604925E-16,-1.));
#1510 = ( GEOMETRIC_REPRESENTATION_CONTEXT(2) 
PARAMETRIC_REPRESENTATION_CONTEXT() REPRESENTATION_CONTEXT('2D SPACE',''
  ) );
#1511 = PCURVE('',#930,#1512);
#1512 = DEFINITIONAL_REPRESENTATION('',(#1513),#1517);
#1513 = LINE('',#1514,#1515);
#1514 = CARTESIAN_POINT('',(0.,0.));
#1515 = VECTOR('',#1516,1.);
#1516 = DIRECTION('',(2.22044604925E-16,-1.));
#1517 = ( GEOMETRIC_REPRESENTATION_CONTEXT(2) 
PARAMETRIC_REPRESENTATION_CONTEXT() REPRESENTATION_CONTEXT('2D SPACE',''
  ) );
#1518 = ORIENTED_EDGE('',*,*,#1450,.T.);
#1519 = ADVANCED_FACE('',(#1520),#692,.T.);
#1520 = FACE_BOUND('',#1521,.T.);
#1521 = EDGE_LOOP('',(#1522,#1523,#1524,#1547,#1570,#1593,#1616,#1637,
    #1638,#1661,#1689));
#1522 = ORIENTED_EDGE('',*,*,#676,.F.);
#1523 = ORIENTED_EDGE('',*,*,#1475,.T.);
#1524 = ORIENTED_EDGE('',*,*,#1525,.T.);
#1525 = EDGE_CURVE('',#1476,#1526,#1528,.T.);
#1526 = VERTEX_POINT('',#1527);
#1527 = CARTESIAN_POINT('',(23.4,-50.,-4.));
#1528 = SURFACE_CURVE('',#1529,(#1533,#1540),.PCURVE_S1.);
#1529 = LINE('',#1530,#1531);
#1530 = CARTESIAN_POINT('',(23.4,-50.,11.43));
#1531 = VECTOR('',#1532,1.);
#1532 = DIRECTION('',(5.551115123126E-16,1.110223024625E-16,-1.));
#1533 = PCURVE('',#692,#1534);
#1534 = DEFINITIONAL_REPRESENTATION('',(#1535),#1539);
#1535 = LINE('',#1536,#1537);
#1536 = CARTESIAN_POINT('',(8.863826806212,24.188445307225));
#1537 = VECTOR('',#1538,1.);
#1538 = DIRECTION('',(-1.,-4.440892098501E-16));
#1539 = ( GEOMETRIC_REPRESENTATION_CONTEXT(2) 
PARAMETRIC_REPRESENTATION_CONTEXT() REPRESENTATION_CONTEXT('2D SPACE',''
  ) );
#1540 = PCURVE('',#930,#1541);
#1541 = DEFINITIONAL_REPRESENTATION('',(#1542),#1546);
#1542 = LINE('',#1543,#1544);
#1543 = CARTESIAN_POINT('',(-2.22044604925E-15,-4.));
#1544 = VECTOR('',#1545,1.);
#1545 = DIRECTION('',(1.,-2.22044604925E-16));
#1546 = ( GEOMETRIC_REPRESENTATION_CONTEXT(2) 
PARAMETRIC_REPRESENTATION_CONTEXT() REPRESENTATION_CONTEXT('2D SPACE',''
  ) );
#1547 = ORIENTED_EDGE('',*,*,#1548,.T.);
#1548 = EDGE_CURVE('',#1526,#1549,#1551,.T.);
#1549 = VERTEX_POINT('',#1550);
#1550 = CARTESIAN_POINT('',(23.4,-46.,-4.));
#1551 = SURFACE_CURVE('',#1552,(#1556,#1563),.PCURVE_S1.);
#1552 = LINE('',#1553,#1554);
#1553 = CARTESIAN_POINT('',(23.4,-50.,-4.));
#1554 = VECTOR('',#1555,1.);
#1555 = DIRECTION('',(-2.22044604925E-16,1.,-5.551115123126E-16));
#1556 = PCURVE('',#692,#1557);
#1557 = DEFINITIONAL_REPRESENTATION('',(#1558),#1562);
#1558 = LINE('',#1559,#1560);
#1559 = CARTESIAN_POINT('',(-6.566173193788,24.188445307225));
#1560 = VECTOR('',#1561,1.);
#1561 = DIRECTION('',(-4.440892098501E-16,-1.));
#1562 = ( GEOMETRIC_REPRESENTATION_CONTEXT(2) 
PARAMETRIC_REPRESENTATION_CONTEXT() REPRESENTATION_CONTEXT('2D SPACE',''
  ) );
#1563 = PCURVE('',#958,#1564);
#1564 = DEFINITIONAL_REPRESENTATION('',(#1565),#1569);
#1565 = LINE('',#1566,#1567);
#1566 = CARTESIAN_POINT('',(-2.13162820728E-14,-4.));
#1567 = VECTOR('',#1568,1.);
#1568 = DIRECTION('',(1.,2.22044604925E-16));
#1569 = ( GEOMETRIC_REPRESENTATION_CONTEXT(2) 
PARAMETRIC_REPRESENTATION_CONTEXT() REPRESENTATION_CONTEXT('2D SPACE',''
  ) );
#1570 = ORIENTED_EDGE('',*,*,#1571,.T.);
#1571 = EDGE_CURVE('',#1549,#1572,#1574,.T.);
#1572 = VERTEX_POINT('',#1573);
#1573 = CARTESIAN_POINT('',(23.4,-5.639932965096E-15,-4.));
#1574 = SURFACE_CURVE('',#1575,(#1579,#1586),.PCURVE_S1.);
#1575 = LINE('',#1576,#1577);
#1576 = CARTESIAN_POINT('',(23.4,-46.,-4.));
#1577 = VECTOR('',#1578,1.);
#1578 = DIRECTION('',(-2.22044604925E-16,1.,-5.551115123126E-16));
#1579 = PCURVE('',#692,#1580);
#1580 = DEFINITIONAL_REPRESENTATION('',(#1581),#1585);
#1581 = LINE('',#1582,#1583);
#1582 = CARTESIAN_POINT('',(-6.566173193788,20.188445307225));
#1583 = VECTOR('',#1584,1.);
#1584 = DIRECTION('',(-4.440892098501E-16,-1.));
#1585 = ( GEOMETRIC_REPRESENTATION_CONTEXT(2) 
PARAMETRIC_REPRESENTATION_CONTEXT() REPRESENTATION_CONTEXT('2D SPACE',''
  ) );
#1586 = PCURVE('',#986,#1587);
#1587 = DEFINITIONAL_REPRESENTATION('',(#1588),#1592);
#1588 = LINE('',#1589,#1590);
#1589 = CARTESIAN_POINT('',(-2.13162820728E-14,-4.));
#1590 = VECTOR('',#1591,1.);
#1591 = DIRECTION('',(1.,2.22044604925E-16));
#1592 = ( GEOMETRIC_REPRESENTATION_CONTEXT(2) 
PARAMETRIC_REPRESENTATION_CONTEXT() REPRESENTATION_CONTEXT('2D SPACE',''
  ) );
#1593 = ORIENTED_EDGE('',*,*,#1594,.T.);
#1594 = EDGE_CURVE('',#1572,#1595,#1597,.T.);
#1595 = VERTEX_POINT('',#1596);
#1596 = CARTESIAN_POINT('',(23.4,-5.195843755246E-15,2.597921877623E-15)
  );
#1597 = SURFACE_CURVE('',#1598,(#1602,#1609),.PCURVE_S1.);
#1598 = LINE('',#1599,#1600);
#1599 = CARTESIAN_POINT('',(23.4,-4.751754545396E-15,-4.));
#1600 = VECTOR('',#1601,1.);
#1601 = DIRECTION('',(-5.551115123126E-16,-1.110223024625E-16,1.));
#1602 = PCURVE('',#692,#1603);
#1603 = DEFINITIONAL_REPRESENTATION('',(#1604),#1608);
#1604 = LINE('',#1605,#1606);
#1605 = CARTESIAN_POINT('',(-6.566173193788,-25.81155469277));
#1606 = VECTOR('',#1607,1.);
#1607 = DIRECTION('',(1.,4.440892098501E-16));
#1608 = ( GEOMETRIC_REPRESENTATION_CONTEXT(2) 
PARAMETRIC_REPRESENTATION_CONTEXT() REPRESENTATION_CONTEXT('2D SPACE',''
  ) );
#1609 = PCURVE('',#1014,#1610);
#1610 = DEFINITIONAL_REPRESENTATION('',(#1611),#1615);
#1611 = LINE('',#1612,#1613);
#1612 = CARTESIAN_POINT('',(-2.04281036531E-14,-4.));
#1613 = VECTOR('',#1614,1.);
#1614 = DIRECTION('',(1.,2.22044604925E-16));
#1615 = ( GEOMETRIC_REPRESENTATION_CONTEXT(2) 
PARAMETRIC_REPRESENTATION_CONTEXT() REPRESENTATION_CONTEXT('2D SPACE',''
  ) );
#1616 = ORIENTED_EDGE('',*,*,#1617,.T.);
#1617 = EDGE_CURVE('',#1595,#1204,#1618,.T.);
#1618 = SURFACE_CURVE('',#1619,(#1623,#1630),.PCURVE_S1.);
#1619 = LINE('',#1620,#1621);
#1620 = CARTESIAN_POINT('',(23.4,-5.195843755246E-15,-1.06581410364E-14)
  );
#1621 = VECTOR('',#1622,1.);
#1622 = DIRECTION('',(-5.551115123126E-16,-1.110223024625E-16,1.));
#1623 = PCURVE('',#692,#1624);
#1624 = DEFINITIONAL_REPRESENTATION('',(#1625),#1629);
#1625 = LINE('',#1626,#1627);
#1626 = CARTESIAN_POINT('',(-2.566173193788,-25.81155469277));
#1627 = VECTOR('',#1628,1.);
#1628 = DIRECTION('',(1.,4.440892098501E-16));
#1629 = ( GEOMETRIC_REPRESENTATION_CONTEXT(2) 
PARAMETRIC_REPRESENTATION_CONTEXT() REPRESENTATION_CONTEXT('2D SPACE',''
  ) );
#1630 = PCURVE('',#1139,#1631);
#1631 = DEFINITIONAL_REPRESENTATION('',(#1632),#1636);
#1632 = LINE('',#1633,#1634);
#1633 = CARTESIAN_POINT('',(-1.414424133372E-14,-4.));
#1634 = VECTOR('',#1635,1.);
#1635 = DIRECTION('',(1.,2.22044604925E-16));
#1636 = ( GEOMETRIC_REPRESENTATION_CONTEXT(2) 
PARAMETRIC_REPRESENTATION_CONTEXT() REPRESENTATION_CONTEXT('2D SPACE',''
  ) );
#1637 = ORIENTED_EDGE('',*,*,#1203,.F.);
#1638 = ORIENTED_EDGE('',*,*,#1639,.F.);
#1639 = EDGE_CURVE('',#1640,#1176,#1642,.T.);
#1640 = VERTEX_POINT('',#1641);
#1641 = CARTESIAN_POINT('',(23.4,-4.,5.));
#1642 = SURFACE_CURVE('',#1643,(#1647,#1654),.PCURVE_S1.);
#1643 = LINE('',#1644,#1645);
#1644 = CARTESIAN_POINT('',(23.4,-4.,5.));
#1645 = VECTOR('',#1646,1.);
#1646 = DIRECTION('',(-5.551115123126E-16,-1.110223024625E-16,1.));
#1647 = PCURVE('',#692,#1648);
#1648 = DEFINITIONAL_REPRESENTATION('',(#1649),#1653);
#1649 = LINE('',#1650,#1651);
#1650 = CARTESIAN_POINT('',(2.433826806212,-21.81155469277));
#1651 = VECTOR('',#1652,1.);
#1652 = DIRECTION('',(1.,4.440892098501E-16));
#1653 = ( GEOMETRIC_REPRESENTATION_CONTEXT(2) 
PARAMETRIC_REPRESENTATION_CONTEXT() REPRESENTATION_CONTEXT('2D SPACE',''
  ) );
#1654 = PCURVE('',#1191,#1655);
#1655 = DEFINITIONAL_REPRESENTATION('',(#1656),#1660);
#1656 = LINE('',#1657,#1658);
#1657 = CARTESIAN_POINT('',(-1.287858708565E-14,-4.));
#1658 = VECTOR('',#1659,1.);
#1659 = DIRECTION('',(1.,2.22044604925E-16));
#1660 = ( GEOMETRIC_REPRESENTATION_CONTEXT(2) 
PARAMETRIC_REPRESENTATION_CONTEXT() REPRESENTATION_CONTEXT('2D SPACE',''
  ) );
#1661 = ORIENTED_EDGE('',*,*,#1662,.F.);
#1662 = EDGE_CURVE('',#1663,#1640,#1665,.T.);
#1663 = VERTEX_POINT('',#1664);
#1664 = CARTESIAN_POINT('',(23.4,-7.475,5.));
#1665 = SURFACE_CURVE('',#1666,(#1670,#1677),.PCURVE_S1.);
#1666 = LINE('',#1667,#1668);
#1667 = CARTESIAN_POINT('',(23.4,-7.475,5.));
#1668 = VECTOR('',#1669,1.);
#1669 = DIRECTION('',(-2.22044604925E-16,1.,-5.551115123126E-16));
#1670 = PCURVE('',#692,#1671);
#1671 = DEFINITIONAL_REPRESENTATION('',(#1672),#1676);
#1672 = LINE('',#1673,#1674);
#1673 = CARTESIAN_POINT('',(2.433826806212,-18.33655469277));
#1674 = VECTOR('',#1675,1.);
#1675 = DIRECTION('',(-4.440892098501E-16,-1.));
#1676 = ( GEOMETRIC_REPRESENTATION_CONTEXT(2) 
PARAMETRIC_REPRESENTATION_CONTEXT() REPRESENTATION_CONTEXT('2D SPACE',''
  ) );
#1677 = PCURVE('',#1678,#1683);
#1678 = PLANE('',#1679);
#1679 = AXIS2_PLACEMENT_3D('',#1680,#1681,#1682);
#1680 = CARTESIAN_POINT('',(19.4,-7.475,5.));
#1681 = DIRECTION('',(-1.110223024625E-16,3.330669073875E-16,1.));
#1682 = DIRECTION('',(2.465190328816E-32,1.,-3.330669073875E-16));
#1683 = DEFINITIONAL_REPRESENTATION('',(#1684),#1688);
#1684 = LINE('',#1685,#1686);
#1685 = CARTESIAN_POINT('',(-6.217248937901E-15,-4.));
#1686 = VECTOR('',#1687,1.);
#1687 = DIRECTION('',(1.,2.22044604925E-16));
#1688 = ( GEOMETRIC_REPRESENTATION_CONTEXT(2) 
PARAMETRIC_REPRESENTATION_CONTEXT() REPRESENTATION_CONTEXT('2D SPACE',''
  ) );
#1689 = ORIENTED_EDGE('',*,*,#1690,.F.);
#1690 = EDGE_CURVE('',#677,#1663,#1691,.T.);
#1691 = SURFACE_CURVE('',#1692,(#1696,#1703),.PCURVE_S1.);
#1692 = LINE('',#1693,#1694);
#1693 = CARTESIAN_POINT('',(23.4,-7.475,11.43));
#1694 = VECTOR('',#1695,1.);
#1695 = DIRECTION('',(5.551115123126E-16,1.110223024625E-16,-1.));
#1696 = PCURVE('',#692,#1697);
#1697 = DEFINITIONAL_REPRESENTATION('',(#1698),#1702);
#1698 = LINE('',#1699,#1700);
#1699 = CARTESIAN_POINT('',(8.863826806212,-18.33655469277));
#1700 = VECTOR('',#1701,1.);
#1701 = DIRECTION('',(-1.,-4.440892098501E-16));
#1702 = ( GEOMETRIC_REPRESENTATION_CONTEXT(2) 
PARAMETRIC_REPRESENTATION_CONTEXT() REPRESENTATION_CONTEXT('2D SPACE',''
  ) );
#1703 = PCURVE('',#718,#1704);
#1704 = DEFINITIONAL_REPRESENTATION('',(#1705),#1709);
#1705 = LINE('',#1706,#1707);
#1706 = CARTESIAN_POINT('',(6.661338147751E-15,-4.));
#1707 = VECTOR('',#1708,1.);
#1708 = DIRECTION('',(1.,-2.22044604925E-16));
#1709 = ( GEOMETRIC_REPRESENTATION_CONTEXT(2) 
PARAMETRIC_REPRESENTATION_CONTEXT() REPRESENTATION_CONTEXT('2D SPACE',''
  ) );
#1710 = ADVANCED_FACE('',(#1711),#718,.T.);
#1711 = FACE_BOUND('',#1712,.T.);
#1712 = EDGE_LOOP('',(#1713,#1714,#1715,#1736));
#1713 = ORIENTED_EDGE('',*,*,#704,.T.);
#1714 = ORIENTED_EDGE('',*,*,#1690,.T.);
#1715 = ORIENTED_EDGE('',*,*,#1716,.F.);
#1716 = EDGE_CURVE('',#1329,#1663,#1717,.T.);
#1717 = SURFACE_CURVE('',#1718,(#1722,#1729),.PCURVE_S1.);
#1718 = LINE('',#1719,#1720);
#1719 = CARTESIAN_POINT('',(19.4,-7.475,5.));
#1720 = VECTOR('',#1721,1.);
#1721 = DIRECTION('',(1.,-2.22044604925E-16,1.110223024625E-16));
#1722 = PCURVE('',#718,#1723);
#1723 = DEFINITIONAL_REPRESENTATION('',(#1724),#1728);
#1724 = LINE('',#1725,#1726);
#1725 = CARTESIAN_POINT('',(6.43,-1.411093464299E-15));
#1726 = VECTOR('',#1727,1.);
#1727 = DIRECTION('',(2.22044604925E-16,-1.));
#1728 = ( GEOMETRIC_REPRESENTATION_CONTEXT(2) 
PARAMETRIC_REPRESENTATION_CONTEXT() REPRESENTATION_CONTEXT('2D SPACE',''
  ) );
#1729 = PCURVE('',#1678,#1730);
#1730 = DEFINITIONAL_REPRESENTATION('',(#1731),#1735);
#1731 = LINE('',#1732,#1733);
#1732 = CARTESIAN_POINT('',(0.,-0.));
#1733 = VECTOR('',#1734,1.);
#1734 = DIRECTION('',(-2.22044604925E-16,-1.));
#1735 = ( GEOMETRIC_REPRESENTATION_CONTEXT(2) 
PARAMETRIC_REPRESENTATION_CONTEXT() REPRESENTATION_CONTEXT('2D SPACE',''
  ) );
#1736 = ORIENTED_EDGE('',*,*,#1328,.F.);
#1737 = ADVANCED_FACE('',(#1738),#776,.T.);
#1738 = FACE_BOUND('',#1739,.T.);
#1739 = EDGE_LOOP('',(#1740,#1741,#1742,#1743,#1744,#1745));
#1740 = ORIENTED_EDGE('',*,*,#888,.F.);
#1741 = ORIENTED_EDGE('',*,*,#814,.F.);
#1742 = ORIENTED_EDGE('',*,*,#760,.T.);
#1743 = ORIENTED_EDGE('',*,*,#1075,.T.);
#1744 = ORIENTED_EDGE('',*,*,#1151,.T.);
#1745 = ORIENTED_EDGE('',*,*,#1026,.F.);
#1746 = ADVANCED_FACE('',(#1747),#930,.F.);
#1747 = FACE_BOUND('',#1748,.F.);
#1748 = EDGE_LOOP('',(#1749,#1750,#1751,#1772,#1773));
#1749 = ORIENTED_EDGE('',*,*,#1498,.T.);
#1750 = ORIENTED_EDGE('',*,*,#1525,.T.);
#1751 = ORIENTED_EDGE('',*,*,#1752,.F.);
#1752 = EDGE_CURVE('',#915,#1526,#1753,.T.);
#1753 = SURFACE_CURVE('',#1754,(#1758,#1765),.PCURVE_S1.);
#1754 = LINE('',#1755,#1756);
#1755 = CARTESIAN_POINT('',(19.4,-50.,-4.));
#1756 = VECTOR('',#1757,1.);
#1757 = DIRECTION('',(1.,-2.22044604925E-16,1.110223024625E-16));
#1758 = PCURVE('',#930,#1759);
#1759 = DEFINITIONAL_REPRESENTATION('',(#1760),#1764);
#1760 = LINE('',#1761,#1762);
#1761 = CARTESIAN_POINT('',(15.43,1.586508702189E-15));
#1762 = VECTOR('',#1763,1.);
#1763 = DIRECTION('',(2.22044604925E-16,-1.));
#1764 = ( GEOMETRIC_REPRESENTATION_CONTEXT(2) 
PARAMETRIC_REPRESENTATION_CONTEXT() REPRESENTATION_CONTEXT('2D SPACE',''
  ) );
#1765 = PCURVE('',#958,#1766);
#1766 = DEFINITIONAL_REPRESENTATION('',(#1767),#1771);
#1767 = LINE('',#1768,#1769);
#1768 = CARTESIAN_POINT('',(0.,-0.));
#1769 = VECTOR('',#1770,1.);
#1770 = DIRECTION('',(-2.22044604925E-16,-1.));
#1771 = ( GEOMETRIC_REPRESENTATION_CONTEXT(2) 
PARAMETRIC_REPRESENTATION_CONTEXT() REPRESENTATION_CONTEXT('2D SPACE',''
  ) );
#1772 = ORIENTED_EDGE('',*,*,#912,.F.);
#1773 = ORIENTED_EDGE('',*,*,#1425,.T.);
#1774 = ADVANCED_FACE('',(#1775),#958,.F.);
#1775 = FACE_BOUND('',#1776,.F.);
#1776 = EDGE_LOOP('',(#1777,#1778,#1779,#1800));
#1777 = ORIENTED_EDGE('',*,*,#1752,.T.);
#1778 = ORIENTED_EDGE('',*,*,#1548,.T.);
#1779 = ORIENTED_EDGE('',*,*,#1780,.F.);
#1780 = EDGE_CURVE('',#943,#1549,#1781,.T.);
#1781 = SURFACE_CURVE('',#1782,(#1786,#1793),.PCURVE_S1.);
#1782 = LINE('',#1783,#1784);
#1783 = CARTESIAN_POINT('',(19.4,-46.,-4.));
#1784 = VECTOR('',#1785,1.);
#1785 = DIRECTION('',(1.,-2.22044604925E-16,1.110223024625E-16));
#1786 = PCURVE('',#958,#1787);
#1787 = DEFINITIONAL_REPRESENTATION('',(#1788),#1792);
#1788 = LINE('',#1789,#1790);
#1789 = CARTESIAN_POINT('',(4.,9.860761315263E-32));
#1790 = VECTOR('',#1791,1.);
#1791 = DIRECTION('',(-2.22044604925E-16,-1.));
#1792 = ( GEOMETRIC_REPRESENTATION_CONTEXT(2) 
PARAMETRIC_REPRESENTATION_CONTEXT() REPRESENTATION_CONTEXT('2D SPACE',''
  ) );
#1793 = PCURVE('',#986,#1794);
#1794 = DEFINITIONAL_REPRESENTATION('',(#1795),#1799);
#1795 = LINE('',#1796,#1797);
#1796 = CARTESIAN_POINT('',(0.,-0.));
#1797 = VECTOR('',#1798,1.);
#1798 = DIRECTION('',(-2.22044604925E-16,-1.));
#1799 = ( GEOMETRIC_REPRESENTATION_CONTEXT(2) 
PARAMETRIC_REPRESENTATION_CONTEXT() REPRESENTATION_CONTEXT('2D SPACE',''
  ) );
#1800 = ORIENTED_EDGE('',*,*,#942,.F.);
#1801 = ADVANCED_FACE('',(#1802),#986,.F.);
#1802 = FACE_BOUND('',#1803,.F.);
#1803 = EDGE_LOOP('',(#1804,#1805,#1806,#1827));
#1804 = ORIENTED_EDGE('',*,*,#1780,.T.);
#1805 = ORIENTED_EDGE('',*,*,#1571,.T.);
#1806 = ORIENTED_EDGE('',*,*,#1807,.F.);
#1807 = EDGE_CURVE('',#971,#1572,#1808,.T.);
#1808 = SURFACE_CURVE('',#1809,(#1813,#1820),.PCURVE_S1.);
#1809 = LINE('',#1810,#1811);
#1810 = CARTESIAN_POINT('',(19.4,-4.751754545396E-15,-4.));
#1811 = VECTOR('',#1812,1.);
#1812 = DIRECTION('',(1.,-2.22044604925E-16,1.110223024625E-16));
#1813 = PCURVE('',#986,#1814);
#1814 = DEFINITIONAL_REPRESENTATION('',(#1815),#1819);
#1815 = LINE('',#1816,#1817);
#1816 = CARTESIAN_POINT('',(46.,1.109335647967E-30));
#1817 = VECTOR('',#1818,1.);
#1818 = DIRECTION('',(-2.22044604925E-16,-1.));
#1819 = ( GEOMETRIC_REPRESENTATION_CONTEXT(2) 
PARAMETRIC_REPRESENTATION_CONTEXT() REPRESENTATION_CONTEXT('2D SPACE',''
  ) );
#1820 = PCURVE('',#1014,#1821);
#1821 = DEFINITIONAL_REPRESENTATION('',(#1822),#1826);
#1822 = LINE('',#1823,#1824);
#1823 = CARTESIAN_POINT('',(0.,0.));
#1824 = VECTOR('',#1825,1.);
#1825 = DIRECTION('',(-2.22044604925E-16,-1.));
#1826 = ( GEOMETRIC_REPRESENTATION_CONTEXT(2) 
PARAMETRIC_REPRESENTATION_CONTEXT() REPRESENTATION_CONTEXT('2D SPACE',''
  ) );
#1827 = ORIENTED_EDGE('',*,*,#970,.F.);
#1828 = ADVANCED_FACE('',(#1829),#1014,.F.);
#1829 = FACE_BOUND('',#1830,.F.);
#1830 = EDGE_LOOP('',(#1831,#1832,#1833,#1854));
#1831 = ORIENTED_EDGE('',*,*,#1807,.T.);
#1832 = ORIENTED_EDGE('',*,*,#1594,.T.);
#1833 = ORIENTED_EDGE('',*,*,#1834,.F.);
#1834 = EDGE_CURVE('',#999,#1595,#1835,.T.);
#1835 = SURFACE_CURVE('',#1836,(#1840,#1847),.PCURVE_S1.);
#1836 = LINE('',#1837,#1838);
#1837 = CARTESIAN_POINT('',(19.4,-4.307665335546E-15,2.153832667773E-15)
  );
#1838 = VECTOR('',#1839,1.);
#1839 = DIRECTION('',(1.,-2.22044604925E-16,1.110223024625E-16));
#1840 = PCURVE('',#1014,#1841);
#1841 = DEFINITIONAL_REPRESENTATION('',(#1842),#1846);
#1842 = LINE('',#1843,#1844);
#1843 = CARTESIAN_POINT('',(4.,-1.33226762955E-15));
#1844 = VECTOR('',#1845,1.);
#1845 = DIRECTION('',(-2.22044604925E-16,-1.));
#1846 = ( GEOMETRIC_REPRESENTATION_CONTEXT(2) 
PARAMETRIC_REPRESENTATION_CONTEXT() REPRESENTATION_CONTEXT('2D SPACE',''
  ) );
#1847 = PCURVE('',#1139,#1848);
#1848 = DEFINITIONAL_REPRESENTATION('',(#1849),#1853);
#1849 = LINE('',#1850,#1851);
#1850 = CARTESIAN_POINT('',(0.,0.));
#1851 = VECTOR('',#1852,1.);
#1852 = DIRECTION('',(-2.22044604925E-16,-1.));
#1853 = ( GEOMETRIC_REPRESENTATION_CONTEXT(2) 
PARAMETRIC_REPRESENTATION_CONTEXT() REPRESENTATION_CONTEXT('2D SPACE',''
  ) );
#1854 = ORIENTED_EDGE('',*,*,#998,.F.);
#1855 = ADVANCED_FACE('',(#1856),#1139,.F.);
#1856 = FACE_BOUND('',#1857,.F.);
#1857 = EDGE_LOOP('',(#1858,#1859,#1860,#1861));
#1858 = ORIENTED_EDGE('',*,*,#1834,.T.);
#1859 = ORIENTED_EDGE('',*,*,#1617,.T.);
#1860 = ORIENTED_EDGE('',*,*,#1226,.F.);
#1861 = ORIENTED_EDGE('',*,*,#1125,.F.);
#1862 = ADVANCED_FACE('',(#1863),#1191,.T.);
#1863 = FACE_BOUND('',#1864,.T.);
#1864 = EDGE_LOOP('',(#1865,#1886,#1887,#1888));
#1865 = ORIENTED_EDGE('',*,*,#1866,.T.);
#1866 = EDGE_CURVE('',#1254,#1640,#1867,.T.);
#1867 = SURFACE_CURVE('',#1868,(#1872,#1879),.PCURVE_S1.);
#1868 = LINE('',#1869,#1870);
#1869 = CARTESIAN_POINT('',(19.4,-4.,5.));
#1870 = VECTOR('',#1871,1.);
#1871 = DIRECTION('',(1.,-2.22044604925E-16,1.110223024625E-16));
#1872 = PCURVE('',#1191,#1873);
#1873 = DEFINITIONAL_REPRESENTATION('',(#1874),#1878);
#1874 = LINE('',#1875,#1876);
#1875 = CARTESIAN_POINT('',(0.,0.));
#1876 = VECTOR('',#1877,1.);
#1877 = DIRECTION('',(-2.22044604925E-16,-1.));
#1878 = ( GEOMETRIC_REPRESENTATION_CONTEXT(2) 
PARAMETRIC_REPRESENTATION_CONTEXT() REPRESENTATION_CONTEXT('2D SPACE',''
  ) );
#1879 = PCURVE('',#1678,#1880);
#1880 = DEFINITIONAL_REPRESENTATION('',(#1881),#1885);
#1881 = LINE('',#1882,#1883);
#1882 = CARTESIAN_POINT('',(3.475,5.577493118945E-32));
#1883 = VECTOR('',#1884,1.);
#1884 = DIRECTION('',(-2.22044604925E-16,-1.));
#1885 = ( GEOMETRIC_REPRESENTATION_CONTEXT(2) 
PARAMETRIC_REPRESENTATION_CONTEXT() REPRESENTATION_CONTEXT('2D SPACE',''
  ) );
#1886 = ORIENTED_EDGE('',*,*,#1639,.T.);
#1887 = ORIENTED_EDGE('',*,*,#1175,.F.);
#1888 = ORIENTED_EDGE('',*,*,#1281,.F.);
#1889 = ADVANCED_FACE('',(#1890),#1269,.T.);
#1890 = FACE_BOUND('',#1891,.T.);
#1891 = EDGE_LOOP('',(#1892,#1893,#1914,#1915));
#1892 = ORIENTED_EDGE('',*,*,#1351,.T.);
#1893 = ORIENTED_EDGE('',*,*,#1894,.T.);
#1894 = EDGE_CURVE('',#1329,#1254,#1895,.T.);
#1895 = SURFACE_CURVE('',#1896,(#1900,#1907),.PCURVE_S1.);
#1896 = LINE('',#1897,#1898);
#1897 = CARTESIAN_POINT('',(19.4,-7.475,5.));
#1898 = VECTOR('',#1899,1.);
#1899 = DIRECTION('',(-6.661338147751E-16,1.,-1.665334536938E-15));
#1900 = PCURVE('',#1269,#1901);
#1901 = DEFINITIONAL_REPRESENTATION('',(#1902),#1906);
#1902 = LINE('',#1903,#1904);
#1903 = CARTESIAN_POINT('',(-1.736388810514E-14,-19.4));
#1904 = VECTOR('',#1905,1.);
#1905 = DIRECTION('',(1.,1.110223024625E-15));
#1906 = ( GEOMETRIC_REPRESENTATION_CONTEXT(2) 
PARAMETRIC_REPRESENTATION_CONTEXT() REPRESENTATION_CONTEXT('2D SPACE',''
  ) );
#1907 = PCURVE('',#1678,#1908);
#1908 = DEFINITIONAL_REPRESENTATION('',(#1909),#1913);
#1909 = LINE('',#1910,#1911);
#1910 = CARTESIAN_POINT('',(-2.22044604925E-14,-4.263256414561E-14));
#1911 = VECTOR('',#1912,1.);
#1912 = DIRECTION('',(1.,6.661338147751E-16));
#1913 = ( GEOMETRIC_REPRESENTATION_CONTEXT(2) 
PARAMETRIC_REPRESENTATION_CONTEXT() REPRESENTATION_CONTEXT('2D SPACE',''
  ) );
#1914 = ORIENTED_EDGE('',*,*,#1251,.F.);
#1915 = ORIENTED_EDGE('',*,*,#1400,.F.);
#1916 = ADVANCED_FACE('',(#1917),#1678,.T.);
#1917 = FACE_BOUND('',#1918,.T.);
#1918 = EDGE_LOOP('',(#1919,#1920,#1921,#1922));
#1919 = ORIENTED_EDGE('',*,*,#1716,.T.);
#1920 = ORIENTED_EDGE('',*,*,#1662,.T.);
#1921 = ORIENTED_EDGE('',*,*,#1866,.F.);
#1922 = ORIENTED_EDGE('',*,*,#1894,.F.);
#1923 = ( GEOMETRIC_REPRESENTATION_CONTEXT(3) 
GLOBAL_UNCERTAINTY_ASSIGNED_CONTEXT((#1927)) 
GLOBAL_UNIT_ASSIGNED_CONTEXT((#1924,#1925,#1926)) REPRESENTATION_CONTEXT
('Context #1','3D Context with UNIT and UNCERTAINTY') );
#1924 = ( LENGTH_UNIT() NAMED_UNIT(*) SI_UNIT(.MILLI.,.METRE.) );
#1925 = ( NAMED_UNIT(*) PLANE_ANGLE_UNIT() SI_UNIT($,.RADIAN.) );
#1926 = ( NAMED_UNIT(*) SI_UNIT($,.STERADIAN.) SOLID_ANGLE_UNIT() );
#1927 = UNCERTAINTY_MEASURE_WITH_UNIT(LENGTH_MEASURE(1.E-07),#1924,
  'distance_accuracy_value','confusion accuracy');
#1928 = PRODUCT_RELATED_PRODUCT_CATEGORY('part',$,(#7));
#1929 = MECHANICAL_DESIGN_GEOMETRIC_PRESENTATION_REPRESENTATION('',(
    #1930),#1923);
#1930 = STYLED_ITEM('color',(#1931),#15);
#1931 = PRESENTATION_STYLE_ASSIGNMENT((#1932,#1940));
#1932 = SURFACE_STYLE_USAGE(.BOTH.,#1933);
#1933 = SURFACE_SIDE_STYLE('',(#1934,#1938));
#1934 = SURFACE_STYLE_FILL_AREA(#1935);
#1935 = FILL_AREA_STYLE('',(#1936));
#1936 = FILL_AREA_STYLE_COLOUR('',#1937);
#1937 = COLOUR_RGB('',0.447058818107,0.474509808674,0.501960817233);
#1938 = SURFACE_STYLE_RENDERING_WITH_PROPERTIES(.NORMAL_SHADING.,#1937,(
    #1939));
#1939 = SURFACE_STYLE_TRANSPARENT(0.699999988079);
#1940 = CURVE_STYLE('',#1941,POSITIVE_LENGTH_MEASURE(0.1),#1942);
#1941 = DRAUGHTING_PRE_DEFINED_CURVE_FONT('continuous');
#1942 = COLOUR_RGB('',9.803921802644E-02,9.803921802644E-02,
  9.803921802644E-02);
ENDSEC;
END-ISO-10303-21;
